<svg width="312" height="220" viewBox="0 0 312 220" fill="none" xmlns="http://www.w3.org/2000/svg">
<g clip-path="url(#clip0_263_23495)">
<g opacity="0.32">
<line y1="-0.5" x2="220.239" y2="-0.5" transform="matrix(0.866025 -0.5 0.866025 0.5 -32.5609 154.075)" stroke="#4D708B"/>
<line y1="-0.5" x2="213.761" y2="-0.5" transform="matrix(0.866025 0.5 -0.866026 0.5 111.891 44.7649)" stroke="#4D708B"/>
<line y1="-0.5" x2="220.239" y2="-0.5" transform="matrix(0.866025 -0.5 0.866025 0.5 -4.51202 170.269)" stroke="#4D708B"/>
<line y1="-0.5" x2="213.761" y2="-0.5" transform="matrix(0.866025 0.5 -0.866026 0.5 83.842 60.9589)" stroke="#4D708B"/>
<line y1="-0.5" x2="220.239" y2="-0.5" transform="matrix(0.866025 -0.5 0.866025 0.5 23.5369 186.463)" stroke="#4D708B"/>
<line y1="-0.5" x2="213.761" y2="-0.5" transform="matrix(0.866025 0.5 -0.866026 0.5 55.7931 77.153)" stroke="#4D708B"/>
<line y1="-0.5" x2="220.239" y2="-0.5" transform="matrix(0.866025 -0.5 0.866025 0.5 51.5858 202.657)" stroke="#4D708B"/>
<line y1="-0.5" x2="213.761" y2="-0.5" transform="matrix(0.866025 0.5 -0.866026 0.5 27.7442 93.347)" stroke="#4D708B"/>
<line y1="-0.5" x2="220.239" y2="-0.5" transform="matrix(0.866025 -0.5 0.866025 0.5 79.6346 218.851)" stroke="#4D708B"/>
<line y1="-0.5" x2="213.761" y2="-0.5" transform="matrix(0.866025 0.5 -0.866026 0.5 -0.304688 109.541)" stroke="#4D708B"/>
<line y1="-0.5" x2="220.239" y2="-0.5" transform="matrix(0.866025 -0.5 0.866025 0.5 107.684 235.045)" stroke="#4D708B"/>
<line y1="-0.5" x2="213.761" y2="-0.5" transform="matrix(0.866025 0.5 -0.866026 0.5 -28.3536 125.735)" stroke="#4D708B"/>
</g>
<g clip-path="url(#clip1_263_23495)">
<path d="M19.0001 135.438V139.011C19.0001 146.441 23.9592 153.85 33.7672 159.484C53.4712 170.838 85.6281 170.772 105.442 159.352C115.405 153.609 120.386 146.047 120.342 138.529V134.956C120.342 142.474 115.427 150.036 105.464 155.779C85.6281 167.199 53.4933 167.265 33.7672 155.911C23.9592 150.277 19.0442 142.869 19.0001 135.438Z" fill="#1E3440"/>
<path d="M33.9875 114.549C14.1511 125.947 14.0409 144.469 33.745 155.845C53.4491 167.221 85.606 167.243 105.442 155.845C125.279 144.447 125.279 125.947 105.685 114.549C86.0909 103.151 53.8238 103.238 33.9875 114.549ZM110.776 125.925L53.4712 158.804C48.1894 157.692 43.1068 155.793 38.3956 153.171C21.2481 143.263 21.3583 127.152 38.5939 117.245C55.8295 107.337 83.7987 107.337 100.946 117.245C104.835 119.391 108.182 122.389 110.732 126.013" fill="#2C4656"/>
<path d="M38.5719 117.289C21.3363 127.24 21.2922 143.351 38.4396 153.215C43.1471 155.828 48.2211 157.727 53.4932 158.848L110.798 125.859C108.245 122.23 104.89 119.231 100.99 117.091C83.7767 107.315 55.8074 107.359 38.5719 117.289Z" fill="#1E3440"/>
<path d="M70.1172 138.641C73.6192 138.641 76.4687 136.999 76.4687 134.981C76.4687 132.963 70.1172 124.626 70.1172 124.626C70.1172 124.626 63.7658 132.963 63.7658 134.981C63.7658 136.999 66.6153 138.641 70.1172 138.641Z" fill="#B5FBCE"/>
<path d="M47.6616 122.038C53.8526 118.47 61.9849 116.686 70.1172 116.686L70.1172 121.564C64.1535 121.564 58.1898 122.873 53.6498 125.489C44.5696 130.722 44.5696 139.236 53.6498 144.469L47.6616 147.92C35.2796 140.784 35.2796 129.174 47.6616 122.038Z" fill="#65D58D"/>
<path d="M92.5727 122.038L86.5846 125.489C82.0445 122.872 76.0808 121.564 70.1171 121.564L70.1171 116.686C78.2494 116.686 86.3817 118.47 92.5727 122.038Z" fill="#2C4656"/>
<path d="M81.0495 148.717L98.4661 138.662L105.264 142.604L87.8071 152.74L81.0495 148.717Z" fill="#1E3440"/>
</g>
<g clip-path="url(#clip2_263_23495)">
<path d="M207.941 94.8936L153.86 63.5545C153.449 63.2537 152.965 63.0699 152.458 63.0228C151.952 62.9756 151.442 63.0669 150.983 63.2868L148.296 64.8547C148.755 64.6348 149.265 64.5436 149.771 64.5907C150.278 64.6378 150.762 64.8215 151.173 65.1224L205.254 96.4615C206.435 97.2252 207.417 98.26 208.119 99.4803C208.822 100.701 209.225 102.071 209.294 103.479L209.18 147.113C209.234 147.617 209.151 148.128 208.94 148.589C208.728 149.05 208.396 149.445 207.979 149.732L210.666 148.164C211.083 147.877 211.415 147.482 211.627 147.021C211.838 146.56 211.921 146.05 211.867 145.545L211.981 101.911C211.911 100.503 211.509 99.1327 210.806 97.9124C210.104 96.6921 209.122 95.6573 207.941 94.8936Z" fill="#2C4656"/>
<path d="M197.651 103.479L196.755 106.519L192.944 104.244C193.109 104.553 193.256 104.872 193.382 105.2C193.773 106.25 194.048 107.34 194.202 108.45L197.708 110.477L196.831 113.479L194.202 111.969C194.111 112.708 193.878 113.422 193.516 114.072C193.266 114.538 192.898 114.929 192.45 115.208C192.002 115.486 191.489 115.642 190.962 115.659C189.343 115.662 187.755 115.219 186.37 114.378H186.255L194.278 130.42L194.278 130.669L189.781 128.068L180.996 110.592L180.996 107.819L185.379 110.362C186.212 110.905 187.156 111.252 188.142 111.376C188.465 111.42 188.795 111.38 189.099 111.259C189.402 111.139 189.67 110.942 189.876 110.687C190.085 110.402 190.235 110.077 190.314 109.731L180.786 104.167L181.663 101.165L190.314 106.156C190.103 105.33 189.776 104.538 189.342 103.804C188.419 102.268 187.103 101.007 185.531 100.152L180.843 97.4367L181.758 94.1862L184.979 96.0982L185.55 96.4233L197.651 103.479Z" fill="#B5FBCE"/>
<path d="M205.254 96.4616C206.435 97.2252 207.417 98.26 208.119 99.4804C208.822 100.701 209.225 102.071 209.294 103.479L209.18 147.113C209.18 149.694 207.274 150.746 205.102 149.465L151.021 118.125C149.845 117.354 148.867 116.315 148.168 115.092C147.469 113.869 147.069 112.497 147 111.089L147 93.8802L168.629 106.404L168.629 97.0543L146.981 84.511L146.981 67.3022C146.981 64.7209 148.887 63.6884 151.04 64.9695L205.254 96.4616ZM193.211 105.2C193.084 104.872 192.938 104.553 192.773 104.244L196.584 106.519L197.479 103.479L185.131 96.3277L184.559 96.0027L181.339 94.0906L180.424 97.3411L185.112 100.056C186.684 100.912 187.999 102.172 188.923 103.708C189.357 104.442 189.684 105.234 189.895 106.06L181.244 101.07L180.367 104.072L189.895 109.636C189.815 109.981 189.666 110.306 189.457 110.592C189.251 110.846 188.983 111.043 188.679 111.163C188.376 111.284 188.046 111.324 187.723 111.28C186.737 111.156 185.792 110.81 184.96 110.267L180.577 107.724L180.577 110.496L189.362 127.973L193.859 130.573L193.859 130.325L185.836 114.282H185.95C187.336 115.123 188.924 115.566 190.543 115.563C191.07 115.546 191.583 115.391 192.031 115.112C192.479 114.834 192.847 114.442 193.096 113.976C193.459 113.327 193.692 112.612 193.782 111.873L196.412 113.384L197.289 110.382L193.782 108.355C193.629 107.244 193.354 106.154 192.963 105.104" fill="#1E3440"/>
<path d="M168.705 97.1308L168.686 106.481L147.057 93.9376L147.076 84.5875L168.705 97.1308Z" fill="#65D58D"/>
</g>
</g>
<defs>
<clipPath id="clip0_263_23495">
<rect width="312" height="220" fill="white"/>
</clipPath>
<clipPath id="clip1_263_23495">
<rect width="101.364" height="61.9444" fill="white" transform="matrix(-1 0 0 1 120.364 106)"/>
</clipPath>
<clipPath id="clip2_263_23495">
<rect width="65" height="87" fill="white" transform="translate(147 63)"/>
</clipPath>
</defs>
</svg>
