<svg width="312" height="220" viewBox="0 0 312 220" fill="none" xmlns="http://www.w3.org/2000/svg">
<g clip-path="url(#clip0_263_23436)">
<g opacity="0.32">
<line y1="-0.5" x2="220.239" y2="-0.5" transform="matrix(0.866025 -0.5 0.866025 0.5 -32.5609 143.075)" stroke="#4D708B"/>
<line y1="-0.5" x2="213.761" y2="-0.5" transform="matrix(0.866025 0.5 -0.866026 0.5 111.891 33.7649)" stroke="#4D708B"/>
<line y1="-0.5" x2="220.239" y2="-0.5" transform="matrix(0.866025 -0.5 0.866025 0.5 -4.51196 159.269)" stroke="#4D708B"/>
<line y1="-0.5" x2="213.761" y2="-0.5" transform="matrix(0.866025 0.5 -0.866026 0.5 83.842 49.9589)" stroke="#4D708B"/>
<line y1="-0.5" x2="220.239" y2="-0.5" transform="matrix(0.866025 -0.5 0.866025 0.5 23.5369 175.463)" stroke="#4D708B"/>
<line y1="-0.5" x2="213.761" y2="-0.5" transform="matrix(0.866025 0.5 -0.866026 0.5 55.7931 66.153)" stroke="#4D708B"/>
<line y1="-0.5" x2="220.239" y2="-0.5" transform="matrix(0.866025 -0.5 0.866025 0.5 51.5858 191.657)" stroke="#4D708B"/>
<line y1="-0.5" x2="213.761" y2="-0.5" transform="matrix(0.866025 0.5 -0.866026 0.5 27.7441 82.347)" stroke="#4D708B"/>
<line y1="-0.5" x2="220.239" y2="-0.5" transform="matrix(0.866025 -0.5 0.866025 0.5 79.6346 207.851)" stroke="#4D708B"/>
<line y1="-0.5" x2="213.761" y2="-0.5" transform="matrix(0.866025 0.5 -0.866026 0.5 -0.304688 98.541)" stroke="#4D708B"/>
<line y1="-0.5" x2="220.239" y2="-0.5" transform="matrix(0.866025 -0.5 0.866025 0.5 107.683 224.045)" stroke="#4D708B"/>
<line y1="-0.5" x2="213.761" y2="-0.5" transform="matrix(0.866025 0.5 -0.866026 0.5 -28.3535 114.735)" stroke="#4D708B"/>
</g>
<g clip-path="url(#clip1_263_23436)">
<path d="M2.98092 123.75L3.05903 132.151C3.09223 132.532 3.22818 132.896 3.45234 133.206C3.67649 133.515 3.98042 133.758 4.33159 133.908L16.6879 140.97L16.6092 132.501L4.25316 125.473C3.9088 125.323 3.60993 125.084 3.3866 124.782C3.16327 124.48 3.02336 124.124 2.98092 123.75Z" fill="#1E3440"/>
<path d="M16.6092 132.501L16.6876 140.936L63.0407 167.411C63.9973 167.886 65.0523 168.129 66.1199 168.119C67.1876 168.109 68.2379 167.847 69.1855 167.354L133.782 129.337C134.129 129.169 134.426 128.913 134.643 128.595C134.86 128.276 134.991 127.907 135.022 127.522L134.941 118.883C134.975 119.051 134.977 119.225 134.946 119.393C134.723 119.955 134.306 120.418 133.77 120.697L69.207 158.714C68.2551 159.212 67.1987 159.477 66.1246 159.487C65.0504 159.497 63.9893 159.252 63.0283 158.771L16.6092 132.501Z" fill="#72CCA3"/>
<path d="M87.3163 90.7193L133.635 117.127C134.693 117.729 135.108 118.576 134.844 119.394C134.621 119.956 134.204 120.419 133.668 120.698L69.1051 158.715C68.1532 159.213 67.0968 159.478 66.0227 159.488C64.9486 159.498 63.8874 159.253 62.9264 158.772L16.6079 132.365L87.3163 90.7193Z" fill="#B5FBCE"/>
<path d="M93.9385 118.768L110.458 127.615L126.937 118.461L110.417 109.614L93.9385 118.768Z" fill="#5CC993"/>
<path d="M46.6371 90.2132L46.7152 98.6142C46.7368 98.8053 46.8087 98.9874 46.9235 99.1416C47.0382 99.2959 47.1918 99.417 47.3684 99.4925L52.0105 102.137L51.9324 93.7355L47.2903 91.0915C47.1136 91.016 46.9601 90.8949 46.8454 90.7407C46.7306 90.5864 46.6587 90.4044 46.6371 90.2132Z" fill="#20333E"/>
<path d="M47.2739 89.3229C46.4296 89.8069 46.4032 90.6235 47.2903 91.0915L51.9324 93.7355L59.6467 98.1538C60.1272 98.3942 60.6578 98.5169 61.1948 98.5119C61.7319 98.5069 62.2601 98.3743 62.736 98.1251L65.8087 96.2937C65.9958 96.2278 66.1577 96.1049 66.2716 95.9422C66.3855 95.7795 66.4457 95.5851 66.4439 95.3864C66.442 95.1877 66.3782 94.9945 66.2613 94.8339C66.1443 94.6734 65.9802 94.5535 65.7919 94.4911L58.078 90.1068L53.4359 87.4628C52.9598 87.228 52.4354 87.1082 51.9048 87.1132C51.3742 87.1181 50.8521 87.2476 50.3805 87.4912L47.2739 89.3229Z" fill="#20333E"/>
<path d="M9.7302 112.02L9.80705 120.285C9.82519 120.477 9.89572 120.661 10.0109 120.816C10.1261 120.971 10.2816 121.091 10.4603 121.163L15.0684 123.807L14.9916 115.543L10.3495 112.898C10.1811 112.816 10.0362 112.692 9.92797 112.538C9.81977 112.385 9.75176 112.207 9.7302 112.02Z" fill="#20333E"/>
<path d="M10.3667 111.096C10.1795 111.161 10.0176 111.284 9.90373 111.447C9.78982 111.61 9.72956 111.804 9.73141 112.003C9.73326 112.202 9.79712 112.395 9.91403 112.555C10.031 112.716 10.1951 112.836 10.3834 112.898L15.0255 115.542L22.7394 119.926C23.2199 120.167 23.7505 120.29 24.2876 120.285C24.8246 120.28 25.3528 120.147 25.8288 119.898L28.9696 118.1C29.8136 117.582 29.806 116.765 28.9529 116.297L21.2389 111.913L16.5969 109.269C16.1163 109.028 15.5858 108.906 15.0487 108.911C14.5116 108.916 13.9835 109.048 13.5075 109.298L10.3667 111.096Z" fill="#20333E"/>
<path d="M4.25383 121.901C2.56555 122.903 2.54646 124.502 4.28704 125.472L16.643 132.501L87.3163 90.7193L74.9603 83.691C74.0037 83.2159 72.9487 82.9734 71.881 82.9833C70.8134 82.9933 69.7631 83.2553 68.8155 83.7482L58.0439 90.1071L65.7578 94.4914C65.9462 94.5538 66.1103 94.6737 66.2272 94.8342C66.3441 94.9948 66.408 95.188 66.4098 95.3867C66.4117 95.5854 66.3514 95.7798 66.2375 95.9425C66.1236 96.1052 65.9617 96.2281 65.7746 96.294L62.702 98.1254C62.226 98.3746 61.6978 98.5072 61.1608 98.5122C60.6237 98.5172 60.0931 98.3945 59.6126 98.1541L51.8984 93.7358L21.171 111.913L28.9528 116.297C29.806 116.765 29.8136 117.582 28.9696 118.1L25.8966 119.897C25.4207 120.146 24.8925 120.279 24.3554 120.284C23.8184 120.289 23.2878 120.166 22.8073 119.926L15.0933 115.542L4.25383 121.901Z" fill="#2C4656"/>
</g>
<g clip-path="url(#clip2_263_23436)">
<path d="M187.171 131.689C187.039 131.731 186.923 131.815 186.841 131.928C186.759 132.04 186.715 132.176 186.715 132.316C186.715 132.455 186.759 132.591 186.841 132.704C186.923 132.817 187.039 132.9 187.171 132.942C187.491 133.092 187.84 133.169 188.193 133.169C188.546 133.169 188.895 133.092 189.215 132.942L203.136 124.909C203.269 124.867 203.384 124.784 203.466 124.671C203.548 124.558 203.592 124.422 203.592 124.283C203.592 124.143 203.548 124.007 203.466 123.894C203.384 123.782 203.269 123.698 203.136 123.656C202.816 123.507 202.467 123.43 202.114 123.43C201.761 123.43 201.412 123.507 201.092 123.656L187.171 131.689Z" fill="#2C4656"/>
<path d="M179.71 136.024C179.577 136.067 179.462 136.15 179.38 136.263C179.298 136.375 179.253 136.511 179.253 136.651C179.253 136.791 179.298 136.927 179.38 137.039C179.462 137.152 179.577 137.235 179.71 137.278C180.03 137.427 180.379 137.504 180.732 137.504C181.085 137.504 181.433 137.427 181.754 137.278L183.798 136.024C184.391 135.696 184.391 135.141 183.798 134.792C183.48 134.632 183.131 134.55 182.776 134.55C182.421 134.55 182.071 134.632 181.754 134.792L179.71 136.024Z" fill="#2C4656"/>
<path d="M195.654 136.661C195.529 136.708 195.421 136.792 195.345 136.902C195.269 137.012 195.228 137.143 195.228 137.278C195.228 137.412 195.269 137.543 195.345 137.653C195.421 137.763 195.529 137.847 195.654 137.894C195.973 138.049 196.323 138.129 196.677 138.129C197.03 138.129 197.38 138.049 197.699 137.894L211.661 129.84C212.253 129.491 212.274 128.936 211.661 128.587C211.327 128.42 210.96 128.334 210.587 128.334C210.215 128.334 209.848 128.42 209.514 128.587L195.654 136.661Z" fill="#2C4656"/>
<path d="M188.193 140.996C188.068 141.043 187.96 141.127 187.884 141.237C187.807 141.347 187.766 141.478 187.766 141.613C187.766 141.747 187.807 141.878 187.884 141.988C187.96 142.098 188.068 142.182 188.193 142.229C188.512 142.384 188.861 142.464 189.215 142.464C189.569 142.464 189.918 142.384 190.237 142.229L192.384 140.996C192.516 140.954 192.632 140.871 192.714 140.758C192.796 140.645 192.84 140.509 192.84 140.37C192.84 140.23 192.796 140.094 192.714 139.981C192.632 139.869 192.516 139.785 192.384 139.743C192.049 139.581 191.682 139.497 191.31 139.497C190.939 139.497 190.572 139.581 190.237 139.743L188.193 140.996Z" fill="#2C4656"/>
<path d="M204.158 141.613C204.033 141.659 203.925 141.743 203.849 141.854C203.773 141.964 203.732 142.095 203.732 142.229C203.732 142.363 203.773 142.494 203.849 142.604C203.925 142.715 204.033 142.799 204.158 142.845C204.476 143.005 204.826 143.087 205.18 143.087C205.535 143.087 205.885 143.005 206.203 142.845L220.083 134.792C220.676 134.442 220.676 133.888 220.083 133.559C219.751 133.386 219.383 133.296 219.01 133.296C218.636 133.296 218.268 133.386 217.936 133.559L204.158 141.613Z" fill="#2C4656"/>
<path d="M196.677 145.948C196.551 145.994 196.443 146.079 196.367 146.189C196.291 146.299 196.25 146.43 196.25 146.564C196.25 146.698 196.291 146.829 196.367 146.939C196.443 147.05 196.551 147.134 196.677 147.18C196.994 147.34 197.344 147.422 197.699 147.422C198.053 147.422 198.403 147.34 198.721 147.18L200.765 145.948C200.897 145.905 201.013 145.822 201.095 145.709C201.177 145.597 201.221 145.461 201.221 145.321C201.221 145.181 201.177 145.046 201.095 144.933C201.013 144.82 200.897 144.737 200.765 144.694C200.431 144.528 200.064 144.441 199.692 144.441C199.319 144.441 198.952 144.528 198.619 144.694L196.677 145.948Z" fill="#2C4656"/>
<path d="M233.104 139.866V144.797L242.753 143.688C243.041 143.645 243.319 143.547 243.571 143.4C243.747 143.333 243.902 143.219 244.021 143.071C244.039 142.99 244.039 142.906 244.021 142.825V137.894C244.039 137.975 244.039 138.059 244.021 138.14C243.937 138.297 243.809 138.426 243.653 138.51C243.411 138.641 243.148 138.725 242.876 138.757L233.104 139.866Z" fill="#DBE1E6"/>
<path d="M231.142 145.496L231.162 150.427L233.125 144.797L233.104 139.866L231.142 145.496Z" fill="#8897A2"/>
<path d="M220.308 147.304V152.235L229.956 151.125C230.235 151.093 230.505 151.009 230.754 150.879C230.935 150.776 231.078 150.618 231.162 150.427V145.455C231.085 145.65 230.94 145.811 230.754 145.907C230.505 146.037 230.235 146.121 229.956 146.153L220.308 147.304Z" fill="#DBE1E6"/>
<path d="M218.325 152.933L218.345 157.864L220.308 152.235L220.287 147.324L218.325 152.933Z" fill="#8897A2"/>
<path d="M207.47 154.741V159.672L217.139 158.542C217.407 158.523 217.667 158.438 217.895 158.295C218.09 158.214 218.244 158.059 218.325 157.864V152.933C218.247 153.123 218.101 153.277 217.916 153.365C217.68 153.507 217.414 153.592 217.139 153.611L207.47 154.741Z" fill="#DBE1E6"/>
<path d="M205.528 160.371V165.301L207.49 159.672V154.741L205.528 160.371Z" fill="#8897A2"/>
<path d="M158 134.175V139.106C158.006 139.239 158.049 139.368 158.125 139.477C158.201 139.587 158.307 139.672 158.429 139.722L202.993 165.753C203.462 165.983 203.993 166.055 204.506 165.959C204.721 165.928 204.929 165.859 205.119 165.753C205.301 165.652 205.445 165.493 205.528 165.301V160.371C205.436 160.563 205.286 160.721 205.099 160.823C204.908 160.928 204.7 160.997 204.485 161.028C203.972 161.124 203.442 161.052 202.973 160.823L158.429 134.792C158.307 134.741 158.201 134.656 158.125 134.546C158.049 134.437 158.006 134.308 158 134.175Z" fill="#DBE1E6"/>
<path d="M158.429 133.559C158.304 133.606 158.196 133.69 158.12 133.8C158.044 133.91 158.003 134.041 158.003 134.175C158.003 134.309 158.044 134.44 158.12 134.551C158.196 134.661 158.304 134.745 158.429 134.792L202.973 160.823C203.439 161.061 203.973 161.134 204.485 161.028C204.7 160.997 204.908 160.928 205.099 160.823C205.291 160.728 205.443 160.568 205.528 160.371L207.572 154.741L217.139 153.673C217.412 153.66 217.678 153.582 217.916 153.447C218.098 153.346 218.242 153.187 218.325 152.995L220.369 147.365L230.038 146.256C230.311 146.227 230.575 146.143 230.815 146.009C230.985 145.869 231.101 145.672 231.142 145.455L233.186 139.825L242.855 138.716C243.127 138.684 243.391 138.6 243.632 138.469C243.788 138.385 243.916 138.256 244 138.099C244.163 137.791 244 137.462 243.632 137.236L199.048 111.247C198.727 111.097 198.379 111.02 198.026 111.02C197.673 111.02 197.324 111.097 197.004 111.247L158.429 133.559ZM189.297 132.942C188.977 133.092 188.628 133.169 188.275 133.169C187.922 133.169 187.573 133.092 187.253 132.942C187.12 132.9 187.005 132.817 186.923 132.704C186.841 132.591 186.796 132.455 186.796 132.316C186.796 132.176 186.841 132.04 186.923 131.928C187.005 131.815 187.12 131.731 187.253 131.689L201.092 123.635C201.412 123.486 201.761 123.409 202.114 123.409C202.467 123.409 202.816 123.486 203.136 123.635C203.277 123.672 203.402 123.754 203.491 123.869C203.58 123.985 203.628 124.126 203.628 124.272C203.628 124.418 203.58 124.56 203.491 124.675C203.402 124.791 203.277 124.873 203.136 124.909L189.256 132.963L189.297 132.942ZM197.739 137.914C197.421 138.069 197.071 138.149 196.717 138.149C196.363 138.149 196.014 138.069 195.695 137.914C195.57 137.868 195.462 137.784 195.386 137.673C195.31 137.563 195.269 137.432 195.269 137.298C195.269 137.164 195.31 137.033 195.386 136.923C195.462 136.813 195.57 136.728 195.695 136.682L209.535 128.607C209.868 128.441 210.235 128.354 210.608 128.354C210.98 128.354 211.347 128.441 211.681 128.607C212.274 128.957 212.253 129.511 211.681 129.861L197.801 137.914H197.739ZM206.284 142.866C205.967 143.025 205.617 143.108 205.262 143.108C204.907 143.108 204.557 143.025 204.24 142.866C204.115 142.819 204.007 142.735 203.931 142.625C203.854 142.515 203.814 142.384 203.814 142.25C203.814 142.115 203.854 141.984 203.931 141.874C204.007 141.764 204.115 141.68 204.24 141.633L218.1 133.579C218.431 133.406 218.799 133.316 219.173 133.316C219.547 133.316 219.915 133.406 220.246 133.579C220.819 133.908 220.819 134.463 220.246 134.812L206.366 142.866H206.284ZM181.835 137.298C181.515 137.447 181.166 137.524 180.813 137.524C180.46 137.524 180.112 137.447 179.791 137.298C179.659 137.256 179.543 137.172 179.461 137.06C179.379 136.947 179.335 136.811 179.335 136.671C179.335 136.532 179.379 136.396 179.461 136.283C179.543 136.171 179.659 136.087 179.791 136.045L181.835 134.812C182.153 134.653 182.503 134.57 182.858 134.57C183.212 134.57 183.562 134.653 183.88 134.812C184.473 135.161 184.473 135.716 183.88 136.045L181.835 137.298ZM190.319 142.25C190 142.404 189.651 142.485 189.297 142.485C188.943 142.485 188.593 142.404 188.275 142.25C188.15 142.203 188.042 142.119 187.965 142.009C187.889 141.898 187.848 141.767 187.848 141.633C187.848 141.499 187.889 141.368 187.965 141.258C188.042 141.148 188.15 141.064 188.275 141.017L190.319 139.764C190.654 139.601 191.021 139.517 191.392 139.517C191.764 139.517 192.131 139.601 192.465 139.764C192.598 139.806 192.713 139.889 192.795 140.002C192.877 140.115 192.922 140.251 192.922 140.39C192.922 140.53 192.877 140.666 192.795 140.778C192.713 140.891 192.598 140.975 192.465 141.017L190.319 142.25ZM198.823 147.201C198.505 147.36 198.156 147.443 197.801 147.443C197.446 147.443 197.096 147.36 196.779 147.201C196.653 147.154 196.546 147.07 196.469 146.96C196.393 146.85 196.352 146.719 196.352 146.585C196.352 146.45 196.393 146.319 196.469 146.209C196.546 146.099 196.653 146.015 196.779 145.968L198.823 144.736C199.156 144.569 199.524 144.482 199.896 144.482C200.268 144.482 200.636 144.569 200.969 144.736C201.102 144.778 201.217 144.861 201.299 144.974C201.381 145.087 201.426 145.223 201.426 145.362C201.426 145.502 201.381 145.638 201.299 145.75C201.217 145.863 201.102 145.947 200.969 145.989L198.925 147.222" fill="white"/>
</g>
<g clip-path="url(#clip3_263_23436)">
<path d="M149.171 78.6892C149.039 78.7315 148.923 78.815 148.841 78.9276C148.759 79.0403 148.715 79.1763 148.715 79.3159C148.715 79.4555 148.759 79.5914 148.841 79.7041C148.923 79.8168 149.039 79.9002 149.171 79.9425C149.491 80.0916 149.84 80.1688 150.193 80.1688C150.546 80.1688 150.895 80.0916 151.215 79.9425L165.136 71.9092C165.269 71.867 165.384 71.7835 165.466 71.6708C165.548 71.5582 165.592 71.4222 165.592 71.2826C165.592 71.143 165.548 71.007 165.466 70.8944C165.384 70.7817 165.269 70.6982 165.136 70.656C164.816 70.5069 164.467 70.4297 164.114 70.4297C163.761 70.4297 163.412 70.5069 163.092 70.656L149.171 78.6892Z" fill="#2C4656"/>
<path d="M141.71 83.0243C141.577 83.0666 141.462 83.15 141.38 83.2627C141.298 83.3754 141.253 83.5113 141.253 83.6509C141.253 83.7905 141.298 83.9265 141.38 84.0392C141.462 84.1518 141.577 84.2353 141.71 84.2776C142.03 84.4267 142.379 84.5039 142.732 84.5039C143.085 84.5039 143.433 84.4267 143.754 84.2776L145.798 83.0243C146.391 82.6956 146.391 82.1409 145.798 81.7916C145.48 81.6324 145.131 81.5496 144.776 81.5496C144.421 81.5496 144.071 81.6324 143.754 81.7916L141.71 83.0243Z" fill="#2C4656"/>
<path d="M157.654 83.6612C157.529 83.7079 157.421 83.792 157.345 83.9022C157.269 84.0123 157.228 84.1433 157.228 84.2775C157.228 84.4118 157.269 84.5428 157.345 84.6529C157.421 84.7631 157.529 84.8472 157.654 84.8939C157.973 85.0486 158.323 85.1289 158.677 85.1289C159.03 85.1289 159.38 85.0486 159.699 84.8939L173.661 76.8401C174.253 76.4908 174.274 75.9361 173.661 75.5868C173.327 75.4203 172.96 75.3337 172.587 75.3337C172.215 75.3337 171.848 75.4203 171.514 75.5868L157.654 83.6612Z" fill="#2C4656"/>
<path d="M150.193 87.9963C150.068 88.043 149.96 88.1271 149.884 88.2373C149.807 88.3474 149.766 88.4784 149.766 88.6126C149.766 88.7469 149.807 88.8779 149.884 88.988C149.96 89.0982 150.068 89.1823 150.193 89.229C150.512 89.3837 150.861 89.464 151.215 89.464C151.569 89.464 151.918 89.3837 152.237 89.229L154.384 87.9963C154.516 87.954 154.632 87.8706 154.714 87.7579C154.796 87.6452 154.84 87.5093 154.84 87.3697C154.84 87.2301 154.796 87.0941 154.714 86.9814C154.632 86.8688 154.516 86.7853 154.384 86.743C154.049 86.581 153.682 86.4968 153.31 86.4968C152.939 86.4968 152.572 86.581 152.237 86.743L150.193 87.9963Z" fill="#2C4656"/>
<path d="M166.158 88.6127C166.033 88.6594 165.925 88.7435 165.849 88.8536C165.773 88.9638 165.732 89.0948 165.732 89.229C165.732 89.3632 165.773 89.4942 165.849 89.6044C165.925 89.7146 166.033 89.7987 166.158 89.8454C166.476 90.0046 166.826 90.0874 167.18 90.0874C167.535 90.0874 167.885 90.0046 168.203 89.8454L182.083 81.7916C182.676 81.4423 182.676 80.8876 182.083 80.5589C181.751 80.386 181.383 80.2957 181.01 80.2957C180.636 80.2957 180.268 80.386 179.936 80.5589L166.158 88.6127Z" fill="#2C4656"/>
<path d="M158.677 92.9477C158.551 92.9944 158.443 93.0785 158.367 93.1887C158.291 93.2989 158.25 93.4299 158.25 93.5641C158.25 93.6983 158.291 93.8293 158.367 93.9395C158.443 94.0496 158.551 94.1337 158.677 94.1804C158.994 94.3396 159.344 94.4225 159.699 94.4225C160.053 94.4225 160.403 94.3396 160.721 94.1804L162.765 92.9477C162.897 92.9055 163.013 92.822 163.095 92.7093C163.177 92.5967 163.221 92.4607 163.221 92.3211C163.221 92.1815 163.177 92.0455 163.095 91.9329C163.013 91.8202 162.897 91.7367 162.765 91.6945C162.431 91.5279 162.064 91.4413 161.692 91.4413C161.319 91.4413 160.952 91.5279 160.619 91.6945L158.677 92.9477Z" fill="#2C4656"/>
<path d="M195.104 86.8663V91.7972L204.753 90.6877C205.041 90.645 205.319 90.5474 205.571 90.4001C205.747 90.3326 205.902 90.2191 206.021 90.0714C206.039 89.9902 206.039 89.906 206.021 89.8248V84.8939C206.039 84.9751 206.039 85.0593 206.021 85.1405C205.937 85.2975 205.809 85.4261 205.653 85.5103C205.411 85.6411 205.148 85.7247 204.876 85.7568L195.104 86.8663Z" fill="#DBE1E6"/>
<path d="M193.142 92.4957L193.162 97.4266L195.125 91.7972L195.104 86.8663L193.142 92.4957Z" fill="#8897A2"/>
<path d="M182.308 94.3037V99.2346L191.956 98.1251C192.235 98.0927 192.505 98.0091 192.754 97.8786C192.935 97.7763 193.078 97.6177 193.162 97.4266V92.4546C193.085 92.6503 192.94 92.8111 192.754 92.9066C192.505 93.0371 192.235 93.1207 191.956 93.1531L182.308 94.3037Z" fill="#DBE1E6"/>
<path d="M180.325 99.9331L180.345 104.864L182.308 99.2346L182.287 94.3242L180.325 99.9331Z" fill="#8897A2"/>
<path d="M169.47 101.741V106.672L179.139 105.542C179.407 105.523 179.667 105.438 179.895 105.295C180.09 105.214 180.244 105.059 180.325 104.864V99.9331C180.247 100.123 180.101 100.277 179.916 100.365C179.68 100.507 179.414 100.592 179.139 100.611L169.47 101.741Z" fill="#DBE1E6"/>
<path d="M167.528 107.371V112.301L169.49 106.672V101.741L167.528 107.371Z" fill="#8897A2"/>
<path d="M120 81.1752V86.1061C120.006 86.2393 120.049 86.3681 120.125 86.4773C120.201 86.5865 120.307 86.6716 120.429 86.7224L164.993 112.753C165.462 112.983 165.993 113.055 166.506 112.959C166.721 112.928 166.929 112.859 167.119 112.753C167.301 112.652 167.445 112.493 167.528 112.301V107.371C167.436 107.563 167.286 107.721 167.099 107.823C166.908 107.928 166.7 107.997 166.485 108.028C165.972 108.124 165.442 108.052 164.973 107.823L120.429 81.7915C120.307 81.7407 120.201 81.6556 120.125 81.5464C120.049 81.4372 120.006 81.3084 120 81.1752Z" fill="#DBE1E6"/>
<path d="M120.429 80.5588C120.304 80.6055 120.196 80.6896 120.12 80.7998C120.044 80.91 120.003 81.041 120.003 81.1752C120.003 81.3094 120.044 81.4404 120.12 81.5506C120.196 81.6608 120.304 81.7449 120.429 81.7916L164.973 107.823C165.439 108.061 165.973 108.134 166.485 108.028C166.7 107.997 166.908 107.928 167.099 107.823C167.291 107.728 167.443 107.568 167.528 107.371L169.572 101.741L179.139 100.673C179.412 100.66 179.678 100.582 179.916 100.447C180.098 100.346 180.242 100.187 180.325 99.9948L182.369 94.3653L192.038 93.2559C192.311 93.2269 192.575 93.1431 192.815 93.0093C192.985 92.8687 193.101 92.6723 193.142 92.4546L195.186 86.8252L204.855 85.7157C205.127 85.6836 205.391 85.6 205.632 85.4692C205.788 85.385 205.916 85.2564 206 85.0994C206.163 84.7912 206 84.4625 205.632 84.2365L161.048 58.2465C160.727 58.0975 160.379 58.0203 160.026 58.0203C159.673 58.0203 159.324 58.0975 159.004 58.2465L120.429 80.5588ZM151.297 79.9425C150.977 80.0915 150.628 80.1688 150.275 80.1688C149.922 80.1688 149.573 80.0915 149.253 79.9425C149.12 79.9002 149.005 79.8167 148.923 79.7041C148.841 79.5914 148.796 79.4554 148.796 79.3158C148.796 79.1762 148.841 79.0403 148.923 78.9276C149.005 78.8149 149.12 78.7314 149.253 78.6892L163.092 70.6354C163.412 70.4863 163.761 70.4091 164.114 70.4091C164.467 70.4091 164.816 70.4863 165.136 70.6354C165.277 70.6716 165.402 70.7539 165.491 70.8692C165.58 70.9845 165.628 71.1263 165.628 71.2723C165.628 71.4183 165.58 71.5601 165.491 71.6755C165.402 71.7908 165.277 71.873 165.136 71.9092L151.256 79.963L151.297 79.9425ZM159.739 84.9145C159.421 85.0691 159.071 85.1495 158.717 85.1495C158.363 85.1495 158.014 85.0691 157.695 84.9145C157.57 84.8678 157.462 84.7837 157.386 84.6735C157.31 84.5633 157.269 84.4323 157.269 84.2981C157.269 84.1639 157.31 84.0329 157.386 83.9227C157.462 83.8125 157.57 83.7284 157.695 83.6817L171.535 75.6074C171.868 75.4409 172.235 75.3542 172.608 75.3542C172.98 75.3542 173.347 75.4409 173.681 75.6074C174.274 75.9567 174.253 76.5114 173.681 76.8607L159.801 84.9145H159.739ZM168.284 89.8659C167.967 90.0251 167.617 90.1079 167.262 90.1079C166.907 90.1079 166.557 90.0251 166.24 89.8659C166.115 89.8192 166.007 89.7351 165.931 89.6249C165.854 89.5147 165.814 89.3837 165.814 89.2495C165.814 89.1153 165.854 88.9843 165.931 88.8741C166.007 88.764 166.115 88.6799 166.24 88.6332L180.1 80.5794C180.431 80.4065 180.799 80.3162 181.173 80.3162C181.547 80.3162 181.915 80.4065 182.246 80.5794C182.819 80.9081 182.819 81.4628 182.246 81.8121L168.366 89.8659H168.284ZM143.835 84.2981C143.515 84.4472 143.166 84.5244 142.813 84.5244C142.46 84.5244 142.112 84.4472 141.791 84.2981C141.659 84.2559 141.543 84.1724 141.461 84.0597C141.379 83.947 141.335 83.8111 141.335 83.6715C141.335 83.5319 141.379 83.3959 141.461 83.2832C141.543 83.1706 141.659 83.0871 141.791 83.0448L143.835 81.8121C144.153 81.6529 144.503 81.5701 144.858 81.5701C145.212 81.5701 145.562 81.6529 145.88 81.8121C146.473 82.1614 146.473 82.7161 145.88 83.0448L143.835 84.2981ZM152.319 89.2495C152 89.4042 151.651 89.4845 151.297 89.4845C150.943 89.4845 150.593 89.4042 150.275 89.2495C150.15 89.2028 150.042 89.1187 149.965 89.0086C149.889 88.8984 149.848 88.7674 149.848 88.6332C149.848 88.499 149.889 88.368 149.965 88.2578C150.042 88.1476 150.15 88.0635 150.275 88.0168L152.319 86.7635C152.654 86.6015 153.021 86.5174 153.392 86.5174C153.764 86.5174 154.131 86.6015 154.465 86.7635C154.598 86.8058 154.713 86.8893 154.795 87.0019C154.877 87.1146 154.922 87.2506 154.922 87.3902C154.922 87.5298 154.877 87.6658 154.795 87.7784C154.713 87.8911 154.598 87.9746 154.465 88.0168L152.319 89.2495ZM160.823 94.201C160.505 94.3601 160.156 94.443 159.801 94.443C159.446 94.443 159.096 94.3601 158.779 94.201C158.653 94.1543 158.546 94.0702 158.469 93.96C158.393 93.8498 158.352 93.7188 158.352 93.5846C158.352 93.4504 158.393 93.3194 158.469 93.2092C158.546 93.099 158.653 93.015 158.779 92.9683L160.823 91.7355C161.156 91.569 161.524 91.4824 161.896 91.4824C162.268 91.4824 162.636 91.569 162.969 91.7355C163.102 91.7778 163.217 91.8613 163.299 91.9739C163.381 92.0866 163.426 92.2226 163.426 92.3622C163.426 92.5018 163.381 92.6377 163.299 92.7504C163.217 92.8631 163.102 92.9466 162.969 92.9888L160.925 94.2215" fill="white"/>
</g>
</g>
<defs>
<clipPath id="clip0_263_23436">
<rect width="312" height="220" fill="white"/>
</clipPath>
<clipPath id="clip1_263_23436">
<rect width="132" height="85" fill="white" transform="matrix(-0.999957 0.00929748 0.00929748 0.999957 134.602 82.3882)"/>
</clipPath>
<clipPath id="clip2_263_23436">
<rect width="86" height="55" fill="white" transform="matrix(-1 0 0 1 244 111)"/>
</clipPath>
<clipPath id="clip3_263_23436">
<rect width="86" height="55" fill="white" transform="matrix(-1 0 0 1 206 58)"/>
</clipPath>
</defs>
</svg>
