<svg width="312" height="220" viewBox="0 0 312 220" fill="none" xmlns="http://www.w3.org/2000/svg">
<g clip-path="url(#clip0_263_23435)">
<g opacity="0.32">
<line y1="-0.5" x2="220.239" y2="-0.5" transform="matrix(0.866025 -0.5 0.866025 0.5 -32.5609 154.075)" stroke="#4D708B"/>
<line y1="-0.5" x2="213.761" y2="-0.5" transform="matrix(0.866025 0.5 -0.866026 0.5 111.891 44.7649)" stroke="#4D708B"/>
<line y1="-0.5" x2="220.239" y2="-0.5" transform="matrix(0.866025 -0.5 0.866025 0.5 -4.51202 170.269)" stroke="#4D708B"/>
<line y1="-0.5" x2="213.761" y2="-0.5" transform="matrix(0.866025 0.5 -0.866026 0.5 83.842 60.9589)" stroke="#4D708B"/>
<line y1="-0.5" x2="220.239" y2="-0.5" transform="matrix(0.866025 -0.5 0.866025 0.5 23.5369 186.463)" stroke="#4D708B"/>
<line y1="-0.5" x2="213.761" y2="-0.5" transform="matrix(0.866025 0.5 -0.866026 0.5 55.7931 77.153)" stroke="#4D708B"/>
<line y1="-0.5" x2="220.239" y2="-0.5" transform="matrix(0.866025 -0.5 0.866025 0.5 51.5858 202.657)" stroke="#4D708B"/>
<line y1="-0.5" x2="213.761" y2="-0.5" transform="matrix(0.866025 0.5 -0.866026 0.5 27.7442 93.347)" stroke="#4D708B"/>
<line y1="-0.5" x2="220.239" y2="-0.5" transform="matrix(0.866025 -0.5 0.866025 0.5 79.6346 218.851)" stroke="#4D708B"/>
<line y1="-0.5" x2="213.761" y2="-0.5" transform="matrix(0.866025 0.5 -0.866026 0.5 -0.304688 109.541)" stroke="#4D708B"/>
<line y1="-0.5" x2="220.239" y2="-0.5" transform="matrix(0.866025 -0.5 0.866025 0.5 107.683 235.045)" stroke="#4D708B"/>
<line y1="-0.5" x2="213.761" y2="-0.5" transform="matrix(0.866025 0.5 -0.866026 0.5 -28.3536 125.735)" stroke="#4D708B"/>
</g>
<g clip-path="url(#clip1_263_23435)">
<path d="M91.8713 158.455C91.4882 158.647 91.1652 158.945 90.9392 159.317C90.7131 159.689 90.5933 160.12 90.5933 160.559C90.5933 160.998 90.7131 161.428 90.9392 161.8C91.1652 162.172 91.4882 162.471 91.8713 162.662C92.9576 163.238 94.1614 163.539 95.3829 163.539C96.6043 163.539 97.8082 163.238 98.8945 162.662C100.843 161.493 100.888 159.624 98.8945 158.455C97.806 157.886 96.603 157.59 95.3829 157.59C94.1627 157.59 92.9597 157.886 91.8713 158.455Z" fill="#B5FBCE"/>
<path d="M9.11061 132.092C8.9025 132.172 8.723 132.316 8.59625 132.504C8.46951 132.692 8.40157 132.915 8.40157 133.144C8.40157 133.373 8.46951 133.597 8.59625 133.785C8.723 133.973 8.9025 134.116 9.11061 134.196L65.3643 167.944C65.9101 168.237 66.5162 168.39 67.1314 168.39C67.7466 168.39 68.3528 168.237 68.8985 167.944L107.821 144.76C108.029 144.68 108.208 144.536 108.335 144.348C108.462 144.16 108.53 143.937 108.53 143.708C108.53 143.479 108.462 143.255 108.335 143.067C108.208 142.879 108.029 142.736 107.821 142.656L51.4991 108.908C50.9517 108.621 50.3462 108.471 49.732 108.471C49.1178 108.471 48.5123 108.621 47.9648 108.908L9.11061 132.092Z" fill="#1E3440"/>
<path fill-rule="evenodd" clip-rule="evenodd" d="M46.1184 117.097C46.1184 116.77 46.2955 116.467 46.5829 116.303L49.841 114.448C50.396 114.132 51.0651 114 51.6838 114C52.3026 114 52.9716 114.132 53.5267 114.448L56.7847 116.303C57.0721 116.467 57.2491 116.77 57.2491 117.097C57.2491 117.424 57.0721 117.727 56.7847 117.89L56.4401 118.087C56.1527 118.25 55.7986 118.25 55.5112 118.087L52.2532 116.231C52.1422 116.168 51.9382 116.11 51.6838 116.11C51.4295 116.11 51.2255 116.168 51.1145 116.231L47.8563 118.087C47.5689 118.25 47.2149 118.25 46.9275 118.087L46.5829 117.89C46.2955 117.727 46.1184 117.424 46.1184 117.097ZM24.0756 131.101C24.0756 131.429 23.8985 131.731 23.6111 131.895L20.7125 133.545L23.611 135.196C23.8984 135.36 24.0754 135.662 24.0754 135.99C24.0754 136.317 23.8984 136.62 23.611 136.783L23.2664 136.979C22.979 137.143 22.6249 137.143 22.3375 136.979L19.0795 135.124C18.5297 134.811 18.0441 134.272 18.0441 133.545C18.0441 132.819 18.5297 132.28 19.0795 131.967L22.3376 130.111C22.625 129.948 22.9791 129.948 23.2665 130.111L23.6111 130.308C23.8985 130.471 24.0756 130.774 24.0756 131.101ZM55.5113 149.004C55.7987 148.84 56.1528 148.84 56.4402 149.004L56.7848 149.2C57.0722 149.364 57.2492 149.667 57.2492 149.994C57.2492 150.321 57.0722 150.624 56.7848 150.787L53.5267 152.643C52.9716 152.959 52.3026 153.091 51.6838 153.091C51.0651 153.091 50.396 152.959 49.841 152.643L46.5827 150.787C46.2953 150.624 46.1183 150.321 46.1183 149.994C46.1183 149.667 46.2953 149.364 46.5827 149.2L46.9273 149.004C47.2147 148.84 47.5688 148.84 47.8562 149.004L51.1144 150.86C51.2255 150.923 51.4295 150.981 51.6838 150.981C51.9382 150.981 52.1422 150.923 52.2532 150.86L55.5113 149.004ZM79.2921 135.99C79.2921 135.662 79.4691 135.36 79.7565 135.196L82.6551 133.545L79.7564 131.895C79.469 131.731 79.2919 131.428 79.2919 131.101C79.2919 130.774 79.469 130.471 79.7564 130.308L80.101 130.111C80.3884 129.948 80.7425 129.948 81.0299 130.111L84.2881 131.967C84.838 132.28 85.3235 132.819 85.3235 133.545C85.3235 134.272 84.838 134.811 84.2881 135.124L81.03 136.98C80.7426 137.143 80.3885 137.143 80.1011 136.98L79.7565 136.783C79.4691 136.62 79.2921 136.317 79.2921 135.99Z" fill="#65D58D"/>
<path d="M1 130.994V138.005C1.09573 138.961 1.43272 139.874 1.97735 140.653C2.52198 141.432 3.2552 142.05 4.10381 142.446L70.2806 182.177C72.4985 183.387 74.963 184.037 77.4718 184.074C79.9806 184.111 82.462 183.533 84.7122 182.387L120.123 161.353C120.928 160.995 121.623 160.416 122.13 159.678C122.638 158.94 122.939 158.072 123 157.17V150.158C122.934 151.054 122.634 151.913 122.131 152.646C121.628 153.379 120.942 153.957 120.145 154.318L84.7348 175.353C82.4894 176.497 80.0131 177.077 77.5086 177.045C75.0041 177.012 72.5427 176.368 70.3259 175.166L4.14912 135.434C3.2893 135.049 2.54439 134.435 1.99094 133.655C1.43748 132.874 1.09545 131.956 1 130.994Z" fill="#1E3440"/>
<path d="M3.92255 126.787C0.00315094 129.124 0.116425 132.957 4.19442 135.388L70.3712 175.119C72.5909 176.326 75.0564 176.972 77.5652 177.004C80.074 177.037 82.5544 176.455 84.8028 175.306L120.191 154.272C124.11 151.935 123.974 148.078 119.919 145.648L53.4249 105.916C51.2403 104.764 48.8215 104.162 46.3677 104.162C43.9138 104.162 41.4951 104.764 39.3105 105.916L3.92255 126.787ZM65.3643 167.944L9.08801 134.196C8.87989 134.116 8.70041 133.973 8.57365 133.785C8.44691 133.597 8.37897 133.373 8.37897 133.144C8.37897 132.915 8.44691 132.691 8.57365 132.503C8.70041 132.315 8.87989 132.172 9.08801 132.092L48.0102 108.908C48.5576 108.621 49.1631 108.471 49.7773 108.471C50.3915 108.471 50.997 108.621 51.5445 108.908L107.843 142.633C108.052 142.712 108.231 142.856 108.358 143.044C108.485 143.232 108.552 143.455 108.552 143.684C108.552 143.913 108.485 144.137 108.358 144.325C108.231 144.513 108.052 144.656 107.843 144.736L68.9212 167.921C68.3755 168.213 67.7693 168.366 67.1541 168.366C66.5389 168.366 65.9327 168.213 65.387 167.921L65.3643 167.944ZM98.9172 162.639C97.8309 163.215 96.627 163.515 95.4055 163.515C94.1841 163.515 92.9803 163.215 91.894 162.639C91.5109 162.447 91.1879 162.148 90.9618 161.776C90.7358 161.404 90.6159 160.974 90.6159 160.535C90.6159 160.096 90.7358 159.666 90.9618 159.294C91.1879 158.922 91.5109 158.623 91.894 158.432C92.9883 157.855 94.1995 157.555 95.4282 157.555C96.6569 157.555 97.8682 157.855 98.9625 158.432C100.911 159.6 100.866 161.47 98.9625 162.639" fill="#2C4656"/>
<path d="M62.2955 139.759C68.0548 136.389 68.0548 130.926 62.2955 127.556C56.5361 124.186 47.1984 124.186 41.4391 127.556C35.6798 130.926 35.6798 136.389 41.4391 139.759C47.1984 143.129 56.5361 143.129 62.2955 139.759Z" fill="#65D58D"/>
<g clip-path="url(#clip2_263_23435)">
<path d="M54.1953 136.459L47.6875 136.459L47.6875 134.766L51.3065 134.769L51.3013 128.844L54.1953 128.844L54.1953 136.459Z" fill="white"/>
</g>
</g>
<g clip-path="url(#clip3_263_23435)">
<path d="M262.692 67.9274L262.532 123.712L199.092 87.1284L199.219 31.3435L262.692 67.9274Z" fill="#2C4656"/>
<path d="M231.136 88.9312L231.068 99.2609L204.064 83.5905L204.118 73.2609L231.136 88.9312Z" fill="#72CCA3"/>
<path d="M231.136 60.6703L231.068 85.6956L204.064 70.0253L204.118 45L231.136 60.6703Z" fill="#72CCA3"/>
<path d="M269.464 58.8054L201.456 19.606C200.999 19.2761 200.462 19.0728 199.901 19.0168C199.34 18.9608 198.774 19.054 198.261 19.2871L193.757 21.9025C194.27 21.6694 194.836 21.5762 195.397 21.6322C195.958 21.6882 196.495 21.8915 196.951 22.2215L264.96 61.4846C266.281 62.3357 267.382 63.4879 268.17 64.8464C268.959 66.2049 269.413 67.7309 269.496 69.2989L269.113 140.776L273.617 138.161L274 66.6836C273.927 65.1045 273.478 63.5657 272.689 62.1953C271.9 60.8249 270.794 59.6627 269.464 58.8054Z" fill="#2C4656"/>
<path d="M269.145 135.514V140.713L212.253 173.724C210.795 174.538 209.162 174.986 207.493 175.031C205.823 175.075 204.168 174.714 202.669 173.979L134.789 134.844C134.301 134.609 133.881 134.255 133.569 133.815C133.256 133.374 133.06 132.861 133 132.324V127.093C133.052 127.633 133.24 128.15 133.548 128.596C133.855 129.043 134.271 129.404 134.757 129.645L202.733 168.812C204.236 169.534 205.889 169.888 207.556 169.843C209.223 169.799 210.855 169.358 212.317 168.557L269.145 135.514Z" fill="#DBE1E6"/>
<path d="M192.096 91.1153L269.145 135.514L212.253 168.525C210.791 169.326 209.159 169.767 207.492 169.811C205.825 169.856 204.172 169.502 202.669 168.78L134.693 129.613C132.201 128.146 132.393 125.722 135.108 124.127L192.096 91.1153ZM231.419 149.548L254.898 135.896L191.457 99.3443L167.978 112.964L231.419 149.548ZM190.978 152.737L206.63 143.647L178.073 127.189L162.388 136.279L191.138 152.737" fill="white"/>
<path d="M254.898 135.928L231.419 149.548L167.979 112.964L191.457 99.3443L254.898 135.928Z" fill="#DBE1E6"/>
<path d="M206.63 143.774L190.978 152.833L162.388 136.375L178.073 127.285L206.63 143.774Z" fill="#DBE1E6"/>
<path d="M264.96 61.4846C266.281 62.3356 267.382 63.4878 268.17 64.8463C268.959 66.2048 269.413 67.7309 269.496 69.2989L269.145 135.577L192.096 91.1791L192.447 24.9006C192.447 22.03 194.492 20.8499 196.983 22.2852L264.96 61.4846ZM262.532 123.776L262.692 67.9912L199.22 31.3435V87.1284L262.66 123.712" fill="#20333E"/>
<ellipse rx="10.4256" ry="10.4425" transform="matrix(0.865558 0.500809 -2.19831e-08 1 245.8 78.7507)" fill="#65D58D"/>
<g clip-path="url(#clip4_263_23435)">
<path d="M244.364 81.9817L241.493 76.9975L242.77 76.2587L244.364 79.0317L248.83 76.4425L250.107 78.6589L244.364 81.9817Z" fill="white"/>
</g>
</g>
</g>
<defs>
<clipPath id="clip0_263_23435">
<rect width="312" height="220" fill="white"/>
</clipPath>
<clipPath id="clip1_263_23435">
<rect width="122" height="80" fill="white" transform="matrix(-1 0 0 1 123 104)"/>
</clipPath>
<clipPath id="clip2_263_23435">
<rect width="14.2174" height="14.2174" fill="white" transform="matrix(0.863117 -0.505005 0.863117 0.505005 39.5735 133.18)"/>
</clipPath>
<clipPath id="clip3_263_23435">
<rect width="141" height="156" fill="white" transform="translate(133 19)"/>
</clipPath>
<clipPath id="clip4_263_23435">
<rect width="12.5108" height="12.531" fill="white" transform="matrix(0.865558 0.500809 -2.19831e-08 1 240.386 69.3525)"/>
</clipPath>
</defs>
</svg>
