<svg width="292" height="136" viewBox="0 0 292 136" fill="none" xmlns="http://www.w3.org/2000/svg">
<path d="M210.504 31.7812L211.441 28.5937L211.895 28.7272L211.897 28.7347L211.909 28.7313L211.92 28.7347L211.923 28.7272L212.377 28.5938L213.313 31.7813L212.834 31.9222L213.77 35.1097L214.25 34.9688L215.186 38.1562L214.706 38.2972L215.642 41.4847L216.122 41.3438L217.059 44.5312L216.579 44.6722L217.047 46.2659L217.079 46.3745L217.154 46.4587L218.247 47.6775L218.619 47.3438L220.804 49.7813L220.431 50.115L222.616 52.5525L222.989 52.2188L225.173 54.6562L224.801 54.99L226.986 57.4275L227.358 57.0938L229.543 59.5312L229.17 59.865L229.192 59.889L229.191 59.8888L229.075 60.375L225.954 59.625L226.07 59.1388L222.949 58.3888L222.832 58.875L219.711 58.125L219.828 57.6388L216.707 56.8888L216.59 57.375L213.469 56.625L213.586 56.1388L212.026 55.7638L211.909 55.7358L211.792 55.7638L210.231 56.1388L210.348 56.625L207.227 57.375L207.11 56.8888L203.989 57.6388L204.106 58.125L200.985 58.875L200.868 58.3888L197.747 59.1388L197.864 59.625L194.743 60.375L194.626 59.8888L194.626 59.889L194.647 59.865L194.275 59.5312L196.459 57.0938L196.832 57.4275L199.017 54.99L198.644 54.6562L200.829 52.2188L201.201 52.5525L203.386 50.115L203.014 49.7812L205.198 47.3438L205.571 47.6775L206.663 46.4587L206.739 46.3745L206.771 46.2659L207.239 44.6722L206.759 44.5312L207.695 41.3437L208.175 41.4847L209.111 38.2972L208.632 38.1562L209.568 34.9688L210.048 35.1097L210.984 31.9222L210.504 31.7812Z" stroke="#1F6538" stroke-dasharray="3 3"/>
<path d="M269.031 64.3053L274.858 69.9606L275.183 70.276L275.612 70.4122L283.368 72.8793L275.671 75.3275L275.225 75.4692L274.885 75.7998L268.998 81.5123L270.823 73.2889L270.924 72.8349L270.824 72.3843L269.031 64.3053Z" stroke="#1F6538" stroke-width="4"/>
<path d="M234.027 119.675L226.72 112.553L217.166 109.5L226.72 106.447L234.027 99.3246L231.779 109.5L234.027 119.675Z" fill="#1F6538"/>
<path fill-rule="evenodd" clip-rule="evenodd" d="M233.212 109.5L236.415 95L226.004 105.15L212.389 109.5L226.004 113.85L236.415 124L233.212 109.5ZM232.144 109.5L234.635 120.778L226.538 112.883L215.949 109.5L226.538 106.117L234.635 98.2222L232.144 109.5Z" fill="#1F6538"/>
<path d="M119.572 28.8384C119.915 29.4332 120.25 30.0338 120.575 30.64C119.984 30.2536 119.59 29.5926 119.572 28.8384Z" fill="#1F6538"/>
<path d="M107.448 13.5512C108.48 14.5195 109.48 15.5204 110.449 16.5522C110.074 17.2442 109.342 17.7143 108.5 17.7143C107.277 17.7143 106.286 16.7229 106.286 15.5C106.286 14.6579 106.756 13.9257 107.448 13.5512Z" fill="#1F6538"/>
<path d="M93.36 3.42498C93.9662 3.75023 94.5668 4.08462 95.1616 4.42795C94.4074 4.41035 93.7464 4.0156 93.36 3.42498Z" fill="#1F6538"/>
<path d="M28.8384 4.42795C29.4332 4.08462 30.0338 3.75023 30.64 3.42498C30.2536 4.0156 29.5926 4.41035 28.8384 4.42795Z" fill="#1F6538"/>
<path d="M13.5512 16.5522C14.5195 15.5204 15.5204 14.5195 16.5522 13.5512C17.2442 13.9257 17.7143 14.6579 17.7143 15.5C17.7143 16.7229 16.7229 17.7143 15.5 17.7143C14.6579 17.7143 13.9257 17.2442 13.5512 16.5522Z" fill="#1F6538"/>
<path d="M3.42498 30.64C3.75023 30.0338 4.08462 29.4332 4.42795 28.8384C4.41035 29.5926 4.0156 30.2536 3.42498 30.64Z" fill="#1F6538"/>
<path d="M44.2857 2.21429C44.2857 3.4372 43.2943 4.42857 42.0714 4.42857C40.8485 4.42857 39.8571 3.4372 39.8571 2.21429C39.8571 0.991369 40.8485 0 42.0714 0C43.2943 0 44.2857 0.991369 44.2857 2.21429Z" fill="#1F6538"/>
<path d="M57.5714 2.21429C57.5714 3.4372 56.5801 4.42857 55.3571 4.42857C54.1342 4.42857 53.1429 3.4372 53.1429 2.21429C53.1429 0.991369 54.1342 0 55.3571 0C56.5801 0 57.5714 0.991369 57.5714 2.21429Z" fill="#1F6538"/>
<path d="M70.8571 2.21429C70.8571 3.4372 69.8658 4.42857 68.6429 4.42857C67.4199 4.42857 66.4286 3.4372 66.4286 2.21429C66.4286 0.991369 67.4199 0 68.6429 0C69.8658 0 70.8571 0.991369 70.8571 2.21429Z" fill="#1F6538"/>
<path d="M84.1429 2.21429C84.1429 3.4372 83.1515 4.42857 81.9286 4.42857C80.7057 4.42857 79.7143 3.4372 79.7143 2.21429C79.7143 0.991369 80.7057 0 81.9286 0C83.1515 0 84.1429 0.991369 84.1429 2.21429Z" fill="#1F6538"/>
<path d="M31 15.5C31 16.7229 30.0086 17.7143 28.7857 17.7143C27.5628 17.7143 26.5714 16.7229 26.5714 15.5C26.5714 14.2771 27.5628 13.2857 28.7857 13.2857C30.0086 13.2857 31 14.2771 31 15.5Z" fill="#1F6538"/>
<path d="M44.2857 15.5C44.2857 16.7229 43.2943 17.7143 42.0714 17.7143C40.8485 17.7143 39.8571 16.7229 39.8571 15.5C39.8571 14.2771 40.8485 13.2857 42.0714 13.2857C43.2943 13.2857 44.2857 14.2771 44.2857 15.5Z" fill="#1F6538"/>
<path d="M57.5714 15.5C57.5714 16.7229 56.5801 17.7143 55.3571 17.7143C54.1342 17.7143 53.1429 16.7229 53.1429 15.5C53.1429 14.2771 54.1342 13.2857 55.3571 13.2857C56.5801 13.2857 57.5714 14.2771 57.5714 15.5Z" fill="#1F6538"/>
<path d="M70.8571 15.5C70.8571 16.7229 69.8658 17.7143 68.6429 17.7143C67.4199 17.7143 66.4286 16.7229 66.4286 15.5C66.4286 14.2771 67.4199 13.2857 68.6429 13.2857C69.8658 13.2857 70.8571 14.2771 70.8571 15.5Z" fill="#1F6538"/>
<path d="M84.1429 15.5C84.1429 16.7229 83.1515 17.7143 81.9286 17.7143C80.7057 17.7143 79.7143 16.7229 79.7143 15.5C79.7143 14.2771 80.7057 13.2857 81.9286 13.2857C83.1515 13.2857 84.1429 14.2771 84.1429 15.5Z" fill="#1F6538"/>
<path d="M97.4286 15.5C97.4286 16.7229 96.4372 17.7143 95.2143 17.7143C93.9914 17.7143 93 16.7229 93 15.5C93 14.2771 93.9914 13.2857 95.2143 13.2857C96.4372 13.2857 97.4286 14.2771 97.4286 15.5Z" fill="#1F6538"/>
<path d="M17.7143 28.7857C17.7143 30.0086 16.7229 31 15.5 31C14.2771 31 13.2857 30.0086 13.2857 28.7857C13.2857 27.5628 14.2771 26.5714 15.5 26.5714C16.7229 26.5714 17.7143 27.5628 17.7143 28.7857Z" fill="#1F6538"/>
<path d="M31 28.7857C31 30.0086 30.0086 31 28.7857 31C27.5628 31 26.5714 30.0086 26.5714 28.7857C26.5714 27.5628 27.5628 26.5714 28.7857 26.5714C30.0086 26.5714 31 27.5628 31 28.7857Z" fill="#1F6538"/>
<path d="M44.2857 28.7857C44.2857 30.0086 43.2943 31 42.0714 31C40.8485 31 39.8571 30.0086 39.8571 28.7857C39.8571 27.5628 40.8485 26.5714 42.0714 26.5714C43.2943 26.5714 44.2857 27.5628 44.2857 28.7857Z" fill="#1F6538"/>
<path d="M57.5714 28.7857C57.5714 30.0086 56.5801 31 55.3571 31C54.1342 31 53.1429 30.0086 53.1429 28.7857C53.1429 27.5628 54.1342 26.5714 55.3571 26.5714C56.5801 26.5714 57.5714 27.5628 57.5714 28.7857Z" fill="#1F6538"/>
<path d="M70.8571 28.7857C70.8571 30.0086 69.8658 31 68.6429 31C67.4199 31 66.4286 30.0086 66.4286 28.7857C66.4286 27.5628 67.4199 26.5714 68.6429 26.5714C69.8658 26.5714 70.8571 27.5628 70.8571 28.7857Z" fill="#1F6538"/>
<path d="M84.1429 28.7857C84.1429 30.0086 83.1515 31 81.9286 31C80.7057 31 79.7143 30.0086 79.7143 28.7857C79.7143 27.5628 80.7057 26.5714 81.9286 26.5714C83.1515 26.5714 84.1429 27.5628 84.1429 28.7857Z" fill="#1F6538"/>
<path d="M97.4286 28.7857C97.4286 30.0086 96.4372 31 95.2143 31C93.9914 31 93 30.0086 93 28.7857C93 27.5628 93.9914 26.5714 95.2143 26.5714C96.4372 26.5714 97.4286 27.5628 97.4286 28.7857Z" fill="#1F6538"/>
<path d="M110.714 28.7857C110.714 30.0086 109.723 31 108.5 31C107.277 31 106.286 30.0086 106.286 28.7857C106.286 27.5628 107.277 26.5714 108.5 26.5714C109.723 26.5714 110.714 27.5628 110.714 28.7857Z" fill="#1F6538"/>
<path d="M4.42857 42.0714C4.42857 43.2943 3.4372 44.2857 2.21429 44.2857C0.991369 44.2857 0 43.2943 0 42.0714C0 40.8485 0.991369 39.8571 2.21429 39.8571C3.4372 39.8571 4.42857 40.8485 4.42857 42.0714Z" fill="#1F6538"/>
<path d="M17.7143 42.0714C17.7143 43.2943 16.7229 44.2857 15.5 44.2857C14.2771 44.2857 13.2857 43.2943 13.2857 42.0714C13.2857 40.8485 14.2771 39.8571 15.5 39.8571C16.7229 39.8571 17.7143 40.8485 17.7143 42.0714Z" fill="#1F6538"/>
<path d="M31 42.0714C31 43.2943 30.0086 44.2857 28.7857 44.2857C27.5628 44.2857 26.5714 43.2943 26.5714 42.0714C26.5714 40.8485 27.5628 39.8571 28.7857 39.8571C30.0086 39.8571 31 40.8485 31 42.0714Z" fill="#1F6538"/>
<path d="M44.2857 42.0714C44.2857 43.2943 43.2943 44.2857 42.0714 44.2857C40.8485 44.2857 39.8571 43.2943 39.8571 42.0714C39.8571 40.8485 40.8485 39.8571 42.0714 39.8571C43.2943 39.8571 44.2857 40.8485 44.2857 42.0714Z" fill="#1F6538"/>
<path d="M57.5714 42.0714C57.5714 43.2943 56.5801 44.2857 55.3571 44.2857C54.1342 44.2857 53.1429 43.2943 53.1429 42.0714C53.1429 40.8485 54.1342 39.8571 55.3571 39.8571C56.5801 39.8571 57.5714 40.8485 57.5714 42.0714Z" fill="#1F6538"/>
<path d="M70.8571 42.0714C70.8571 43.2943 69.8658 44.2857 68.6429 44.2857C67.4199 44.2857 66.4286 43.2943 66.4286 42.0714C66.4286 40.8485 67.4199 39.8571 68.6429 39.8571C69.8658 39.8571 70.8571 40.8485 70.8571 42.0714Z" fill="#1F6538"/>
<path d="M84.1429 42.0714C84.1429 43.2943 83.1515 44.2857 81.9286 44.2857C80.7057 44.2857 79.7143 43.2943 79.7143 42.0714C79.7143 40.8485 80.7057 39.8571 81.9286 39.8571C83.1515 39.8571 84.1429 40.8485 84.1429 42.0714Z" fill="#1F6538"/>
<path d="M97.4286 42.0714C97.4286 43.2943 96.4372 44.2857 95.2143 44.2857C93.9914 44.2857 93 43.2943 93 42.0714C93 40.8485 93.9914 39.8571 95.2143 39.8571C96.4372 39.8571 97.4286 40.8485 97.4286 42.0714Z" fill="#1F6538"/>
<path d="M110.714 42.0714C110.714 43.2943 109.723 44.2857 108.5 44.2857C107.277 44.2857 106.286 43.2943 106.286 42.0714C106.286 40.8485 107.277 39.8571 108.5 39.8571C109.723 39.8571 110.714 40.8485 110.714 42.0714Z" fill="#1F6538"/>
<path d="M124 42.0714C124 43.2943 123.009 44.2857 121.786 44.2857C120.563 44.2857 119.571 43.2943 119.571 42.0714C119.571 40.8485 120.563 39.8571 121.786 39.8571C123.009 39.8571 124 40.8485 124 42.0714Z" fill="#1F6538"/>
<path d="M4.42857 55.3571C4.42857 56.5801 3.4372 57.5714 2.21429 57.5714C0.991369 57.5714 0 56.5801 0 55.3571C0 54.1342 0.991369 53.1429 2.21429 53.1429C3.4372 53.1429 4.42857 54.1342 4.42857 55.3571Z" fill="#1F6538"/>
<path d="M17.7143 55.3571C17.7143 56.5801 16.7229 57.5714 15.5 57.5714C14.2771 57.5714 13.2857 56.5801 13.2857 55.3571C13.2857 54.1342 14.2771 53.1429 15.5 53.1429C16.7229 53.1429 17.7143 54.1342 17.7143 55.3571Z" fill="#1F6538"/>
<path d="M31 55.3571C31 56.5801 30.0086 57.5714 28.7857 57.5714C27.5628 57.5714 26.5714 56.5801 26.5714 55.3571C26.5714 54.1342 27.5628 53.1429 28.7857 53.1429C30.0086 53.1429 31 54.1342 31 55.3571Z" fill="#1F6538"/>
<path d="M44.2857 55.3571C44.2857 56.5801 43.2943 57.5714 42.0714 57.5714C40.8485 57.5714 39.8571 56.5801 39.8571 55.3571C39.8571 54.1342 40.8485 53.1429 42.0714 53.1429C43.2943 53.1429 44.2857 54.1342 44.2857 55.3571Z" fill="#1F6538"/>
<path d="M57.5714 55.3571C57.5714 56.5801 56.5801 57.5714 55.3571 57.5714C54.1342 57.5714 53.1429 56.5801 53.1429 55.3571C53.1429 54.1342 54.1342 53.1429 55.3571 53.1429C56.5801 53.1429 57.5714 54.1342 57.5714 55.3571Z" fill="#1F6538"/>
<path d="M70.8571 55.3571C70.8571 56.5801 69.8658 57.5714 68.6429 57.5714C67.4199 57.5714 66.4286 56.5801 66.4286 55.3571C66.4286 54.1342 67.4199 53.1429 68.6429 53.1429C69.8658 53.1429 70.8571 54.1342 70.8571 55.3571Z" fill="#1F6538"/>
<path d="M84.1429 55.3571C84.1429 56.5801 83.1515 57.5714 81.9286 57.5714C80.7057 57.5714 79.7143 56.5801 79.7143 55.3571C79.7143 54.1342 80.7057 53.1429 81.9286 53.1429C83.1515 53.1429 84.1429 54.1342 84.1429 55.3571Z" fill="#1F6538"/>
<path d="M97.4286 55.3571C97.4286 56.5801 96.4372 57.5714 95.2143 57.5714C93.9914 57.5714 93 56.5801 93 55.3571C93 54.1342 93.9914 53.1429 95.2143 53.1429C96.4372 53.1429 97.4286 54.1342 97.4286 55.3571Z" fill="#1F6538"/>
<path d="M110.714 55.3571C110.714 56.5801 109.723 57.5714 108.5 57.5714C107.277 57.5714 106.286 56.5801 106.286 55.3571C106.286 54.1342 107.277 53.1429 108.5 53.1429C109.723 53.1429 110.714 54.1342 110.714 55.3571Z" fill="#1F6538"/>
<path d="M124 55.3571C124 56.5801 123.009 57.5714 121.786 57.5714C120.563 57.5714 119.571 56.5801 119.571 55.3571C119.571 54.1342 120.563 53.1429 121.786 53.1429C123.009 53.1429 124 54.1342 124 55.3571Z" fill="#1F6538"/>
<path d="M4.42857 68.6429C4.42857 69.8658 3.4372 70.8571 2.21429 70.8571C0.991369 70.8571 0 69.8658 0 68.6429C0 67.4199 0.991369 66.4286 2.21429 66.4286C3.4372 66.4286 4.42857 67.4199 4.42857 68.6429Z" fill="#1F6538"/>
<path d="M17.7143 68.6429C17.7143 69.8658 16.7229 70.8571 15.5 70.8571C14.2771 70.8571 13.2857 69.8658 13.2857 68.6429C13.2857 67.4199 14.2771 66.4286 15.5 66.4286C16.7229 66.4286 17.7143 67.4199 17.7143 68.6429Z" fill="#1F6538"/>
<path d="M31 68.6429C31 69.8658 30.0086 70.8571 28.7857 70.8571C27.5628 70.8571 26.5714 69.8658 26.5714 68.6429C26.5714 67.4199 27.5628 66.4286 28.7857 66.4286C30.0086 66.4286 31 67.4199 31 68.6429Z" fill="#1F6538"/>
<path d="M44.2857 68.6429C44.2857 69.8658 43.2943 70.8571 42.0714 70.8571C40.8485 70.8571 39.8571 69.8658 39.8571 68.6429C39.8571 67.4199 40.8485 66.4286 42.0714 66.4286C43.2943 66.4286 44.2857 67.4199 44.2857 68.6429Z" fill="#1F6538"/>
<path d="M57.5714 68.6429C57.5714 69.8658 56.5801 70.8571 55.3571 70.8571C54.1342 70.8571 53.1429 69.8658 53.1429 68.6429C53.1429 67.4199 54.1342 66.4286 55.3571 66.4286C56.5801 66.4286 57.5714 67.4199 57.5714 68.6429Z" fill="#1F6538"/>
<path d="M70.8571 68.6429C70.8571 69.8658 69.8658 70.8571 68.6429 70.8571C67.4199 70.8571 66.4286 69.8658 66.4286 68.6429C66.4286 67.4199 67.4199 66.4286 68.6429 66.4286C69.8658 66.4286 70.8571 67.4199 70.8571 68.6429Z" fill="#1F6538"/>
<path d="M84.1429 68.6429C84.1429 69.8658 83.1515 70.8571 81.9286 70.8571C80.7057 70.8571 79.7143 69.8658 79.7143 68.6429C79.7143 67.4199 80.7057 66.4286 81.9286 66.4286C83.1515 66.4286 84.1429 67.4199 84.1429 68.6429Z" fill="#1F6538"/>
<path d="M97.4286 68.6429C97.4286 69.8658 96.4372 70.8571 95.2143 70.8571C93.9914 70.8571 93 69.8658 93 68.6429C93 67.4199 93.9914 66.4286 95.2143 66.4286C96.4372 66.4286 97.4286 67.4199 97.4286 68.6429Z" fill="#1F6538"/>
<path d="M110.714 68.6429C110.714 69.8658 109.723 70.8571 108.5 70.8571C107.277 70.8571 106.286 69.8658 106.286 68.6429C106.286 67.4199 107.277 66.4286 108.5 66.4286C109.723 66.4286 110.714 67.4199 110.714 68.6429Z" fill="#1F6538"/>
<path d="M124 68.6429C124 69.8658 123.009 70.8571 121.786 70.8571C120.563 70.8571 119.571 69.8658 119.571 68.6429C119.571 67.4199 120.563 66.4286 121.786 66.4286C123.009 66.4286 124 67.4199 124 68.6429Z" fill="#1F6538"/>
<path d="M120.575 93.36C120.25 93.9662 119.915 94.5668 119.572 95.1616C119.59 94.4074 119.984 93.7464 120.575 93.36Z" fill="#1F6538"/>
<path d="M110.449 107.448C110.074 106.756 109.342 106.286 108.5 106.286C107.277 106.286 106.286 107.277 106.286 108.5C106.286 109.342 106.756 110.074 107.448 110.449C108.48 109.48 109.48 108.48 110.449 107.448Z" fill="#1F6538"/>
<path d="M95.1616 119.572C94.4074 119.59 93.7464 119.984 93.36 120.575C93.9662 120.25 94.5668 119.915 95.1616 119.572Z" fill="#1F6538"/>
<path d="M16.5522 110.449C17.2442 110.074 17.7143 109.342 17.7143 108.5C17.7143 107.277 16.7229 106.286 15.5 106.286C14.6579 106.286 13.9257 106.756 13.5512 107.448C14.5195 108.48 15.5204 109.48 16.5522 110.449Z" fill="#1F6538"/>
<path d="M4.42795 95.1616C4.41035 94.4074 4.0156 93.7464 3.42498 93.36C3.75023 93.9662 4.08462 94.5668 4.42795 95.1616Z" fill="#1F6538"/>
<path d="M4.42857 81.9286C4.42857 83.1515 3.4372 84.1429 2.21429 84.1429C0.991369 84.1429 0 83.1515 0 81.9286C0 80.7057 0.991369 79.7143 2.21429 79.7143C3.4372 79.7143 4.42857 80.7057 4.42857 81.9286Z" fill="#1F6538"/>
<path d="M17.7143 81.9286C17.7143 83.1515 16.7229 84.1429 15.5 84.1429C14.2771 84.1429 13.2857 83.1515 13.2857 81.9286C13.2857 80.7057 14.2771 79.7143 15.5 79.7143C16.7229 79.7143 17.7143 80.7057 17.7143 81.9286Z" fill="#1F6538"/>
<path d="M31 81.9286C31 83.1515 30.0086 84.1429 28.7857 84.1429C27.5628 84.1429 26.5714 83.1515 26.5714 81.9286C26.5714 80.7057 27.5628 79.7143 28.7857 79.7143C30.0086 79.7143 31 80.7057 31 81.9286Z" fill="#1F6538"/>
<path d="M44.2857 81.9286C44.2857 83.1515 43.2943 84.1429 42.0714 84.1429C40.8485 84.1429 39.8571 83.1515 39.8571 81.9286C39.8571 80.7057 40.8485 79.7143 42.0714 79.7143C43.2943 79.7143 44.2857 80.7057 44.2857 81.9286Z" fill="#1F6538"/>
<path d="M57.5714 81.9286C57.5714 83.1515 56.5801 84.1429 55.3571 84.1429C54.1342 84.1429 53.1429 83.1515 53.1429 81.9286C53.1429 80.7057 54.1342 79.7143 55.3571 79.7143C56.5801 79.7143 57.5714 80.7057 57.5714 81.9286Z" fill="#1F6538"/>
<path d="M70.8571 81.9286C70.8571 83.1515 69.8658 84.1429 68.6429 84.1429C67.4199 84.1429 66.4286 83.1515 66.4286 81.9286C66.4286 80.7057 67.4199 79.7143 68.6429 79.7143C69.8658 79.7143 70.8571 80.7057 70.8571 81.9286Z" fill="#1F6538"/>
<path d="M84.1429 81.9286C84.1429 83.1515 83.1515 84.1429 81.9286 84.1429C80.7057 84.1429 79.7143 83.1515 79.7143 81.9286C79.7143 80.7057 80.7057 79.7143 81.9286 79.7143C83.1515 79.7143 84.1429 80.7057 84.1429 81.9286Z" fill="#1F6538"/>
<path d="M97.4286 81.9286C97.4286 83.1515 96.4372 84.1429 95.2143 84.1429C93.9914 84.1429 93 83.1515 93 81.9286C93 80.7057 93.9914 79.7143 95.2143 79.7143C96.4372 79.7143 97.4286 80.7057 97.4286 81.9286Z" fill="#1F6538"/>
<path d="M110.714 81.9286C110.714 83.1515 109.723 84.1429 108.5 84.1429C107.277 84.1429 106.286 83.1515 106.286 81.9286C106.286 80.7057 107.277 79.7143 108.5 79.7143C109.723 79.7143 110.714 80.7057 110.714 81.9286Z" fill="#1F6538"/>
<path d="M124 81.9286C124 83.1515 123.009 84.1429 121.786 84.1429C120.563 84.1429 119.571 83.1515 119.571 81.9286C119.571 80.7057 120.563 79.7143 121.786 79.7143C123.009 79.7143 124 80.7057 124 81.9286Z" fill="#1F6538"/>
<path d="M17.7143 95.2143C17.7143 96.4372 16.7229 97.4286 15.5 97.4286C14.2771 97.4286 13.2857 96.4372 13.2857 95.2143C13.2857 93.9914 14.2771 93 15.5 93C16.7229 93 17.7143 93.9914 17.7143 95.2143Z" fill="#1F6538"/>
<path d="M31 95.2143C31 96.4372 30.0086 97.4286 28.7857 97.4286C27.5628 97.4286 26.5714 96.4372 26.5714 95.2143C26.5714 93.9914 27.5628 93 28.7857 93C30.0086 93 31 93.9914 31 95.2143Z" fill="#1F6538"/>
<path d="M44.2857 95.2143C44.2857 96.4372 43.2943 97.4286 42.0714 97.4286C40.8485 97.4286 39.8571 96.4372 39.8571 95.2143C39.8571 93.9914 40.8485 93 42.0714 93C43.2943 93 44.2857 93.9914 44.2857 95.2143Z" fill="#1F6538"/>
<path d="M57.5714 95.2143C57.5714 96.4372 56.5801 97.4286 55.3571 97.4286C54.1342 97.4286 53.1429 96.4372 53.1429 95.2143C53.1429 93.9914 54.1342 93 55.3571 93C56.5801 93 57.5714 93.9914 57.5714 95.2143Z" fill="#1F6538"/>
<path d="M70.8571 95.2143C70.8571 96.4372 69.8658 97.4286 68.6429 97.4286C67.4199 97.4286 66.4286 96.4372 66.4286 95.2143C66.4286 93.9914 67.4199 93 68.6429 93C69.8658 93 70.8571 93.9914 70.8571 95.2143Z" fill="#1F6538"/>
<path d="M84.1429 95.2143C84.1429 96.4372 83.1515 97.4286 81.9286 97.4286C80.7057 97.4286 79.7143 96.4372 79.7143 95.2143C79.7143 93.9914 80.7057 93 81.9286 93C83.1515 93 84.1429 93.9914 84.1429 95.2143Z" fill="#1F6538"/>
<path d="M97.4286 95.2143C97.4286 96.4372 96.4372 97.4286 95.2143 97.4286C93.9914 97.4286 93 96.4372 93 95.2143C93 93.9914 93.9914 93 95.2143 93C96.4372 93 97.4286 93.9914 97.4286 95.2143Z" fill="#1F6538"/>
<path d="M110.714 95.2143C110.714 96.4372 109.723 97.4286 108.5 97.4286C107.277 97.4286 106.286 96.4372 106.286 95.2143C106.286 93.9914 107.277 93 108.5 93C109.723 93 110.714 93.9914 110.714 95.2143Z" fill="#1F6538"/>
<path d="M31 108.5C31 109.723 30.0086 110.714 28.7857 110.714C27.5628 110.714 26.5714 109.723 26.5714 108.5C26.5714 107.277 27.5628 106.286 28.7857 106.286C30.0086 106.286 31 107.277 31 108.5Z" fill="#1F6538"/>
<path d="M44.2857 108.5C44.2857 109.723 43.2943 110.714 42.0714 110.714C40.8485 110.714 39.8571 109.723 39.8571 108.5C39.8571 107.277 40.8485 106.286 42.0714 106.286C43.2943 106.286 44.2857 107.277 44.2857 108.5Z" fill="#1F6538"/>
<path d="M57.5714 108.5C57.5714 109.723 56.5801 110.714 55.3571 110.714C54.1342 110.714 53.1429 109.723 53.1429 108.5C53.1429 107.277 54.1342 106.286 55.3571 106.286C56.5801 106.286 57.5714 107.277 57.5714 108.5Z" fill="#1F6538"/>
<path d="M70.8571 108.5C70.8571 109.723 69.8658 110.714 68.6429 110.714C67.4199 110.714 66.4286 109.723 66.4286 108.5C66.4286 107.277 67.4199 106.286 68.6429 106.286C69.8658 106.286 70.8571 107.277 70.8571 108.5Z" fill="#1F6538"/>
<path d="M84.1429 108.5C84.1429 109.723 83.1515 110.714 81.9286 110.714C80.7057 110.714 79.7143 109.723 79.7143 108.5C79.7143 107.277 80.7057 106.286 81.9286 106.286C83.1515 106.286 84.1429 107.277 84.1429 108.5Z" fill="#1F6538"/>
<path d="M97.4286 108.5C97.4286 109.723 96.4372 110.714 95.2143 110.714C93.9914 110.714 93 109.723 93 108.5C93 107.277 93.9914 106.286 95.2143 106.286C96.4372 106.286 97.4286 107.277 97.4286 108.5Z" fill="#1F6538"/>
<path d="M44.2857 121.786C44.2857 123.009 43.2943 124 42.0714 124C40.8485 124 39.8571 123.009 39.8571 121.786C39.8571 120.563 40.8485 119.571 42.0714 119.571C43.2943 119.571 44.2857 120.563 44.2857 121.786Z" fill="#1F6538"/>
<path d="M57.5714 121.786C57.5714 123.009 56.5801 124 55.3571 124C54.1342 124 53.1429 123.009 53.1429 121.786C53.1429 120.563 54.1342 119.571 55.3571 119.571C56.5801 119.571 57.5714 120.563 57.5714 121.786Z" fill="#1F6538"/>
<path d="M70.8571 121.786C70.8571 123.009 69.8658 124 68.6429 124C67.4199 124 66.4286 123.009 66.4286 121.786C66.4286 120.563 67.4199 119.571 68.6429 119.571C69.8658 119.571 70.8571 120.563 70.8571 121.786Z" fill="#1F6538"/>
<path d="M84.1429 121.786C84.1429 123.009 83.1515 124 81.9286 124C80.7057 124 79.7143 123.009 79.7143 121.786C79.7143 120.563 80.7057 119.571 81.9286 119.571C83.1515 119.571 84.1429 120.563 84.1429 121.786Z" fill="#1F6538"/>
</svg>
