<svg width="293" height="136" viewBox="0 0 293 136" fill="none" xmlns="http://www.w3.org/2000/svg">
<path fill-rule="evenodd" clip-rule="evenodd" d="M121 0L121 136L3.27208e-06 136L9.29832e-06 -5.21755e-06L121 0ZM120.784 0.2125L120.784 16.7875L103.93 16.7875L103.93 0.212499L120.784 0.2125ZM120.784 17.2125L120.784 33.7875L103.93 33.7875L103.93 17.2125L120.784 17.2125ZM120.784 50.7875L120.784 34.2125L103.93 34.2125L103.93 50.7875L120.784 50.7875ZM120.784 51.2125L120.784 67.7875L103.93 67.7875L103.93 51.2125L120.784 51.2125ZM120.784 84.7875L120.784 68.2125L103.93 68.2125L103.93 84.7875L120.784 84.7875ZM120.784 85.2125L120.784 101.788L103.93 101.788L103.93 85.2125L120.784 85.2125ZM120.784 118.788L120.784 102.213L103.93 102.213L103.93 118.788L120.784 118.788ZM120.784 119.213L120.784 135.788L103.93 135.788L103.93 119.213L120.784 119.213ZM103.498 16.7875L103.498 0.212499L86.6446 0.212499L86.6446 16.7875L103.498 16.7875ZM103.498 17.2125L103.498 33.7875L86.6446 33.7875L86.6446 17.2125L103.498 17.2125ZM103.498 50.7875L103.498 34.2125L86.6446 34.2125L86.6446 50.7875L103.498 50.7875ZM103.498 51.2125L103.498 67.7875L86.6446 67.7875L86.6446 51.2125L103.498 51.2125ZM103.498 84.7875L103.498 68.2125L86.6446 68.2125L86.6446 84.7875L103.498 84.7875ZM103.498 85.2125L103.498 101.788L86.6446 101.788L86.6446 85.2125L103.498 85.2125ZM103.498 118.788L103.498 102.213L86.6446 102.213L86.6446 118.788L103.498 118.788ZM103.498 119.213L103.498 135.788L86.6446 135.788L86.6446 119.213L103.498 119.213ZM86.2125 16.7875L86.2125 0.212499L69.3589 0.212498L69.3589 16.7875L86.2125 16.7875ZM86.2125 17.2125L86.2125 33.7875L69.3589 33.7875L69.3589 17.2125L86.2125 17.2125ZM86.2125 50.7875L86.2125 34.2125L69.3589 34.2125L69.3589 50.7875L86.2125 50.7875ZM86.2125 51.2125L86.2125 67.7875L69.3589 67.7875L69.3589 51.2125L86.2125 51.2125ZM86.2125 84.7875L86.2125 68.2125L69.3589 68.2125L69.3589 84.7875L86.2125 84.7875ZM86.2125 85.2125L86.2125 101.788L69.3589 101.788L69.3589 85.2125L86.2125 85.2125ZM86.2125 118.788L86.2125 102.213L69.3589 102.213L69.3589 118.788L86.2125 118.788ZM86.2125 119.213L86.2125 135.788L69.3589 135.788L69.3589 119.213L86.2125 119.213ZM68.9268 16.7875L68.9268 0.212498L52.0732 0.212497L52.0732 16.7875L68.9268 16.7875ZM68.9268 17.2125L68.9268 33.7875L52.0732 33.7875L52.0732 17.2125L68.9268 17.2125ZM68.9268 50.7875L68.9268 34.2125L52.0732 34.2125L52.0732 50.7875L68.9268 50.7875ZM68.9268 51.2125L68.9268 67.7875L52.0732 67.7875L52.0732 51.2125L68.9268 51.2125ZM68.9268 84.7875L68.9268 68.2125L52.0732 68.2125L52.0732 84.7875L68.9268 84.7875ZM68.9268 85.2125L68.9268 101.788L52.0732 101.787L52.0732 85.2125L68.9268 85.2125ZM68.9268 118.788L68.9268 102.213L52.0732 102.212L52.0732 118.788L68.9268 118.788ZM68.9268 119.213L68.9268 135.788L52.0732 135.788L52.0732 119.213L68.9268 119.213ZM51.6411 16.7875L51.6411 0.212497L34.7875 0.212496L34.7875 16.7875L51.6411 16.7875ZM51.6411 17.2125L51.6411 33.7875L34.7875 33.7875L34.7875 17.2125L51.6411 17.2125ZM51.6411 50.7875L51.6411 34.2125L34.7875 34.2125L34.7875 50.7875L51.6411 50.7875ZM51.6411 51.2125L51.6411 67.7875L34.7875 67.7875L34.7875 51.2125L51.6411 51.2125ZM51.6411 84.7875L51.6411 68.2125L34.7875 68.2125L34.7875 84.7875L51.6411 84.7875ZM51.6411 85.2125L51.6411 101.787L34.7875 101.787L34.7875 85.2125L51.6411 85.2125ZM51.6411 118.788L51.6411 102.212L34.7875 102.212L34.7875 118.787L51.6411 118.788ZM51.6411 119.213L51.6411 135.788L34.7875 135.788L34.7875 119.212L51.6411 119.213ZM34.3554 16.7875L34.3554 0.212496L17.5018 0.212496L17.5018 16.7875L34.3554 16.7875ZM34.3554 17.2125L34.3554 33.7875L17.5018 33.7875L17.5018 17.2125L34.3554 17.2125ZM34.3554 50.7875L34.3554 34.2125L17.5018 34.2125L17.5018 50.7875L34.3554 50.7875ZM34.3554 51.2125L34.3554 67.7875L17.5018 67.7875L17.5018 51.2125L34.3554 51.2125ZM34.3554 84.7875L34.3554 68.2125L17.5018 68.2125L17.5018 84.7875L34.3554 84.7875ZM34.3554 85.2125L34.3554 101.787L17.5018 101.787L17.5018 85.2125L34.3554 85.2125ZM34.3554 118.787L34.3554 102.212L17.5018 102.212L17.5018 118.787L34.3554 118.787ZM34.3554 119.212L34.3554 135.788L17.5018 135.787L17.5018 119.212L34.3554 119.212ZM17.0697 16.7875L17.0697 0.212496L0.216081 0.212495L0.21608 16.7875L17.0697 16.7875ZM17.0697 17.2125L17.0696 33.7875L0.216079 33.7875L0.21608 17.2125L17.0697 17.2125ZM17.0696 50.7875L17.0696 34.2125L0.216079 34.2125L0.216078 50.7875L17.0696 50.7875ZM17.0696 51.2125L17.0696 67.7875L0.216078 67.7875L0.216078 51.2125L17.0696 51.2125ZM17.0696 84.7875L17.0696 68.2125L0.216078 68.2125L0.216077 84.7875L17.0696 84.7875ZM17.0696 85.2125L17.0696 101.787L0.216076 101.787L0.216077 85.2125L17.0696 85.2125ZM17.0696 118.787L17.0696 102.212L0.216076 102.212L0.216075 118.787L17.0696 118.787ZM17.0696 119.212L17.0696 135.787L0.216075 135.787L0.216075 119.212L17.0696 119.212Z" fill="#9C386F"/>
<path d="M186.122 33.1677C186.122 33.1677 190.162 23.1898 197.363 23.584C204.565 23.9783 207.672 34.3474 214.874 34.7416C222.075 35.1359 226.327 25.1696 233.528 25.5638C240.73 25.9581 243.838 36.3272 251.039 36.7214C258.241 37.1157 257.759 26.8903 269.694 27.5436C281.628 28.1969 291.212 35.1631 291.212 35.1631" stroke="#9C386F" stroke-width="1.66827" stroke-linecap="round"/>
<path d="M177.147 99.6405C177.147 99.6405 186.74 97.3733 192.158 88.3489C197.575 79.3245 204.896 92.0047 210.622 89.1484C216.349 86.292 216.741 79.8902 222.467 77.0338C228.193 74.1775 233.653 77.6605 239.379 74.8041C245.105 71.9477 240.181 64.394 249.671 59.6604C259.161 54.9268 259.599 61.8828 268.62 59.5138" stroke="#9C386F" stroke-width="0.834135" stroke-linecap="round" stroke-dasharray="0.83 4.17"/>
<path d="M228.186 105.32C238.29 102.055 235.39 122.575 241.605 124.149C247.82 125.724 252.326 114.941 258.541 116.515C264.756 118.09 266.535 124.258 272.75 125.833C278.965 127.408 279.517 119.017 290.608 121.135" stroke="#9C386F" stroke-width="1.66827" stroke-linecap="round" stroke-dasharray="3.34 3.34"/>
</svg>
