<svg width="295" height="136" viewBox="0 0 295 136" fill="none" xmlns="http://www.w3.org/2000/svg">
<path d="M276.503 42.5078C276.503 42.5078 264.07 41.9066 256.681 44.2815C242.697 48.7763 217.57 60.8284 229.153 69.5968C239.227 77.2233 251.245 68.4539 251.423 59.144C251.629 48.3874 230.413 55.1019 218.335 59.6283C207.306 63.7613 200.72 71.0773 200.72 71.0773" stroke="#5750A8" stroke-width="2" stroke-linecap="round"/>
<path d="M252.315 128.255C252.08 128.752 252.299 129.342 252.804 129.573L261.028 133.337C261.533 133.568 262.132 133.353 262.367 132.856C262.601 132.359 262.382 131.769 261.878 131.538L254.567 128.192L257.966 120.994C258.2 120.497 257.981 119.907 257.477 119.676C256.972 119.445 256.372 119.66 256.138 120.157L252.315 128.255ZM276.078 98.7773L275.822 99.7371L276.078 98.7773ZM265.415 122.274L266.075 123.023L265.415 122.274ZM285.725 102.277L286.422 102.994L285.725 102.277ZM264.704 111.376L265.639 111.007L264.704 111.376ZM253.228 128.673C253.574 129.605 253.574 129.605 253.574 129.605C253.574 129.605 253.574 129.605 253.574 129.605C253.574 129.605 253.574 129.605 253.574 129.605C253.575 129.605 253.575 129.605 253.575 129.605C253.576 129.605 253.576 129.604 253.577 129.604C253.578 129.604 253.581 129.603 253.583 129.602C253.589 129.6 253.596 129.597 253.607 129.593C253.627 129.586 253.656 129.575 253.695 129.561C253.771 129.533 253.883 129.491 254.026 129.437C254.311 129.329 254.721 129.171 255.223 128.969L254.459 127.132C253.972 127.328 253.576 127.482 253.302 127.585C253.165 127.637 253.059 127.677 252.988 127.703C252.952 127.716 252.925 127.726 252.908 127.732C252.899 127.735 252.892 127.738 252.888 127.739C252.886 127.74 252.884 127.741 252.883 127.741C252.883 127.741 252.883 127.741 252.883 127.741C252.883 127.741 252.882 127.741 252.882 127.741C252.882 127.741 252.882 127.741 252.882 127.741C252.883 127.741 252.883 127.741 252.883 127.741C252.883 127.741 252.883 127.741 253.228 128.673ZM258.444 127.575C259.449 127.109 260.529 126.576 261.594 125.994L260.616 124.259C259.599 124.815 258.56 125.328 257.586 125.78L258.444 127.575ZM264.633 124.132C265.143 123.775 265.629 123.405 266.075 123.023L264.754 121.525C264.366 121.857 263.933 122.187 263.465 122.515L264.633 124.132ZM266.075 123.023C266.544 122.623 267.03 122.195 267.527 121.744L266.162 120.284C265.678 120.723 265.207 121.138 264.754 121.525L266.075 123.023ZM270.322 119.076C271.213 118.183 272.108 117.241 272.98 116.273L271.471 114.957C270.624 115.898 269.752 116.815 268.883 117.686L270.322 119.076ZM275.48 113.318C276.31 112.27 277.084 111.211 277.766 110.164L276.07 109.092C275.427 110.079 274.69 111.089 273.89 112.099L275.48 113.318ZM279.678 106.702C280.288 105.306 280.67 103.918 280.643 102.635L278.628 102.677C278.646 103.566 278.378 104.657 277.827 105.917L279.678 106.702ZM278.389 98.6588C277.804 98.2983 277.117 98.0197 276.333 97.8175L275.822 99.7371C276.449 99.8988 276.94 100.107 277.319 100.341L278.389 98.6588ZM276.333 97.8175C275.689 97.6515 275.059 97.5421 274.442 97.4856L274.256 99.4615C274.759 99.5076 275.281 99.5976 275.822 99.7371L276.333 97.8175ZM270.585 97.8522C269.299 98.2356 268.151 98.8672 267.166 99.6687L268.45 101.198C269.243 100.554 270.155 100.054 271.169 99.7515L270.585 97.8522ZM264.685 102.561C264.036 103.655 263.572 104.853 263.32 106.081L265.296 106.474C265.504 105.461 265.887 104.468 266.425 103.563L264.685 102.561ZM263.239 109.879C263.348 110.515 263.523 111.141 263.768 111.744L265.639 111.007C265.45 110.541 265.313 110.052 265.226 109.549L263.239 109.879ZM263.768 111.744C264.134 112.645 264.655 113.365 265.339 113.877L266.558 112.296C266.219 112.043 265.897 111.642 265.639 111.007L263.768 111.744ZM270.379 114.368C271.697 113.981 273.101 113.306 274.513 112.474L273.477 110.772C272.144 111.557 270.901 112.144 269.802 112.467L270.379 114.368ZM278.17 110.023C279.328 109.165 280.477 108.246 281.582 107.318L280.275 105.808C279.193 106.715 278.076 107.608 276.958 108.437L278.17 110.023ZM284.84 104.46C285.394 103.955 285.923 103.463 286.422 102.994L285.029 101.56C284.537 102.022 284.016 102.507 283.471 103.004L284.84 104.46ZM286.422 102.994C286.89 102.553 287.336 102.107 287.76 101.659L286.285 100.306C285.887 100.727 285.468 101.146 285.029 101.56L286.422 102.994ZM290.192 98.7864C291.016 97.6999 291.714 96.6474 292.299 95.6799L290.567 94.6648C290.014 95.5794 289.354 96.574 288.577 97.5997L290.192 98.7864ZM294.066 92.3689C294.315 91.8291 294.498 91.3926 294.619 91.0878C294.679 90.9354 294.724 90.8159 294.755 90.7328C294.77 90.6912 294.782 90.6587 294.79 90.6358C294.794 90.6244 294.797 90.6153 294.8 90.6087C294.801 90.6054 294.802 90.6027 294.802 90.6006C294.803 90.5995 294.803 90.5986 294.803 90.5979C294.804 90.5975 294.804 90.5972 294.804 90.5969C294.804 90.5968 294.804 90.5966 294.804 90.5965C294.804 90.5964 294.804 90.5964 294.804 90.5963C294.804 90.5962 294.804 90.5962 293.849 90.2785C292.895 89.9608 292.895 89.9607 292.895 89.9606C292.895 89.9606 292.895 89.9605 292.895 89.9605C292.895 89.9604 292.895 89.9603 292.895 89.9602C292.895 89.9601 292.895 89.96 292.895 89.96C292.895 89.9598 292.895 89.9599 292.895 89.9601C292.895 89.9604 292.894 89.9614 292.894 89.963C292.893 89.9662 292.891 89.9718 292.888 89.9798C292.882 89.9957 292.873 90.021 292.861 90.0553C292.835 90.1239 292.796 90.2284 292.741 90.3653C292.633 90.6392 292.465 91.0422 292.231 91.5466L294.066 92.3689Z" fill="#5750A8"/>
<path fill-rule="evenodd" clip-rule="evenodd" d="M41.9535 2C40.9004 2 40.0465 2.84428 40.0465 3.88571V132.114C40.0465 133.156 40.9004 134 41.9535 134C43.0066 134 43.8605 133.156 43.8605 132.114V3.88571C43.8605 2.84428 43.0066 2 41.9535 2ZM28.6047 20.8571C27.5515 20.8571 26.6977 21.7014 26.6977 22.7429V132.114C26.6977 133.156 27.5515 134 28.6047 134C29.6578 134 30.5116 133.156 30.5116 132.114V22.7429C30.5116 21.7014 29.6578 20.8571 28.6047 20.8571ZM15.2558 39.7143C14.2027 39.7143 13.3488 40.5585 13.3488 41.6V132.114C13.3488 133.156 14.2027 134 15.2558 134C16.3089 134 17.1628 133.156 17.1628 132.114V41.6C17.1628 40.5585 16.3089 39.7143 15.2558 39.7143ZM1.90698 58.5714C0.853858 58.5714 0 59.4156 0 60.4571V132.114C0 133.156 0.853858 134 1.90698 134C2.9601 134 3.81396 133.156 3.81396 132.114V60.4571C3.81396 59.4156 2.9601 58.5714 1.90698 58.5714ZM123.953 117.029C123.953 115.987 123.1 115.143 122.047 115.143C120.993 115.143 120.14 115.987 120.14 117.029V132.114C120.14 133.156 120.993 134 122.047 134C123.1 134 123.953 133.156 123.953 132.114V117.029ZM110.605 98.1714C110.605 97.1299 109.751 96.2857 108.698 96.2857C107.645 96.2857 106.791 97.1299 106.791 98.1714V132.114C106.791 133.156 107.645 134 108.698 134C109.751 134 110.605 133.156 110.605 132.114V98.1714ZM97.2558 79.3143C97.2558 78.2728 96.402 77.4286 95.3488 77.4286C94.2957 77.4286 93.4419 78.2728 93.4419 79.3143V132.114C93.4419 133.156 94.2957 134 95.3488 134C96.402 134 97.2558 133.156 97.2558 132.114V79.3143ZM83.907 60.4571C83.907 59.4156 83.0531 58.5714 82 58.5714C80.9469 58.5714 80.093 59.4156 80.093 60.4571V132.114C80.093 133.156 80.9469 134 82 134C83.0531 134 83.907 133.156 83.907 132.114V60.4571ZM70.5581 41.6C70.5581 40.5585 69.7043 39.7143 68.6512 39.7143C67.598 39.7143 66.7442 40.5585 66.7442 41.6V132.114C66.7442 133.156 67.598 134 68.6512 134C69.7043 134 70.5581 133.156 70.5581 132.114V41.6ZM57.2093 22.7429C57.2093 21.7014 56.3554 20.8571 55.3023 20.8571C54.2492 20.8571 53.3953 21.7014 53.3953 22.7429V132.114C53.3953 133.156 54.2492 134 55.3023 134C56.3554 134 57.2093 133.156 57.2093 132.114V22.7429Z" fill="#5750A8"/>
</svg>
