<svg width="293" height="136" viewBox="0 0 293 136" fill="none" xmlns="http://www.w3.org/2000/svg">
<path d="M43.0883 1.56017C43.5422 1.36889 43.9985 1.18215 44.4572 1H97.4606C97.9193 1.18215 98.3756 1.36889 98.8295 1.56017H43.0883Z" fill="#7D7234"/>
<path d="M32.4226 7.16183C32.7183 6.97299 33.0155 6.78626 33.3142 6.60166H108.604C108.902 6.78626 109.199 6.97299 109.495 7.16183H32.4226Z" fill="#7D7234"/>
<path d="M25.4877 12.2033C25.2626 12.3887 25.0386 12.5754 24.8159 12.7635H117.102C116.879 12.5754 116.655 12.3887 116.43 12.2033H25.4877Z" fill="#7D7234"/>
<path d="M18.9044 18.3651C19.081 18.1775 19.2586 17.9907 19.4372 17.805H122.481C122.659 17.9907 122.837 18.1775 123.013 18.3651H18.9044Z" fill="#7D7234"/>
<path d="M14.5891 23.4066C14.4445 23.5926 14.3008 23.7794 14.1581 23.9668H55.9104C56.5094 23.7685 57.1138 23.5817 57.7232 23.4066H14.5891Z" fill="#7D7234"/>
<path d="M84.1946 23.4066C84.804 23.5817 85.4084 23.7685 86.0074 23.9668H127.76C127.617 23.7794 127.473 23.5926 127.329 23.4066H84.1946Z" fill="#7D7234"/>
<path d="M45.3113 29.0083H10.6558C10.5383 29.1944 10.4216 29.3812 10.3057 29.5685H44.4543C44.7378 29.3788 45.0235 29.192 45.3113 29.0083Z" fill="#7D7234"/>
<path d="M97.4635 29.5685C97.18 29.3788 96.8943 29.192 96.6065 29.0083H131.262C131.38 29.1944 131.496 29.3812 131.612 29.5685H97.4635Z" fill="#7D7234"/>
<path d="M38.1542 34.61H7.47006C7.37527 34.7962 7.2813 34.9829 7.18816 35.1701H37.5749C37.7664 34.9818 37.9595 34.7951 38.1542 34.61Z" fill="#7D7234"/>
<path d="M104.343 35.1701C104.151 34.9818 103.958 34.7951 103.764 34.61H134.448C134.543 34.7962 134.636 34.9829 134.73 35.1701H104.343Z" fill="#7D7234"/>
<path d="M33.1313 40.2116H4.92594C4.85113 40.3979 4.7771 40.5847 4.70387 40.7718H32.7112C32.8499 40.584 32.9899 40.3973 33.1313 40.2116Z" fill="#7D7234"/>
<path d="M109.207 40.7718C109.068 40.584 108.928 40.3973 108.786 40.2116H136.992C137.067 40.3979 137.141 40.5847 137.214 40.7718H109.207Z" fill="#7D7234"/>
<path d="M29.466 45.8133H2.95282C2.89608 45.9997 2.8401 46.1864 2.7849 46.3734H29.1595C29.2604 46.186 29.3626 45.9992 29.466 45.8133Z" fill="#7D7234"/>
<path d="M112.758 46.3734C112.657 46.186 112.555 45.9992 112.452 45.8133H138.965C139.022 45.9997 139.078 46.1864 139.133 46.3734H112.758Z" fill="#7D7234"/>
<path d="M26.8247 51.4149H1.50221C1.46221 51.6014 1.42297 51.7881 1.38449 51.9751H26.6094C26.68 51.7878 26.7518 51.6011 26.8247 51.4149Z" fill="#7D7234"/>
<path d="M115.308 51.9751C115.238 51.7878 115.166 51.6011 115.093 51.4149H140.416C140.456 51.6014 140.495 51.7881 140.533 51.9751H115.308Z" fill="#7D7234"/>
<path d="M25.0339 57.0166H0.54049C0.516331 57.2031 0.492915 57.3898 0.470247 57.5768H24.8973C24.9417 57.3896 24.9872 57.2029 25.0339 57.0166Z" fill="#7D7234"/>
<path d="M117.02 57.5768C116.976 57.3896 116.931 57.2029 116.884 57.0166H141.377C141.401 57.2031 141.425 57.3898 141.448 57.5768H117.02Z" fill="#7D7234"/>
<path d="M23.9953 62.6183H0.0446878C0.03575 62.8048 0.0275523 62.9915 0.0200974 63.1784H23.9303C23.9509 62.9914 23.9725 62.8046 23.9953 62.6183Z" fill="#7D7234"/>
<path d="M117.987 63.1784C117.967 62.9914 117.945 62.8046 117.923 62.6183H141.873C141.882 62.8048 141.89 62.9915 141.898 63.1784H117.987Z" fill="#7D7234"/>
<path d="M23.653 68.2199H0C0.00595737 68.4068 0.0126574 68.5935 0.0200973 68.7801H23.6558C23.6539 68.6091 23.653 68.4379 23.653 68.2664C23.653 68.2509 23.653 68.2354 23.653 68.2199Z" fill="#7D7234"/>
<path d="M118.262 68.7801C118.264 68.6091 118.265 68.4379 118.265 68.2664C118.265 68.2509 118.265 68.2354 118.265 68.2199H141.918C141.916 68.2769 141.914 68.3338 141.912 68.3907C141.908 68.5206 141.903 68.6504 141.898 68.7801H118.262Z" fill="#7D7234"/>
<path d="M23.984 73.8216H0.404638C0.425762 74.0085 0.447633 74.1952 0.470247 74.3817H24.0547C24.03 74.1954 24.0064 74.0086 23.984 73.8216Z" fill="#7D7234"/>
<path d="M117.863 74.3817C117.888 74.1954 117.911 74.0086 117.934 73.8216H141.513C141.492 74.0085 141.47 74.1952 141.448 74.3817H117.863Z" fill="#7D7234"/>
<path d="M25.0107 79.4232H1.27162C1.30849 79.6102 1.34611 79.797 1.38449 79.9834H25.1534C25.1047 79.7971 25.0571 79.6104 25.0107 79.4232Z" fill="#7D7234"/>
<path d="M116.764 79.9834C116.813 79.7971 116.861 79.6104 116.907 79.4232H140.646C140.609 79.6102 140.572 79.797 140.533 79.9834H116.764Z" fill="#7D7234"/>
<path d="M26.7884 85.0249H2.62215C2.67564 85.2119 2.72989 85.3987 2.7849 85.5851H27.0107C26.9354 85.3989 26.8613 85.2122 26.7884 85.0249Z" fill="#7D7234"/>
<path d="M114.907 85.5851C114.982 85.3989 115.056 85.2122 115.129 85.0249H139.296C139.242 85.2119 139.188 85.3987 139.133 85.5851H114.907Z" fill="#7D7234"/>
<path d="M29.4144 90.6266H4.48744C4.5588 90.8137 4.63094 91.0004 4.70387 91.1867H29.7293C29.6231 91.0008 29.5181 90.8141 29.4144 90.6266Z" fill="#7D7234"/>
<path d="M112.188 91.1867C112.295 91.0008 112.4 90.8141 112.503 90.6266H137.43C137.359 90.8137 137.287 91.0004 137.214 91.1867H112.188Z" fill="#7D7234"/>
<path d="M33.0607 96.2282H6.91256C7.00361 96.4154 7.09548 96.6021 7.18816 96.7884H33.4919C33.3467 96.6028 33.203 96.416 33.0607 96.2282Z" fill="#7D7234"/>
<path d="M108.426 96.7884C108.571 96.6028 108.715 96.416 108.857 96.2282H135.005C134.914 96.4154 134.822 96.6021 134.73 96.7884H108.426Z" fill="#7D7234"/>
<path d="M38.0566 101.83H9.96292C10.0763 102.017 10.1906 102.204 10.3057 102.39H38.6527C38.4524 102.205 38.2537 102.018 38.0566 101.83Z" fill="#7D7234"/>
<path d="M103.265 102.39C103.465 102.205 103.664 102.018 103.861 101.83H131.955C131.841 102.017 131.727 102.204 131.612 102.39H103.265Z" fill="#7D7234"/>
<path d="M45.1661 107.432H13.7358C13.8757 107.619 14.0164 107.806 14.1581 107.992H46.0583C45.7587 107.808 45.4612 107.621 45.1661 107.432Z" fill="#7D7234"/>
<path d="M95.8595 107.992C96.1591 107.808 96.4566 107.621 96.7517 107.432H128.182C128.042 107.619 127.901 107.806 127.76 107.992H95.8595Z" fill="#7D7234"/>
<path d="M57.4035 113.033H18.3831C18.5559 113.221 18.7296 113.408 18.9044 113.593H59.4753C58.7784 113.422 58.0877 113.235 57.4035 113.033Z" fill="#7D7234"/>
<path d="M82.4425 113.593C83.1394 113.422 83.8301 113.235 84.5143 113.033H123.535C123.362 113.221 123.188 113.408 123.013 113.593H82.4425Z" fill="#7D7234"/>
<path d="M24.8159 119.195C24.5962 119.01 24.3778 118.823 24.1605 118.635H117.757C117.54 118.823 117.322 119.01 117.102 119.195H24.8159Z" fill="#7D7234"/>
<path d="M31.5593 124.237C31.8456 124.425 32.1334 124.612 32.4226 124.797H109.495C109.784 124.612 110.072 124.425 110.358 124.237H31.5593Z" fill="#7D7234"/>
<path d="M43.0883 130.398C42.655 130.216 42.2238 130.029 41.795 129.838H100.123C99.694 130.029 99.2629 130.216 98.8295 130.398H43.0883Z" fill="#7D7234"/>
<path d="M70.9589 136C74.0155 136 77.027 135.809 79.9818 135.44H61.936C64.8908 135.809 67.9023 136 70.9589 136Z" fill="#7D7234"/>
<path d="M222.123 52L224.059 59.4847L231.247 61.5L224.059 63.5153L222.123 71L220.188 63.5153L213 61.5L220.188 59.4847L222.123 52Z" fill="#7D7234"/>
<path fill-rule="evenodd" clip-rule="evenodd" d="M271.496 80.6332L266.581 63L261.666 80.6332L243.411 85.381L261.666 90.1287L266.581 107.762L267.428 104.725L267.669 105.592L268.415 105.398L267.828 103.29L271.496 90.1287L285.122 86.585L287.304 87.1525L287.505 86.4321L286.607 86.1987L289.751 85.381L271.496 80.6332ZM286.607 86.1987L284.462 85.6408L284.261 86.3612L285.122 86.585L286.607 86.1987ZM267.828 103.29L267.596 102.459L266.85 102.653L267.428 104.725L267.828 103.29ZM269.308 66.7075L269.287 66.713L269.234 66.9015L268.898 66.8141L268.562 66.9015L268.509 66.713L268.489 66.7075L268.898 65.2381L269.308 66.7075ZM270.127 69.6464L270.946 72.5853L270.2 72.7792L269.381 69.8404L270.127 69.6464ZM271.765 75.5241L272.585 78.463L271.839 78.657L271.02 75.7181L271.765 75.5241ZM273.404 81.4019L273.813 82.8713L275.335 83.267L275.134 83.9874L273.183 83.48L272.658 81.5959L273.404 81.4019ZM278.377 84.0583L281.42 84.8495L281.219 85.5699L278.176 84.7786L278.377 84.0583ZM290.542 87.2436L290.547 87.2234L292.068 87.619L290.547 88.0147L290.542 87.9945L290.346 87.9438L290.437 87.619L290.346 87.2943L290.542 87.2436ZM287.505 88.806L284.462 89.5973L284.261 88.8769L287.304 88.0856L287.505 88.806ZM281.42 90.3885L278.377 91.1798L278.176 90.4595L281.219 89.6682L281.42 90.3885ZM275.335 91.9711L273.813 92.3668L273.404 93.8362L272.658 93.6422L273.183 91.7581L275.134 91.2507L275.335 91.9711ZM272.585 96.7751L271.765 99.7139L271.02 99.52L271.839 96.5811L272.585 96.7751ZM270.946 102.653L270.127 105.592L269.381 105.398L270.2 102.459L270.946 102.653ZM269.287 108.525L269.308 108.531L268.898 110L268.489 108.531L268.509 108.525L268.562 108.337L268.898 108.424L269.234 108.337L269.287 108.525ZM266.031 99.7139L265.212 96.7751L265.958 96.5811L266.777 99.52L266.031 99.7139ZM264.393 93.8362L263.983 92.3668L262.462 91.9711L262.663 91.2507L264.613 91.7581L265.138 93.6422L264.393 93.8362ZM259.419 91.1798L256.377 90.3885L256.578 89.6682L259.62 90.4595L259.419 91.1798ZM253.334 89.5973L250.292 88.806L250.492 88.0856L253.535 88.8769L253.334 89.5973ZM247.255 87.9945L247.249 88.0147L245.728 87.619L247.249 87.2234L247.255 87.2436L247.45 87.2943L247.359 87.619L247.45 87.9438L247.255 87.9945ZM250.292 86.4321L253.334 85.6408L253.535 86.3612L250.492 87.1525L250.292 86.4321ZM256.377 84.8495L259.419 84.0583L259.62 84.7786L256.578 85.5699L256.377 84.8495ZM262.462 83.267L263.983 82.8713L264.393 81.4019L265.138 81.5959L264.613 83.48L262.663 83.9874L262.462 83.267ZM265.212 78.463L266.031 75.5242L266.777 75.7181L265.958 78.657L265.212 78.463ZM266.85 72.5853L267.669 69.6464L268.415 69.8404L267.596 72.7792L266.85 72.5853Z" fill="#7D7234"/>
<path d="M232.546 120.374L232.622 120.652L232.9 120.726L235.496 121.415C235.762 121.486 236.036 121.327 236.107 121.06L240.332 122.182C240.261 122.449 240.42 122.723 240.687 122.794L241.463 123L240.687 123.206C240.42 123.277 240.261 123.551 240.332 123.818L236.107 124.94C236.036 124.673 235.762 124.514 235.496 124.585L232.9 125.274L232.622 125.348L232.546 125.626L231.847 128.187C231.774 128.453 231.931 128.728 232.198 128.801L231.063 132.957C230.797 132.884 230.522 133.041 230.449 133.308L230.233 134.101L230.016 133.308C229.944 133.041 229.669 132.884 229.402 132.957L228.268 128.801C228.534 128.728 228.691 128.453 228.619 128.187L227.92 125.626L227.844 125.348L227.566 125.274L224.97 124.585C224.703 124.514 224.429 124.673 224.358 124.94L220.134 123.818C220.204 123.551 220.046 123.277 219.779 123.206L219.002 123L219.779 122.794C220.046 122.723 220.204 122.449 220.134 122.182L224.358 121.06C224.429 121.327 224.703 121.486 224.97 121.415L227.566 120.726L227.844 120.652L227.92 120.374L228.619 117.813C228.691 117.547 228.534 117.272 228.268 117.199L229.402 113.043C229.669 113.116 229.944 112.959 230.016 112.692L230.233 111.899L230.449 112.692C230.522 112.959 230.797 113.116 231.063 113.043L232.198 117.199C231.931 117.272 231.774 117.547 231.847 117.813L232.546 120.374Z" stroke="#7D7234" stroke-linecap="round" stroke-dasharray="4 4"/>
</svg>
