<svg width="120" height="57" viewBox="0 0 120 57" fill="none" xmlns="http://www.w3.org/2000/svg">
<g clip-path="url(#clip0_521_24343)">
<path d="M120 0.5H0V56.5H120V0.5Z" fill="black"/>
<path d="M15.9292 39.8507H25.6142C30.2973 39.8507 31.5398 39.043 32.846 37.7507C33.4702 37.1255 33.9662 36.381 34.3051 35.5603C34.6441 34.7395 34.8195 33.8589 34.8212 32.9692C34.8212 30.6753 34.0885 28.4138 31.285 27.3477C32.1943 26.9677 32.9583 26.3002 33.4634 25.4446C33.9686 24.5889 34.1878 23.5906 34.0885 22.5984C34.0885 20.2077 32.6549 16.6538 27.0478 16.6538H15.9292V39.8507ZM20.5168 29.6415H26.6018C28.3221 29.6415 30.0425 30.4169 30.0425 32.4523C30.0425 34.8107 28.7044 35.8446 26.3788 35.8446H20.5168V29.6415ZM20.5168 20.66H25.9965C28.1628 20.66 29.5009 21.2415 29.5009 23.1477C29.5009 24.9892 28.0035 25.7323 26.1239 25.7323H20.5168V20.66ZM48.2973 34.8107C48.0803 35.3932 47.6845 35.8897 47.1684 36.2271C46.6522 36.5644 46.0428 36.7247 45.4301 36.6846C41.8301 36.6846 41.5752 33.7769 41.4478 32.4846H53.0761V31.6769C53.0761 23.8261 48.4566 22.2107 45.1115 22.2107C37.6885 22.2107 36.9876 28.8338 36.9876 30.9015C36.9876 37.9769 40.6513 40.303 45.4301 40.303C47.1044 40.3884 48.757 39.8901 50.1133 38.891C51.4695 37.8918 52.4476 36.4519 52.885 34.8107H48.2973ZM41.5752 29.5446C41.8301 27.283 42.9451 25.9261 45.0478 25.9261C46.4814 25.9261 48.2336 26.7661 48.4885 29.5446H41.5752ZM63.5756 23.097V26.6304H60.5894V33.3827C60.562 34.1804 60.5908 34.9789 60.6754 35.7724C60.7335 36.0008 60.8716 36.2 61.0641 36.3324C61.2821 36.485 61.5427 36.5625 61.8074 36.5532C62.4122 36.5061 63.0057 36.3606 63.565 36.1224L63.9388 39.561C62.8441 40.0181 61.669 40.2435 60.4853 40.2233C59.7555 40.2344 59.0309 40.0975 58.354 39.8206C57.8022 39.6139 57.3194 39.2528 56.9618 38.7792C56.6315 38.259 56.4213 37.6701 56.3469 37.0561C56.2254 36.0199 56.1786 34.9761 56.2067 33.933V26.6293H54.1996V23.096H56.1982V19.7672L60.5851 17.1826V23.0981L63.5756 23.097ZM73.9296 23.097V26.6304H70.9434V33.3827C70.916 34.1804 70.9447 34.9789 71.0294 35.7724C71.0875 36.0008 71.2256 36.2 71.4181 36.3324C71.6361 36.485 71.8967 36.5625 72.1614 36.5532C72.7662 36.5061 73.3597 36.3606 73.9189 36.1224L74.2927 39.561C73.1981 40.0181 72.0229 40.2435 70.8393 40.2233C70.1095 40.2344 69.3848 40.0975 68.708 39.8206C68.1562 39.6139 67.6734 39.2528 67.3158 38.7792C66.9855 38.259 66.7753 37.6701 66.7009 37.0561C66.5794 36.0199 66.5326 34.9761 66.5607 33.933V26.6293H64.5536V23.096H66.5607V19.7672L70.9476 17.1826V23.0981L73.9296 23.097ZM86.4637 34.8107C86.2467 35.3932 85.8509 35.8897 85.3348 36.2271C84.8186 36.5644 84.2092 36.7247 83.5965 36.6846C79.9965 36.6846 79.7416 33.7769 79.6142 32.4846H91.2425V31.6769C91.2425 23.8261 86.623 22.2107 83.2779 22.2107C75.8549 22.2107 75.154 28.8338 75.154 30.9015C75.154 37.9769 78.8177 40.303 83.5965 40.303C85.2707 40.3884 86.9233 39.8901 88.2796 38.891C89.6359 37.8918 90.614 36.4519 91.0513 34.8107H86.4637ZM79.7416 29.5446C79.9965 27.283 81.1115 25.9261 83.2142 25.9261C84.6478 25.9261 86.4 26.7661 86.6549 29.5446H79.7416ZM93.9186 39.8507H98.3788V30.9015C98.3788 28.9953 99.0159 26.7984 102.489 26.7984C102.914 26.7869 103.34 26.8084 103.763 26.863V22.2753C103.477 22.2378 103.19 22.2162 102.903 22.2107C100.195 22.2107 99.1752 23.8907 98.2513 25.6353H98.1876V22.663H93.9186V39.8507Z" fill="white"/>
</g>
<defs>
<clipPath id="clip0_521_24343">
<rect width="120" height="56" fill="white" transform="translate(0 0.5)"/>
</clipPath>
</defs>
</svg>
