<svg width="442" height="291" viewBox="0 0 442 291" fill="none" xmlns="http://www.w3.org/2000/svg">
<path d="M114.487 104.413L140.573 89.2983L161.029 101.269" stroke="#B4FACD" stroke-width="1.51545" stroke-linecap="round" stroke-linejoin="round"/>
<path opacity="0.2" d="M102.563 287.582C122.1 287.582 137.938 278.406 137.938 267.085C137.938 255.765 122.1 246.588 102.563 246.588C83.0261 246.588 67.1882 255.765 67.1882 267.085C67.1882 278.406 83.0261 287.582 102.563 287.582Z" stroke="#5CC892" stroke-width="1.13658" stroke-miterlimit="10"/>
<path d="M238.661 235.052L144.917 290L118.005 273.702" stroke="#B4FACD" stroke-width="1.51545" stroke-linecap="round" stroke-linejoin="round"/>
<path opacity="0.5" d="M102.563 283.674C122.1 283.674 137.938 274.497 137.938 263.177C137.938 251.857 122.1 242.68 102.563 242.68C83.0261 242.68 67.1882 251.857 67.1882 263.177C67.1882 274.497 83.0261 283.674 102.563 283.674Z" stroke="#5CC892" stroke-width="1.13658" stroke-miterlimit="10"/>
<path d="M102.229 279.824C111.978 279.824 120.853 277.605 127.326 273.967C133.768 270.347 138.029 265.189 138.029 259.266C138.029 253.343 133.768 248.185 127.326 244.565C120.853 240.927 111.978 238.708 102.229 238.708C92.4808 238.708 83.6056 240.927 77.1325 244.565C70.691 248.185 66.4299 253.343 66.4299 259.266C66.4299 265.189 70.691 270.347 77.1325 273.967C83.6056 277.605 92.4808 279.824 102.229 279.824Z" fill="#202E36" stroke="#5CC892" stroke-width="2"/>
<path opacity="0.2" d="M69.4385 123.179C98.4578 123.179 121.983 109.547 121.983 92.7303C121.983 75.9138 98.4578 62.2812 69.4385 62.2812C40.4191 62.2812 16.8943 75.9138 16.8943 92.7303C16.8943 109.547 40.4191 123.179 69.4385 123.179Z" stroke="#202E36" stroke-width="1.13658" stroke-miterlimit="10"/>
<path opacity="0.5" d="M69.4385 117.379C98.4578 117.379 121.983 103.747 121.983 86.93C121.983 70.1135 98.4578 56.481 69.4385 56.481C40.4191 56.481 16.8943 70.1135 16.8943 86.93C16.8943 103.747 40.4191 117.379 69.4385 117.379Z" stroke="#202E36" stroke-width="1.13658" stroke-miterlimit="10"/>
<path d="M69.4385 111.574C98.4578 111.574 121.983 97.9419 121.983 81.1253C121.983 64.3088 98.4578 50.6763 69.4385 50.6763C40.4191 50.6763 16.8943 64.3088 16.8943 81.1253C16.8943 97.9419 40.4191 111.574 69.4385 111.574Z" stroke="#202E36" stroke-width="1.13658" stroke-miterlimit="10"/>
<path d="M69.4385 105.77C98.4578 105.77 121.983 92.1372 121.983 75.3206C121.983 58.5041 98.4578 44.8716 69.4385 44.8716C40.4191 44.8716 16.8943 58.5041 16.8943 75.3206C16.8943 92.1372 40.4191 105.77 69.4385 105.77Z" fill="#202E36"/>
<path opacity="0.2" d="M319.56 110.019C342.656 110.019 361.378 99.1686 361.378 85.7844C361.378 72.4003 342.656 61.5503 319.56 61.5503C296.464 61.5503 277.741 72.4003 277.741 85.7844C277.741 99.1686 296.464 110.019 319.56 110.019Z" stroke="#202E36" stroke-width="1.13658" stroke-miterlimit="10"/>
<path opacity="0.5" d="M319.56 105.4C342.656 105.4 361.378 94.5504 361.378 81.1663C361.378 67.7821 342.656 56.9321 319.56 56.9321C296.464 56.9321 277.741 67.7821 277.741 81.1663C277.741 94.5504 296.464 105.4 319.56 105.4Z" stroke="#202E36" stroke-width="1.13658" stroke-miterlimit="10"/>
<path d="M319.56 100.782C342.656 100.782 361.378 89.9318 361.378 76.5476C361.378 63.1635 342.656 52.3135 319.56 52.3135C296.464 52.3135 277.741 63.1635 277.741 76.5476C277.741 89.9318 296.464 100.782 319.56 100.782Z" stroke="#202E36" stroke-width="1.13658" stroke-miterlimit="10"/>
<path d="M319.56 96.1631C342.656 96.1631 361.378 85.3131 361.378 71.9289C361.378 58.5448 342.656 47.6948 319.56 47.6948C296.464 47.6948 277.741 58.5448 277.741 71.9289C277.741 85.3131 296.464 96.1631 319.56 96.1631Z" fill="#202E36"/>
<path d="M358.747 158.653L379.685 146.52C380.52 146.036 381.469 145.786 382.433 145.796C383.397 145.806 384.34 146.076 385.165 146.577L411.583 162.646C412.331 163.101 413.188 163.346 414.062 163.356C414.937 163.366 415.799 163.14 416.557 162.703L435.354 151.858" stroke="#202E36" stroke-width="1.51545" stroke-linecap="round" stroke-linejoin="round"/>
<path d="M109.055 101.269L114.487 104.413L140.573 89.2983L161.029 101.269" stroke="#202E36" stroke-width="1.51545" stroke-linecap="round" stroke-linejoin="round"/>
<path d="M335.377 143.563L376.054 118.646C376.549 118.344 376.956 117.917 377.237 117.409C377.517 116.9 377.661 116.327 377.654 115.745C377.646 115.164 377.488 114.595 377.195 114.093C376.902 113.592 376.483 113.176 375.981 112.886L350.543 98.1289" stroke="#202E36" stroke-width="1.51545" stroke-linecap="round" stroke-linejoin="round"/>
<path d="M198.962 36.5283L239.639 61.4408C240.133 61.7435 240.541 62.1702 240.822 62.6789C241.103 63.1877 241.247 63.761 241.24 64.3425C241.233 64.924 241.075 65.4937 240.782 65.9955C240.489 66.4974 240.072 66.9142 239.57 67.2048L214.127 81.946" stroke="#28404E" stroke-width="1.51545" stroke-linecap="round" stroke-linejoin="round"/>
<path d="M421.394 201.11C422.019 202.035 422.447 203.079 422.651 204.177C422.856 205.275 422.832 206.404 422.582 207.493C422.332 208.582 421.861 209.607 421.199 210.505C420.536 211.403 419.696 212.154 418.731 212.711L315.075 272.797C312.614 274.223 309.822 274.973 306.98 274.973C304.138 274.973 301.346 274.223 298.885 272.797L98.2363 156.505C97.0058 155.791 95.984 154.766 95.2736 153.531C94.5632 152.296 94.1892 150.895 94.1892 149.469C94.1892 148.043 94.5632 146.642 95.2736 145.407C95.984 144.172 97.0058 143.147 98.2363 142.434" fill="#152229"/>
<path d="M422.778 197.255V205.907L420.742 211.078L415.792 205.054L422.778 197.255Z" fill="#1B3646"/>
<path d="M94.1848 141.292V149.469L96.848 152.142H100.353L100.75 149.205L102.563 143.75L94.1848 141.292Z" fill="#152229"/>
<path d="M298.885 265.14L98.2363 148.864C97.0058 148.151 95.984 147.125 95.2736 145.89C94.5632 144.655 94.1892 143.254 94.1892 141.828C94.1892 140.402 94.5632 139.002 95.2736 137.767C95.984 136.532 97.0058 135.506 98.2363 134.793L201.892 74.7276C204.353 73.3016 207.145 72.5508 209.987 72.5508C212.829 72.5508 215.621 73.3016 218.082 74.7276L418.731 190.999C419.961 191.713 420.983 192.738 421.693 193.973C422.404 195.208 422.778 196.609 422.778 198.035C422.778 199.461 422.404 200.862 421.693 202.097C420.983 203.332 419.961 204.357 418.731 205.07L315.075 265.14C312.614 266.566 309.822 267.317 306.98 267.317C304.138 267.317 301.346 266.566 298.885 265.14Z" fill="#202E36"/>
<path d="M306.98 259.193C305.559 259.193 304.163 258.818 302.933 258.105L108.355 145.359C107.735 145.003 107.22 144.49 106.861 143.87C106.503 143.251 106.314 142.547 106.314 141.831C106.314 141.114 106.503 140.41 106.861 139.791C107.22 139.171 107.735 138.658 108.355 138.303L205.935 81.7632C207.166 81.0502 208.562 80.6748 209.983 80.6748C211.404 80.6748 212.8 81.0502 214.03 81.7632L408.458 194.432C409.088 194.798 409.612 195.323 409.976 195.956C410.34 196.589 410.531 197.306 410.531 198.037C410.531 198.768 410.34 199.485 409.976 200.118C409.612 200.751 409.088 201.277 408.458 201.642L311.024 258.105C309.794 258.816 308.4 259.191 306.98 259.193V259.193Z" fill="#293B46"/>
<path d="M139.796 120.088L146.134 120.637C147.402 120.745 148.673 120.461 149.777 119.824L172.442 106.684C172.826 106.462 173.121 106.114 173.279 105.699C173.436 105.283 173.445 104.826 173.305 104.405L172.256 101.269L139.796 120.088Z" fill="#202E36"/>
<path d="M166.823 156.343L146.692 144.676L160.697 136.559L166.736 133.06" stroke="#5FCD82" stroke-width="2.65203" stroke-linecap="round" stroke-linejoin="round"/>
<path d="M236.09 173.228L216.026 184.854L195.961 173.228" stroke="#5FCD82" stroke-width="2.65203" stroke-linecap="round" stroke-linejoin="round"/>
<path d="M265.508 133.171L285.36 144.676L265.548 156.157" stroke="#5FCD82" stroke-width="2.65203" stroke-linecap="round" stroke-linejoin="round"/>
<path d="M196.386 115.877L216.026 104.498L235.661 115.877" stroke="#5FCD82" stroke-width="2.65203" stroke-linecap="round" stroke-linejoin="round"/>
<g opacity="0.6">
<path d="M278.391 198.312L278.64 198.167L279.376 198.862C279.466 198.959 279.587 199.021 279.718 199.037C279.849 199.053 279.982 199.022 280.092 198.948C280.22 198.875 280.289 198.792 280.309 198.703C280.308 198.647 280.295 198.591 280.269 198.541C280.244 198.491 280.207 198.447 280.161 198.414L279.426 197.719L279.677 197.574L280.432 198.284C280.501 198.333 280.557 198.398 280.595 198.474C280.632 198.549 280.651 198.633 280.648 198.718C280.624 198.855 280.505 198.987 280.291 199.111C280.113 199.226 279.903 199.282 279.692 199.272C279.493 199.251 279.307 199.161 279.166 199.018L278.391 198.312Z" fill="#F0FBF6"/>
<path d="M281.215 198.511L279.956 197.321L281.687 197.45L281.834 197.465L282.003 197.491L281.163 196.698L281.395 196.563L282.654 197.751L280.895 197.621C280.847 197.621 280.8 197.621 280.752 197.606L280.609 197.58L281.451 198.377L281.215 198.511Z" fill="#F0FBF6"/>
<path d="M282.963 197.497L281.752 196.353L282.003 196.208L283.214 197.352L282.963 197.497Z" fill="#F0FBF6"/>
<path d="M283.585 197.141L282.373 195.997L283.238 195.495L283.407 195.654L282.793 196.01L283.093 196.294L283.708 195.938L283.881 196.101L283.266 196.457L283.836 196.996L283.585 197.141Z" fill="#F0FBF6"/>
<path d="M284.723 196.479L283.511 195.334L283.762 195.189L284.974 196.331L284.723 196.479Z" fill="#F0FBF6"/>
<path d="M285.337 196.123L284.125 194.978L284.991 194.477L285.158 194.635L284.545 194.989L284.848 195.276L285.463 194.922L285.636 195.085L285.021 195.441L285.413 195.81L286.028 195.454L286.203 195.619L285.337 196.123Z" fill="#F0FBF6"/>
<path d="M286.566 195.139L286.783 195.015C286.871 194.969 286.953 194.912 287.027 194.846C287.069 194.806 287.101 194.756 287.118 194.701C287.138 194.629 287.134 194.552 287.105 194.483C287.067 194.401 287.013 194.327 286.945 194.266C286.873 194.197 286.79 194.141 286.698 194.101C286.61 194.063 286.515 194.041 286.419 194.038C286.346 194.037 286.272 194.049 286.203 194.073C286.097 194.113 285.995 194.162 285.898 194.221L285.807 194.275L285.716 194.327L286.566 195.139ZM286.493 195.452L285.281 194.31L285.621 194.112C285.778 194.016 285.943 193.933 286.114 193.864C286.219 193.831 286.328 193.812 286.439 193.81C286.58 193.808 286.721 193.834 286.852 193.887C286.984 193.94 287.104 194.019 287.205 194.119C287.301 194.202 287.375 194.308 287.421 194.427C287.457 194.528 287.457 194.638 287.421 194.74C287.391 194.823 287.341 194.897 287.276 194.957C287.16 195.057 287.033 195.143 286.897 195.215L286.83 195.254L286.493 195.452Z" fill="#F0FBF6"/>
<path d="M288.302 193.33L288.367 193.291C288.463 193.247 288.547 193.18 288.611 193.095C288.635 193.045 288.611 192.993 288.555 192.937C288.527 192.908 288.493 192.885 288.456 192.871C288.419 192.856 288.379 192.85 288.339 192.852C288.225 192.868 288.117 192.909 288.023 192.974L287.958 193.011L288.302 193.33ZM288.447 193.491L288.992 194.003L288.754 194.142L287.544 192.998L287.925 192.781C288.009 192.729 288.098 192.686 288.189 192.65C288.25 192.629 288.313 192.616 288.378 192.613C288.455 192.612 288.532 192.626 288.605 192.655C288.678 192.684 288.746 192.726 288.804 192.781C288.857 192.828 288.897 192.887 288.921 192.954C288.942 193.01 288.942 193.072 288.921 193.128C288.9 193.177 288.868 193.22 288.828 193.254C288.755 193.313 288.676 193.366 288.594 193.41L288.544 193.441L288.447 193.491Z" fill="#F0FBF6"/>
<path d="M289.643 192.902L290.076 192.65L289.643 192.481L289.555 192.442L289.446 192.386C289.464 192.413 289.48 192.442 289.494 192.472C289.507 192.497 289.518 192.522 289.529 192.548L289.643 192.902ZM290.816 192.946L290.329 192.755L289.715 193.111L289.847 193.508L289.581 193.662L289.074 192.038L291.082 192.792L290.816 192.946Z" fill="#F0FBF6"/>
<path d="M291.446 192.583L290.89 192.06L289.71 191.743L289.977 191.589L290.712 191.788L290.784 191.81L290.875 191.843C290.865 191.82 290.857 191.797 290.851 191.773C290.845 191.752 290.84 191.73 290.838 191.708L290.766 191.13L291.017 190.985L291.141 191.914L291.695 192.438L291.446 192.583Z" fill="#F0FBF6"/>
<path d="M293.067 190.733L292.974 190.665L292.872 190.591C292.893 190.621 292.911 190.652 292.928 190.685C292.943 190.719 292.956 190.755 292.967 190.791L293.207 191.636L292.143 191.249C292.099 191.234 292.058 191.217 292.019 191.2C291.982 191.184 291.946 191.167 291.911 191.147C291.937 191.173 291.962 191.199 291.985 191.228C292.008 191.258 292.03 191.29 292.05 191.323L292.482 191.975L292.251 192.109L291.353 190.711L292.575 191.169L292.668 191.206L292.824 191.276C292.8 191.221 292.779 191.165 292.761 191.108C292.758 191.094 292.754 191.08 292.748 191.067L292.433 190.085L294.071 191.061L293.835 191.197L293.067 190.733Z" fill="#F0FBF6"/>
<path d="M294.272 190.943L293.06 189.801L293.926 189.299L294.094 189.456L293.48 189.812L293.783 190.098L294.397 189.742L294.57 189.907L293.956 190.261L294.348 190.633L294.962 190.277L295.137 190.442L294.272 190.943Z" fill="#F0FBF6"/>
<path d="M295.427 190.277L294.168 189.089L295.899 189.215L296.048 189.232L296.215 189.258L295.375 188.463L295.609 188.329L296.866 189.516L295.107 189.388L294.964 189.373L294.821 189.347L295.663 190.142L295.427 190.277Z" fill="#F0FBF6"/>
<path d="M296.628 187.988L297.673 188.973L297.42 189.119L296.375 188.133L295.964 188.372L295.797 188.216L296.879 187.592L297.048 187.749L296.628 187.988Z" fill="#F0FBF6"/>
<path d="M297.944 188.446L298.074 188.261C298.14 188.298 298.214 188.318 298.29 188.318C298.374 188.313 298.456 188.287 298.528 188.244C298.559 188.23 298.587 188.209 298.61 188.183C298.632 188.158 298.649 188.127 298.658 188.094C298.664 188.064 298.661 188.033 298.649 188.004C298.638 187.976 298.618 187.951 298.593 187.933C298.524 187.866 298.377 187.849 298.178 187.886H298.111C297.94 187.92 297.765 187.93 297.591 187.916C297.487 187.902 297.389 187.856 297.312 187.784C297.268 187.748 297.234 187.701 297.215 187.648C297.196 187.595 297.191 187.537 297.202 187.482C297.221 187.42 297.253 187.363 297.295 187.314C297.338 187.266 297.39 187.226 297.448 187.199C297.551 187.137 297.666 187.097 297.786 187.082C297.892 187.069 297.999 187.085 298.095 187.13L297.976 187.319C297.916 187.302 297.853 187.296 297.79 187.299C297.736 187.304 297.684 187.32 297.637 187.347C297.609 187.36 297.584 187.379 297.564 187.402C297.543 187.425 297.527 187.452 297.518 187.482C297.512 187.507 297.514 187.534 297.523 187.558C297.531 187.583 297.547 187.605 297.567 187.621C297.641 187.688 297.797 187.703 298.035 187.66H298.078C298.235 187.625 298.396 187.615 298.556 187.629C298.662 187.643 298.761 187.691 298.838 187.766C298.889 187.805 298.928 187.857 298.952 187.917C298.976 187.976 298.984 188.041 298.974 188.105C298.953 188.173 298.917 188.237 298.87 188.291C298.822 188.344 298.764 188.388 298.699 188.418C298.579 188.491 298.443 188.532 298.303 188.537C298.173 188.543 298.044 188.51 297.933 188.442" fill="#F0FBF6"/>
<path d="M300.127 187.551L298.916 186.407L299.169 186.261L300.38 187.406L300.127 187.551Z" fill="#F0FBF6"/>
<path d="M300.742 187.195L299.482 186.005L301.213 186.133L301.363 186.15C301.412 186.15 301.469 186.163 301.529 186.174L300.679 185.382L300.913 185.247L302.17 186.435L300.41 186.307L300.268 186.292L300.125 186.266L300.967 187.06L300.742 187.195Z" fill="#F0FBF6"/>
<path d="M301.943 184.908L302.988 185.894L302.735 186.04L301.692 185.065L301.278 185.304L301.112 185.145L302.194 184.524L302.36 184.68L301.943 184.908Z" fill="#F0FBF6"/>
<path d="M303.592 185.545L302.38 184.401L303.245 183.899L303.412 184.057L302.8 184.414L303.103 184.7L303.717 184.346L303.89 184.509L303.276 184.863L303.667 185.232L304.28 184.876L304.457 185.043L303.592 185.545Z" fill="#F0FBF6"/>
<path d="M304.303 184.072L304.349 184.046C304.441 184.005 304.52 183.94 304.578 183.857C304.598 183.81 304.578 183.755 304.515 183.697C304.488 183.667 304.454 183.644 304.417 183.628C304.379 183.613 304.339 183.605 304.299 183.606C304.191 183.618 304.088 183.657 303.998 183.719L303.953 183.745L304.303 184.072ZM304.44 184.227L304.983 184.737L304.747 184.874L303.535 183.732L303.888 183.527C303.968 183.477 304.054 183.436 304.143 183.404C304.206 183.38 304.273 183.368 304.34 183.367C304.414 183.368 304.488 183.383 304.556 183.41C304.628 183.438 304.693 183.479 304.749 183.532C304.79 183.563 304.824 183.604 304.847 183.65C304.871 183.696 304.884 183.747 304.885 183.799C304.878 183.85 304.859 183.899 304.83 183.942C304.801 183.985 304.763 184.02 304.719 184.046L305.801 184.264L305.515 184.429L304.457 184.211L304.44 184.227Z" fill="#F0FBF6"/>
<path d="M305.963 184.17L304.751 183.026L305.617 182.524L305.786 182.682L305.171 183.039L305.472 183.323L306.086 182.967L306.259 183.13L305.656 183.486L306.225 184.022L305.963 184.17Z" fill="#F0FBF6"/>
<path d="M306.876 182.915L307.309 182.665L306.876 182.496L306.787 182.454L306.681 182.4L306.727 182.485C306.74 182.513 306.753 182.537 306.762 182.561L306.876 182.915ZM308.051 182.96L307.562 182.767L306.948 183.123L307.08 183.523L306.813 183.677L306.307 182.053L308.317 182.806L308.051 182.96Z" fill="#F0FBF6"/>
<path d="M308.754 181.156C308.643 181.151 308.53 181.161 308.421 181.186C308.321 181.209 308.224 181.246 308.133 181.297C308.062 181.331 307.998 181.381 307.949 181.444C307.899 181.506 307.865 181.579 307.848 181.657C307.839 181.734 307.851 181.811 307.881 181.882C307.91 181.952 307.958 182.014 308.019 182.061C308.149 182.186 308.318 182.262 308.497 182.278C308.677 182.301 308.859 182.264 309.016 182.172C309.099 182.123 309.172 182.06 309.233 181.985C309.29 181.912 309.332 181.828 309.356 181.738L309.572 181.955C309.541 182.035 309.495 182.109 309.436 182.172C309.367 182.241 309.289 182.3 309.205 182.348C309.088 182.416 308.962 182.467 308.83 182.498C308.699 182.526 308.564 182.535 308.43 182.524C308.3 182.514 308.172 182.483 308.051 182.433C307.936 182.383 307.83 182.315 307.737 182.231C307.655 182.155 307.591 182.063 307.549 181.959C307.512 181.865 307.502 181.762 307.519 181.662C307.539 181.559 307.584 181.463 307.649 181.381C307.726 181.287 307.821 181.208 307.928 181.149C308.02 181.096 308.118 181.055 308.22 181.027C308.329 180.998 308.441 180.981 308.553 180.978L308.754 181.156Z" fill="#F0FBF6"/>
<path d="M309.983 181.84L308.772 180.695L309.637 180.194L309.806 180.352L309.192 180.709L309.494 180.995L310.109 180.639L310.282 180.802L309.668 181.158L310.059 181.527L310.674 181.171L310.849 181.338L309.983 181.84Z" fill="#F0FBF6"/>
<path d="M302.41 182.78L300.679 183.786L294.38 177.338L296.111 176.335L302.41 182.78Z" fill="#F0FBF6"/>
<path d="M293.064 178.413C292.783 178.386 292.501 178.448 292.257 178.591L282.719 184.118L283.952 185.38L285.683 184.374L292.629 180.352L293.947 181.701L287.008 185.716L285.277 186.722L289.033 190.568L290.764 189.562L288.243 186.98L296.042 182.459C296.148 182.405 296.242 182.328 296.317 182.234C296.391 182.141 296.445 182.032 296.475 181.916C296.499 181.807 296.495 181.694 296.461 181.588C296.428 181.482 296.367 181.387 296.284 181.312L293.761 178.73C293.573 178.541 293.323 178.426 293.058 178.409" fill="#F0FBF6"/>
<path d="M287.436 190.822C287.685 191.078 287.609 191.397 287.252 191.606L278.303 196.792C278.063 196.933 277.785 196.993 277.509 196.963C277.247 196.948 277.001 196.836 276.816 196.651L271.14 190.831L272.871 189.825L277.941 195.022L284.883 190.996L279.82 185.799L281.551 184.793L287.436 190.822Z" fill="#F0FBF6"/>
<path d="M299.115 174.608L305.677 175.866L305.426 181.078L299.115 174.608Z" fill="white"/>
<path d="M297.574 175.51L304.135 176.769L303.884 181.981L297.574 175.51Z" fill="white"/>
</g>
<path d="M389.881 194.392L306.301 242.827L279.275 227.366V224.378L389.881 190.878V194.392Z" fill="#C4C4C4"/>
<path d="M389.881 191.38L306.301 239.816L279.275 224.355L362.856 175.919L389.881 191.38Z" fill="#EEF2F5"/>
<path d="M301.746 229.74L295.096 225.885L297.719 224.365C298.206 224.079 298.741 223.882 299.297 223.785C299.833 223.69 300.381 223.69 300.916 223.785C301.426 223.868 301.917 224.043 302.365 224.3C302.737 224.487 303.045 224.781 303.248 225.145C303.322 225.291 303.357 225.454 303.351 225.617C303.344 225.781 303.296 225.94 303.211 226.08C302.958 226.474 302.605 226.792 302.187 227.002L300.516 227.969L299.387 227.319L300.823 226.449C301.037 226.344 301.219 226.182 301.35 225.982C301.39 225.913 301.411 225.833 301.411 225.753C301.411 225.672 301.39 225.593 301.35 225.523C301.239 225.35 301.083 225.21 300.9 225.117C300.682 224.988 300.442 224.9 300.192 224.857C299.932 224.81 299.666 224.81 299.407 224.857C299.121 224.915 298.848 225.021 298.597 225.17L297.65 225.718L303.155 228.927L301.746 229.74Z" fill="#0B151B"/>
<path d="M309.028 225.612C308.712 225.801 308.369 225.938 308.012 226.019C307.654 226.098 307.286 226.118 306.923 226.076C306.557 226.03 306.204 225.91 305.887 225.722C305.663 225.612 305.474 225.442 305.34 225.231C305.297 225.154 305.271 225.069 305.264 224.981C305.257 224.894 305.269 224.805 305.3 224.723C305.375 224.534 305.491 224.365 305.64 224.227C305.82 224.051 306.015 223.891 306.223 223.748C306.482 223.561 306.688 223.407 306.838 223.289C306.95 223.216 307.04 223.116 307.101 222.997C307.129 222.919 307.101 222.846 306.984 222.785H306.963C306.759 222.668 306.526 222.612 306.291 222.623C306.038 222.635 305.792 222.711 305.575 222.842C305.328 222.984 305.17 223.131 305.146 223.281C305.127 223.353 305.127 223.429 305.148 223.501C305.169 223.572 305.209 223.637 305.263 223.687L303.883 224.37C303.669 224.202 303.524 223.96 303.478 223.691C303.466 223.561 303.479 223.43 303.517 223.305C303.555 223.18 303.618 223.064 303.701 222.964C303.942 222.672 304.238 222.431 304.571 222.253C304.857 222.089 305.158 221.953 305.47 221.847C305.787 221.737 306.116 221.663 306.449 221.628C306.78 221.594 307.113 221.605 307.441 221.66C307.772 221.717 308.09 221.834 308.38 222.005L311.743 223.955L310.432 224.715L309.74 224.309L309.699 224.333C309.771 224.456 309.802 224.598 309.788 224.739C309.764 224.904 309.692 225.057 309.582 225.182C309.423 225.356 309.236 225.502 309.028 225.612V225.612ZM308.469 224.829C308.637 224.741 308.777 224.609 308.874 224.447C308.911 224.386 308.933 224.319 308.941 224.248C308.948 224.178 308.939 224.107 308.914 224.04C308.843 223.889 308.723 223.767 308.574 223.691L308.044 223.386C308.021 223.442 307.986 223.491 307.943 223.533C307.885 223.598 307.823 223.659 307.757 223.716L307.526 223.902L307.307 224.073C307.188 224.16 307.083 224.266 306.996 224.386C306.964 224.425 306.941 224.471 306.929 224.52C306.916 224.569 306.914 224.62 306.923 224.67C306.942 224.725 306.972 224.775 307.011 224.817C307.05 224.86 307.097 224.894 307.15 224.918C307.342 225.027 307.565 225.073 307.785 225.048C308.026 225.025 308.259 224.95 308.469 224.829V224.829Z" fill="#0B151B"/>
<path d="M315.362 223.999C315.19 224.1 315.012 224.189 314.828 224.263C314.673 224.328 314.513 224.381 314.35 224.422L313.625 223.646C313.806 223.595 313.981 223.525 314.148 223.439C314.26 223.39 314.35 223.3 314.399 223.187C314.411 223.129 314.409 223.069 314.392 223.012C314.375 222.955 314.344 222.903 314.301 222.862L314.172 222.691L307.251 220.754L308.708 219.913L313.403 221.436L313.456 221.408L310.833 218.678L312.298 217.829L315.888 222.155C316.047 222.334 316.159 222.551 316.212 222.785C316.231 222.892 316.229 223.001 316.205 223.107C316.182 223.214 316.137 223.314 316.074 223.402C315.885 223.653 315.641 223.857 315.362 223.999V223.999Z" fill="#0B151B"/>
<path d="M314.848 214.422L321.498 218.277L320.114 219.089L313.464 215.238L314.848 214.422Z" fill="#0B151B"/>
<path d="M324.121 216.867C323.803 217.053 323.459 217.19 323.101 217.273C322.745 217.352 322.378 217.369 322.016 217.326C321.649 217.281 321.295 217.16 320.976 216.973C320.753 216.861 320.564 216.692 320.429 216.481C320.388 216.405 320.363 216.32 320.357 216.233C320.35 216.146 320.363 216.059 320.393 215.977C320.467 215.788 320.581 215.617 320.729 215.478C320.909 215.302 321.104 215.142 321.312 214.998C321.575 214.812 321.777 214.661 321.931 214.539C322.043 214.467 322.133 214.366 322.194 214.247C322.218 214.17 322.194 214.101 322.073 214.036C321.871 213.917 321.639 213.859 321.405 213.869C321.151 213.88 320.905 213.956 320.688 214.088C320.437 214.235 320.284 214.381 320.259 214.527C320.24 214.599 320.24 214.675 320.261 214.747C320.282 214.819 320.322 214.883 320.377 214.933L318.992 215.612C318.779 215.443 318.635 215.202 318.588 214.933C318.575 214.804 318.589 214.673 318.628 214.549C318.667 214.425 318.73 214.309 318.814 214.21C319.053 213.915 319.349 213.672 319.685 213.495C319.969 213.332 320.269 213.196 320.579 213.089C320.897 212.98 321.225 212.907 321.559 212.87C321.89 212.836 322.225 212.847 322.554 212.902C322.884 212.961 323.2 213.078 323.489 213.248L326.857 215.197L325.513 215.929L324.821 215.522L324.784 215.547C324.855 215.67 324.886 215.812 324.873 215.953C324.85 216.118 324.778 216.272 324.667 216.396C324.513 216.583 324.328 216.742 324.121 216.867ZM323.562 216.083C323.728 215.994 323.868 215.862 323.967 215.701C324.003 215.641 324.025 215.573 324.031 215.502C324.037 215.432 324.028 215.361 324.003 215.295C323.936 215.143 323.817 215.019 323.667 214.946L323.137 214.637C323.112 214.691 323.078 214.741 323.036 214.783C322.983 214.84 322.918 214.901 322.846 214.966C322.773 215.031 322.696 215.092 322.615 215.157L322.4 215.323C322.281 215.411 322.176 215.516 322.089 215.636C322.057 215.676 322.034 215.721 322.022 215.77C322.009 215.819 322.007 215.871 322.016 215.92C322.033 215.975 322.062 216.026 322.101 216.068C322.139 216.111 322.186 216.145 322.239 216.168C322.432 216.28 322.656 216.325 322.878 216.298C323.119 216.28 323.353 216.206 323.562 216.083Z" fill="#0B151B"/>
<path d="M325.574 210.132L326.614 210.737L323.611 212.475L322.57 211.874L325.574 210.132ZM322.056 210.786L323.441 209.973L328.091 212.666C328.201 212.733 328.321 212.78 328.447 212.804C328.55 212.827 328.656 212.827 328.759 212.804C328.86 212.778 328.956 212.739 329.046 212.687C329.109 212.651 329.168 212.61 329.224 212.565L329.346 212.459L330.592 212.93C330.544 212.983 330.471 213.056 330.374 213.146C330.248 213.256 330.113 213.356 329.969 213.442C329.657 213.638 329.315 213.783 328.957 213.873C328.612 213.958 328.254 213.978 327.901 213.934C327.542 213.888 327.196 213.769 326.885 213.584L322.056 210.786Z" fill="#0B151B"/>
<path d="M333.782 211.273C333.282 211.565 332.733 211.763 332.163 211.858C331.586 211.951 330.997 211.943 330.422 211.834C329.836 211.726 329.273 211.517 328.759 211.216C328.329 210.999 327.965 210.669 327.706 210.262C327.614 210.11 327.56 209.939 327.549 209.762C327.537 209.585 327.569 209.408 327.642 209.246C327.856 208.845 328.19 208.521 328.597 208.32C328.935 208.126 329.297 207.977 329.674 207.877C330.07 207.771 330.478 207.718 330.888 207.719C331.324 207.716 331.758 207.774 332.179 207.889C332.632 208.01 333.066 208.192 333.47 208.43L333.851 208.649L329.637 211.086L328.779 210.587L331.689 208.901C331.485 208.785 331.261 208.707 331.029 208.669C330.791 208.633 330.548 208.633 330.309 208.669C330.075 208.704 329.85 208.782 329.645 208.901C329.471 208.99 329.329 209.132 329.24 209.307C329.207 209.376 329.19 209.452 329.19 209.528C329.19 209.605 329.207 209.681 329.24 209.75C329.333 209.922 329.474 210.063 329.645 210.156L330.455 210.627C330.696 210.767 330.958 210.866 331.232 210.92C331.5 210.964 331.773 210.964 332.041 210.92C332.304 210.879 332.556 210.79 332.786 210.656C332.92 210.583 333.04 210.489 333.142 210.375C333.22 210.292 333.267 210.184 333.276 210.071C333.276 209.959 333.238 209.852 333.167 209.766L334.531 209.076C334.748 209.248 334.893 209.496 334.935 209.77C334.955 210.043 334.87 210.314 334.696 210.526C334.444 210.833 334.133 211.088 333.782 211.273Z" fill="#0B151B"/>
<path d="M336.874 209.364L331.888 206.476L333.227 205.7L334.098 206.204L334.15 206.171C334.054 206.091 333.981 205.987 333.938 205.869C333.896 205.751 333.885 205.624 333.907 205.501C333.948 205.377 334.013 205.262 334.1 205.164C334.186 205.067 334.291 204.988 334.409 204.932C334.485 204.888 334.564 204.847 334.644 204.811C334.724 204.772 334.807 204.738 334.891 204.709L336.105 205.42C335.996 205.456 335.89 205.498 335.785 205.546C335.67 205.595 335.558 205.652 335.449 205.716C335.277 205.808 335.136 205.949 335.045 206.123C335.011 206.189 334.993 206.263 334.993 206.338C334.993 206.413 335.011 206.486 335.045 206.553C335.134 206.728 335.275 206.87 335.449 206.959L338.283 208.584L336.874 209.364Z" fill="#0B151B"/>
<path d="M366.722 189.609L355.77 195.958L354.77 195.381L365.726 189.032L366.722 189.609Z" fill="#0B151B"/>
<path d="M367.054 191.92H365.645V189.658H361.736V188.841H367.054V191.92Z" fill="#0B151B"/>
<path d="M110.117 239.61V239.644L101.758 257.403L78.5658 231.524L78.6653 231.342L101.758 185.691L110.117 239.61Z" fill="#5CC892"/>
<path d="M101.766 257.403L110.118 239.644L101.766 185.691L127.749 229.429L101.766 257.403Z" fill="#B4FACD"/>
<path d="M127.749 229.463L101.766 257.403L110.118 239.665L127.749 229.463Z" fill="#5CC892"/>
<path d="M110.117 239.6V239.633L101.758 257.403L78.5658 231.509L78.6653 231.326L110.117 239.6Z" fill="#309F65"/>
<path d="M74.9008 207.788V207.797L72.7275 212.927L66.6892 205.449L66.7166 205.4L72.7275 192.21L74.9008 207.788Z" fill="#5CC892"/>
<path d="M72.7275 212.927L74.9009 207.797L72.7275 192.21L79.4939 204.847L72.7275 212.927Z" fill="#B4FACD"/>
<path d="M79.4939 204.848L72.7275 212.927L74.9009 207.797L79.4939 204.848Z" fill="#5CC892"/>
<path d="M74.9008 207.788V207.797L72.7275 212.927L66.6892 205.449L66.7166 205.4L74.9008 207.788Z" fill="#309F65"/>
<path d="M141.064 238.6V238.604L139.459 242.536L134.998 236.809L135.019 236.768L139.459 226.67L141.064 238.6Z" fill="#5CC892"/>
<path d="M139.459 242.536L141.064 238.604L139.459 226.67L144.453 236.346L139.459 242.536Z" fill="#B4FACD"/>
<path d="M144.453 236.346L139.459 242.536L141.064 238.604L144.453 236.346Z" fill="#5CC892"/>
<path d="M141.064 238.6V238.604L139.459 242.536L134.998 236.809L135.019 236.768L141.064 238.6Z" fill="#309F65"/>
<path d="M116.361 30.7235L71.5677 56.68L26.7704 30.7235L71.5677 4.76709L116.361 30.7235Z" fill="#293B46"/>
<path d="M107.991 78.0464V47.6948L71.5676 68.8418V99.1527L107.991 78.0464Z" fill="#293B46"/>
<path d="M35.1404 78.0465V47.7314L71.5676 68.8419V99.1528L35.1404 78.0465Z" fill="#152229"/>
<path d="M116.361 30.7236V42.8813L71.5676 68.8418V56.6801L116.361 30.7236Z" fill="#202E36"/>
<path d="M116.361 18.562V30.7238L71.5676 56.6802V44.5184L116.361 18.562Z" fill="#202E36"/>
<path d="M71.5677 56.6801L26.7704 30.7236V42.9098L71.5677 68.8418V56.6801Z" fill="#202E36"/>
<path d="M71.5676 56.6801L116.361 30.7236L123.323 40.6188L77.7764 67.1155L71.5676 56.6801Z" fill="#28404E"/>
<path d="M83.7464 63.2968L77.3676 53.2798" stroke="#375C66" stroke-width="0.378862" stroke-miterlimit="10"/>
<path d="M90.603 59.3041L84.2161 49.2871" stroke="#375C66" stroke-width="0.378862" stroke-miterlimit="10"/>
<path d="M97.4553 55.3191L91.0684 45.2939" stroke="#375C66" stroke-width="0.378862" stroke-miterlimit="10"/>
<path d="M104.312 51.3345L97.9208 41.3013" stroke="#375C66" stroke-width="0.378862" stroke-miterlimit="10"/>
<path d="M111.168 47.3454L104.773 37.3081" stroke="#375C66" stroke-width="0.378862" stroke-miterlimit="10"/>
<path d="M118.025 43.3563L111.625 33.3149" stroke="#375C66" stroke-width="0.378862" stroke-miterlimit="10"/>
<path d="M94.4034 85.3782V63.9388L102.458 59.2715V81.1821L94.4034 85.9185V85.3782Z" fill="#152229"/>
<path d="M101.789 72.4744C101.803 72.1222 101.688 71.8315 101.532 71.8253C101.375 71.819 101.237 72.0994 101.223 72.4516C101.209 72.8038 101.324 73.0944 101.481 73.1007C101.637 73.107 101.775 72.8266 101.789 72.4744Z" fill="#152229"/>
<path d="M76.4973 73.412V85.4275L88.9918 78.1849V66.1694L76.4973 73.412Z" fill="#202E36"/>
<path d="M88.992 72.1074V78.1842L76.4934 85.4269V79.48L83.795 75.1743L88.992 72.1074Z" fill="#152229"/>
<path d="M88.992 78.1848L76.4934 85.4274V79.4806L83.795 75.1748L88.992 78.1848Z" fill="#28404E"/>
<path d="M323.696 78.7738L317.872 76.3162L333.88 62.0869L339.7 64.5444L323.696 78.7738Z" fill="#4AA276"/>
<path d="M339.7 64.544L333.88 62.0864L337.867 7.3667L343.691 9.82423L339.7 64.544Z" fill="#367656"/>
<path d="M346.03 4.1981L340.21 1.74463L342.315 2.61797L348.135 5.0755L346.03 4.1981Z" fill="#387959"/>
<path d="M307.919 78.083L302.095 75.6255L317.872 76.316L323.696 78.7736L307.919 78.083Z" fill="#408B66"/>
<path d="M324.728 10.6452L318.908 8.20796C319.228 8.07391 319.548 7.93987 319.871 7.80176L325.692 10.239C325.372 10.3649 325.048 10.4949 324.728 10.6452Z" fill="#1E2F3A"/>
<path d="M325.704 10.2507L319.884 7.81344C321.298 7.25556 322.753 6.80476 324.235 6.46484L330.055 8.90207C328.573 9.24387 327.119 9.69462 325.704 10.2507" fill="#1D2E38"/>
<path d="M330.043 8.90241L324.223 6.46519C325.374 6.20023 326.543 6.0143 327.72 5.90869L333.54 8.34592C332.363 8.45185 331.195 8.63778 330.043 8.90241" fill="#1C2D37"/>
<path d="M333.54 8.35801L327.719 5.92078C328.731 5.82836 329.748 5.80258 330.763 5.84361L336.583 8.28083C335.568 8.24188 334.552 8.26766 333.54 8.35801" fill="#1B2C35"/>
<path d="M336.583 8.26877L330.763 5.83154C331.691 5.87142 332.616 5.9691 333.532 6.12401L339.356 8.56124C338.439 8.40297 337.513 8.30393 336.583 8.26471" fill="#1A2A33"/>
<path d="M339.356 8.56515L333.532 6.12793C334.409 6.2807 335.276 6.48965 336.126 6.75349L341.95 9.21102C341.101 8.94384 340.234 8.73483 339.356 8.58546" fill="#1A2932"/>
<path d="M341.95 9.19093L336.126 6.7334C336.717 6.91619 337.296 7.1396 337.866 7.36708L343.691 9.8043C343.116 9.5687 342.537 9.35747 341.95 9.17468" fill="#192830"/>
<path d="M305.543 26.0729L299.723 23.6153C301.705 21.1339 303.87 18.8053 306.199 16.6489L312.019 19.1065C309.689 21.2619 307.524 23.5906 305.543 26.0729" fill="#1E2F3A"/>
<path d="M312.015 19.1061L306.195 16.6486C308.066 14.9178 310.063 13.3292 312.169 11.896L317.989 14.3332C315.883 15.7661 313.886 17.3547 312.015 19.0858" fill="#1E313B"/>
<path d="M317.989 14.3534L312.169 11.9162C314.292 10.4674 316.549 9.22556 318.908 8.20752L324.728 10.6447C322.369 11.6621 320.112 12.904 317.989 14.3534" fill="#1E2F3A"/>
<path d="M324.728 10.6449C331.358 7.82179 337.947 7.43183 343.691 9.8325L339.7 64.5522L323.696 78.7694L307.911 78.0788L305.535 26.0847C311.433 18.7284 318.099 13.468 324.728 10.6449Z" fill="#293B46"/>
<path d="M307.919 78.083L302.095 75.6254L299.723 23.6191L305.543 26.0726L307.919 78.083Z" fill="#16232B"/>
<path d="M303.342 22.3844L297.521 19.9269C299.742 17.1451 302.167 14.5352 304.779 12.1196L310.599 14.5569C307.989 16.9749 305.563 19.586 303.342 22.3682" fill="#293B46"/>
<path d="M310.599 14.5729L304.779 12.1356C306.862 10.2113 309.086 8.44616 311.433 6.85498L317.253 9.2922C314.909 10.886 312.685 12.651 310.599 14.5729" fill="#293B46"/>
<path d="M317.253 9.28022L311.433 6.84299C313.813 5.21128 316.345 3.81422 318.993 2.67128C319.353 2.51692 319.714 2.36663 320.074 2.22852L325.898 4.66574C325.534 4.80791 325.174 4.95414 324.813 5.1085C322.167 6.24917 319.635 7.64206 317.253 9.26803" fill="#293B46"/>
<path d="M325.898 4.6778L320.074 2.24057C321.654 1.61755 323.277 1.11248 324.931 0.729492L330.751 3.16672C329.097 3.54896 327.474 4.05404 325.894 4.6778" fill="#293B46"/>
<path d="M330.771 3.16663L324.951 0.729402C326.238 0.434147 327.543 0.22651 328.857 0.10791L334.677 2.54513C333.363 2.66373 332.058 2.87137 330.771 3.16663" fill="#293B46"/>
<path d="M334.677 2.54533L328.857 0.108108C329.988 0.00298154 331.126 -0.02552 332.261 0.0228023L338.081 2.46003C336.946 2.41579 335.809 2.44428 334.677 2.54533" fill="#293B46"/>
<path d="M338.081 2.46017L332.261 0.0229492C333.299 0.0663287 334.333 0.176227 335.357 0.351973L341.181 2.7892C340.156 2.61366 339.12 2.50377 338.081 2.46017" fill="#293B46"/>
<path d="M341.181 2.78879L335.357 0.351562C336.336 0.519233 337.303 0.751272 338.251 1.04617L344.071 3.50371C343.12 3.20559 342.151 2.97084 341.169 2.80098" fill="#293B46"/>
<path d="M344.083 3.48361L338.251 1.04639C338.912 1.2522 339.561 1.4878 340.198 1.75318L346.022 4.19041C345.383 3.9196 344.732 3.684 344.071 3.48361" fill="#293B46"/>
<path d="M346.034 4.19849L348.135 5.07183L343.63 66.8148L323.607 84.6188L303.868 83.7535L301.184 25.053L303.342 22.3639C309.818 14.2967 317.233 8.32958 324.793 5.10026C332.354 1.87094 339.728 1.57035 346.034 4.19849ZM339.7 64.5401L343.691 9.82036C337.947 7.43188 331.358 7.82183 324.728 10.6328C318.099 13.4437 311.433 18.7162 305.543 26.0685L307.919 78.0626L323.704 78.7532L339.708 64.536" fill="#152229"/>
<path d="M303.868 83.7736L298.043 81.3202L295.364 22.6196L301.184 25.0731L303.868 83.7736Z" fill="#293B46"/>
<path d="M301.184 25.0732L295.364 22.6197L297.521 19.9307L303.342 22.3841L301.184 25.0732Z" fill="#293B46"/>
<path d="M319.011 63.0625L331.205 56.0104C331.988 55.5338 332.638 54.8669 333.095 54.0719C333.551 53.2768 333.799 52.3793 333.815 51.4627L334.357 35.5136C334.414 33.8952 332.844 32.8311 331.525 33.5999L319.226 40.8542C318.358 41.3963 317.64 42.1465 317.136 43.0369C316.632 43.9272 316.359 44.9293 316.341 45.9522L315.835 60.8817C315.775 62.7064 317.539 63.9162 319.011 63.0625Z" fill="#152229"/>
<path d="M321.378 45.8915L321.811 33.1711C321.811 33.1711 321.969 26.9241 325.072 25.326C328.822 23.5012 328.224 30.4481 328.224 30.4481L327.819 42.9663" stroke="#152229" stroke-width="2.27317" stroke-miterlimit="10"/>
<path d="M327.556 50.5686C327.915 48.5536 327.338 46.7652 326.267 46.5742C325.195 46.3832 324.036 47.8618 323.676 49.8769C323.317 51.8919 323.894 53.6802 324.966 53.8713C326.037 54.0623 327.197 52.5836 327.556 50.5686Z" fill="#28404E"/>
<path d="M325.836 51.6367L325.525 60.8008" stroke="#28404E" stroke-width="1.51545" stroke-miterlimit="10"/>
<path d="M198.241 39.9485C202.11 39.9485 205.247 38.1317 205.247 35.8905C205.247 33.6493 202.11 31.8325 198.241 31.8325C194.372 31.8325 191.235 33.6493 191.235 35.8905C191.235 38.1317 194.372 39.9485 198.241 39.9485Z" stroke="url(#paint0_linear_480_26240)" stroke-width="1.13658" stroke-linecap="round" stroke-linejoin="round"/>
<path opacity="0.5" d="M198.241 42.0279C204.089 42.0279 208.829 39.28 208.829 35.8902C208.829 32.5004 204.089 29.7524 198.241 29.7524C192.393 29.7524 187.653 32.5004 187.653 35.8902C187.653 39.28 192.393 42.0279 198.241 42.0279Z" stroke="url(#paint1_linear_480_26240)" stroke-width="1.13658" stroke-linecap="round" stroke-linejoin="round"/>
<path d="M198.241 37.3042C199.587 37.3042 200.678 36.6713 200.678 35.8906C200.678 35.1099 199.587 34.4771 198.241 34.4771C196.895 34.4771 195.804 35.1099 195.804 35.8906C195.804 36.6713 196.895 37.3042 198.241 37.3042Z" fill="url(#paint2_radial_480_26240)"/>
<path d="M430.383 158.182C434.253 158.182 437.39 156.366 437.39 154.124C437.39 151.883 434.253 150.066 430.383 150.066C426.514 150.066 423.377 151.883 423.377 154.124C423.377 156.366 426.514 158.182 430.383 158.182Z" stroke="url(#paint3_linear_480_26240)" stroke-width="1.13658" stroke-linecap="round" stroke-linejoin="round"/>
<path opacity="0.5" d="M430.383 160.274C436.247 160.274 441 157.521 441 154.125C441 150.728 436.247 147.975 430.383 147.975C424.52 147.975 419.767 150.728 419.767 154.125C419.767 157.521 424.52 160.274 430.383 160.274Z" stroke="url(#paint4_linear_480_26240)" stroke-width="1.13658" stroke-linecap="round" stroke-linejoin="round"/>
<path d="M430.384 155.538C431.729 155.538 432.82 154.905 432.82 154.125C432.82 153.344 431.729 152.711 430.384 152.711C429.038 152.711 427.947 153.344 427.947 154.125C427.947 154.905 429.038 155.538 430.384 155.538Z" fill="url(#paint5_radial_480_26240)"/>
<path d="M8.16016 156.281L29.0977 168.402C29.9325 168.886 30.8815 169.136 31.8456 169.126C32.8096 169.116 33.7533 168.846 34.578 168.345L60.9998 152.288C61.7483 151.833 62.6044 151.588 63.4792 151.578C64.354 151.568 65.2155 151.794 65.9741 152.231L101.539 172.748C102.353 173.219 103.273 173.471 104.212 173.48C105.151 173.488 106.076 173.253 106.898 172.797L118.98 166.115" stroke="#28404E" stroke-width="1.51545" stroke-linecap="round" stroke-linejoin="round"/>
<path d="M12.3694 162.793C16.2388 162.793 19.3756 160.976 19.3756 158.735C19.3756 156.494 16.2388 154.677 12.3694 154.677C8.50004 154.677 5.36328 156.494 5.36328 158.735C5.36328 160.976 8.50004 162.793 12.3694 162.793Z" stroke="url(#paint6_linear_480_26240)" stroke-width="1.13658" stroke-linecap="round" stroke-linejoin="round"/>
<path opacity="0.5" d="M12.3693 165.323C18.6484 165.323 23.7386 162.373 23.7386 158.735C23.7386 155.096 18.6484 152.146 12.3693 152.146C6.09022 152.146 1 155.096 1 158.735C1 162.373 6.09022 165.323 12.3693 165.323Z" stroke="url(#paint7_linear_480_26240)" stroke-width="1.13658" stroke-linecap="round" stroke-linejoin="round"/>
<path d="M12.3693 160.148C13.715 160.148 14.8059 159.515 14.8059 158.734C14.8059 157.954 13.715 157.321 12.3693 157.321C11.0236 157.321 9.93274 157.954 9.93274 158.734C9.93274 159.515 11.0236 160.148 12.3693 160.148Z" fill="url(#paint8_radial_480_26240)"/>
<g opacity="0.9" clip-path="url(#clip0_480_26240)">
<g opacity="0.7">
<path d="M191.217 155.64L171.507 144.261L191.217 132.881L210.927 144.261L191.217 155.64ZM186.289 144.261L191.217 147.106L196.144 144.261L191.217 141.416L186.289 144.261Z" fill="#EEF2F5"/>
<path d="M215.854 141.416L196.144 130.036L215.854 118.657L235.564 130.036L215.854 141.416ZM210.927 130.036L215.854 132.881L220.782 130.036L215.854 127.192L210.927 130.036Z" fill="#EEF2F5"/>
<path d="M196.144 158.485L215.854 169.865L235.564 158.485L215.854 147.106L196.144 158.485ZM215.854 155.64L220.782 158.485L215.854 161.33L210.927 158.485L215.854 155.64Z" fill="#EEF2F5"/>
<path d="M228.173 139.993L220.782 144.261L225.709 147.106L233.1 142.838L242.955 148.528L240.491 149.95L235.564 147.106L230.636 149.95L240.491 155.64L250.346 149.95L245.419 147.106L250.346 144.261L255.274 147.106L260.201 144.261L252.81 139.993L247.883 142.838L245.419 141.416L242.955 142.838L240.491 141.416L247.883 137.149L240.491 132.881L233.1 137.149L238.028 139.993L233.1 142.838L228.173 139.993Z" fill="#EEF2F5"/>
</g>
</g>
<defs>
<linearGradient id="paint0_linear_480_26240" x1="195.46" y1="31.0567" x2="201.052" y2="40.7069" gradientUnits="userSpaceOnUse">
<stop stop-color="#B4FACD"/>
<stop offset="1" stop-color="#F0F7FB" stop-opacity="0"/>
</linearGradient>
<linearGradient id="paint1_linear_480_26240" x1="194.194" y1="28.8547" x2="202.332" y2="42.9003" gradientUnits="userSpaceOnUse">
<stop stop-color="#B4FACD"/>
<stop offset="1" stop-color="#F0F7FB" stop-opacity="0"/>
</linearGradient>
<radialGradient id="paint2_radial_480_26240" cx="0" cy="0" r="1" gradientUnits="userSpaceOnUse" gradientTransform="translate(198.241 35.6926) scale(3.20152 1.86359)">
<stop stop-color="#B4FACD"/>
<stop offset="1" stop-color="#F0F7FB" stop-opacity="0"/>
</radialGradient>
<linearGradient id="paint3_linear_480_26240" x1="433.164" y1="149.291" x2="427.573" y2="158.941" gradientUnits="userSpaceOnUse">
<stop stop-color="#B4FACD"/>
<stop offset="1" stop-color="#F0F7FB" stop-opacity="0"/>
</linearGradient>
<linearGradient id="paint4_linear_480_26240" x1="434.443" y1="147.073" x2="426.284" y2="161.151" gradientUnits="userSpaceOnUse">
<stop stop-color="#B4FACD"/>
<stop offset="1" stop-color="#F0F7FB" stop-opacity="0"/>
</linearGradient>
<radialGradient id="paint5_radial_480_26240" cx="0" cy="0" r="1" gradientUnits="userSpaceOnUse" gradientTransform="translate(430.384 153.667) scale(3.20152 1.86359)">
<stop stop-color="#B4FACD"/>
<stop offset="1" stop-color="#F0F7FB" stop-opacity="0"/>
</radialGradient>
<linearGradient id="paint6_linear_480_26240" x1="9.58883" y1="153.905" x2="15.1801" y2="163.551" gradientUnits="userSpaceOnUse">
<stop stop-color="#B4FACD"/>
<stop offset="1" stop-color="#F0F7FB" stop-opacity="0"/>
</linearGradient>
<linearGradient id="paint7_linear_480_26240" x1="8.04663" y1="151.224" x2="16.7387" y2="166.222" gradientUnits="userSpaceOnUse">
<stop stop-color="#B4FACD"/>
<stop offset="1" stop-color="#F0F7FB" stop-opacity="0"/>
</linearGradient>
<radialGradient id="paint8_radial_480_26240" cx="0" cy="0" r="1" gradientUnits="userSpaceOnUse" gradientTransform="translate(12.3693 158.27) scale(3.20155 1.86357)">
<stop stop-color="#B4FACD"/>
<stop offset="1" stop-color="#F0F7FB" stop-opacity="0"/>
</radialGradient>
<clipPath id="clip0_480_26240">
<rect width="68.2769" height="68.2769" fill="white" transform="matrix(0.866025 -0.5 0.866025 0.5 156.725 144.261)"/>
</clipPath>
</defs>
</svg>
