<svg width="360" height="380" viewBox="0 0 360 380" fill="none" xmlns="http://www.w3.org/2000/svg">
<path d="M95.7165 136.877L121.792 121.823L142.24 133.746" stroke="#B4FACD" stroke-width="1.51545" stroke-linecap="round" stroke-linejoin="round"/>
<path opacity="0.2" d="M83.7974 319.322C103.327 319.322 119.158 310.181 119.158 298.906C119.158 287.63 103.327 278.49 83.7974 278.49C64.2683 278.49 48.4368 287.63 48.4368 298.906C48.4368 310.181 64.2683 319.322 83.7974 319.322Z" stroke="#5CC892" stroke-width="1.13658" stroke-miterlimit="10"/>
<path d="M219.841 266.999L126.134 321.729L99.2335 305.496" stroke="#B4FACD" stroke-width="1.51545" stroke-linecap="round" stroke-linejoin="round"/>
<path opacity="0.5" d="M83.7974 315.429C103.327 315.429 119.158 306.289 119.158 295.013C119.158 283.738 103.327 274.597 83.7974 274.597C64.2683 274.597 48.4368 283.738 48.4368 295.013C48.4368 306.289 64.2683 315.429 83.7974 315.429Z" stroke="#5CC892" stroke-width="1.13658" stroke-miterlimit="10"/>
<path d="M83.464 311.598C93.2082 311.598 102.079 309.388 108.55 305.764C114.988 302.159 119.25 297.021 119.25 291.117C119.25 285.214 114.988 280.075 108.55 276.47C102.079 272.846 93.2082 270.637 83.464 270.637C73.7197 270.637 64.8486 272.846 58.3782 276.47C51.9402 280.075 47.6784 285.214 47.6784 291.117C47.6784 297.021 51.9402 302.159 58.3782 305.764C64.8486 309.388 73.7197 311.598 83.464 311.598Z" fill="#202E36" stroke="#5CC892" stroke-width="2"/>
<path opacity="0.2" d="M50.6863 155.57C79.694 155.57 103.209 141.991 103.209 125.241C103.209 108.491 79.694 94.9128 50.6863 94.9128C21.6786 94.9128 -1.83679 108.491 -1.83679 125.241C-1.83679 141.991 21.6786 155.57 50.6863 155.57Z" stroke="#202E36" stroke-width="1.13658" stroke-miterlimit="10"/>
<path opacity="0.5" d="M50.6863 149.792C79.694 149.792 103.209 136.213 103.209 119.463C103.209 102.714 79.694 89.135 50.6863 89.135C21.6786 89.135 -1.83679 102.714 -1.83679 119.463C-1.83679 136.213 21.6786 149.792 50.6863 149.792Z" stroke="#202E36" stroke-width="1.13658" stroke-miterlimit="10"/>
<path d="M50.6863 144.01C79.694 144.01 103.209 130.432 103.209 113.682C103.209 96.932 79.694 83.3535 50.6863 83.3535C21.6786 83.3535 -1.83679 96.932 -1.83679 113.682C-1.83679 130.432 21.6786 144.01 50.6863 144.01Z" stroke="#202E36" stroke-width="1.13658" stroke-miterlimit="10"/>
<path d="M50.6863 138.229C79.694 138.229 103.209 124.65 103.209 107.9C103.209 91.1505 79.694 77.572 50.6863 77.572C21.6786 77.572 -1.83679 91.1505 -1.83679 107.9C-1.83679 124.65 21.6786 138.229 50.6863 138.229Z" fill="#202E36"/>
<path opacity="0.2" d="M300.707 142.461C323.793 142.461 342.509 131.654 342.509 118.323C342.509 104.992 323.793 94.1846 300.707 94.1846C277.621 94.1846 258.905 104.992 258.905 118.323C258.905 131.654 277.621 142.461 300.707 142.461Z" stroke="#202E36" stroke-width="1.13658" stroke-miterlimit="10"/>
<path opacity="0.5" d="M300.707 137.861C323.793 137.861 342.509 127.054 342.509 113.722C342.509 100.391 323.793 89.5842 300.707 89.5842C277.621 89.5842 258.905 100.391 258.905 113.722C258.905 127.054 277.621 137.861 300.707 137.861Z" stroke="#202E36" stroke-width="1.13658" stroke-miterlimit="10"/>
<path d="M300.707 133.26C323.793 133.26 342.509 122.453 342.509 109.122C342.509 95.7912 323.793 84.9841 300.707 84.9841C277.621 84.9841 258.905 95.7912 258.905 109.122C258.905 122.453 277.621 133.26 300.707 133.26Z" stroke="#202E36" stroke-width="1.13658" stroke-miterlimit="10"/>
<path d="M300.707 128.66C323.793 128.66 342.509 117.853 342.509 104.522C342.509 91.1908 323.793 80.3838 300.707 80.3838C277.621 80.3838 258.905 91.1908 258.905 104.522C258.905 117.853 277.621 128.66 300.707 128.66Z" fill="#202E36"/>
<path d="M339.879 190.903L360.808 178.818C361.643 178.336 362.591 178.087 363.555 178.096C364.518 178.106 365.462 178.375 366.286 178.874L392.693 194.88C393.442 195.333 394.297 195.577 395.172 195.587C396.046 195.597 396.907 195.372 397.666 194.937L416.455 184.134" stroke="#202E36" stroke-width="1.51545" stroke-linecap="round" stroke-linejoin="round"/>
<path d="M90.287 133.746L95.7165 136.877L121.792 121.823L142.24 133.746" stroke="#202E36" stroke-width="1.51545" stroke-linecap="round" stroke-linejoin="round"/>
<path d="M316.518 175.872L357.179 151.055C357.673 150.753 358.081 150.328 358.361 149.822C358.642 149.315 358.785 148.744 358.778 148.165C358.77 147.586 358.612 147.019 358.319 146.52C358.026 146.02 357.608 145.606 357.106 145.317L331.678 130.618" stroke="#202E36" stroke-width="1.51545" stroke-linecap="round" stroke-linejoin="round"/>
<path d="M180.157 69.2615L220.818 94.0753C221.312 94.3768 221.72 94.8018 222.001 95.3085C222.281 95.8152 222.425 96.3863 222.418 96.9655C222.411 97.5447 222.254 98.1121 221.961 98.612C221.668 99.1119 221.251 99.527 220.749 99.8165L195.317 114.499" stroke="#28404E" stroke-width="1.51545" stroke-linecap="round" stroke-linejoin="round"/>
<path d="M402.5 233.191C403.125 234.112 403.553 235.153 403.757 236.246C403.962 237.34 403.938 238.465 403.688 239.549C403.438 240.634 402.968 241.655 402.305 242.549C401.643 243.444 400.803 244.192 399.838 244.747L296.224 304.594C293.764 306.015 290.973 306.763 288.133 306.763C285.292 306.763 282.501 306.015 280.041 304.594L79.4725 188.763C78.2425 188.053 77.2211 187.031 76.511 185.801C75.8008 184.571 75.427 183.176 75.427 181.755C75.427 180.335 75.8008 178.939 76.511 177.709C77.2211 176.479 78.2425 175.458 79.4725 174.748" fill="#152229"/>
<path d="M75.4225 173.611V181.755L78.0847 184.418H81.5884L81.9849 181.492L83.7974 176.059L75.4225 173.611Z" fill="#152229"/>
<path d="M280.041 296.968L79.4725 181.152C78.2425 180.442 77.2211 179.421 76.511 178.191C75.8008 176.961 75.427 175.565 75.427 174.145C75.427 172.725 75.8008 171.329 76.511 170.099C77.2211 168.869 78.2425 167.848 79.4725 167.137L183.086 107.31C185.547 105.889 188.337 105.142 191.178 105.142C194.019 105.142 196.81 105.889 199.27 107.31L399.838 223.121C401.068 223.831 402.09 224.853 402.8 226.083C403.51 227.313 403.884 228.708 403.884 230.129C403.884 231.549 403.51 232.944 402.8 234.175C402.09 235.405 401.068 236.426 399.838 237.136L296.224 296.968C293.764 298.388 290.973 299.136 288.133 299.136C285.292 299.136 282.501 298.388 280.041 296.968Z" fill="#202E36"/>
<path d="M288.133 291.045C286.712 291.045 285.317 290.671 284.087 289.96L89.587 177.661C88.9672 177.307 88.452 176.796 88.0937 176.179C87.7354 175.562 87.5466 174.861 87.5466 174.147C87.5466 173.433 87.7354 172.732 88.0937 172.115C88.452 171.498 88.9672 170.987 89.587 170.633L187.128 114.318C188.358 113.607 189.754 113.233 191.174 113.233C192.594 113.233 193.99 113.607 195.22 114.318L389.57 226.54C390.2 226.904 390.723 227.428 391.087 228.058C391.451 228.688 391.642 229.403 391.642 230.131C391.642 230.859 391.451 231.573 391.087 232.204C390.723 232.834 390.2 233.358 389.57 233.722L292.174 289.96C290.945 290.669 289.551 291.043 288.133 291.045Z" fill="#293B46"/>
<path d="M121.015 152.491L127.351 153.037C128.619 153.145 129.889 152.862 130.992 152.228L153.649 139.139C154.032 138.919 154.328 138.572 154.485 138.158C154.642 137.745 154.651 137.289 154.511 136.87L153.463 133.746L121.015 152.491Z" fill="#202E36"/>
<path d="M148.032 188.602L127.908 176.981L141.908 168.896L147.944 165.41" stroke="#5FCD82" stroke-width="2.65203" stroke-linecap="round" stroke-linejoin="round"/>
<path d="M217.271 205.419L197.214 217L177.158 205.419" stroke="#5FCD82" stroke-width="2.65203" stroke-linecap="round" stroke-linejoin="round"/>
<path d="M246.677 165.522L266.521 176.981L246.717 188.416" stroke="#5FCD82" stroke-width="2.65203" stroke-linecap="round" stroke-linejoin="round"/>
<path d="M177.583 148.296L197.215 136.962L216.842 148.296" stroke="#5FCD82" stroke-width="2.65203" stroke-linecap="round" stroke-linejoin="round"/>
<g opacity="0.6">
<path d="M259.555 230.404L259.804 230.259L260.54 230.952C260.629 231.049 260.75 231.111 260.882 231.127C261.013 231.143 261.145 231.111 261.255 231.038C261.383 230.965 261.452 230.882 261.472 230.794C261.471 230.738 261.458 230.682 261.432 230.632C261.407 230.582 261.37 230.539 261.325 230.506L260.589 229.814L260.84 229.669L261.595 230.376C261.664 230.425 261.72 230.49 261.758 230.565C261.795 230.641 261.814 230.725 261.811 230.809C261.788 230.945 261.669 231.077 261.454 231.2C261.276 231.315 261.067 231.371 260.855 231.36C260.656 231.339 260.47 231.25 260.33 231.107L259.555 230.404Z" fill="#F0FBF6"/>
<path d="M262.378 230.603L261.119 229.418L262.85 229.546L262.997 229.561L263.165 229.587L262.326 228.797L262.558 228.663L263.816 229.846L262.058 229.716C262.01 229.716 261.963 229.716 261.915 229.701L261.772 229.675L262.614 230.469L262.378 230.603Z" fill="#F0FBF6"/>
<path d="M264.126 229.593L262.914 228.453L263.165 228.308L264.377 229.448L264.126 229.593Z" fill="#F0FBF6"/>
<path d="M264.747 229.238L263.535 228.099L264.4 227.599L264.569 227.757L263.955 228.112L264.256 228.395L264.87 228.04L265.043 228.202L264.429 228.557L264.997 229.094L264.747 229.238Z" fill="#F0FBF6"/>
<path d="M265.884 228.579L264.673 227.439L264.924 227.294L266.135 228.432L265.884 228.579Z" fill="#F0FBF6"/>
<path d="M266.498 228.224L265.287 227.084L266.152 226.584L266.319 226.742L265.707 227.095L266.01 227.38L266.624 227.028L266.797 227.19L266.183 227.545L266.574 227.913L267.188 227.558L267.364 227.722L266.498 228.224Z" fill="#F0FBF6"/>
<path d="M267.727 227.244L267.943 227.121C268.031 227.075 268.113 227.018 268.188 226.952C268.23 226.913 268.261 226.863 268.279 226.807C268.299 226.736 268.294 226.66 268.266 226.591C268.228 226.509 268.173 226.435 268.106 226.375C268.034 226.306 267.95 226.25 267.859 226.21C267.771 226.172 267.676 226.151 267.58 226.148C267.506 226.147 267.433 226.159 267.364 226.182C267.258 226.222 267.156 226.271 267.059 226.329L266.968 226.383L266.877 226.435L267.727 227.244ZM267.654 227.556L266.442 226.418L266.782 226.221C266.939 226.125 267.104 226.043 267.275 225.975C267.38 225.941 267.489 225.923 267.599 225.921C267.741 225.919 267.882 225.945 268.013 225.997C268.144 226.05 268.264 226.128 268.365 226.228C268.461 226.311 268.535 226.416 268.581 226.535C268.617 226.636 268.617 226.746 268.581 226.846C268.551 226.929 268.502 227.003 268.437 227.063C268.32 227.162 268.193 227.248 268.058 227.32L267.991 227.359L267.654 227.556Z" fill="#F0FBF6"/>
<path d="M269.462 225.442L269.527 225.403C269.623 225.36 269.707 225.293 269.771 225.209C269.795 225.159 269.771 225.107 269.715 225.051C269.687 225.022 269.653 224.999 269.616 224.985C269.579 224.97 269.539 224.964 269.499 224.967C269.385 224.982 269.277 225.023 269.183 225.088L269.118 225.124L269.462 225.442ZM269.607 225.602L270.152 226.113L269.914 226.251L268.705 225.111L269.085 224.895C269.169 224.844 269.258 224.801 269.349 224.765C269.41 224.744 269.473 224.731 269.537 224.729C269.615 224.727 269.692 224.741 269.765 224.77C269.838 224.799 269.906 224.841 269.964 224.895C270.017 224.942 270.057 225.002 270.08 225.068C270.102 225.124 270.102 225.186 270.08 225.241C270.059 225.29 270.028 225.333 269.987 225.367C269.914 225.426 269.836 225.478 269.754 225.522L269.704 225.553L269.607 225.602Z" fill="#F0FBF6"/>
<path d="M270.803 225.016L271.235 224.765L270.803 224.597L270.714 224.558L270.606 224.502C270.624 224.529 270.64 224.558 270.654 224.588C270.667 224.613 270.678 224.638 270.688 224.664L270.803 225.016ZM271.975 225.06L271.489 224.869L270.874 225.224L271.006 225.62L270.74 225.773L270.234 224.156L272.241 224.906L271.975 225.06Z" fill="#F0FBF6"/>
<path d="M272.605 224.698L272.049 224.177L270.87 223.861L271.136 223.708L271.871 223.907L271.943 223.928L272.034 223.961C272.024 223.938 272.016 223.915 272.01 223.891C272.004 223.87 271.999 223.848 271.997 223.826L271.925 223.251L272.176 223.106L272.3 224.032L272.853 224.553L272.605 224.698Z" fill="#F0FBF6"/>
<path d="M274.225 222.855L274.132 222.788L274.03 222.715C274.051 222.744 274.07 222.775 274.086 222.808C274.101 222.842 274.114 222.878 274.125 222.914L274.365 223.755L273.301 223.37C273.258 223.355 273.217 223.338 273.178 223.32C273.141 223.305 273.105 223.288 273.07 223.268C273.096 223.294 273.12 223.32 273.143 223.348C273.167 223.379 273.189 223.41 273.208 223.444L273.641 224.093L273.409 224.227L272.512 222.834L273.734 223.29L273.827 223.327L273.982 223.396C273.958 223.342 273.937 223.286 273.92 223.229C273.917 223.215 273.912 223.202 273.907 223.188L273.591 222.211L275.228 223.182L274.993 223.318L274.225 222.855Z" fill="#F0FBF6"/>
<path d="M275.429 223.065L274.218 221.927L275.083 221.428L275.252 221.583L274.638 221.938L274.941 222.224L275.555 221.869L275.728 222.033L275.114 222.386L275.505 222.756L276.119 222.401L276.295 222.565L275.429 223.065Z" fill="#F0FBF6"/>
<path d="M276.584 222.401L275.326 221.218L277.056 221.343L277.205 221.361L277.372 221.387L276.533 220.595L276.766 220.461L278.023 221.644L276.264 221.516L276.122 221.501L275.979 221.475L276.82 222.267L276.584 222.401Z" fill="#F0FBF6"/>
<path d="M277.785 220.121L278.83 221.103L278.577 221.248L277.532 220.266L277.121 220.504L276.954 220.348L278.036 219.728L278.205 219.883L277.785 220.121Z" fill="#F0FBF6"/>
<path d="M279.1 220.578L279.23 220.394C279.296 220.431 279.37 220.45 279.446 220.45C279.53 220.445 279.612 220.42 279.684 220.377C279.715 220.363 279.743 220.342 279.765 220.317C279.788 220.291 279.804 220.26 279.814 220.228C279.819 220.197 279.816 220.166 279.805 220.138C279.793 220.11 279.774 220.085 279.749 220.067C279.68 220 279.533 219.983 279.334 220.02H279.267C279.096 220.054 278.921 220.064 278.747 220.05C278.643 220.036 278.546 219.99 278.468 219.918C278.424 219.883 278.391 219.836 278.371 219.783C278.352 219.73 278.347 219.673 278.358 219.618C278.377 219.556 278.409 219.499 278.451 219.451C278.494 219.402 278.546 219.363 278.605 219.336C278.708 219.274 278.823 219.234 278.942 219.22C279.048 219.206 279.155 219.223 279.251 219.267L279.132 219.455C279.072 219.439 279.009 219.432 278.946 219.436C278.892 219.441 278.84 219.457 278.793 219.483C278.765 219.497 278.74 219.515 278.72 219.538C278.699 219.561 278.684 219.588 278.674 219.618C278.668 219.643 278.67 219.669 278.679 219.694C278.688 219.718 278.703 219.74 278.724 219.756C278.797 219.823 278.953 219.838 279.191 219.795H279.234C279.391 219.76 279.552 219.75 279.712 219.765C279.818 219.778 279.917 219.826 279.993 219.901C280.044 219.94 280.084 219.991 280.108 220.051C280.132 220.11 280.139 220.175 280.13 220.238C280.108 220.307 280.073 220.37 280.025 220.423C279.978 220.477 279.92 220.52 279.855 220.55C279.735 220.623 279.599 220.664 279.459 220.669C279.329 220.675 279.2 220.642 279.089 220.574" fill="#F0FBF6"/>
<path d="M281.282 219.686L280.071 218.547L280.324 218.402L281.535 219.542L281.282 219.686Z" fill="#F0FBF6"/>
<path d="M281.897 219.332L280.638 218.146L282.368 218.274L282.517 218.291C282.567 218.291 282.623 218.304 282.684 218.315L281.834 217.526L282.068 217.392L283.324 218.575L281.566 218.447L281.423 218.432L281.28 218.406L282.122 219.198L281.897 219.332Z" fill="#F0FBF6"/>
<path d="M283.097 217.054L284.142 218.036L283.889 218.181L282.846 217.21L282.433 217.448L282.267 217.29L283.348 216.671L283.515 216.827L283.097 217.054Z" fill="#F0FBF6"/>
<path d="M284.745 217.688L283.534 216.548L284.399 216.049L284.566 216.206L283.954 216.561L284.257 216.847L284.871 216.494L285.044 216.656L284.43 217.009L284.821 217.377L285.433 217.022L285.611 217.189L284.745 217.688Z" fill="#F0FBF6"/>
<path d="M285.457 216.222L285.502 216.196C285.594 216.155 285.674 216.09 285.732 216.007C285.751 215.96 285.732 215.906 285.669 215.847C285.641 215.818 285.608 215.795 285.57 215.779C285.533 215.764 285.493 215.756 285.453 215.756C285.345 215.769 285.242 215.808 285.152 215.869L285.107 215.895L285.457 216.222ZM285.593 216.375L286.136 216.883L285.9 217.02L284.689 215.882L285.042 215.679C285.122 215.628 285.208 215.587 285.297 215.555C285.36 215.532 285.426 215.519 285.494 215.519C285.568 215.52 285.641 215.534 285.71 215.562C285.781 215.589 285.847 215.631 285.903 215.683C285.944 215.714 285.977 215.755 286.001 215.801C286.024 215.847 286.037 215.897 286.039 215.949C286.031 216 286.012 216.049 285.984 216.091C285.955 216.134 285.917 216.17 285.872 216.196L286.954 216.412L286.668 216.576L285.611 216.36L285.593 216.375Z" fill="#F0FBF6"/>
<path d="M287.116 216.319L285.905 215.179L286.77 214.679L286.939 214.837L286.324 215.192L286.625 215.475L287.239 215.12L287.412 215.283L286.809 215.637L287.378 216.172L287.116 216.319Z" fill="#F0FBF6"/>
<path d="M288.029 215.068L288.461 214.82L288.029 214.651L287.94 214.61L287.834 214.556L287.88 214.64C287.892 214.668 287.905 214.692 287.914 214.716L288.029 215.068ZM289.203 215.114L288.714 214.921L288.1 215.276L288.232 215.674L287.966 215.828L287.46 214.21L289.469 214.96L289.203 215.114Z" fill="#F0FBF6"/>
<path d="M289.906 213.317C289.794 213.312 289.682 213.322 289.573 213.347C289.472 213.37 289.376 213.407 289.285 213.457C289.214 213.491 289.151 213.541 289.101 213.604C289.052 213.666 289.017 213.739 289 213.816C288.991 213.892 289.003 213.969 289.033 214.04C289.063 214.11 289.11 214.172 289.171 214.219C289.301 214.343 289.47 214.419 289.649 214.435C289.829 214.457 290.011 214.42 290.168 214.329C290.251 214.28 290.324 214.217 290.384 214.143C290.441 214.07 290.483 213.986 290.508 213.896L290.724 214.113C290.692 214.192 290.646 214.266 290.588 214.329C290.519 214.398 290.441 214.457 290.356 214.504C290.24 214.572 290.113 214.622 289.982 214.653C289.851 214.681 289.716 214.69 289.582 214.679C289.452 214.669 289.324 214.639 289.203 214.588C289.088 214.539 288.982 214.471 288.89 214.387C288.808 214.312 288.743 214.22 288.701 214.117C288.665 214.023 288.654 213.92 288.671 213.821C288.691 213.718 288.736 213.623 288.801 213.541C288.879 213.448 288.973 213.369 289.08 213.31C289.172 213.257 289.27 213.217 289.372 213.189C289.481 213.159 289.592 213.143 289.705 213.139L289.906 213.317Z" fill="#F0FBF6"/>
<path d="M291.135 213.998L289.924 212.858L290.789 212.358L290.957 212.516L290.343 212.871L290.646 213.156L291.26 212.802L291.433 212.964L290.819 213.319L291.21 213.686L291.825 213.332L292 213.498L291.135 213.998Z" fill="#F0FBF6"/>
<path d="M283.564 214.934L281.834 215.936L275.538 209.514L277.268 208.514L283.564 214.934Z" fill="#F0FBF6"/>
<path d="M274.223 210.585C273.942 210.557 273.659 210.619 273.416 210.762L263.881 216.267L265.114 217.524L266.845 216.522L273.788 212.516L275.105 213.859L268.168 217.859L266.438 218.86L270.193 222.691L271.923 221.69L269.403 219.118L277.199 214.614C277.305 214.56 277.399 214.484 277.474 214.391C277.548 214.298 277.602 214.189 277.631 214.074C277.656 213.966 277.651 213.853 277.618 213.747C277.584 213.641 277.523 213.546 277.441 213.472L274.919 210.9C274.731 210.712 274.481 210.598 274.216 210.58" fill="#F0FBF6"/>
<path d="M268.597 222.944C268.845 223.199 268.77 223.517 268.413 223.725L259.467 228.89C259.227 229.031 258.949 229.091 258.673 229.061C258.412 229.045 258.166 228.935 257.981 228.75L252.307 222.953L254.038 221.951L259.105 227.127L266.044 223.117L260.983 217.941L262.713 216.939L268.597 222.944Z" fill="#F0FBF6"/>
<path d="M280.27 206.795L286.83 208.047L286.58 213.239L280.27 206.795Z" fill="white"/>
<path d="M278.73 207.693L285.288 208.947L285.037 214.138L278.73 207.693Z" fill="white"/>
</g>
<path d="M371 226.5L287.453 274.744L260.439 259.344V256.368L371 223V226.5Z" fill="#C4C4C4"/>
<path d="M371 223.5L287.453 271.744L260.439 256.344L343.985 208.1L371 223.5Z" fill="#EEF2F5"/>
<path d="M282.901 261.707L276.253 257.868L278.875 256.354C279.362 256.069 279.897 255.873 280.453 255.776C280.988 255.682 281.536 255.682 282.071 255.776C282.581 255.859 283.072 256.033 283.52 256.29C283.891 256.475 284.199 256.769 284.402 257.131C284.475 257.276 284.511 257.438 284.505 257.601C284.498 257.764 284.45 257.923 284.365 258.062C284.112 258.454 283.759 258.771 283.342 258.98L281.671 259.943L280.542 259.296L281.978 258.43C282.192 258.325 282.374 258.164 282.504 257.965C282.545 257.895 282.566 257.816 282.566 257.736C282.566 257.656 282.545 257.577 282.504 257.507C282.393 257.335 282.238 257.195 282.055 257.103C281.837 256.975 281.597 256.887 281.347 256.844C281.087 256.797 280.822 256.797 280.562 256.844C280.277 256.902 280.003 257.007 279.753 257.155L278.806 257.702L284.309 260.898L282.901 261.707Z" fill="#0B151B"/>
<path d="M290.179 257.597C289.864 257.784 289.521 257.921 289.164 258.001C288.807 258.081 288.439 258.1 288.075 258.058C287.71 258.013 287.357 257.893 287.04 257.706C286.816 257.596 286.627 257.427 286.493 257.216C286.45 257.14 286.424 257.055 286.417 256.968C286.41 256.881 286.422 256.793 286.453 256.711C286.528 256.523 286.644 256.354 286.793 256.217C286.973 256.042 287.168 255.882 287.375 255.74C287.634 255.553 287.841 255.4 287.99 255.282C288.102 255.21 288.193 255.11 288.253 254.991C288.282 254.914 288.253 254.841 288.136 254.781H288.116C287.912 254.664 287.679 254.608 287.444 254.619C287.191 254.631 286.945 254.706 286.728 254.837C286.481 254.979 286.323 255.125 286.299 255.274C286.28 255.346 286.28 255.422 286.301 255.493C286.322 255.564 286.362 255.629 286.416 255.679L285.037 256.359C284.822 256.192 284.678 255.951 284.632 255.683C284.619 255.553 284.632 255.423 284.671 255.298C284.709 255.174 284.771 255.059 284.855 254.959C285.096 254.668 285.391 254.428 285.725 254.251C286.01 254.087 286.311 253.951 286.623 253.846C286.94 253.737 287.268 253.663 287.602 253.628C287.932 253.594 288.266 253.605 288.593 253.66C288.924 253.717 289.242 253.833 289.532 254.004L292.894 255.946L291.583 256.702L290.891 256.298L290.851 256.322C290.922 256.444 290.953 256.586 290.94 256.727C290.915 256.891 290.843 257.044 290.733 257.168C290.575 257.342 290.387 257.487 290.179 257.597ZM289.621 256.816C289.788 256.729 289.928 256.597 290.025 256.435C290.062 256.375 290.085 256.308 290.092 256.238C290.099 256.168 290.09 256.097 290.066 256.031C289.994 255.88 289.875 255.758 289.726 255.683L289.196 255.379C289.173 255.434 289.138 255.484 289.095 255.525C289.037 255.59 288.975 255.651 288.909 255.707L288.678 255.893L288.46 256.063C288.34 256.15 288.235 256.255 288.148 256.375C288.117 256.414 288.094 256.46 288.081 256.509C288.069 256.557 288.067 256.608 288.075 256.658C288.095 256.712 288.125 256.762 288.163 256.804C288.202 256.847 288.249 256.881 288.302 256.905C288.495 257.014 288.717 257.059 288.937 257.034C289.178 257.011 289.411 256.937 289.621 256.816Z" fill="#0B151B"/>
<path d="M296.511 255.99C296.339 256.091 296.161 256.178 295.977 256.253C295.822 256.318 295.662 256.371 295.499 256.411L294.775 255.638C294.956 255.587 295.13 255.518 295.297 255.432C295.41 255.383 295.499 255.293 295.548 255.181C295.561 255.123 295.558 255.063 295.541 255.006C295.524 254.95 295.493 254.898 295.451 254.857L295.321 254.687L288.403 252.757L289.859 251.92L294.553 253.437L294.605 253.409L291.984 250.69L293.448 249.844L297.037 254.153C297.196 254.332 297.307 254.547 297.36 254.78C297.38 254.887 297.378 254.996 297.354 255.102C297.33 255.207 297.286 255.307 297.223 255.395C297.034 255.645 296.79 255.848 296.511 255.99Z" fill="#0B151B"/>
<path d="M295.997 246.45L302.644 250.29L301.261 251.099L294.613 247.263L295.997 246.45Z" fill="#0B151B"/>
<path d="M305.266 248.885C304.948 249.07 304.605 249.207 304.247 249.29C303.891 249.368 303.524 249.386 303.162 249.343C302.795 249.297 302.441 249.178 302.122 248.991C301.899 248.88 301.711 248.711 301.576 248.501C301.535 248.425 301.51 248.341 301.504 248.254C301.497 248.168 301.51 248.081 301.54 247.999C301.614 247.811 301.728 247.641 301.876 247.502C302.056 247.327 302.251 247.167 302.458 247.024C302.721 246.838 302.924 246.689 303.077 246.567C303.189 246.495 303.28 246.394 303.34 246.276C303.365 246.199 303.34 246.13 303.219 246.065C303.017 245.947 302.785 245.889 302.551 245.9C302.298 245.911 302.052 245.986 301.835 246.118C301.584 246.264 301.431 246.409 301.406 246.555C301.387 246.627 301.388 246.702 301.408 246.774C301.429 246.845 301.469 246.909 301.524 246.96L300.14 247.635C299.927 247.467 299.783 247.227 299.735 246.96C299.723 246.83 299.737 246.7 299.776 246.576C299.814 246.453 299.878 246.338 299.962 246.239C300.201 245.945 300.497 245.703 300.832 245.527C301.116 245.364 301.416 245.229 301.726 245.123C302.043 245.014 302.372 244.941 302.705 244.904C303.037 244.87 303.372 244.881 303.7 244.937C304.03 244.995 304.346 245.112 304.635 245.281L308.001 247.223L306.658 247.951L305.966 247.546L305.93 247.571C306 247.693 306.031 247.834 306.019 247.975C305.995 248.139 305.923 248.293 305.812 248.416C305.658 248.603 305.474 248.761 305.266 248.885ZM304.708 248.105C304.874 248.016 305.013 247.884 305.112 247.724C305.148 247.664 305.17 247.596 305.177 247.526C305.183 247.456 305.173 247.386 305.149 247.32C305.081 247.168 304.962 247.045 304.813 246.972L304.283 246.664C304.258 246.718 304.224 246.768 304.182 246.81C304.129 246.867 304.064 246.927 303.992 246.992C303.919 247.057 303.842 247.117 303.761 247.182L303.547 247.348C303.427 247.435 303.322 247.54 303.235 247.66C303.204 247.699 303.181 247.744 303.168 247.793C303.156 247.842 303.154 247.893 303.162 247.943C303.18 247.997 303.209 248.047 303.247 248.09C303.285 248.133 303.332 248.167 303.385 248.19C303.578 248.3 303.803 248.346 304.024 248.319C304.265 248.301 304.499 248.227 304.708 248.105Z" fill="#0B151B"/>
<path d="M306.719 242.177L307.758 242.78L304.756 244.512L303.717 243.913L306.719 242.177ZM303.203 242.828L304.586 242.019L309.235 244.702C309.345 244.769 309.465 244.815 309.591 244.839C309.694 244.862 309.8 244.862 309.903 244.839C310.003 244.813 310.1 244.774 310.19 244.722C310.252 244.686 310.312 244.646 310.368 244.601L310.489 244.495L311.735 244.965C311.687 245.017 311.614 245.09 311.517 245.179C311.391 245.29 311.256 245.388 311.112 245.475C310.8 245.67 310.458 245.814 310.101 245.903C309.756 245.988 309.398 246.009 309.045 245.964C308.686 245.919 308.341 245.8 308.029 245.616L303.203 242.828Z" fill="#0B151B"/>
<path d="M314.923 243.314C314.424 243.604 313.875 243.802 313.305 243.897C312.728 243.99 312.139 243.982 311.565 243.873C310.98 243.766 310.417 243.557 309.903 243.258C309.473 243.041 309.109 242.713 308.851 242.307C308.758 242.156 308.704 241.985 308.693 241.809C308.682 241.633 308.714 241.456 308.786 241.295C309 240.896 309.334 240.573 309.741 240.373C310.079 240.179 310.44 240.031 310.817 239.932C311.213 239.826 311.621 239.773 312.031 239.774C312.467 239.772 312.901 239.829 313.321 239.944C313.774 240.064 314.208 240.245 314.612 240.482L314.992 240.701L310.78 243.128L309.923 242.63L312.832 240.951C312.627 240.836 312.404 240.758 312.172 240.721C311.934 240.684 311.691 240.684 311.452 240.721C311.218 240.755 310.993 240.833 310.789 240.951C310.614 241.04 310.473 241.182 310.384 241.356C310.351 241.425 310.334 241.5 310.334 241.576C310.334 241.653 310.351 241.728 310.384 241.797C310.477 241.968 310.617 242.109 310.789 242.202L311.598 242.671C311.839 242.81 312.101 242.909 312.375 242.962C312.642 243.007 312.916 243.007 313.184 242.962C313.446 242.922 313.699 242.833 313.928 242.699C314.062 242.627 314.182 242.533 314.284 242.42C314.362 242.337 314.409 242.23 314.418 242.117C314.418 242.006 314.38 241.898 314.308 241.813L315.672 241.125C315.889 241.297 316.034 241.544 316.077 241.817C316.096 242.089 316.011 242.359 315.838 242.57C315.586 242.876 315.275 243.129 314.923 243.314Z" fill="#0B151B"/>
<path d="M318.014 241.413L313.03 238.536L314.369 237.763L315.239 238.265L315.292 238.232C315.196 238.153 315.123 238.049 315.08 237.931C315.037 237.814 315.027 237.688 315.049 237.565C315.089 237.441 315.155 237.327 315.241 237.23C315.327 237.132 315.433 237.053 315.551 236.998C315.627 236.954 315.705 236.913 315.785 236.877C315.865 236.839 315.948 236.805 316.032 236.776L317.246 237.484C317.137 237.52 317.03 237.562 316.926 237.609C316.811 237.659 316.698 237.715 316.59 237.779C316.418 237.87 316.277 238.011 316.186 238.184C316.152 238.25 316.134 238.324 316.134 238.398C316.134 238.473 316.152 238.546 316.186 238.613C316.275 238.787 316.416 238.929 316.59 239.017L319.422 240.636L318.014 241.413Z" fill="#0B151B"/>
<path d="M347.85 221.736L336.902 228.059L335.903 227.485L346.855 221.161L347.85 221.736Z" fill="#0B151B"/>
<path d="M348.182 224.038H346.774V221.784H342.866V220.971H348.182V224.038Z" fill="#0B151B"/>
<path d="M395.359 243.65C396.312 244.123 397.114 244.853 397.674 245.757C398.235 246.661 398.532 247.704 398.531 248.768V327.721L307.613 380.217V301.357C307.613 300.25 307.331 299.16 306.792 298.192C306.253 297.224 305.476 296.41 304.534 295.827L395.359 243.662V243.65Z" fill="#28404E"/>
<path d="M317.214 314.693L372.553 282.738" stroke="#5FCD82" stroke-width="1.51545" stroke-linecap="round" stroke-linejoin="round"/>
<path d="M317.214 330.1L372.553 298.145" stroke="#5FCD82" stroke-width="1.51545" stroke-linecap="round" stroke-linejoin="round"/>
<path d="M317.214 345.511L372.553 313.556" stroke="#5FCD82" stroke-width="1.51545" stroke-linecap="round" stroke-linejoin="round"/>
<path d="M317.404 359.215L317.376 357.964L322.591 355.043L322.619 356.293L320.596 357.426L320.762 364.41L319.589 365.069L319.419 358.082L317.404 359.215Z" fill="#5FCD82"/>
<path d="M325.164 362.071C324.794 362.315 324.35 362.421 323.91 362.37C323.729 362.332 323.559 362.253 323.413 362.138C323.267 362.024 323.149 361.878 323.068 361.711C322.839 361.242 322.727 360.724 322.741 360.202C322.722 359.579 322.805 358.957 322.988 358.361C323.159 357.795 323.426 357.263 323.776 356.787C324.106 356.338 324.526 355.964 325.01 355.69C325.381 355.447 325.824 355.341 326.265 355.391C326.446 355.43 326.617 355.51 326.763 355.625C326.909 355.74 327.026 355.887 327.106 356.055C327.335 356.526 327.449 357.044 327.438 357.568C327.456 358.19 327.371 358.81 327.187 359.405C327.011 359.971 326.737 360.502 326.378 360.974C326.055 361.421 325.641 361.795 325.164 362.071ZM325.164 360.902C325.431 360.748 325.652 360.528 325.808 360.262C325.984 359.97 326.11 359.65 326.18 359.316C326.26 358.956 326.295 358.588 326.285 358.219C326.285 357.895 326.233 357.572 326.131 357.264C326.101 357.156 326.05 357.055 325.98 356.967C325.911 356.879 325.825 356.805 325.727 356.75C325.618 356.711 325.502 356.699 325.387 356.715C325.273 356.731 325.164 356.775 325.071 356.844C324.799 356.996 324.573 357.218 324.416 357.487C324.236 357.781 324.109 358.104 324.039 358.442C323.959 358.803 323.924 359.172 323.934 359.542C323.934 359.864 323.986 360.184 324.088 360.489C324.117 360.597 324.167 360.699 324.237 360.786C324.306 360.874 324.394 360.946 324.493 360.999C324.601 361.035 324.717 361.045 324.83 361.028C324.943 361.011 325.051 360.968 325.144 360.902H325.164Z" fill="#5FCD82"/>
<path d="M330.788 352.539L330.816 353.664L327.984 355.241L327.956 354.117L330.788 352.539ZM328.627 352.247L329.784 351.6L329.922 357.398C329.916 357.538 329.945 357.677 330.007 357.803C330.025 357.837 330.053 357.866 330.088 357.885C330.123 357.903 330.162 357.911 330.201 357.908C330.294 357.898 330.384 357.868 330.464 357.819C330.534 357.78 330.6 357.735 330.662 357.685C330.723 357.641 330.768 357.6 330.8 357.572L331.022 358.604C330.962 358.664 330.877 358.741 330.764 358.838C330.637 358.945 330.501 359.041 330.359 359.126C330.124 359.281 329.854 359.374 329.574 359.397C329.466 359.404 329.357 359.385 329.258 359.339C329.159 359.294 329.073 359.225 329.008 359.138C328.846 358.884 328.768 358.585 328.785 358.284L328.627 352.247Z" fill="#5FCD82"/>
<path d="M333.317 357.511C333.062 357.669 332.77 357.757 332.471 357.766C332.355 357.769 332.24 357.744 332.135 357.692C332.031 357.641 331.941 357.565 331.872 357.471C331.7 357.202 331.616 356.887 331.629 356.569C331.617 356.248 331.663 355.927 331.763 355.622C331.857 355.341 331.993 355.076 332.168 354.837C332.343 354.602 332.541 354.385 332.758 354.19C332.977 353.998 333.207 353.818 333.446 353.652L334.142 353.158C334.293 353.056 334.43 352.934 334.546 352.794C334.627 352.685 334.668 352.553 334.664 352.418V352.393C334.664 352.09 334.579 351.896 334.429 351.807C334.279 351.718 334.077 351.754 333.81 351.904C333.541 352.048 333.312 352.257 333.143 352.511C332.992 352.736 332.884 352.987 332.823 353.251L331.739 353.656C331.813 353.245 331.95 352.848 332.143 352.478C332.328 352.121 332.566 351.794 332.847 351.507C333.123 351.224 333.437 350.981 333.782 350.787C334.005 350.661 334.243 350.565 334.49 350.5C334.702 350.441 334.925 350.441 335.137 350.5C335.242 350.53 335.339 350.581 335.423 350.651C335.506 350.72 335.574 350.807 335.623 350.904C335.765 351.192 335.833 351.51 335.821 351.831L335.922 355.966L334.809 356.585V355.735L334.773 355.76C334.699 355.982 334.605 356.198 334.49 356.403C334.361 356.631 334.203 356.842 334.021 357.03C333.811 357.224 333.574 357.386 333.317 357.511ZM333.592 356.273C333.822 356.142 334.026 355.967 334.19 355.76C334.354 355.553 334.483 355.32 334.571 355.072C334.656 354.846 334.699 354.605 334.696 354.364V353.635C334.645 353.713 334.584 353.784 334.514 353.846C334.429 353.923 334.332 354.008 334.227 354.089L333.911 354.331L333.644 354.534C333.478 354.654 333.324 354.789 333.183 354.938C333.055 355.075 332.949 355.231 332.867 355.399C332.79 355.563 332.754 355.744 332.762 355.925C332.762 356.192 332.851 356.354 333.009 356.403C333.213 356.435 333.421 356.389 333.592 356.273Z" fill="#5FCD82"/>
<path d="M338.026 346.401L338.22 354.635L337.067 355.282L336.869 347.044L338.026 346.401Z" fill="#5FCD82"/>
<path d="M91.3487 271.539V271.572L82.9931 289.262L59.8098 263.486L59.9093 263.303L82.9931 217.833L91.3487 271.539Z" fill="#5CC892"/>
<path d="M83.0002 289.262L91.3494 271.572L83.0002 217.833L108.973 261.399L83.0002 289.262Z" fill="#B4FACD"/>
<path d="M108.973 261.433L83.0002 289.262L91.3494 271.594L108.973 261.433Z" fill="#5CC892"/>
<path d="M91.3487 271.529V271.562L82.9931 289.262L59.8098 263.47L59.9093 263.288L91.3487 271.529Z" fill="#309F65"/>
<path d="M56.1462 239.843V239.851L53.9737 244.962L47.9379 237.513L47.9653 237.464L53.9737 224.327L56.1462 239.843Z" fill="#5CC892"/>
<path d="M53.9738 244.962L56.1462 239.851L53.9738 224.327L60.7374 236.914L53.9738 244.962Z" fill="#B4FACD"/>
<path d="M60.7374 236.914L53.9738 244.962L56.1462 239.852L60.7374 236.914Z" fill="#5CC892"/>
<path d="M56.1462 239.844V239.852L53.9737 244.962L47.9379 237.513L47.9653 237.465L56.1462 239.844Z" fill="#309F65"/>
<path d="M122.283 270.533V270.537L120.678 274.453L116.219 268.749L116.241 268.708L120.678 258.65L122.283 270.533Z" fill="#5CC892"/>
<path d="M120.678 274.453L122.283 270.537L120.678 258.65L125.67 268.287L120.678 274.453Z" fill="#B4FACD"/>
<path d="M125.67 268.287L120.678 274.453L122.283 270.537L125.67 268.287Z" fill="#5CC892"/>
<path d="M122.283 270.533V270.537L120.678 274.453L116.219 268.748L116.241 268.708L122.283 270.533Z" fill="#309F65"/>
<path d="M97.5897 63.4799L52.8144 89.3335L8.03506 63.4799L52.8144 37.6262L97.5897 63.4799Z" fill="#293B46"/>
<path d="M89.2229 110.615V80.3838L52.8144 101.447V131.638L89.2229 110.615Z" fill="#293B46"/>
<path d="M16.4018 110.615V80.4202L52.8144 101.447V131.638L16.4018 110.615Z" fill="#152229"/>
<path d="M97.5897 63.48V75.5895L52.8144 101.447V89.3336L97.5897 63.48Z" fill="#202E36"/>
<path d="M97.5897 51.366V63.4795L52.8144 89.3332V77.2196L97.5897 51.366Z" fill="#202E36"/>
<path d="M52.8144 89.3336L8.03506 63.48V75.6178L52.8144 101.447V89.3336Z" fill="#202E36"/>
<path d="M52.8144 89.3336L97.5897 63.48L104.549 73.3359L59.0207 99.7277L52.8144 89.3336Z" fill="#28404E"/>
<path d="M64.9883 95.9241L58.6121 85.9468" stroke="#375C66" stroke-width="0.378862" stroke-miterlimit="10"/>
<path d="M71.842 91.9473L65.4577 81.97" stroke="#375C66" stroke-width="0.378862" stroke-miterlimit="10"/>
<path d="M78.6916 87.9781L72.3073 77.9927" stroke="#375C66" stroke-width="0.378862" stroke-miterlimit="10"/>
<path d="M85.5453 84.0091L79.1569 74.0156" stroke="#375C66" stroke-width="0.378862" stroke-miterlimit="10"/>
<path d="M92.3989 80.0356L86.0065 70.0381" stroke="#375C66" stroke-width="0.378862" stroke-miterlimit="10"/>
<path d="M99.2526 76.0629L92.8561 66.0613" stroke="#375C66" stroke-width="0.378862" stroke-miterlimit="10"/>
<path d="M75.641 117.918V96.5636L83.6922 91.9148V113.739L75.641 118.456V117.918Z" fill="#152229"/>
<path d="M83.0242 105.065C83.0382 104.714 82.9228 104.425 82.7664 104.419C82.61 104.412 82.4718 104.692 82.4578 105.043C82.4437 105.393 82.5592 105.683 82.7156 105.689C82.872 105.695 83.0102 105.416 83.0242 105.065Z" fill="#152229"/>
<path d="M57.7422 105.999V117.967L70.2318 110.753V98.7849L57.7422 105.999Z" fill="#202E36"/>
<path d="M70.2318 104.7V110.752L57.7382 117.966V112.043L65.0369 107.754L70.2318 104.7Z" fill="#152229"/>
<path d="M70.2318 110.753L57.7382 117.967V112.044L65.0369 107.755L70.2318 110.753Z" fill="#28404E"/>
<path d="M304.842 111.34L299.02 108.892L315.021 94.7188L320.839 97.1666L304.842 111.34Z" fill="#4AA276"/>
<path d="M320.839 97.1664L315.021 94.7186L319.006 40.2156L324.828 42.6634L320.839 97.1664Z" fill="#367656"/>
<path d="M327.167 37.0597L321.349 34.616L323.453 35.4858L329.271 37.9336L327.167 37.0597Z" fill="#387959"/>
<path d="M289.071 110.652L283.249 108.204L299.02 108.892L304.842 111.339L289.071 110.652Z" fill="#408B66"/>
<path d="M305.874 43.4808L300.056 41.0533C300.375 40.9198 300.695 40.7862 301.019 40.6487L306.836 43.0763C306.517 43.2017 306.193 43.3311 305.874 43.4808Z" fill="#1E2F3A"/>
<path d="M306.849 43.088L301.031 40.6604C302.445 40.1047 303.899 39.6557 305.38 39.3171L311.198 41.7447C309.717 42.0852 308.263 42.5341 306.849 43.088Z" fill="#1D2E38"/>
<path d="M311.186 41.7453L305.368 39.3177C306.519 39.0538 307.687 38.8686 308.863 38.7634L314.681 41.191C313.505 41.2965 312.337 41.4817 311.186 41.7453Z" fill="#1C2D37"/>
<path d="M314.681 41.2027L308.863 38.7751C309.875 38.6831 310.891 38.6574 311.906 38.6983L317.724 41.1258C316.709 41.087 315.693 41.1127 314.681 41.2027Z" fill="#1B2C35"/>
<path d="M317.724 41.1136L311.906 38.686C312.834 38.7258 313.758 38.823 314.673 38.9773L320.495 41.4049C319.579 41.2473 318.653 41.1486 317.724 41.1096" fill="#1A2A33"/>
<path d="M320.495 41.409L314.673 38.9814C315.55 39.1336 316.416 39.3417 317.267 39.6045L323.089 42.0523C322.239 41.7862 321.373 41.578 320.495 41.4292" fill="#1A2932"/>
<path d="M323.089 42.0323L317.267 39.5845C317.857 39.7665 318.436 39.9891 319.006 40.2156L324.828 42.6432C324.254 42.4085 323.675 42.1982 323.089 42.0161" fill="#192830"/>
<path d="M286.696 58.8473L280.878 56.3995C282.86 53.9279 285.023 51.6085 287.352 49.4607L293.17 51.9085C290.84 54.0554 288.677 56.3749 286.696 58.8473Z" fill="#1E2F3A"/>
<path d="M293.166 51.9086L287.348 49.4608C289.218 47.7368 291.214 46.1546 293.319 44.7271L299.137 47.1546C297.032 48.5819 295.036 50.1642 293.166 51.8884" fill="#1E313B"/>
<path d="M299.137 47.1745L293.319 44.7469C295.442 43.3039 297.698 42.067 300.056 41.053L305.874 43.4805C303.515 44.4938 301.26 45.7308 299.137 47.1745Z" fill="#1E2F3A"/>
<path d="M305.874 43.4809C312.501 40.669 319.087 40.2805 324.828 42.6717L320.839 97.1747L304.842 111.336L289.063 110.648L286.688 58.8596C292.583 51.5323 299.247 46.2928 305.874 43.4809Z" fill="#293B46"/>
<path d="M289.071 110.652L283.249 108.204L280.878 56.4036L286.696 58.8473L289.071 110.652Z" fill="#16232B"/>
<path d="M284.495 55.1736L278.677 52.7258C280.897 49.955 283.322 47.3555 285.932 44.9495L291.75 47.377C289.14 49.7855 286.716 52.3862 284.495 55.1574" fill="#293B46"/>
<path d="M291.75 47.3931L285.932 44.9655C288.014 43.0488 290.238 41.2907 292.583 39.7058L298.401 42.1334C296.058 43.7208 293.834 45.4788 291.75 47.3931Z" fill="#293B46"/>
<path d="M298.401 42.1212L292.583 39.6936C294.963 38.0684 297.494 36.6768 300.141 35.5384C300.501 35.3847 300.861 35.235 301.221 35.0974L307.043 37.525C306.679 37.6666 306.319 37.8122 305.959 37.966C303.313 39.1021 300.782 40.4895 298.401 42.109" fill="#293B46"/>
<path d="M307.043 37.5372L301.221 35.1096C302.8 34.489 304.423 33.986 306.076 33.6045L311.894 36.0321C310.24 36.4128 308.618 36.9159 307.039 37.5372" fill="#293B46"/>
<path d="M311.914 36.032L306.096 33.6044C307.382 33.3103 308.686 33.1035 310 32.9854L315.818 35.4129C314.504 35.5311 313.2 35.7379 311.914 36.032Z" fill="#293B46"/>
<path d="M315.818 35.4132L310 32.9856C311.131 32.8809 312.268 32.8525 313.403 32.9006L319.221 35.3282C318.086 35.2841 316.95 35.3125 315.818 35.4132Z" fill="#293B46"/>
<path d="M319.221 35.3282L313.403 32.9006C314.441 32.9438 315.474 33.0533 316.498 33.2284L322.32 35.6559C321.295 35.4811 320.26 35.3716 319.221 35.3282Z" fill="#293B46"/>
<path d="M322.32 35.6556L316.498 33.228C317.476 33.395 318.443 33.6262 319.391 33.9199L325.209 36.3677C324.258 36.0708 323.289 35.8369 322.308 35.6677" fill="#293B46"/>
<path d="M325.221 36.3477L319.391 33.9202C320.052 34.1252 320.7 34.3598 321.337 34.6242L327.159 37.0517C326.52 36.782 325.869 36.5473 325.209 36.3477" fill="#293B46"/>
<path d="M327.171 37.0596L329.271 37.9295L324.768 99.428L304.753 117.161L285.021 116.3L282.339 57.8316L284.495 55.1531C290.969 47.1179 298.381 41.1744 305.938 37.9578C313.496 34.7413 320.867 34.4419 327.171 37.0596ZM320.839 97.1623L324.828 42.6592C319.087 40.2802 312.501 40.6686 305.874 43.4684C299.247 46.2682 292.583 51.5199 286.696 58.8431L289.071 110.631L304.85 111.319L320.847 97.1582" fill="#152229"/>
<path d="M285.021 116.32L279.199 113.876L276.521 55.408L282.339 57.8517L285.021 116.32Z" fill="#293B46"/>
<path d="M282.339 57.8519L276.521 55.4082L278.677 52.7297L284.495 55.1735L282.339 57.8519Z" fill="#293B46"/>
<path d="M300.286 95.9404L312.48 88.8883C313.263 88.4117 313.913 87.7449 314.37 86.9498C314.826 86.1547 315.074 85.2572 315.09 84.3407L315.632 68.3915C315.689 66.7731 314.119 65.7091 312.8 66.4778L300.501 73.7322C299.633 74.2742 298.915 75.0245 298.411 75.9148C297.907 76.8051 297.634 77.8073 297.616 78.8301L297.11 93.7596C297.05 95.5844 298.814 96.7941 300.286 95.9404Z" fill="#152229"/>
<path d="M302.653 78.7697L303.086 66.0492C303.086 66.0492 303.244 59.8023 306.347 58.2041C310.097 56.3794 309.499 63.3263 309.499 63.3263L309.094 75.8445" stroke="#152229" stroke-width="2.27317" stroke-miterlimit="10"/>
<path d="M308.831 83.4465C309.19 81.4315 308.613 79.6431 307.542 79.4521C306.47 79.2611 305.311 80.7397 304.951 82.7548C304.592 84.7698 305.169 86.5582 306.241 86.7492C307.312 86.9402 308.472 85.4616 308.831 83.4465Z" fill="#28404E"/>
<path d="M307.112 84.5146L306.8 93.6787" stroke="#28404E" stroke-width="1.51545" stroke-miterlimit="10"/>
<path d="M179.437 72.6683C183.305 72.6683 186.44 70.8587 186.44 68.6264C186.44 66.3941 183.305 64.5845 179.437 64.5845C175.569 64.5845 172.434 66.3941 172.434 68.6264C172.434 70.8587 175.569 72.6683 179.437 72.6683Z" stroke="url(#paint0_linear_419_26136)" stroke-width="1.13658" stroke-linecap="round" stroke-linejoin="round"/>
<path opacity="0.5" d="M179.437 74.7398C185.282 74.7398 190.021 72.0027 190.021 68.6264C190.021 65.25 185.282 62.5129 179.437 62.5129C173.592 62.5129 168.853 65.25 168.853 68.6264C168.853 72.0027 173.592 74.7398 179.437 74.7398Z" stroke="url(#paint1_linear_419_26136)" stroke-width="1.13658" stroke-linecap="round" stroke-linejoin="round"/>
<path d="M179.437 70.0342C180.782 70.0342 181.873 69.4039 181.873 68.6263C181.873 67.8486 180.782 67.2183 179.437 67.2183C178.092 67.2183 177.001 67.8486 177.001 68.6263C177.001 69.4039 178.092 70.0342 179.437 70.0342Z" fill="url(#paint2_radial_419_26136)"/>
<path d="M-10.5677 188.54L10.3614 200.613C11.1959 201.095 12.1446 201.344 13.1082 201.335C14.0719 201.325 15.0151 201.056 15.8395 200.557L42.2507 184.563C42.9989 184.111 43.8548 183.866 44.7292 183.857C45.6036 183.847 46.4648 184.071 47.2231 184.507L82.7739 204.943C83.5869 205.412 84.5073 205.663 85.4458 205.671C86.3844 205.68 87.3092 205.445 88.1306 204.991L100.207 198.336" stroke="#28404E" stroke-width="1.51545" stroke-linecap="round" stroke-linejoin="round"/>
<path d="M-6.36003 195.026C-2.49218 195.026 0.643322 193.216 0.643322 190.984C0.643322 188.752 -2.49218 186.942 -6.36003 186.942C-10.2279 186.942 -13.3634 188.752 -13.3634 190.984C-13.3634 193.216 -10.2279 195.026 -6.36003 195.026Z" stroke="url(#paint3_linear_419_26136)" stroke-width="1.13658" stroke-linecap="round" stroke-linejoin="round"/>
<path opacity="0.5" d="M-6.36003 197.546C-0.0834446 197.546 5.00473 194.608 5.00473 190.984C5.00473 187.36 -0.0834446 184.421 -6.36003 184.421C-12.6366 184.421 -17.7248 187.36 -17.7248 190.984C-17.7248 194.608 -12.6366 197.546 -6.36003 197.546Z" stroke="url(#paint4_linear_419_26136)" stroke-width="1.13658" stroke-linecap="round" stroke-linejoin="round"/>
<g opacity="0.9" clip-path="url(#clip0_419_26136)">
<g opacity="0.7">
<path d="M172.492 188.518L152.782 177.138L172.492 165.759L192.202 177.138L172.492 188.518ZM167.565 177.138L172.492 179.983L177.42 177.138L172.492 174.294L167.565 177.138Z" fill="#EEF2F5"/>
<path d="M197.13 174.294L177.42 162.914L197.13 151.535L216.839 162.914L197.13 174.294ZM192.202 162.914L197.13 165.759L202.057 162.914L197.13 160.069L192.202 162.914Z" fill="#EEF2F5"/>
<path d="M177.42 191.363L197.13 202.742L216.839 191.363L197.13 179.983L177.42 191.363ZM197.13 188.518L202.057 191.363L197.13 194.208L192.202 191.363L197.13 188.518Z" fill="#EEF2F5"/>
<path d="M209.448 172.871L202.057 177.138L206.985 179.983L214.376 175.716L224.231 181.406L221.767 182.828L216.839 179.983L211.912 182.828L221.767 188.518L231.622 182.828L226.694 179.983L231.622 177.138L236.549 179.983L241.477 177.138L234.086 172.871L229.158 175.716L226.694 174.294L224.231 175.716L221.767 174.294L229.158 170.026L221.767 165.759L214.376 170.026L219.303 172.871L214.376 175.716L209.448 172.871Z" fill="#EEF2F5"/>
</g>
</g>
<defs>
<linearGradient id="paint0_linear_419_26136" x1="176.658" y1="63.8117" x2="182.217" y2="73.4409" gradientUnits="userSpaceOnUse">
<stop stop-color="#B4FACD"/>
<stop offset="1" stop-color="#F0F7FB" stop-opacity="0"/>
</linearGradient>
<linearGradient id="paint1_linear_419_26136" x1="175.391" y1="61.6188" x2="183.483" y2="75.6338" gradientUnits="userSpaceOnUse">
<stop stop-color="#B4FACD"/>
<stop offset="1" stop-color="#F0F7FB" stop-opacity="0"/>
</linearGradient>
<radialGradient id="paint2_radial_419_26136" cx="0" cy="0" r="1" gradientUnits="userSpaceOnUse" gradientTransform="translate(179.437 68.429) scale(3.20023 1.8562)">
<stop stop-color="#B4FACD"/>
<stop offset="1" stop-color="#F0F7FB" stop-opacity="0"/>
</radialGradient>
<linearGradient id="paint3_linear_419_26136" x1="-9.13952" y1="186.173" x2="-3.5803" y2="195.798" gradientUnits="userSpaceOnUse">
<stop stop-color="#B4FACD"/>
<stop offset="1" stop-color="#F0F7FB" stop-opacity="0"/>
</linearGradient>
<linearGradient id="paint4_linear_419_26136" x1="-10.681" y1="183.503" x2="-2.03872" y2="198.469" gradientUnits="userSpaceOnUse">
<stop stop-color="#B4FACD"/>
<stop offset="1" stop-color="#F0F7FB" stop-opacity="0"/>
</linearGradient>
<clipPath id="clip0_419_26136">
<rect width="68.2769" height="68.2769" fill="white" transform="matrix(0.866025 -0.5 0.866025 0.5 138 177.138)"/>
</clipPath>
</defs>
</svg>
