<svg width="80" height="40" viewBox="0 0 80 40" fill="none" xmlns="http://www.w3.org/2000/svg">
<path d="M13.0854 16.859C13.7009 16.5116 14.4074 16.3395 15.1218 16.3628C15.8362 16.3862 16.5288 16.604 17.1181 16.9907C17.61 17.3249 18.0016 17.7766 18.2539 18.3006C18.3028 18.4032 18.3915 18.4836 18.5013 18.5247C18.6111 18.5659 18.7333 18.5647 18.8422 18.5213L21.5977 17.3859C21.7053 17.3411 21.7905 17.2582 21.8356 17.1547C21.8807 17.0513 21.8822 16.9351 21.8398 16.8306C21.5465 16.11 21.1016 15.4546 20.5328 14.9049C19.838 14.2379 19.0063 13.7156 18.09 13.3709C16.9351 12.9475 15.6985 12.7658 14.4639 12.8383C13.2292 12.9107 12.0252 13.2356 10.9331 13.7909C9.74943 14.4174 8.76414 15.3371 8.08075 16.4533C7.55518 17.3098 7.21234 18.2574 7.07205 19.2413C6.93175 20.2252 6.99678 21.2259 7.26337 22.1856C7.52996 23.1454 7.99284 24.0451 8.62526 24.8329C9.25768 25.6207 10.0471 26.2809 10.948 26.7754C12.181 27.4398 13.5767 27.7788 14.9919 27.7578C16.063 27.7682 17.1259 27.5772 18.1198 27.1954C19.0366 26.8406 19.867 26.3086 20.5588 25.6329C21.1106 25.101 21.5461 24.4694 21.8398 23.7749C21.8834 23.6709 21.883 23.5547 21.8385 23.4511C21.794 23.3474 21.7089 23.2643 21.6015 23.2196L18.8422 22.0628C18.7339 22.0182 18.6117 22.016 18.5017 22.0566C18.3917 22.0972 18.3027 22.1774 18.2539 22.28C18.0057 22.8013 17.6209 23.2524 17.1368 23.5898C16.5447 23.9765 15.8497 24.1943 15.1329 24.2176C14.4162 24.2409 13.7073 24.0689 13.0891 23.7215C12.525 23.3824 12.0701 22.9007 11.7746 22.3298C11.4584 21.6905 11.2944 20.9921 11.2944 20.2849C11.2944 19.5777 11.4584 18.8794 11.7746 18.2401C12.0693 17.6726 12.5231 17.1945 13.0854 16.859V16.859Z" fill="white"/>
<path d="M38.116 18.3611V27.2595C38.116 27.3737 38.0685 27.4833 37.984 27.564C37.8995 27.6448 37.7849 27.6902 37.6654 27.6902H34.4481C34.3293 27.6892 34.2156 27.6434 34.1319 27.5628C34.0482 27.4821 34.0013 27.3731 34.0013 27.2595V19.1833C34.01 18.6891 33.8924 18.2004 33.6587 17.7596C33.4361 17.3661 33.1035 17.0395 32.698 16.8163C32.2566 16.5919 31.7643 16.4746 31.2644 16.4746C30.7644 16.4746 30.2722 16.5919 29.8308 16.8163C29.418 17.034 29.0803 17.3617 28.8589 17.7596C28.6218 18.1992 28.504 18.6888 28.5163 19.1833V27.2595C28.5163 27.3737 28.4688 27.4833 28.3843 27.564C28.2998 27.6448 28.1852 27.6902 28.0657 27.6902H24.8485C24.7296 27.6892 24.616 27.6434 24.5323 27.5628C24.4486 27.4821 24.4016 27.3731 24.4016 27.2595V6.43013C24.4011 6.35696 24.4202 6.28486 24.4572 6.22079C24.4942 6.15673 24.5478 6.10284 24.6128 6.06425C24.6778 6.02566 24.7522 6.00366 24.8286 6.00042C24.9051 5.99718 24.9812 6.01276 25.0496 6.04569L28.2668 7.5798C28.3408 7.6164 28.4031 7.67145 28.447 7.73913C28.4909 7.8068 28.5149 7.88456 28.5163 7.96419V13.4919C28.5166 13.5718 28.5404 13.6501 28.585 13.7177C28.6295 13.7854 28.693 13.8398 28.7683 13.8746C28.8436 13.9095 28.9275 13.9234 29.0107 13.9149C29.0939 13.9064 29.1729 13.8758 29.2387 13.8265C29.3873 13.7182 29.5441 13.6206 29.7079 13.5346C30.4808 13.1402 31.3415 12.929 32.2176 12.9188H32.4373C32.7724 12.9181 33.1071 12.9395 33.439 12.9829C34.1313 13.0685 34.8007 13.2773 35.4126 13.5987C35.7789 13.7946 36.1179 14.0337 36.4217 14.3106C36.6942 14.5475 36.9355 14.8152 37.1403 15.1078C37.2342 15.2352 37.3212 15.3671 37.401 15.5029C37.8933 16.3808 38.1396 17.3654 38.116 18.3611V18.3611Z" fill="white"/>
<path d="M54.6938 17.1082C54.3741 16.2774 53.8856 15.5153 53.2565 14.8658C52.6075 14.208 51.8156 13.6941 50.9366 13.3602C49.9322 12.9856 48.8606 12.803 47.7826 12.8227C46.4343 12.8034 45.1064 13.1383 43.9435 13.7909C42.8437 14.4155 41.9297 15.299 41.2885 16.3572L41.2401 16.439C41.1805 16.5387 41.1247 16.6419 41.0688 16.7416C40.5042 17.8367 40.2208 19.0447 40.2422 20.2654C40.2242 21.581 40.5533 22.8799 41.1992 24.0418C41.8223 25.164 42.7545 26.1019 43.8951 26.7541C45.1504 27.452 46.5842 27.802 48.0358 27.7649C48.9966 27.7747 49.9522 27.6291 50.8621 27.3342C51.6806 27.0653 52.4386 26.6511 53.0963 26.1134C53.5852 25.7151 53.9908 25.232 54.2916 24.6896C54.3188 24.6383 54.335 24.5824 54.3392 24.5251C54.3434 24.4677 54.3356 24.4102 54.3161 24.3558C54.2967 24.3014 54.2661 24.2512 54.2261 24.2083C54.186 24.1654 54.1374 24.1306 54.0831 24.1059L51.5436 22.9526C51.4481 22.9116 51.3407 22.9035 51.2396 22.9294C51.1385 22.9553 51.0499 23.0138 50.9887 23.095C50.7178 23.4461 50.3712 23.7375 49.9722 23.9493C49.3575 24.2403 48.678 24.384 47.9922 24.3679C47.3065 24.3518 46.6352 24.1763 46.0362 23.8567C45.4712 23.5188 45.03 23.0212 44.7739 22.433C44.7034 22.2771 44.6449 22.1165 44.5989 21.9525C44.582 21.8888 44.5804 21.8222 44.5943 21.7578C44.6082 21.6934 44.6373 21.6329 44.6792 21.5808C44.7212 21.5287 44.775 21.4864 44.8365 21.4571C44.8981 21.4277 44.9658 21.4121 45.0346 21.4115H54.6342C54.7401 21.4113 54.8425 21.3756 54.9235 21.3105C55.0045 21.2454 55.059 21.1552 55.0773 21.0555C55.0997 20.9487 55.1146 20.8348 55.1295 20.6996C55.1555 20.4291 55.1667 20.155 55.1667 19.8738C55.1843 18.9323 55.0241 17.9954 54.6938 17.1082ZM45.2133 18.5106C45.1414 18.5107 45.0705 18.4942 45.0067 18.4626C44.9429 18.431 44.888 18.3851 44.8467 18.3288C44.8054 18.2726 44.7789 18.2076 44.7695 18.1395C44.7601 18.0714 44.768 18.0021 44.7925 17.9375V17.9375C45.0064 17.3506 45.4075 16.8427 45.9394 16.4853C46.4842 16.1452 47.1248 15.9725 47.7752 15.9906C48.4366 15.9667 49.0888 16.145 49.637 16.4995C50.1388 16.8409 50.5101 17.3296 50.6946 17.8913C50.6946 17.9197 50.7132 17.9518 50.7243 17.9838C50.7426 18.048 50.7452 18.1153 50.7319 18.1806C50.7186 18.2459 50.6898 18.3074 50.6477 18.3604C50.6056 18.4134 50.5513 18.4564 50.4891 18.4861C50.4268 18.5159 50.3583 18.5316 50.2887 18.532L45.2133 18.5106Z" fill="white"/>
<path d="M72.776 12.9758L69.8343 11.6019C69.7655 11.5699 69.6894 11.5551 69.613 11.559C69.5366 11.5628 69.4625 11.5852 69.3977 11.624C69.3329 11.6629 69.2795 11.7168 69.2425 11.7808C69.2055 11.8448 69.1862 11.9167 69.1863 11.9898V13.6236C69.189 13.7071 69.1659 13.7896 69.12 13.8607C69.0741 13.9318 69.0074 13.9885 68.9281 14.0237C68.8488 14.0589 68.7605 14.0712 68.674 14.0589C68.5875 14.0466 68.5067 14.0104 68.4416 13.9546C68.1504 13.7448 67.8387 13.5624 67.5107 13.41C66.5968 13.005 65.5985 12.8041 64.5913 12.8227C63.231 12.805 61.8926 13.1502 60.7261 13.8194C59.5829 14.4723 58.6371 15.3984 57.9818 16.5066C57.2964 17.6601 56.9455 18.9674 56.9652 20.2938C56.9529 21.4628 57.223 22.6188 57.7546 23.6716C57.8179 23.8069 57.8924 23.9386 57.9669 24.0703C58.0414 24.202 58.0674 24.2376 58.1233 24.3195C58.7957 25.3867 59.7493 26.2666 60.8889 26.8712C62.0285 27.4759 63.3142 27.784 64.6174 27.7649C64.9911 27.7658 65.3645 27.7408 65.7345 27.6902C65.9851 27.6549 66.2337 27.6074 66.4792 27.5478C66.815 27.4651 67.1436 27.358 67.4623 27.2274C67.7197 27.1271 67.9686 27.0081 68.207 26.8715C68.2741 26.8328 68.3506 26.8116 68.4289 26.8101C68.5072 26.8086 68.5845 26.8268 68.6532 26.8628C68.7218 26.8989 68.7793 26.9515 68.82 27.0155C68.8606 27.0795 68.8829 27.1526 68.8847 27.2274V32.0682C68.8853 32.1493 68.9097 32.2287 68.9551 32.2973C69.0006 32.3658 69.0652 32.4209 69.1416 32.4561L72.3552 33.9582C72.4238 33.9894 72.4996 34.0035 72.5754 33.9992C72.6512 33.995 72.7247 33.9724 72.789 33.9337C72.8533 33.895 72.9063 33.8413 72.9431 33.7778C72.9799 33.7142 72.9992 33.6429 72.9994 33.5702V13.3673C73.0039 13.2886 72.9854 13.2103 72.946 13.1412C72.9065 13.072 72.8476 13.0147 72.776 12.9758ZM68.4342 22.3369C68.1341 22.9104 67.6724 23.3925 67.1011 23.7286C66.5046 24.0672 65.8211 24.2398 65.1275 24.2269C64.4213 24.2373 63.7253 24.0651 63.113 23.7286C62.5224 23.3998 62.042 22.917 61.7278 22.3369C61.3877 21.7058 61.2174 21.0036 61.2325 20.2938C61.2166 19.5874 61.3869 18.8884 61.7278 18.2614C62.0463 17.6852 62.5258 17.2046 63.113 16.8733C63.722 16.5276 64.4193 16.3502 65.1275 16.3607C65.8211 16.3479 66.5046 16.5204 67.1011 16.859C67.673 17.1929 68.135 17.674 68.4342 18.2472C68.7481 18.8871 68.9109 19.5852 68.9109 20.292C68.9109 20.9988 68.7481 21.697 68.4342 22.3369Z" fill="white"/>
</svg>
