<svg width="440" height="290" viewBox="0 0 440 290" fill="none" xmlns="http://www.w3.org/2000/svg">
<path d="M117.815 106.34L142.596 92.0322L162.028 103.364" stroke="#B4FACD" stroke-width="1.4402" stroke-linecap="round" stroke-linejoin="round"/>
<path opacity="0.2" d="M106.488 279.725C125.047 279.725 140.093 271.038 140.093 260.323C140.093 249.607 125.047 240.921 106.488 240.921C87.9285 240.921 72.8831 249.607 72.8831 260.323C72.8831 271.038 87.9285 279.725 106.488 279.725Z" stroke="#5CC892" stroke-width="1.08015" stroke-miterlimit="10"/>
<path d="M235.777 230L146.723 282.013L121.158 266.585" stroke="#B4FACD" stroke-width="1.34866" stroke-linecap="round" stroke-linejoin="round"/>
<path opacity="0.5" d="M106.488 276.026C125.047 276.026 140.093 267.339 140.093 256.624C140.093 245.908 125.047 237.221 106.488 237.221C87.9285 237.221 72.8831 245.908 72.8831 256.624C72.8831 267.339 87.9285 276.026 106.488 276.026Z" stroke="#5CC892" stroke-width="1.08015" stroke-miterlimit="10"/>
<path d="M138.893 252.921C138.893 257.857 135.317 262.395 129.383 265.718C123.459 269.035 115.254 271.097 106.172 271.097C97.0895 271.097 88.8838 269.035 82.9606 265.718C77.0265 262.395 73.4504 257.857 73.4504 252.921C73.4504 247.986 77.0265 243.448 82.9606 240.125C88.8838 236.807 97.0895 234.745 106.172 234.745C115.254 234.745 123.459 236.807 129.383 240.125C135.317 243.448 138.893 247.986 138.893 252.921Z" fill="#0B151B" stroke="#B4FACD" stroke-width="0.674332"/>
<path opacity="0.2" d="M75.0213 124.104C102.589 124.104 124.936 111.2 124.936 95.2815C124.936 79.3633 102.589 66.459 75.0213 66.459C47.4539 66.459 25.1062 79.3633 25.1062 95.2815C25.1062 111.2 47.4539 124.104 75.0213 124.104Z" stroke="#202E36" stroke-width="1.08015" stroke-miterlimit="10"/>
<path opacity="0.5" d="M75.0213 118.613C102.589 118.613 124.936 105.709 124.936 89.7908C124.936 73.8725 102.589 60.9683 75.0213 60.9683C47.4539 60.9683 25.1062 73.8725 25.1062 89.7908C25.1062 105.709 47.4539 118.613 75.0213 118.613Z" stroke="#202E36" stroke-width="1.08015" stroke-miterlimit="10"/>
<path d="M75.0213 113.119C102.589 113.119 124.936 100.214 124.936 84.2961C124.936 68.3779 102.589 55.4736 75.0213 55.4736C47.4539 55.4736 25.1062 68.3779 25.1062 84.2961C25.1062 100.214 47.4539 113.119 75.0213 113.119Z" stroke="#202E36" stroke-width="1.08015" stroke-miterlimit="10"/>
<path d="M124.599 78.8015C124.599 86.5892 119.13 93.7037 110.148 98.8901C101.175 104.071 88.7566 107.287 75.0213 107.287C61.286 107.287 48.8676 104.071 39.8946 98.8901C30.9127 93.7037 25.4434 86.5892 25.4434 78.8015C25.4434 71.0138 30.9127 63.8993 39.8946 58.7129C48.8676 53.5316 61.286 50.3162 75.0213 50.3162C88.7566 50.3162 101.175 53.5316 110.148 58.7129C119.13 63.8993 124.599 71.0138 124.599 78.8015Z" fill="#0B151B" stroke="#70767A" stroke-width="0.674332"/>
<path opacity="0.2" d="M312.627 111.646C334.567 111.646 352.353 101.376 352.353 88.7067C352.353 76.0375 334.567 65.7671 312.627 65.7671C290.687 65.7671 272.901 76.0375 272.901 88.7067C272.901 101.376 290.687 111.646 312.627 111.646Z" stroke="#202E36" stroke-width="1.08015" stroke-miterlimit="10"/>
<path opacity="0.5" d="M312.627 107.274C334.567 107.274 352.353 97.0038 352.353 84.3346C352.353 71.6654 334.567 61.395 312.627 61.395C290.687 61.395 272.901 71.6654 272.901 84.3346C272.901 97.0038 290.687 107.274 312.627 107.274Z" stroke="#202E36" stroke-width="1.08015" stroke-miterlimit="10"/>
<path d="M312.627 102.903C334.567 102.903 352.353 92.6322 352.353 79.963C352.353 67.2938 334.567 57.0234 312.627 57.0234C290.687 57.0234 272.901 67.2938 272.901 79.963C272.901 92.6322 290.687 102.903 312.627 102.903Z" stroke="#202E36" stroke-width="1.08015" stroke-miterlimit="10"/>
<path d="M352.016 75.5909C352.016 81.7541 347.687 87.3979 340.549 91.5197C333.42 95.6364 323.549 98.1933 312.627 98.1933C301.706 98.1933 291.835 95.6364 284.705 91.5197C277.567 87.3979 273.239 81.7541 273.239 75.5909C273.239 69.4278 277.567 63.784 284.705 59.6622C291.835 55.5455 301.706 52.9885 312.627 52.9885C323.549 52.9885 333.42 55.5455 340.549 59.6622C347.687 63.784 352.016 69.4278 352.016 75.5909Z" fill="#0B151B" stroke="#70767A" stroke-width="0.674332"/>
<path d="M349.854 157.683L369.744 146.197C370.537 145.739 371.439 145.503 372.354 145.512C373.27 145.522 374.167 145.777 374.95 146.251L400.046 161.462C400.757 161.893 401.57 162.124 402.401 162.134C403.232 162.143 404.051 161.93 404.771 161.516L422.627 151.25" stroke="#293B46" stroke-width="1.34866" stroke-linecap="round" stroke-linejoin="round"/>
<path d="M112.656 103.364L117.816 106.34L142.596 92.0322L162.029 103.364" stroke="#293B46" stroke-width="1.34866" stroke-linecap="round" stroke-linejoin="round"/>
<path d="M327.653 143.398L366.295 119.813C366.765 119.526 367.152 119.123 367.419 118.641C367.685 118.16 367.822 117.617 367.815 117.067C367.808 116.517 367.657 115.978 367.379 115.503C367.1 115.029 366.703 114.635 366.226 114.36L342.06 100.391" stroke="#293B46" stroke-width="1.34866" stroke-linecap="round" stroke-linejoin="round"/>
<path d="M198.063 42.0806L236.705 65.6623C237.175 65.9488 237.563 66.3527 237.829 66.8342C238.096 67.3158 238.233 67.8585 238.226 68.4089C238.219 68.9594 238.07 69.4986 237.792 69.9737C237.514 70.4487 237.117 70.8432 236.64 71.1184L212.47 85.0721" stroke="#293B46" stroke-width="1.34866" stroke-linecap="round" stroke-linejoin="round"/>
<path d="M409.366 197.871C409.959 198.747 410.366 199.735 410.56 200.775C410.755 201.814 410.732 202.883 410.495 203.913C410.257 204.944 409.81 205.915 409.18 206.764C408.551 207.614 407.753 208.325 406.836 208.853L308.367 265.729C306.029 267.078 303.377 267.789 300.677 267.789C297.977 267.789 295.325 267.078 292.987 265.729L102.378 155.649C101.209 154.974 100.238 154.003 99.5634 152.834C98.8885 151.665 98.5332 150.339 98.5332 148.989C98.5332 147.639 98.8885 146.313 99.5634 145.144C100.238 143.975 101.209 143.004 102.378 142.329" fill="#152229"/>
<path d="M410.681 194.223V202.413L408.747 207.307L404.045 201.605L410.681 194.223Z" fill="#1B3646"/>
<path d="M98.5293 141.249V148.989L101.059 151.519H104.389L104.766 148.739L106.488 143.576L98.5293 141.249Z" fill="#152229"/>
<path d="M292.987 258.481L102.378 148.416C101.209 147.741 100.238 146.771 99.5634 145.602C98.8885 144.433 98.5332 143.106 98.5332 141.757C98.5332 140.407 98.8885 139.081 99.5634 137.912C100.238 136.743 101.209 135.772 102.378 135.097L200.847 78.2403C203.185 76.8904 205.837 76.1797 208.537 76.1797C211.236 76.1797 213.889 76.8904 216.227 78.2403L406.836 188.301C408.005 188.976 408.976 189.947 409.65 191.116C410.325 192.285 410.681 193.611 410.681 194.961C410.681 196.31 410.325 197.637 409.65 198.806C408.976 199.975 408.005 200.945 406.836 201.62L308.367 258.481C306.029 259.831 303.377 260.541 300.677 260.541C297.977 260.541 295.325 259.831 292.987 258.481Z" fill="#202E36"/>
<path d="M300.677 252.852C299.327 252.852 298.001 252.497 296.832 251.822L111.99 145.099C111.401 144.762 110.912 144.276 110.571 143.69C110.231 143.103 110.051 142.437 110.051 141.759C110.051 141.081 110.231 140.415 110.571 139.828C110.912 139.242 111.401 138.756 111.99 138.42L204.688 84.9004C205.857 84.2254 207.183 83.8701 208.533 83.8701C209.883 83.8701 211.209 84.2254 212.378 84.9004L397.078 191.551C397.676 191.897 398.174 192.394 398.519 192.993C398.865 193.592 399.047 194.271 399.047 194.963C399.047 195.655 398.865 196.334 398.519 196.933C398.174 197.532 397.676 198.03 397.078 198.376L304.518 251.822C303.35 252.495 302.026 252.85 300.677 252.852Z" fill="#0B151B"/>
<path d="M141.858 121.178L147.879 121.697C149.084 121.8 150.291 121.531 151.34 120.928L172.871 108.49C173.236 108.28 173.516 107.95 173.665 107.557C173.815 107.164 173.823 106.731 173.69 106.333L172.694 103.364L141.858 121.178Z" fill="#202E36"/>
<path d="M167.533 155.496L148.409 144.452L161.713 136.769L167.45 133.456" stroke="#5FCD82" stroke-width="2.52035" stroke-linecap="round" stroke-linejoin="round"/>
<path d="M233.334 171.478L214.274 182.484L195.214 171.478" stroke="#5FCD82" stroke-width="2.52035" stroke-linecap="round" stroke-linejoin="round"/>
<path d="M261.28 133.562L280.139 144.452L261.319 155.32" stroke="#5FCD82" stroke-width="2.52035" stroke-linecap="round" stroke-linejoin="round"/>
<path d="M195.617 117.191L214.274 106.42L232.927 117.191" stroke="#5FCD82" stroke-width="2.52035" stroke-linecap="round" stroke-linejoin="round"/>
<g opacity="0.6">
<path d="M273.519 195.222L273.755 195.084L274.454 195.742C274.539 195.834 274.654 195.893 274.779 195.908C274.904 195.923 275.03 195.894 275.134 195.824C275.256 195.754 275.321 195.676 275.34 195.592C275.339 195.539 275.327 195.486 275.302 195.439C275.278 195.391 275.243 195.35 275.2 195.318L274.501 194.661L274.74 194.523L275.457 195.195C275.523 195.241 275.576 195.303 275.612 195.375C275.647 195.447 275.665 195.526 275.663 195.606C275.64 195.736 275.527 195.861 275.323 195.978C275.154 196.087 274.955 196.14 274.754 196.13C274.565 196.111 274.388 196.026 274.254 195.89L273.519 195.222Z" fill="#F0FBF6"/>
<path d="M276.201 195.412L275.005 194.285L276.65 194.406L276.789 194.421L276.95 194.445L276.152 193.695L276.372 193.568L277.568 194.692L275.897 194.569C275.852 194.569 275.807 194.569 275.762 194.554L275.626 194.53L276.426 195.284L276.201 195.412Z" fill="#F0FBF6"/>
<path d="M277.862 194.452L276.711 193.368L276.949 193.23L278.1 194.314L277.862 194.452Z" fill="#F0FBF6"/>
<path d="M278.452 194.114L277.301 193.031L278.123 192.556L278.284 192.706L277.7 193.043L277.986 193.313L278.569 192.975L278.734 193.13L278.15 193.467L278.691 193.977L278.452 194.114Z" fill="#F0FBF6"/>
<path d="M279.533 193.487L278.382 192.404L278.621 192.266L279.772 193.347L279.533 193.487Z" fill="#F0FBF6"/>
<path d="M280.117 193.15L278.966 192.066L279.788 191.592L279.947 191.742L279.365 192.077L279.653 192.348L280.236 192.013L280.401 192.167L279.817 192.504L280.189 192.854L280.773 192.517L280.939 192.673L280.117 193.15Z" fill="#F0FBF6"/>
<path d="M281.284 192.219L281.49 192.102C281.573 192.058 281.651 192.004 281.722 191.942C281.762 191.904 281.792 191.856 281.808 191.804C281.827 191.736 281.823 191.663 281.796 191.598C281.76 191.52 281.708 191.45 281.644 191.393C281.576 191.327 281.496 191.274 281.41 191.236C281.326 191.2 281.236 191.18 281.144 191.177C281.075 191.176 281.005 191.187 280.939 191.21C280.838 191.247 280.741 191.294 280.649 191.35L280.563 191.401L280.476 191.45L281.284 192.219ZM281.214 192.515L280.063 191.434L280.386 191.247C280.535 191.156 280.692 191.077 280.855 191.012C280.954 190.98 281.058 190.963 281.163 190.961C281.298 190.959 281.431 190.984 281.556 191.034C281.681 191.084 281.795 191.159 281.891 191.253C281.982 191.332 282.052 191.432 282.096 191.545C282.13 191.641 282.13 191.745 282.096 191.841C282.068 191.919 282.02 191.99 281.958 192.046C281.848 192.141 281.727 192.223 281.599 192.291L281.535 192.328L281.214 192.515Z" fill="#F0FBF6"/>
<path d="M282.933 190.507L282.995 190.47C283.087 190.428 283.167 190.365 283.227 190.285C283.25 190.237 283.227 190.188 283.174 190.134C283.147 190.107 283.115 190.086 283.08 190.072C283.044 190.058 283.006 190.052 282.968 190.054C282.861 190.069 282.758 190.108 282.668 190.169L282.606 190.204L282.933 190.507ZM283.071 190.659L283.589 191.144L283.363 191.275L282.214 190.192L282.576 189.986C282.655 189.938 282.739 189.897 282.826 189.863C282.884 189.843 282.944 189.831 283.005 189.828C283.079 189.827 283.152 189.84 283.221 189.867C283.291 189.895 283.355 189.935 283.41 189.986C283.461 190.031 283.499 190.088 283.521 190.151C283.542 190.204 283.542 190.262 283.521 190.315C283.501 190.361 283.471 190.402 283.433 190.435C283.364 190.491 283.289 190.54 283.211 190.583L283.164 190.611L283.071 190.659Z" fill="#F0FBF6"/>
<path d="M284.207 190.102L284.618 189.863L284.207 189.703L284.123 189.666L284.02 189.612C284.037 189.639 284.052 189.666 284.066 189.695C284.078 189.718 284.089 189.742 284.098 189.767L284.207 190.102ZM285.321 190.143L284.859 189.962L284.275 190.299L284.401 190.675L284.148 190.821L283.667 189.283L285.574 189.997L285.321 190.143Z" fill="#F0FBF6"/>
<path d="M285.92 189.8L285.392 189.304L284.271 189.004L284.524 188.858L285.223 189.047L285.291 189.068L285.377 189.099C285.368 189.077 285.361 189.055 285.355 189.033C285.349 189.013 285.345 188.992 285.342 188.971L285.274 188.424L285.513 188.287L285.63 189.166L286.156 189.662L285.92 189.8Z" fill="#F0FBF6"/>
<path d="M287.46 188.048L287.371 187.984L287.275 187.915C287.294 187.943 287.312 187.972 287.328 188.003C287.342 188.036 287.355 188.069 287.365 188.104L287.593 188.903L286.582 188.537C286.541 188.523 286.502 188.507 286.465 188.49C286.429 188.476 286.395 188.459 286.362 188.441C286.387 188.465 286.41 188.49 286.432 188.517C286.454 188.545 286.475 188.576 286.493 188.607L286.905 189.224L286.685 189.351L285.832 188.028L286.993 188.461L287.081 188.496L287.229 188.562C287.206 188.511 287.186 188.458 287.17 188.404C287.167 188.39 287.163 188.377 287.157 188.365L286.857 187.436L288.413 188.359L288.189 188.488L287.46 188.048Z" fill="#F0FBF6"/>
<path d="M288.604 188.248L287.453 187.166L288.276 186.691L288.436 186.839L287.852 187.177L288.14 187.448L288.724 187.111L288.888 187.267L288.304 187.602L288.676 187.954L289.26 187.616L289.427 187.773L288.604 188.248Z" fill="#F0FBF6"/>
<path d="M289.702 187.617L288.506 186.492L290.15 186.611L290.292 186.628L290.45 186.653L289.653 185.9L289.875 185.773L291.069 186.897L289.398 186.776L289.262 186.761L289.127 186.737L289.926 187.489L289.702 187.617Z" fill="#F0FBF6"/>
<path d="M290.843 185.45L291.836 186.383L291.595 186.521L290.603 185.587L290.212 185.813L290.054 185.665L291.081 185.075L291.242 185.223L290.843 185.45Z" fill="#F0FBF6"/>
<path d="M292.092 185.884L292.216 185.709C292.279 185.744 292.349 185.762 292.421 185.763C292.501 185.758 292.579 185.734 292.647 185.693C292.677 185.679 292.703 185.66 292.725 185.635C292.746 185.611 292.762 185.582 292.771 185.551C292.776 185.522 292.773 185.493 292.762 185.466C292.751 185.439 292.733 185.415 292.709 185.399C292.643 185.335 292.503 185.318 292.314 185.353H292.251C292.088 185.386 291.922 185.396 291.757 185.382C291.658 185.369 291.565 185.325 291.492 185.257C291.45 185.223 291.418 185.179 291.4 185.129C291.381 185.078 291.377 185.024 291.387 184.971C291.405 184.913 291.436 184.859 291.476 184.813C291.516 184.766 291.566 184.729 291.622 184.704C291.719 184.645 291.829 184.607 291.942 184.593C292.043 184.58 292.144 184.596 292.236 184.638L292.123 184.817C292.066 184.801 292.006 184.795 291.946 184.798C291.895 184.803 291.845 184.818 291.8 184.844C291.774 184.856 291.75 184.874 291.731 184.896C291.712 184.918 291.697 184.943 291.687 184.971C291.682 184.995 291.684 185.02 291.692 185.044C291.7 185.067 291.715 185.087 291.735 185.103C291.805 185.166 291.953 185.181 292.179 185.14H292.22C292.369 185.107 292.522 185.097 292.674 185.111C292.775 185.124 292.869 185.169 292.941 185.24C292.99 185.277 293.027 185.326 293.05 185.383C293.073 185.439 293.08 185.501 293.071 185.561C293.05 185.626 293.017 185.686 292.972 185.737C292.927 185.788 292.872 185.829 292.81 185.857C292.696 185.926 292.567 185.965 292.434 185.97C292.31 185.976 292.187 185.944 292.082 185.88" fill="#F0FBF6"/>
<path d="M294.167 185.037L293.016 183.953L293.256 183.816L294.407 184.899L294.167 185.037Z" fill="#F0FBF6"/>
<path d="M294.751 184.7L293.554 183.573L295.199 183.694L295.341 183.711C295.388 183.711 295.441 183.723 295.499 183.733L294.691 182.983L294.913 182.856L296.107 183.98L294.436 183.859L294.301 183.844L294.165 183.82L294.965 184.572L294.751 184.7Z" fill="#F0FBF6"/>
<path d="M295.892 182.535L296.885 183.468L296.644 183.606L295.654 182.683L295.261 182.909L295.103 182.759L296.131 182.171L296.289 182.319L295.892 182.535Z" fill="#F0FBF6"/>
<path d="M297.458 183.138L296.307 182.054L297.129 181.579L297.287 181.729L296.705 182.067L296.993 182.338L297.577 182.003L297.741 182.157L297.158 182.492L297.53 182.842L298.111 182.504L298.28 182.663L297.458 183.138Z" fill="#F0FBF6"/>
<path d="M298.134 181.744L298.177 181.719C298.265 181.68 298.34 181.618 298.395 181.54C298.414 181.495 298.395 181.443 298.336 181.388C298.309 181.36 298.277 181.338 298.242 181.323C298.207 181.308 298.169 181.301 298.13 181.302C298.028 181.313 297.93 181.35 297.844 181.408L297.801 181.433L298.134 181.744ZM298.264 181.889L298.78 182.373L298.556 182.502L297.405 181.421L297.74 181.228C297.816 181.18 297.897 181.141 297.982 181.11C298.042 181.088 298.105 181.076 298.169 181.075C298.24 181.077 298.309 181.091 298.375 181.117C298.443 181.143 298.505 181.182 298.558 181.232C298.597 181.262 298.629 181.3 298.651 181.343C298.673 181.387 298.686 181.435 298.687 181.485C298.68 181.533 298.662 181.579 298.635 181.62C298.607 181.66 298.571 181.694 298.529 181.719L299.557 181.924L299.285 182.081L298.28 181.875L298.264 181.889Z" fill="#F0FBF6"/>
<path d="M299.711 181.836L298.56 180.753L299.382 180.278L299.542 180.428L298.959 180.766L299.244 181.035L299.828 180.698L299.993 180.852L299.419 181.189L299.96 181.697L299.711 181.836Z" fill="#F0FBF6"/>
<path d="M300.578 180.647L300.989 180.411L300.578 180.251L300.494 180.212L300.393 180.16L300.436 180.24C300.449 180.267 300.461 180.29 300.469 180.312L300.578 180.647ZM301.694 180.691L301.23 180.508L300.646 180.845L300.771 181.223L300.519 181.369L300.038 179.831L301.947 180.545L301.694 180.691Z" fill="#F0FBF6"/>
<path d="M302.362 178.983C302.256 178.978 302.15 178.988 302.046 179.012C301.95 179.033 301.858 179.069 301.772 179.116C301.704 179.149 301.644 179.196 301.597 179.256C301.55 179.315 301.517 179.384 301.501 179.458C301.493 179.53 301.504 179.603 301.532 179.67C301.561 179.737 301.606 179.796 301.663 179.84C301.787 179.958 301.947 180.03 302.118 180.046C302.289 180.067 302.462 180.032 302.611 179.945C302.69 179.899 302.759 179.839 302.817 179.768C302.871 179.698 302.911 179.619 302.934 179.534L303.139 179.739C303.109 179.815 303.065 179.885 303.01 179.945C302.945 180.01 302.871 180.066 302.79 180.111C302.679 180.176 302.559 180.224 302.434 180.253C302.309 180.28 302.181 180.288 302.054 180.278C301.93 180.268 301.809 180.239 301.694 180.191C301.585 180.145 301.484 180.08 301.396 180C301.318 179.929 301.257 179.841 301.217 179.743C301.182 179.654 301.173 179.556 301.189 179.462C301.208 179.365 301.25 179.274 301.312 179.197C301.386 179.107 301.476 179.033 301.577 178.977C301.664 178.927 301.758 178.888 301.855 178.861C301.958 178.834 302.064 178.818 302.171 178.814L302.362 178.983Z" fill="#F0FBF6"/>
<path d="M303.53 179.63L302.379 178.547L303.201 178.072L303.362 178.222L302.778 178.559L303.066 178.831L303.649 178.494L303.814 178.648L303.23 178.985L303.602 179.334L304.186 178.997L304.353 179.156L303.53 179.63Z" fill="#F0FBF6"/>
<path d="M296.335 180.521L294.691 181.472L288.707 175.369L290.351 174.419L296.335 180.521Z" fill="#F0FBF6"/>
<path d="M287.458 176.387C287.191 176.361 286.922 176.42 286.691 176.556L277.63 181.787L278.802 182.982L280.446 182.03L287.044 178.223L288.296 179.499L281.704 183.3L280.06 184.252L283.628 187.892L285.273 186.941L282.878 184.497L290.286 180.217C290.387 180.165 290.476 180.093 290.547 180.004C290.618 179.916 290.669 179.813 290.697 179.703C290.721 179.6 290.716 179.493 290.684 179.392C290.653 179.292 290.595 179.202 290.516 179.131L288.119 176.687C287.941 176.508 287.704 176.4 287.451 176.383" fill="#F0FBF6"/>
<path d="M282.111 188.132C282.347 188.375 282.275 188.677 281.936 188.874L273.434 193.783C273.207 193.917 272.942 193.973 272.68 193.946C272.432 193.931 272.198 193.825 272.022 193.65L266.63 188.14L268.275 187.189L273.091 192.108L279.685 188.297L274.875 183.378L276.52 182.426L282.111 188.132Z" fill="#F0FBF6"/>
<path d="M293.205 172.785L299.44 173.975L299.201 178.909L293.205 172.785Z" fill="white"/>
<path d="M291.741 173.638L297.974 174.831L297.735 179.764L291.741 173.638Z" fill="white"/>
</g>
<path d="M379.43 191.512L300.032 237.361L274.359 222.726V219.897L379.43 188.186V191.512Z" fill="#C4C4C4"/>
<path d="M379.43 188.661L300.032 234.51L274.359 219.875L353.757 174.026L379.43 188.661Z" fill="#EEF2F5"/>
<path d="M295.705 224.971L289.388 221.322L291.879 219.884C292.343 219.613 292.85 219.427 293.379 219.334C293.888 219.245 294.408 219.245 294.917 219.334C295.401 219.413 295.868 219.578 296.293 219.823C296.647 219.999 296.939 220.278 297.132 220.622C297.202 220.76 297.236 220.914 297.229 221.069C297.223 221.224 297.178 221.375 297.097 221.507C296.857 221.88 296.521 222.181 296.124 222.38L294.536 223.295L293.464 222.679L294.829 221.857C295.032 221.757 295.204 221.604 295.328 221.414C295.367 221.349 295.387 221.274 295.387 221.197C295.387 221.121 295.367 221.046 295.328 220.98C295.223 220.816 295.076 220.683 294.902 220.595C294.694 220.474 294.466 220.39 294.229 220.349C293.982 220.305 293.729 220.305 293.483 220.349C293.212 220.404 292.952 220.504 292.714 220.645L291.814 221.165L297.043 224.202L295.705 224.971Z" fill="#0B151B"/>
<path d="M302.622 221.065C302.323 221.243 301.997 221.373 301.657 221.449C301.318 221.525 300.968 221.543 300.623 221.503C300.275 221.46 299.94 221.346 299.639 221.169C299.426 221.064 299.246 220.903 299.119 220.703C299.078 220.631 299.054 220.55 299.047 220.467C299.041 220.384 299.052 220.301 299.081 220.223C299.152 220.044 299.263 219.884 299.404 219.754C299.575 219.587 299.761 219.435 299.958 219.3C300.204 219.123 300.4 218.977 300.542 218.865C300.648 218.797 300.734 218.701 300.792 218.589C300.819 218.516 300.792 218.446 300.68 218.389H300.661C300.467 218.278 300.246 218.225 300.023 218.235C299.782 218.247 299.549 218.318 299.342 218.443C299.108 218.577 298.958 218.716 298.935 218.858C298.916 218.926 298.917 218.998 298.937 219.066C298.956 219.134 298.994 219.195 299.046 219.242L297.735 219.888C297.531 219.73 297.394 219.501 297.351 219.246C297.339 219.123 297.351 218.999 297.387 218.881C297.424 218.763 297.483 218.653 297.562 218.558C297.791 218.282 298.072 218.053 298.389 217.885C298.66 217.729 298.946 217.6 299.242 217.501C299.544 217.396 299.856 217.327 300.173 217.293C300.487 217.261 300.804 217.271 301.115 217.324C301.43 217.378 301.732 217.488 302.007 217.65L305.202 219.496L303.956 220.215L303.299 219.831L303.26 219.854C303.328 219.97 303.358 220.104 303.345 220.238C303.322 220.394 303.253 220.539 303.149 220.657C302.998 220.822 302.82 220.96 302.622 221.065V221.065ZM302.092 220.323C302.251 220.24 302.384 220.115 302.476 219.961C302.511 219.904 302.533 219.84 302.54 219.773C302.546 219.707 302.538 219.64 302.515 219.577C302.446 219.434 302.333 219.318 302.192 219.246L301.688 218.958C301.666 219.01 301.633 219.057 301.592 219.096C301.537 219.158 301.477 219.215 301.415 219.269L301.196 219.446L300.988 219.608C300.875 219.69 300.775 219.79 300.692 219.904C300.662 219.941 300.64 219.984 300.629 220.031C300.617 220.077 300.615 220.126 300.623 220.173C300.641 220.224 300.67 220.272 300.707 220.312C300.744 220.352 300.788 220.385 300.838 220.407C301.021 220.511 301.233 220.554 301.442 220.53C301.671 220.509 301.892 220.438 302.092 220.323V220.323Z" fill="#0B151B"/>
<path d="M308.64 219.538C308.477 219.633 308.307 219.717 308.132 219.788C307.985 219.849 307.833 219.899 307.678 219.938L306.99 219.203C307.162 219.155 307.328 219.089 307.486 219.007C307.593 218.961 307.678 218.876 307.724 218.769C307.737 218.714 307.734 218.657 307.718 218.603C307.702 218.549 307.672 218.5 307.632 218.461L307.509 218.3L300.934 216.465L302.318 215.67L306.779 217.111L306.829 217.085L304.337 214.501L305.729 213.697L309.139 217.792C309.291 217.962 309.396 218.167 309.447 218.388C309.465 218.489 309.463 218.593 309.441 218.693C309.418 218.794 309.376 218.889 309.316 218.972C309.136 219.21 308.905 219.403 308.64 219.538V219.538Z" fill="#0B151B"/>
<path d="M308.151 210.472L314.468 214.121L313.153 214.89L306.836 211.245L308.151 210.472Z" fill="#0B151B"/>
<path d="M316.96 212.786C316.658 212.962 316.332 213.092 315.991 213.171C315.653 213.245 315.305 213.262 314.961 213.221C314.612 213.178 314.276 213.064 313.973 212.886C313.761 212.781 313.581 212.62 313.454 212.421C313.414 212.349 313.391 212.269 313.385 212.186C313.379 212.104 313.39 212.021 313.419 211.944C313.489 211.765 313.598 211.603 313.738 211.471C313.91 211.305 314.095 211.153 314.292 211.017C314.542 210.841 314.734 210.698 314.88 210.583C314.986 210.514 315.073 210.419 315.13 210.306C315.153 210.233 315.13 210.168 315.015 210.106C314.823 209.994 314.603 209.939 314.38 209.949C314.14 209.959 313.905 210.031 313.7 210.156C313.461 210.295 313.315 210.433 313.292 210.571C313.274 210.64 313.274 210.712 313.294 210.779C313.314 210.847 313.352 210.908 313.404 210.956L312.089 211.598C311.886 211.438 311.749 211.21 311.704 210.956C311.692 210.833 311.705 210.709 311.742 210.592C311.779 210.474 311.84 210.365 311.92 210.272C312.146 209.992 312.428 209.762 312.746 209.595C313.017 209.44 313.301 209.311 313.596 209.21C313.897 209.107 314.21 209.037 314.526 209.003C314.842 208.97 315.16 208.981 315.472 209.033C315.785 209.089 316.086 209.2 316.36 209.36L319.559 211.206L318.283 211.898L317.625 211.513L317.591 211.537C317.658 211.653 317.688 211.787 317.675 211.921C317.653 212.077 317.585 212.223 317.479 212.34C317.333 212.517 317.158 212.668 316.96 212.786ZM316.43 212.044C316.587 211.959 316.72 211.835 316.814 211.683C316.848 211.625 316.869 211.561 316.875 211.494C316.881 211.428 316.872 211.361 316.849 211.298C316.784 211.154 316.671 211.037 316.53 210.967L316.026 210.675C316.002 210.727 315.97 210.774 315.93 210.814C315.88 210.867 315.818 210.925 315.749 210.987C315.68 211.048 315.607 211.106 315.53 211.167L315.326 211.325C315.213 211.408 315.113 211.508 315.03 211.621C315 211.659 314.978 211.702 314.967 211.748C314.955 211.795 314.953 211.843 314.961 211.89C314.977 211.942 315.005 211.99 315.041 212.03C315.078 212.071 315.122 212.103 315.172 212.125C315.356 212.23 315.569 212.273 315.78 212.248C316.009 212.231 316.231 212.161 316.43 212.044Z" fill="#0B151B"/>
<path d="M318.341 206.411L319.329 206.984L316.476 208.63L315.488 208.06L318.341 206.411ZM314.999 207.03L316.314 206.261L320.732 208.81C320.836 208.874 320.951 208.918 321.07 208.941C321.168 208.962 321.269 208.962 321.366 208.941C321.462 208.916 321.554 208.879 321.639 208.829C321.699 208.795 321.755 208.757 321.809 208.714L321.924 208.614L323.108 209.06C323.062 209.11 322.993 209.179 322.901 209.264C322.781 209.369 322.652 209.463 322.516 209.545C322.219 209.73 321.895 209.868 321.555 209.952C321.227 210.033 320.887 210.052 320.551 210.01C320.21 209.967 319.882 209.854 319.586 209.679L314.999 207.03Z" fill="#0B151B"/>
<path d="M326.138 207.492C325.663 207.768 325.142 207.955 324.6 208.045C324.051 208.134 323.492 208.126 322.946 208.022C322.39 207.921 321.855 207.723 321.366 207.438C320.957 207.232 320.612 206.92 320.366 206.534C320.279 206.391 320.227 206.229 320.216 206.061C320.206 205.894 320.236 205.726 320.305 205.573C320.508 205.193 320.826 204.887 321.212 204.696C321.533 204.513 321.877 204.372 322.235 204.277C322.611 204.177 322.999 204.126 323.389 204.127C323.803 204.125 324.216 204.179 324.615 204.289C325.045 204.403 325.458 204.575 325.842 204.8L326.203 205.008L322.2 207.315L321.385 206.842L324.15 205.246C323.955 205.137 323.743 205.063 323.523 205.027C323.296 204.992 323.066 204.992 322.839 205.027C322.617 205.06 322.403 205.134 322.208 205.246C322.042 205.33 321.908 205.465 321.824 205.631C321.792 205.696 321.776 205.768 321.776 205.84C321.776 205.913 321.792 205.984 321.824 206.05C321.912 206.212 322.046 206.346 322.208 206.434L322.977 206.88C323.206 207.013 323.456 207.106 323.715 207.157C323.97 207.199 324.23 207.199 324.484 207.157C324.734 207.119 324.974 207.034 325.192 206.907C325.319 206.839 325.433 206.749 325.53 206.642C325.604 206.563 325.648 206.461 325.657 206.354C325.658 206.248 325.621 206.146 325.553 206.065L326.849 205.412C327.056 205.574 327.193 205.809 327.234 206.069C327.252 206.328 327.171 206.584 327.007 206.784C326.767 207.076 326.472 207.316 326.138 207.492Z" fill="#0B151B"/>
<path d="M329.076 205.685L324.339 202.951L325.612 202.216L326.438 202.693L326.488 202.662C326.397 202.586 326.328 202.488 326.287 202.376C326.246 202.265 326.236 202.145 326.257 202.028C326.296 201.91 326.358 201.802 326.44 201.709C326.522 201.617 326.622 201.542 326.734 201.49C326.807 201.447 326.881 201.409 326.957 201.374C327.034 201.338 327.112 201.306 327.192 201.278L328.345 201.951C328.242 201.985 328.141 202.025 328.042 202.07C327.932 202.117 327.825 202.171 327.722 202.232C327.558 202.318 327.424 202.452 327.338 202.616C327.306 202.679 327.289 202.749 327.289 202.82C327.289 202.891 327.306 202.961 327.338 203.024C327.422 203.189 327.557 203.324 327.722 203.408L330.414 204.946L329.076 205.685Z" fill="#0B151B"/>
<path d="M357.43 186.984L347.025 192.994L346.076 192.448L356.484 186.438L357.43 186.984Z" fill="#0B151B"/>
<path d="M357.746 189.172H356.408V187.031H352.693V186.258H357.746V189.172Z" fill="#0B151B"/>
<path d="M112.424 236.33V236.358L105.534 250.944L86.4172 229.689L86.4993 229.539L105.534 192.045L112.424 236.33Z" fill="#5CC892"/>
<path d="M105.54 250.944L112.424 236.358L105.54 192.045L126.957 227.968L105.54 250.944Z" fill="#B4FACD"/>
<path d="M126.957 227.997L105.54 250.944L112.424 236.376L126.957 227.997Z" fill="#5CC892"/>
<path d="M112.424 236.322V236.349L105.534 250.944L86.4172 229.677L86.4993 229.526L112.424 236.322Z" fill="#309F65"/>
<path d="M79.3172 204.768V204.776L81.3818 209.632L87.1179 202.554L87.0919 202.508L81.3818 190.023L79.3172 204.768Z" fill="#5CC892"/>
<path d="M81.3816 209.632L79.317 204.776L81.3816 190.023L74.9538 201.985L81.3816 209.632Z" fill="#B4FACD"/>
<path d="M74.9538 201.985L81.3816 209.632L79.317 204.776L74.9538 201.985Z" fill="#5CC892"/>
<path d="M79.3172 204.768V204.776L81.3818 209.632L87.1179 202.554L87.0919 202.508L79.3172 204.768Z" fill="#309F65"/>
<path d="M143.063 228.638V228.642L141.538 232.364L137.301 226.943L137.321 226.904L141.538 217.345L143.063 228.638Z" fill="#5CC892"/>
<path d="M141.539 232.364L143.063 228.642L141.539 217.345L146.283 226.504L141.539 232.364Z" fill="#B4FACD"/>
<path d="M146.283 226.505L141.539 232.364L143.063 228.642L146.283 226.505Z" fill="#5CC892"/>
<path d="M143.063 228.638V228.642L141.538 232.364L137.301 226.943L137.321 226.904L143.063 228.638Z" fill="#309F65"/>
<path d="M316.272 76.7659L311.59 74.7971L324.46 63.3979L329.139 65.3667L316.272 76.7659Z" fill="#4AA276"/>
<path d="M329.139 65.3675L324.459 63.3987L327.664 19.5625L332.347 21.5312L329.139 65.3675Z" fill="#367656"/>
<path d="M334.228 17.0236L329.549 15.0581L331.241 15.7577L335.92 17.7265L334.228 17.0236Z" fill="#387959"/>
<path d="M303.588 76.2129L298.906 74.2441L311.59 74.7973L316.272 76.7661L303.588 76.2129Z" fill="#408B66"/>
<path d="M317.103 22.1885L312.424 20.2361C312.681 20.1287 312.938 20.0213 313.198 19.9106L317.877 21.8631C317.62 21.964 317.36 22.0681 317.103 22.1885Z" fill="#1E2F3A"/>
<path d="M317.887 21.8722L313.208 19.9197C314.345 19.4728 315.514 19.1117 316.706 18.8394L321.385 20.7918C320.194 21.0656 319.025 21.4267 317.887 21.8722" fill="#1D2E38"/>
<path d="M321.376 20.7923L316.696 18.8399C317.622 18.6276 318.562 18.4786 319.508 18.394L324.187 20.3465C323.241 20.4314 322.302 20.5803 321.376 20.7923" fill="#1C2D37"/>
<path d="M324.187 20.3561L319.508 18.4036C320.321 18.3296 321.138 18.3089 321.955 18.3418L326.634 20.2943C325.818 20.2631 325 20.2837 324.187 20.3561" fill="#1B2C35"/>
<path d="M326.634 20.2845L321.954 18.332C322.7 18.364 323.444 18.4422 324.18 18.5663L328.863 20.5188C328.125 20.392 327.381 20.3127 326.634 20.2813" fill="#1A2A33"/>
<path d="M328.863 20.5228L324.181 18.5703C324.886 18.6927 325.583 18.8601 326.267 19.0714L330.949 21.0402C330.266 20.8261 329.569 20.6587 328.863 20.5391" fill="#1A2932"/>
<path d="M330.949 21.0229L326.266 19.0542C326.741 19.2006 327.207 19.3796 327.666 19.5618L332.348 21.5143C331.886 21.3256 331.421 21.1564 330.949 21.0099" fill="#192830"/>
<path d="M301.677 34.5476L296.998 32.5789C298.591 30.591 300.332 28.7255 302.204 26.998L306.884 28.9668C305.01 30.6935 303.27 32.5591 301.677 34.5476" fill="#1E2F3A"/>
<path d="M306.88 28.9665L302.201 26.9977C303.705 25.6112 305.311 24.3386 307.004 23.1904L311.683 25.1429C309.99 26.2908 308.384 27.5634 306.88 28.9502" fill="#1E313B"/>
<path d="M311.683 25.1593L307.004 23.2068C308.711 22.0462 310.525 21.0514 312.422 20.2358L317.101 22.1883C315.204 23.0033 313.39 23.9982 311.683 25.1593" fill="#1E2F3A"/>
<path d="M317.102 22.1889C322.432 19.9273 327.73 19.6149 332.347 21.5381L329.139 65.3743L316.272 76.7637L303.581 76.2105L301.671 34.5578C306.413 28.6646 311.772 24.4505 317.102 22.1889Z" fill="#293B46"/>
<path d="M312.388 64.6112L322.196 58.9392C322.826 58.5559 323.348 58.0196 323.715 57.3801C324.082 56.7406 324.282 56.0188 324.295 55.2816L324.731 42.4539C324.776 41.1522 323.514 40.2964 322.453 40.9147L312.561 46.7493C311.863 47.1852 311.285 47.7887 310.88 48.5048C310.475 49.2208 310.255 50.0268 310.241 50.8495L309.834 62.8572C309.785 64.3248 311.204 65.2978 312.388 64.6112Z" fill="#5FCD82"/>
<path d="M314.292 50.801L314.64 40.5701C314.64 40.5701 314.767 35.5457 317.263 34.2603C320.279 32.7927 319.798 38.38 319.798 38.38L319.472 48.4483" stroke="#5FCD82" stroke-width="2.1603" stroke-miterlimit="10"/>
<path d="M319.261 54.5623C319.55 52.9416 319.085 51.5033 318.224 51.3497C317.362 51.196 316.429 52.3853 316.14 54.0059C315.851 55.6266 316.316 57.065 317.177 57.2186C318.039 57.3723 318.972 56.183 319.261 54.5623Z" fill="#28404E"/>
<path d="M317.877 55.4214L317.627 62.792" stroke="#28404E" stroke-width="1.4402" stroke-miterlimit="10"/>
<path d="M303.588 76.2133L298.905 74.2445L296.999 32.582L301.678 34.5475L303.588 76.2133Z" fill="#16232B"/>
<path d="M299.908 31.5947L295.229 29.626C297.014 27.3975 298.964 25.3067 301.063 23.3716L305.743 25.3241C303.644 27.2611 301.694 29.3529 299.908 31.5817" fill="#293B46"/>
<path d="M305.743 25.3366L301.064 23.3842C302.739 21.8426 304.527 20.4285 306.413 19.1538L311.093 21.1063C309.208 22.383 307.42 23.797 305.743 25.3366" fill="#293B46"/>
<path d="M311.092 21.0964L306.413 19.1439C308.327 17.8368 310.363 16.7176 312.492 15.802C312.781 15.6783 313.071 15.5579 313.36 15.4473L318.043 17.3997C317.75 17.5136 317.46 17.6308 317.171 17.7544C315.043 18.6682 313.007 19.7841 311.092 21.0867" fill="#293B46"/>
<path d="M318.043 17.4086L313.361 15.4561C314.631 14.957 315.936 14.5524 317.266 14.2456L321.945 16.1981C320.615 16.5043 319.31 16.9089 318.04 17.4086" fill="#293B46"/>
<path d="M321.961 16.1984L317.282 14.2459C318.316 14.0094 319.365 13.8431 320.422 13.748L325.101 15.7005C324.044 15.7955 322.995 15.9619 321.961 16.1984" fill="#293B46"/>
<path d="M325.101 15.7012L320.422 13.7487C321.332 13.6645 322.246 13.6417 323.159 13.6804L327.838 15.6328C326.925 15.5974 326.011 15.6202 325.101 15.7012" fill="#293B46"/>
<path d="M327.838 15.6331L323.158 13.6807C323.993 13.7154 324.824 13.8035 325.648 13.9442L330.33 15.8967C329.506 15.7561 328.673 15.6681 327.838 15.6331" fill="#293B46"/>
<path d="M330.33 15.8958L325.648 13.9434C326.435 14.0777 327.212 14.2636 327.974 14.4998L332.654 16.4686C331.889 16.2297 331.11 16.0417 330.32 15.9056" fill="#293B46"/>
<path d="M332.664 16.453L327.975 14.5005C328.506 14.6654 329.028 14.8541 329.54 15.0667L334.222 17.0192C333.708 16.8022 333.185 16.6135 332.654 16.453" fill="#293B46"/>
<path d="M334.231 17.0234L335.92 17.7231L332.298 67.1857L316.2 81.4485L300.331 80.7553L298.173 33.7301L299.907 31.5759C305.114 25.1132 311.075 20.3329 317.154 17.7459C323.232 15.1588 329.161 14.918 334.231 17.0234ZM329.138 65.3634L332.347 21.5271C327.729 19.6137 322.432 19.9261 317.102 22.178C311.772 24.4298 306.412 28.6537 301.678 34.5436L303.588 76.1963L316.279 76.7495L329.145 65.3601" fill="#152229"/>
<path d="M300.331 80.772L295.648 78.8065L293.494 31.7812L298.173 33.7467L300.331 80.772Z" fill="#293B46"/>
<path d="M298.173 33.7467L293.494 31.7812L295.229 29.627L299.908 31.5924L298.173 33.7467Z" fill="#293B46"/>
<path d="M197.378 45.3191C201.054 45.3191 204.034 43.5994 204.034 41.4779C204.034 39.3565 201.054 37.6367 197.378 37.6367C193.703 37.6367 190.723 39.3565 190.723 41.4779C190.723 43.5994 193.703 45.3191 197.378 45.3191Z" stroke="url(#paint0_linear_515_24098)" stroke-width="1.08015" stroke-linecap="round" stroke-linejoin="round"/>
<path opacity="0.5" d="M197.379 47.2877C202.934 47.2877 207.438 44.6865 207.438 41.4778C207.438 38.2691 202.934 35.668 197.379 35.668C191.824 35.668 187.321 38.2691 187.321 41.4778C187.321 44.6865 191.824 47.2877 197.379 47.2877Z" stroke="url(#paint1_linear_515_24098)" stroke-width="1.08015" stroke-linecap="round" stroke-linejoin="round"/>
<path d="M197.379 42.8153C198.657 42.8153 199.694 42.2162 199.694 41.4772C199.694 40.7382 198.657 40.1392 197.379 40.1392C196.101 40.1392 195.064 40.7382 195.064 41.4772C195.064 42.2162 196.101 42.8153 197.379 42.8153Z" fill="url(#paint2_radial_515_24098)"/>
<path d="M417.906 157.237C421.581 157.237 424.561 155.517 424.561 153.396C424.561 151.274 421.581 149.555 417.906 149.555C414.23 149.555 411.25 151.274 411.25 153.396C411.25 155.517 414.23 157.237 417.906 157.237Z" stroke="url(#paint3_linear_515_24098)" stroke-width="1.08015" stroke-linecap="round" stroke-linejoin="round"/>
<path opacity="0.5" d="M417.906 159.217C423.476 159.217 427.991 156.61 427.991 153.395C427.991 150.18 423.476 147.574 417.906 147.574C412.336 147.574 407.82 150.18 407.82 153.395C407.82 156.61 412.336 159.217 417.906 159.217Z" stroke="url(#paint4_linear_515_24098)" stroke-width="1.08015" stroke-linecap="round" stroke-linejoin="round"/>
<path d="M417.906 154.734C419.184 154.734 420.221 154.134 420.221 153.395C420.221 152.656 419.184 152.057 417.906 152.057C416.628 152.057 415.591 152.656 415.591 153.395C415.591 154.134 416.628 154.734 417.906 154.734Z" fill="url(#paint5_radial_515_24098)"/>
<path d="M16.8091 155.437L36.699 166.911C37.4921 167.369 38.3936 167.606 39.3094 167.596C40.2252 167.587 41.1216 167.332 41.905 166.857L67.0048 151.658C67.7159 151.228 68.5292 150.996 69.3602 150.986C70.1912 150.977 71.0096 151.19 71.7303 151.604L105.516 171.025C106.288 171.471 107.163 171.71 108.055 171.718C108.947 171.726 109.826 171.503 110.607 171.071L122.084 164.746" stroke="#293B46" stroke-width="1.34866" stroke-linecap="round" stroke-linejoin="round"/>
<path d="M20.8079 161.601C24.4837 161.601 27.4635 159.881 27.4635 157.76C27.4635 155.638 24.4837 153.918 20.8079 153.918C17.1322 153.918 14.1523 155.638 14.1523 157.76C14.1523 159.881 17.1322 161.601 20.8079 161.601Z" stroke="url(#paint6_linear_515_24098)" stroke-width="1.08015" stroke-linecap="round" stroke-linejoin="round"/>
<path opacity="0.5" d="M20.8078 163.996C26.7727 163.996 31.6082 161.204 31.6082 157.76C31.6082 154.315 26.7727 151.523 20.8078 151.523C14.8428 151.523 10.0073 154.315 10.0073 157.76C10.0073 161.204 14.8428 163.996 20.8078 163.996Z" stroke="url(#paint7_linear_515_24098)" stroke-width="1.08015" stroke-linecap="round" stroke-linejoin="round"/>
<path d="M20.8078 159.098C22.0862 159.098 23.1225 158.499 23.1225 157.76C23.1225 157.021 22.0862 156.422 20.8078 156.422C19.5295 156.422 18.4932 157.021 18.4932 157.76C18.4932 158.499 19.5295 159.098 20.8078 159.098Z" fill="url(#paint8_radial_515_24098)"/>
<g opacity="0.9" clip-path="url(#clip0_515_24098)">
<path d="M190.779 155.416L172.047 144.602L190.779 133.787L209.51 144.602L190.779 155.416ZM186.096 144.602L190.779 147.305L195.461 144.602L190.779 141.898L186.096 144.602Z" fill="#70767A"/>
<path d="M214.192 141.898L195.461 131.084L214.192 120.269L232.924 131.084L214.192 141.898ZM209.51 131.084L214.192 133.787L218.875 131.084L214.192 128.38L209.51 131.084Z" fill="#70767A"/>
<path d="M195.461 158.12L214.192 168.934L232.924 158.12L214.192 147.305L195.461 158.12ZM214.192 155.416L218.875 158.12L214.192 160.823L209.51 158.12L214.192 155.416Z" fill="#70767A"/>
<path d="M225.899 140.546L218.875 144.602L223.558 147.305L230.582 143.25L239.948 148.657L237.606 150.009L232.924 147.305L228.241 150.009L237.606 155.416L246.972 150.009L242.289 147.305L246.972 144.602L251.655 147.305L256.338 144.602L249.313 140.546L244.631 143.25L242.289 141.898L239.948 143.25L237.606 141.898L244.631 137.843L237.606 133.787L230.582 137.843L235.265 140.546L230.582 143.25L225.899 140.546Z" fill="#70767A"/>
</g>
<path d="M119.596 36.587L77.0439 61.1568L34.488 36.587L77.0439 12.0171L119.596 36.587Z" fill="#293B46"/>
<path d="M111.645 81.3816V52.6514L77.0439 72.6687V101.36L111.645 81.3816Z" fill="#293B46"/>
<path d="M42.4392 81.3821V52.6865L77.0437 72.6693V101.361L42.4392 81.3821Z" fill="#293B46"/>
<path d="M42.5862 63.6213V61.8989L76.9771 81.7917V83.4775L42.5862 63.6213Z" fill="#5FCD82"/>
<path d="M76.9771 81.7917V83.4775L86.7549 78.4527V76.7342L76.9771 81.7917Z" fill="#5FCD82"/>
<path d="M119.596 36.5869V48.0952L77.0439 72.6689V61.1568L119.596 36.5869Z" fill="#152229"/>
<path d="M77.0439 61.1568L34.488 36.5869V48.1221L77.0439 72.6689V61.1568Z" fill="#152229"/>
<path d="M92.5161 70.251V82.4661L108.671 73.6997V61.8989L92.5161 70.251Z" fill="#5FCD82"/>
<path d="M108.671 61.8989V73.6997L96.5327 80.2756V74.3741L103.469 70.6652L103.613 64.5963L108.671 61.8989Z" fill="#309F65"/>
<path d="M108.67 73.7L92.4863 82.3637V76.7345L103.276 70.6655L108.67 73.7Z" fill="#B4FACD"/>
<path d="M107.054 29.5312V41.0433L83.3833 54.1496V42.6375L107.054 29.5312Z" fill="#0B151B"/>
<path d="M93.4982 40.3203V45.1853L86.0806 49.0866V44.2217L93.4982 40.3203Z" fill="#5FCD82"/>
<rect width="2.023" height="4.04599" transform="matrix(0.866025 -0.5 2.20305e-08 1 88.1035 50.7729)" fill="#0B151B"/>
<rect width="2.023" height="4.04599" transform="matrix(0.866025 -0.5 2.20305e-08 1 100.916 43.355)" fill="#0B151B"/>
<path d="M81.6975 41.6699L83.3833 42.6814V54.1451L81.6975 52.7964V41.6699Z" fill="#152229"/>
<path d="M81.6975 41.6688L83.3833 42.6803L106.985 29.8679L104.962 28.8564L81.6975 41.6688Z" fill="#152229"/>
<defs>
<linearGradient id="paint0_linear_515_24098" x1="194.737" y1="36.9023" x2="200.02" y2="46.0534" gradientUnits="userSpaceOnUse">
<stop stop-color="#B4FACD"/>
<stop offset="1" stop-color="#F0F7FB" stop-opacity="0"/>
</linearGradient>
<linearGradient id="paint1_linear_515_24098" x1="193.534" y1="34.8182" x2="201.224" y2="48.1373" gradientUnits="userSpaceOnUse">
<stop stop-color="#B4FACD"/>
<stop offset="1" stop-color="#F0F7FB" stop-opacity="0"/>
</linearGradient>
<radialGradient id="paint2_radial_515_24098" cx="0" cy="0" r="1" gradientUnits="userSpaceOnUse" gradientTransform="translate(197.379 41.2898) scale(3.04133 1.76403)">
<stop stop-color="#B4FACD"/>
<stop offset="1" stop-color="#F0F7FB" stop-opacity="0"/>
</radialGradient>
<linearGradient id="paint3_linear_515_24098" x1="420.547" y1="148.82" x2="415.264" y2="157.971" gradientUnits="userSpaceOnUse">
<stop stop-color="#B4FACD"/>
<stop offset="1" stop-color="#F0F7FB" stop-opacity="0"/>
</linearGradient>
<linearGradient id="paint4_linear_515_24098" x1="421.762" y1="146.72" x2="414.053" y2="160.07" gradientUnits="userSpaceOnUse">
<stop stop-color="#B4FACD"/>
<stop offset="1" stop-color="#F0F7FB" stop-opacity="0"/>
</linearGradient>
<radialGradient id="paint5_radial_515_24098" cx="0" cy="0" r="1" gradientUnits="userSpaceOnUse" gradientTransform="translate(417.906 152.962) scale(3.04133 1.76403)">
<stop stop-color="#B4FACD"/>
<stop offset="1" stop-color="#F0F7FB" stop-opacity="0"/>
</radialGradient>
<linearGradient id="paint6_linear_515_24098" x1="18.1665" y1="153.188" x2="23.4496" y2="162.335" gradientUnits="userSpaceOnUse">
<stop stop-color="#B4FACD"/>
<stop offset="1" stop-color="#F0F7FB" stop-opacity="0"/>
</linearGradient>
<linearGradient id="paint7_linear_515_24098" x1="16.7014" y1="150.65" x2="24.9145" y2="164.873" gradientUnits="userSpaceOnUse">
<stop stop-color="#B4FACD"/>
<stop offset="1" stop-color="#F0F7FB" stop-opacity="0"/>
</linearGradient>
<radialGradient id="paint8_radial_515_24098" cx="0" cy="0" r="1" gradientUnits="userSpaceOnUse" gradientTransform="translate(20.8078 157.32) scale(3.04135 1.76403)">
<stop stop-color="#B4FACD"/>
<stop offset="1" stop-color="#F0F7FB" stop-opacity="0"/>
</radialGradient>
<clipPath id="clip0_515_24098">
<rect width="64.8866" height="64.8866" fill="white" transform="matrix(0.866025 -0.5 0.866025 0.5 157.999 144.602)"/>
</clipPath>
</defs>
</svg>
