<svg width="66" height="32" viewBox="0 0 66 32" fill="none" xmlns="http://www.w3.org/2000/svg">
<path d="M6.00386 12.9488C6.61115 12.6113 7.3082 12.4441 8.01303 12.4668C8.71786 12.4894 9.40116 12.701 9.98257 13.0767C10.4678 13.4014 10.8542 13.8401 11.1031 14.3491C11.1513 14.4488 11.2389 14.5269 11.3472 14.5669C11.4555 14.6069 11.5761 14.6057 11.6835 14.5635L14.4021 13.4605C14.5082 13.417 14.5923 13.3366 14.6368 13.236C14.6814 13.1355 14.6828 13.0227 14.6409 12.9211C14.3516 12.2211 13.9127 11.5845 13.3514 11.0505C12.666 10.4026 11.8454 9.8952 10.9414 9.5603C9.80196 9.14898 8.58198 8.97253 7.36386 9.04292C6.14574 9.11331 4.95786 9.42886 3.8804 9.96828C2.7126 10.5769 1.74051 11.4703 1.06627 12.5546C0.547741 13.3867 0.209497 14.3072 0.0710828 15.263C-0.0673317 16.2187 -0.00318062 17.1908 0.25984 18.1232C0.522861 19.0555 0.979536 19.9295 1.60349 20.6948C2.22744 21.4601 3.0063 22.1014 3.89509 22.5818C5.11161 23.2271 6.48855 23.5565 7.88484 23.5361C8.94161 23.5462 9.99019 23.3606 10.9708 22.9898C11.8754 22.6451 12.6946 22.1283 13.3772 21.4719C13.9216 20.9552 14.3512 20.3416 14.6409 19.667C14.684 19.566 14.6836 19.4531 14.6397 19.3524C14.5958 19.2517 14.5119 19.171 14.4058 19.1276L11.6835 18.0038C11.5767 17.9605 11.4561 17.9584 11.3476 17.9978C11.239 18.0372 11.1513 18.1151 11.1031 18.2148C10.8583 18.7212 10.4786 19.1595 10.0009 19.4872C9.41678 19.8629 8.73109 20.0744 8.02397 20.0971C7.31685 20.1197 6.61748 19.9526 6.00752 19.6151C5.45101 19.2857 5.00218 18.8178 4.71067 18.2632C4.39867 17.6421 4.23685 16.9637 4.23685 16.2767C4.23685 15.5898 4.39867 14.9114 4.71067 14.2903C5.0014 13.7391 5.44911 13.2746 6.00386 12.9488V12.9488Z" fill="white"/>
<path d="M30.5931 14.4078V23.0519C30.5931 23.1628 30.5463 23.2693 30.4629 23.3477C30.3795 23.4262 30.2665 23.4702 30.1486 23.4702H26.9744C26.8572 23.4693 26.745 23.4249 26.6625 23.3465C26.5799 23.2681 26.5335 23.1622 26.5336 23.0519V15.2065C26.5422 14.7264 26.4262 14.2517 26.1956 13.8234C25.976 13.4412 25.6478 13.124 25.2477 12.9071C24.8122 12.6892 24.3265 12.5752 23.8333 12.5752C23.3401 12.5752 22.8544 12.6892 22.4189 12.9071C22.0117 13.1186 21.6785 13.437 21.46 13.8234C21.2261 14.2505 21.1099 14.7261 21.1221 15.2065V23.0519C21.1221 23.1628 21.0752 23.2693 20.9919 23.3477C20.9085 23.4262 20.7954 23.4702 20.6775 23.4702H17.5034C17.3861 23.4693 17.274 23.4249 17.1914 23.3465C17.1088 23.2681 17.0625 23.1622 17.0625 23.0519V2.81774C17.062 2.74666 17.0809 2.67662 17.1174 2.61439C17.1538 2.55215 17.2067 2.4998 17.2709 2.46231C17.335 2.42483 17.4084 2.40346 17.4838 2.40031C17.5593 2.39716 17.6343 2.4123 17.7018 2.44429L20.8759 3.93456C20.9489 3.97011 21.0103 4.02359 21.0537 4.08933C21.097 4.15507 21.1206 4.23061 21.1221 4.30797V9.6777C21.1224 9.75536 21.1458 9.83137 21.1898 9.89709C21.2338 9.96282 21.2964 10.0156 21.3707 10.0495C21.4449 10.0834 21.5278 10.0969 21.6098 10.0886C21.6919 10.0804 21.7698 10.0506 21.8348 10.0027C21.9814 9.89755 22.1361 9.80275 22.2977 9.71919C23.0602 9.33603 23.9094 9.1309 24.7738 9.12102H24.9906C25.3211 9.12027 25.6513 9.14109 25.9788 9.18328C26.6619 9.2664 27.3223 9.46929 27.9259 9.78144C28.2873 9.97172 28.6218 10.2041 28.9215 10.473C29.1904 10.7031 29.4285 10.9632 29.6306 11.2475C29.7231 11.3712 29.809 11.4993 29.8877 11.6313C30.3734 12.484 30.6164 13.4405 30.5931 14.4078V14.4078Z" fill="white"/>
<path d="M46.7591 13.1908C46.4437 12.3837 45.9618 11.6434 45.341 11.0125C44.7008 10.3734 43.9195 9.87422 43.0522 9.54987C42.0613 9.18601 41.0041 9.00863 39.9405 9.02777C38.6103 9.00903 37.3001 9.33433 36.1529 9.96824C35.0678 10.575 34.166 11.4333 33.5334 12.4612L33.4857 12.5407C33.4269 12.6376 33.3718 12.7378 33.3167 12.8346C32.7596 13.8984 32.4801 15.0719 32.5011 16.2577C32.4833 17.5358 32.8081 18.7975 33.4453 19.9263C34.06 21.0164 34.9798 21.9275 36.1051 22.561C37.3436 23.239 38.7581 23.579 40.1904 23.543C41.1382 23.5525 42.081 23.411 42.9788 23.1246C43.7863 22.8633 44.5341 22.4609 45.183 21.9386C45.6653 21.5517 46.0655 21.0825 46.3623 20.5555C46.3892 20.5057 46.4051 20.4514 46.4093 20.3957C46.4134 20.34 46.4057 20.2841 46.3865 20.2312C46.3673 20.1784 46.3371 20.1296 46.2976 20.088C46.2582 20.0463 46.2102 20.0125 46.1566 19.9885L43.6511 18.8682C43.5569 18.8284 43.4509 18.8204 43.3512 18.8456C43.2515 18.8708 43.164 18.9276 43.1037 19.0065C42.8364 19.3476 42.4944 19.6306 42.1007 19.8364C41.4943 20.1191 40.8239 20.2587 40.1473 20.243C39.4708 20.2273 38.8085 20.0569 38.2175 19.7465C37.66 19.4182 37.2248 18.9348 36.9721 18.3634C36.9025 18.212 36.8448 18.056 36.7995 17.8966C36.7828 17.8347 36.7812 17.77 36.7949 17.7075C36.8087 17.645 36.8373 17.5862 36.8787 17.5356C36.9201 17.485 36.9732 17.4439 37.0339 17.4154C37.0946 17.3869 37.1614 17.3717 37.2293 17.3711H46.7003C46.8047 17.3709 46.9058 17.3362 46.9857 17.273C47.0657 17.2098 47.1194 17.1221 47.1375 17.0253C47.1596 16.9216 47.1743 16.8109 47.1889 16.6795C47.2147 16.4168 47.2257 16.1505 47.2257 15.8774C47.2431 14.9627 47.085 14.0526 46.7591 13.1908ZM37.4056 14.5531C37.3347 14.5532 37.2648 14.5372 37.2018 14.5065C37.1389 14.4757 37.0847 14.4312 37.044 14.3765C37.0032 14.3219 36.9771 14.2588 36.9678 14.1926C36.9585 14.1264 36.9663 14.0591 36.9905 13.9964V13.9964C37.2015 13.4263 37.5972 12.9329 38.122 12.5857C38.6595 12.2553 39.2915 12.0875 39.9332 12.1051C40.5858 12.0819 41.2292 12.2551 41.7701 12.5995C42.2651 12.9311 42.6315 13.4059 42.8135 13.9514C42.8135 13.9791 42.8318 14.0102 42.8428 14.0414C42.8609 14.1037 42.8634 14.1691 42.8503 14.2326C42.8372 14.296 42.8088 14.3558 42.7672 14.4072C42.7257 14.4587 42.6721 14.5004 42.6107 14.5293C42.5493 14.5582 42.4817 14.5735 42.413 14.5738L37.4056 14.5531Z" fill="white"/>
<path d="M65.1622 9.1765L62.2599 7.84185C62.1921 7.81074 62.117 7.79638 62.0416 7.80015C61.9663 7.80392 61.8932 7.82568 61.8292 7.86338C61.7653 7.90108 61.7126 7.9535 61.6761 8.01566C61.6396 8.07783 61.6205 8.14771 61.6207 8.21872V9.80577C61.6233 9.88691 61.6005 9.96701 61.5552 10.0361C61.5099 10.1052 61.4441 10.1602 61.3659 10.1945C61.2877 10.2287 61.2005 10.2406 61.1152 10.2286C61.0299 10.2167 60.9502 10.1815 60.8859 10.1273C60.5986 9.92352 60.291 9.74634 59.9675 9.59832C59.0658 9.20486 58.0809 9.00975 57.0872 9.0278C55.7452 9.0106 54.4246 9.34588 53.2738 9.99596C52.1459 10.6303 51.2128 11.5299 50.5662 12.6065C49.89 13.7269 49.5438 14.9969 49.5633 16.2854C49.5511 17.421 49.8177 18.5439 50.3421 19.5667C50.4046 19.6981 50.4781 19.826 50.5515 19.9539C50.625 20.0819 50.6507 20.1165 50.7058 20.196C51.3692 21.2328 52.3101 22.0875 53.4344 22.6749C54.5587 23.2622 55.8272 23.5615 57.1129 23.543C57.4817 23.5438 57.85 23.5196 58.2151 23.4704C58.4623 23.4362 58.7076 23.39 58.9498 23.3321C59.2811 23.2518 59.6053 23.1478 59.9197 23.0209C60.1737 22.9235 60.4193 22.8079 60.6545 22.6751C60.7206 22.6375 60.7961 22.617 60.8734 22.6155C60.9506 22.614 61.0269 22.6316 61.0946 22.6667C61.1624 22.7017 61.2191 22.7529 61.2592 22.815C61.2993 22.8772 61.3213 22.9482 61.3231 23.0209V27.7233C61.3237 27.8021 61.3478 27.8792 61.3926 27.9458C61.4374 28.0124 61.5011 28.0659 61.5766 28.1002L64.7471 29.5593C64.8148 29.5896 64.8895 29.6033 64.9643 29.5992C65.0392 29.595 65.1117 29.5731 65.1751 29.5355C65.2385 29.4979 65.2908 29.4458 65.3271 29.384C65.3634 29.3223 65.3825 29.253 65.3826 29.1824V9.55683C65.3871 9.48041 65.3689 9.40433 65.3299 9.33714C65.291 9.26995 65.2329 9.21433 65.1622 9.1765ZM60.8786 18.2701C60.5825 18.8272 60.127 19.2955 59.5634 19.622C58.9749 19.9509 58.3005 20.1186 57.6162 20.1061C56.9195 20.1162 56.2328 19.9489 55.6287 19.622C55.0461 19.3026 54.5721 18.8337 54.2621 18.2701C53.9265 17.657 53.7585 16.9749 53.7734 16.2854C53.7577 15.5991 53.9258 14.9202 54.2621 14.3111C54.5763 13.7513 55.0494 13.2845 55.6287 12.9626C56.2295 12.6268 56.9175 12.4544 57.6162 12.4647C58.3005 12.4522 58.9749 12.6199 59.5634 12.9488C60.1276 13.2731 60.5834 13.7404 60.8786 14.2972C61.1883 14.9189 61.3489 15.5971 61.3489 16.2837C61.3489 16.9703 61.1883 17.6484 60.8786 18.2701Z" fill="white"/>
</svg>
