<svg width="360" height="380" viewBox="0 0 360 380" fill="none" xmlns="http://www.w3.org/2000/svg">
<path d="M95.7165 136.877L121.792 121.823L142.24 133.746" stroke="#B4FACD" stroke-width="1.51545" stroke-linecap="round" stroke-linejoin="round"/>
<path opacity="0.2" d="M83.7974 319.322C103.327 319.322 119.158 310.181 119.158 298.906C119.158 287.63 103.327 278.49 83.7974 278.49C64.2683 278.49 48.4368 287.63 48.4368 298.906C48.4368 310.181 64.2683 319.322 83.7974 319.322Z" stroke="#5CC892" stroke-width="1.13658" stroke-miterlimit="10"/>
<path d="M219.841 266.999L126.134 321.729L99.2335 305.496" stroke="#B4FACD" stroke-width="1.51545" stroke-linecap="round" stroke-linejoin="round"/>
<path opacity="0.5" d="M83.7974 315.429C103.327 315.429 119.158 306.289 119.158 295.013C119.158 283.738 103.327 274.597 83.7974 274.597C64.2683 274.597 48.4368 283.738 48.4368 295.013C48.4368 306.289 64.2683 315.429 83.7974 315.429Z" stroke="#5CC892" stroke-width="1.13658" stroke-miterlimit="10"/>
<path d="M83.7974 311.537C103.327 311.537 119.158 302.397 119.158 291.121C119.158 279.846 103.327 270.705 83.7974 270.705C64.2683 270.705 48.4368 279.846 48.4368 291.121C48.4368 302.397 64.2683 311.537 83.7974 311.537Z" stroke="#5CC892" stroke-width="1.13658" stroke-miterlimit="10"/>
<path d="M83.464 310.598C102.676 310.598 118.25 301.876 118.25 291.117C118.25 280.358 102.676 271.637 83.464 271.637C64.2524 271.637 48.6784 280.358 48.6784 291.117C48.6784 301.876 64.2524 310.598 83.464 310.598Z" fill="#28404E"/>
<path opacity="0.2" d="M50.6863 155.57C79.694 155.57 103.209 141.991 103.209 125.241C103.209 108.491 79.694 94.9128 50.6863 94.9128C21.6786 94.9128 -1.83679 108.491 -1.83679 125.241C-1.83679 141.991 21.6786 155.57 50.6863 155.57Z" stroke="#5CC892" stroke-width="1.13658" stroke-miterlimit="10"/>
<path opacity="0.5" d="M50.6863 149.792C79.694 149.792 103.209 136.213 103.209 119.463C103.209 102.714 79.694 89.135 50.6863 89.135C21.6786 89.135 -1.83679 102.714 -1.83679 119.463C-1.83679 136.213 21.6786 149.792 50.6863 149.792Z" stroke="#5CC892" stroke-width="1.13658" stroke-miterlimit="10"/>
<path d="M50.6863 144.01C79.694 144.01 103.209 130.432 103.209 113.682C103.209 96.932 79.694 83.3535 50.6863 83.3535C21.6786 83.3535 -1.83679 96.932 -1.83679 113.682C-1.83679 130.432 21.6786 144.01 50.6863 144.01Z" stroke="#5CC892" stroke-width="1.13658" stroke-miterlimit="10"/>
<path d="M50.6863 138.229C79.694 138.229 103.209 124.65 103.209 107.9C103.209 91.1505 79.694 77.572 50.6863 77.572C21.6786 77.572 -1.83679 91.1505 -1.83679 107.9C-1.83679 124.65 21.6786 138.229 50.6863 138.229Z" fill="#28404E"/>
<path opacity="0.2" d="M300.707 142.461C323.793 142.461 342.509 131.654 342.509 118.323C342.509 104.992 323.793 94.1846 300.707 94.1846C277.621 94.1846 258.905 104.992 258.905 118.323C258.905 131.654 277.621 142.461 300.707 142.461Z" stroke="#5CC892" stroke-width="1.13658" stroke-miterlimit="10"/>
<path opacity="0.5" d="M300.707 137.861C323.793 137.861 342.509 127.054 342.509 113.722C342.509 100.391 323.793 89.5842 300.707 89.5842C277.621 89.5842 258.905 100.391 258.905 113.722C258.905 127.054 277.621 137.861 300.707 137.861Z" stroke="#5CC892" stroke-width="1.13658" stroke-miterlimit="10"/>
<path d="M300.707 133.26C323.793 133.26 342.509 122.453 342.509 109.122C342.509 95.7912 323.793 84.9841 300.707 84.9841C277.621 84.9841 258.905 95.7912 258.905 109.122C258.905 122.453 277.621 133.26 300.707 133.26Z" stroke="#5CC892" stroke-width="1.13658" stroke-miterlimit="10"/>
<path d="M300.707 128.66C323.793 128.66 342.509 117.853 342.509 104.522C342.509 91.1908 323.793 80.3838 300.707 80.3838C277.621 80.3838 258.905 91.1908 258.905 104.522C258.905 117.853 277.621 128.66 300.707 128.66Z" fill="#28404E"/>
<path d="M339.879 190.903L360.808 178.818C361.643 178.336 362.591 178.087 363.555 178.096C364.518 178.106 365.462 178.375 366.286 178.874L392.693 194.88C393.442 195.333 394.297 195.577 395.172 195.587C396.046 195.597 396.907 195.372 397.666 194.937L416.455 184.134" stroke="#2C4656" stroke-width="1.51545" stroke-linecap="round" stroke-linejoin="round"/>
<path d="M90.287 133.746L95.7165 136.877L121.792 121.823L142.24 133.746" stroke="#2C4656" stroke-width="1.51545" stroke-linecap="round" stroke-linejoin="round"/>
<path d="M316.518 175.872L357.179 151.055C357.673 150.753 358.081 150.328 358.361 149.822C358.642 149.315 358.785 148.744 358.778 148.165C358.77 147.586 358.612 147.019 358.319 146.52C358.026 146.02 357.608 145.606 357.106 145.317L331.678 130.618" stroke="#2C4656" stroke-width="1.51545" stroke-linecap="round" stroke-linejoin="round"/>
<path d="M180.157 69.2615L220.818 94.0753C221.312 94.3768 221.72 94.8018 222.001 95.3085C222.281 95.8152 222.425 96.3863 222.418 96.9655C222.411 97.5447 222.254 98.1121 221.961 98.612C221.668 99.1119 221.251 99.527 220.749 99.8165L195.317 114.499" stroke="#2C4656" stroke-width="1.51545" stroke-linecap="round" stroke-linejoin="round"/>
<path d="M402.5 233.191C403.125 234.112 403.553 235.153 403.757 236.246C403.962 237.34 403.938 238.465 403.688 239.549C403.438 240.634 402.968 241.655 402.305 242.549C401.643 243.444 400.803 244.192 399.838 244.747L296.224 304.594C293.764 306.015 290.973 306.763 288.133 306.763C285.292 306.763 282.501 306.015 280.041 304.594L79.4725 188.763C78.2425 188.053 77.2211 187.031 76.511 185.801C75.8008 184.571 75.427 183.176 75.427 181.755C75.427 180.335 75.8008 178.939 76.511 177.709C77.2211 176.479 78.2425 175.458 79.4725 174.748" fill="#1B3646"/>
<path d="M75.4225 173.611V181.755L78.0847 184.418H81.5884L81.9849 181.492L83.7974 176.059L75.4225 173.611Z" fill="#1B3646"/>
<path d="M280.041 296.968L79.4725 181.152C78.2425 180.442 77.2211 179.421 76.511 178.191C75.8008 176.961 75.427 175.565 75.427 174.145C75.427 172.725 75.8008 171.329 76.511 170.099C77.2211 168.869 78.2425 167.848 79.4725 167.137L183.086 107.31C185.547 105.889 188.337 105.142 191.178 105.142C194.019 105.142 196.81 105.889 199.27 107.31L399.838 223.121C401.068 223.831 402.09 224.853 402.8 226.083C403.51 227.313 403.884 228.708 403.884 230.129C403.884 231.549 403.51 232.944 402.8 234.175C402.09 235.405 401.068 236.426 399.838 237.136L296.224 296.968C293.764 298.388 290.973 299.136 288.133 299.136C285.292 299.136 282.501 298.388 280.041 296.968Z" fill="#375C66"/>
<path d="M288.133 291.045C286.712 291.045 285.317 290.671 284.087 289.96L89.587 177.661C88.9672 177.307 88.452 176.796 88.0937 176.179C87.7354 175.562 87.5466 174.861 87.5466 174.147C87.5466 173.433 87.7354 172.732 88.0937 172.115C88.452 171.498 88.9672 170.987 89.587 170.633L187.128 114.318C188.358 113.607 189.754 113.233 191.174 113.233C192.594 113.233 193.99 113.607 195.22 114.318L389.57 226.54C390.2 226.904 390.723 227.428 391.087 228.058C391.451 228.688 391.642 229.403 391.642 230.131C391.642 230.859 391.451 231.573 391.087 232.204C390.723 232.834 390.2 233.358 389.57 233.722L292.174 289.96C290.945 290.669 289.551 291.043 288.133 291.045V291.045Z" fill="#1B3646"/>
<path d="M121.015 152.491L127.351 153.037C128.619 153.145 129.889 152.862 130.992 152.228L153.649 139.139C154.032 138.919 154.328 138.572 154.485 138.158C154.642 137.745 154.651 137.289 154.511 136.87L153.463 133.746L121.015 152.491Z" fill="#375C66"/>
<path d="M138.242 190.915L114.113 176.981L130.899 167.287L138.137 163.107" stroke="#B4FACD" stroke-width="2.65203" stroke-linecap="round" stroke-linejoin="round"/>
<path d="M221.263 211.08L197.214 224.966L173.166 211.08" stroke="#B4FACD" stroke-width="2.65203" stroke-linecap="round" stroke-linejoin="round"/>
<path d="M256.522 163.241L280.316 176.981L256.571 190.692" stroke="#B4FACD" stroke-width="2.65203" stroke-linecap="round" stroke-linejoin="round"/>
<path d="M173.676 142.586L197.214 128.996L220.749 142.586" stroke="#B4FACD" stroke-width="2.65203" stroke-linecap="round" stroke-linejoin="round"/>
<path d="M197.109 212.719C175.85 200.449 154.592 188.176 133.335 175.9L197.101 139.082C218.361 151.355 239.619 163.628 260.876 175.9L197.109 212.719ZM181.209 157.855L179.057 159.098L181.152 160.311L183.256 159.098L181.116 157.86L183.273 156.617L181.169 155.404L179.061 156.617L181.209 157.855ZM178.976 177.191L176.698 178.502L174.55 177.26L172.361 178.522L174.509 179.764L170.099 182.301L167.724 181.156L158.993 186.201L163.298 188.686L165.661 187.549L176.726 193.937L174.57 195.179L176.674 196.393L178.782 195.179L176.633 193.941L178.806 192.687L176.86 191.36L178.725 190.065L176.69 188.88L174.497 189.972L172.474 188.795L176.868 186.258L181.124 188.714C181.933 188.237 182.674 187.82 183.394 187.411L185.684 188.787L183.451 190.094C184.312 190.587 184.992 190.984 185.676 191.38L183.523 192.622L185.623 193.836L187.735 192.622L185.587 191.384L187.869 190.073L190.017 191.311L194.435 188.763L192.283 187.52L196.672 184.984L194.544 183.77L192.157 184.927L187.828 182.406L185.635 183.673L183.479 182.406L181.375 183.62L183.487 184.834L185.635 183.62L187.844 184.895L183.394 187.472L174.493 182.325L176.714 181.043L178.863 182.285L181.051 181.023L178.903 179.78L181.189 178.534L183.446 179.704L185.716 178.522L192.319 182.333L194.508 181.071H194.374L198.942 183.709L203.514 181.071H203.425L205.581 182.317L208.086 181.104L212.362 183.572L214.604 182.447L216.679 183.661L214.826 184.947L216.918 186.161L221.267 183.652H221.166L223.395 184.939L221.502 186.23L223.525 187.63L214.802 192.667L216.865 193.856L219.119 192.772L221.352 193.852L225.657 191.368L223.581 190.021L227.926 187.512L225.932 186.226L230.253 183.729L232.527 184.834L234.788 183.733L236.937 184.834L252.396 175.909L250.183 174.63L245.906 177.098L243.827 175.884L245.728 174.585L243.802 173.275L245.756 172.061L243.657 170.847L241.355 171.964L239.206 170.722V170.774L241.355 169.536L230.192 163.087L228.04 164.333L225.758 163.014L227.894 161.78L223.411 159.195L219.123 161.671L216.918 160.53L212.536 163.063L214.688 164.305L212.524 165.555L210.04 164.341L205.666 166.866H205.759L199.136 163.038L196.636 164.252L192.376 161.792L190.26 163.006L192.238 164.365L190.094 165.603L185.583 163.006L187.739 161.772L185.635 160.558L183.523 161.772L185.672 163.014L181.157 165.612L179 164.361L180.966 163.01L176.625 160.506L174.477 161.744L170.099 159.215L167.963 160.449L169.796 161.699L167.708 162.913L165.584 161.816L163.488 163.03L165.475 164.386L163.327 165.624L161.174 164.378L159.07 165.591L161.178 166.805L163.331 165.563L165.491 166.809L163.5 168.185L170.002 171.939L172.074 170.726L170.099 169.374L174.477 166.85L176.641 168.096L174.501 169.573L185.631 176.002L181.181 178.567L178.895 177.191L181.023 175.933L178.923 174.719L176.811 175.933L178.976 177.191ZM214.688 156.557L212.403 157.799L210.315 156.585L203.615 160.457C204.4 160.906 205.08 161.303 205.759 161.695L203.603 162.937L205.707 164.151L207.819 162.937L205.666 161.699L212.399 157.746L214.599 159.017L216.732 157.783L214.599 156.569L216.756 155.323L214.652 154.109L212.54 155.323L214.688 156.557ZM210.153 187.5L212.301 186.258L210.113 184.992L207.964 186.234L203.603 183.717L197.016 187.52L199.039 188.69L201.236 187.618L207.786 191.4L205.897 192.614L214.604 197.68L216.784 196.421L210.177 192.606L214.604 190.069L210.153 187.5ZM172.049 175.933L156.623 167.032L141.196 175.933L156.623 184.834L172.049 175.933ZM212.229 152.733L196.802 143.832L181.371 152.733L196.798 161.634L212.229 152.733ZM212.257 199.116L196.802 190.179L181.371 199.08L196.83 208.005L212.257 199.116ZM172.389 173.262L174.485 174.476L176.471 173.331L174.372 172.117L172.389 173.262ZM174.449 159.045L176.504 157.86L174.481 156.69L172.43 157.876L174.449 159.045Z" fill="white"/>
<path d="M172.049 175.933L156.623 184.834L141.196 175.933L156.623 167.032L172.049 175.933ZM145.614 175.901L156.594 182.241L167.546 175.917L156.566 169.577L145.614 175.901Z" fill="black"/>
<path d="M225.758 163.006L228.04 164.325V164.272L223.666 166.797L221.481 165.535L225.859 163.006H225.758Z" fill="black"/>
<path d="M163.314 165.559L161.162 166.801L159.054 165.587L161.158 164.374L163.314 165.62V165.559Z" fill="black"/>
<path d="M185.635 183.62L183.487 184.834L181.375 183.62L183.479 182.406L185.635 183.653V183.62Z" fill="black"/>
<path d="M178.883 179.764L181.031 181.007L178.842 182.269L176.694 181.027V181.079L178.968 179.764H178.883Z" fill="black"/>
<path d="M214.604 156.569L216.736 157.783L214.604 159.033L212.403 157.759C212.403 157.759 212.403 157.815 212.403 157.811L214.689 156.569H214.604Z" fill="black"/>
<path d="M205.666 161.716L207.819 162.954L205.707 164.168L203.603 162.954L205.759 161.712L205.666 161.716Z" fill="black"/>
<path d="M176.649 193.938L178.798 195.176L176.69 196.389L174.586 195.176L176.742 193.934L176.649 193.938Z" fill="black"/>
<path d="M187.861 190.049L185.579 191.36H185.668L183.451 190.094L185.68 188.803H185.591L187.865 190.118L187.861 190.049Z" fill="black"/>
<path d="M178.887 177.191L181.173 178.567V178.514C180.412 178.919 179.647 179.348 178.887 179.765H178.976L176.702 178.45V178.502L178.98 177.191H178.887Z" fill="black"/>
<path d="M185.579 191.36L187.727 192.598L185.615 193.812L183.515 192.598L185.668 191.356L185.579 191.36Z" fill="black"/>
<path d="M214.688 156.569L212.54 155.327L214.652 154.113L216.756 155.327L214.603 156.569H214.688Z" fill="black"/>
<path d="M178.976 177.191L176.828 175.933L178.939 174.719L181.039 175.933L178.887 177.179L178.976 177.191Z" fill="black"/>
<path d="M174.509 179.764L172.361 178.522L174.55 177.26L176.698 178.502V178.45L174.42 179.764H174.509Z" fill="black"/>
<path d="M172.389 173.263L174.372 172.118L176.472 173.331L174.485 174.476L172.389 173.263Z" fill="black"/>
<path d="M207.944 186.234L210.092 184.992L212.281 186.258L210.153 187.5H210.242L207.968 186.186L207.944 186.234Z" fill="black"/>
<path d="M185.672 163.014L183.523 161.772L185.635 160.558L187.739 161.772L185.583 163.018L185.672 163.014Z" fill="black"/>
<path d="M181.116 157.856L183.256 159.094L181.153 160.307L179.057 159.094L181.209 157.852L181.116 157.856Z" fill="black"/>
<path d="M181.209 157.856L179.061 156.618L181.169 155.404L183.273 156.618L181.116 157.86L181.209 157.856Z" fill="black"/>
<path d="M174.449 159.045L172.426 157.876L174.477 156.69L176.5 157.86L174.449 159.045Z" fill="black"/>
<path d="M225.851 163.006L221.481 165.535L223.67 166.797L228.044 164.273L230.196 165.515L223.456 169.407L214.604 164.297L216.756 163.055L219.147 164.228L223.557 161.683L225.851 163.006Z" fill="white"/>
<path d="M203.53 181.059L199.148 178.526L201.297 177.288L203.465 178.397L205.577 177.183L201.293 174.719L203.522 173.433L205.674 174.537L207.912 173.441L212.285 175.933L203.441 181.043L203.53 181.059Z" fill="white"/>
<path d="M223.504 179.659L217.031 175.933L223.585 172.15L230.059 175.893L223.504 179.659ZM221.506 175.872L223.529 177.05L225.552 175.872L223.529 174.695L221.506 175.872Z" fill="white"/>
<path d="M205.666 166.87L207.823 168.112L201.252 171.911L194.779 168.157L196.842 166.967L198.991 168.072L201.26 166.979L203.607 168.124L205.784 166.87H205.666Z" fill="white"/>
<path d="M239.206 170.714L237.054 171.96L239.028 173.311L236.928 174.525L234.796 173.404L232.523 174.505L225.997 170.734L228.088 169.52L232.405 172.016L236.892 169.427L239.214 170.766L239.206 170.714Z" fill="white"/>
<path d="M183.349 166.874L185.498 165.632C186.307 166.037 187.023 166.376 187.925 166.817L190.102 165.559L192.254 166.801L190.272 168.149L192.149 169.459L189.977 170.714L183.349 166.874Z" fill="white"/>
<path d="M223.565 182.318L221.178 183.637H221.271L212.475 178.563L214.717 177.264L223.565 182.374V182.318Z" fill="white"/>
<path d="M174.465 166.898L169.958 164.297L174.465 161.695L176.617 162.937L174.635 164.281L176.633 165.648L174.465 166.898Z" fill="white"/>
<path d="M239.077 181.092L237.054 182.257L230.5 178.47L232.523 177.305L239.077 181.092Z" fill="white"/>
<path d="M194.597 178.47L190.146 175.897L194.597 173.323H194.508L196.656 174.566L194.718 175.881L196.672 177.22L194.504 178.47H194.597Z" fill="white"/>
<path d="M180.995 168.173L185.445 170.746L183.422 171.911L179.004 169.363C179.72 168.958 180.396 168.553 181.076 168.169L180.995 168.173Z" fill="white"/>
<path d="M243.527 178.486L241.472 179.671L237.155 177.179L239.21 175.994L243.527 178.486Z" fill="white"/>
<path d="M194.508 178.47L196.697 179.732L194.395 181.059H194.484L192.299 179.801L194.597 178.474L194.508 178.47Z" fill="white"/>
<path d="M216.918 170.738L214.777 169.5L216.881 168.286L218.977 169.5L216.829 170.742L216.918 170.738Z" fill="white"/>
<path d="M185.801 173.283L187.824 172.118L189.92 173.331L187.897 174.497L185.801 173.283Z" fill="white"/>
<path d="M216.829 170.738L218.977 171.976L216.869 173.19L214.765 171.976L216.918 170.734L216.829 170.738Z" fill="white"/>
<path d="M230.435 168.156L232.458 166.987L234.513 168.173L232.49 169.342L230.435 168.156Z" fill="white"/>
<path d="M181.161 165.559L183.438 166.874L181.011 168.173H181.104L178.879 166.89L181.161 165.559Z" fill="white"/>
<path d="M223.565 182.37L225.713 181.128L227.821 182.342L225.721 183.555L223.565 182.313V182.37Z" fill="white"/>
<path d="M194.601 173.323L192.453 172.085L194.564 170.872L196.664 172.085L194.512 173.327L194.601 173.323Z" fill="white"/>
<path d="M145.614 175.889L156.566 169.565L167.546 175.905L156.594 182.229L145.614 175.889ZM150.064 175.889L156.586 179.651L163.059 175.905L156.542 172.142L150.064 175.889Z" fill="white"/>
<path d="M196.858 146.329L207.782 152.641L196.765 159.001L185.842 152.689L196.858 146.329ZM196.773 156.468L203.287 152.706L196.814 148.959L190.296 152.722L196.773 156.468Z" fill="white"/>
<path d="M196.858 192.728L207.782 199.039L196.765 205.399L185.842 199.088L196.858 192.728ZM196.773 202.871L203.295 199.104L196.802 195.353L190.276 199.12L196.773 202.871Z" fill="white"/>
<path d="M176.694 181.079C177.952 181.079 178.972 180.491 178.972 179.764C178.972 179.038 177.952 178.449 176.694 178.449C175.436 178.449 174.416 179.038 174.416 179.764C174.416 180.491 175.436 181.079 176.694 181.079Z" fill="white"/>
<path d="M169.836 184.927L167.813 186.096L165.758 184.911L167.781 183.742L169.836 184.927Z" fill="white"/>
<path d="M207.948 186.181L210.222 187.496L208.078 188.738L205.8 187.424L207.948 186.181Z" fill="white"/>
<path d="M187.856 190.094L185.583 188.779L190.09 186.173L192.367 187.488L187.856 190.094Z" fill="white"/>
<path d="M221.518 175.872L223.541 174.695L225.564 175.872L223.541 177.05L221.518 175.872Z" fill="black"/>
<path d="M150.072 175.889L156.546 172.142L163.064 175.905L156.59 179.651L150.072 175.889Z" fill="black"/>
<path d="M196.774 156.468L190.3 152.722L196.818 148.959L203.291 152.706L196.774 156.468Z" fill="black"/>
<path d="M196.773 202.871L190.276 199.12L196.802 195.354L203.275 199.104L196.773 202.871Z" fill="black"/>
<g opacity="0.2">
<path d="M248.589 240.264L249.054 239.993L250.429 241.287C250.597 241.469 250.824 241.585 251.069 241.615C251.315 241.645 251.563 241.586 251.769 241.449C252.007 241.312 252.137 241.158 252.173 240.992C252.173 240.887 252.147 240.784 252.1 240.69C252.052 240.597 251.983 240.516 251.898 240.454L250.522 239.159L250.992 238.888L252.404 240.211C252.533 240.302 252.637 240.424 252.708 240.565C252.779 240.706 252.813 240.863 252.808 241.02C252.764 241.275 252.541 241.522 252.141 241.753C251.808 241.967 251.416 242.071 251.02 242.052C250.647 242.013 250.3 241.846 250.037 241.579L248.589 240.264Z" fill="#F0FBF6"/>
<path d="M253.868 240.636L251.514 238.419L254.75 238.658L255.026 238.686L255.341 238.734L253.771 237.258L254.204 237.007L256.559 239.22L253.27 238.977C253.181 238.977 253.092 238.977 253.003 238.949L252.736 238.9L254.309 240.385L253.868 240.636Z" fill="#F0FBF6"/>
<path d="M257.137 238.747L254.872 236.614L255.341 236.343L257.607 238.475L257.137 238.747Z" fill="#F0FBF6"/>
<path d="M258.299 238.083L256.033 235.95L257.651 235.016L257.967 235.311L256.818 235.975L257.38 236.505L258.529 235.841L258.853 236.145L257.704 236.808L258.768 237.812L258.299 238.083Z" fill="#F0FBF6"/>
<path d="M260.427 236.849L258.161 234.717L258.63 234.446L260.896 236.574L260.427 236.849Z" fill="#F0FBF6"/>
<path d="M261.576 236.185L259.31 234.053L260.928 233.118L261.24 233.414L260.095 234.073L260.661 234.607L261.81 233.948L262.134 234.251L260.985 234.915L261.717 235.603L262.866 234.939L263.194 235.247L261.576 236.185Z" fill="#F0FBF6"/>
<path d="M263.874 234.353L264.278 234.122C264.443 234.035 264.596 233.929 264.736 233.806C264.814 233.732 264.873 233.639 264.905 233.535C264.943 233.401 264.934 233.259 264.881 233.131C264.811 232.976 264.709 232.839 264.582 232.726C264.448 232.597 264.291 232.493 264.121 232.419C263.956 232.347 263.778 232.307 263.599 232.301C263.461 232.3 263.324 232.322 263.194 232.366C262.996 232.44 262.805 232.532 262.624 232.641L262.454 232.742L262.284 232.839L263.874 234.353ZM263.736 234.935L261.471 232.807L262.106 232.439C262.4 232.259 262.708 232.105 263.028 231.978C263.225 231.915 263.429 231.88 263.635 231.876C263.9 231.873 264.163 231.922 264.409 232.02C264.655 232.119 264.878 232.265 265.067 232.451C265.247 232.607 265.386 232.804 265.472 233.025C265.539 233.214 265.539 233.42 265.472 233.608C265.416 233.763 265.323 233.902 265.201 234.013C264.983 234.199 264.746 234.36 264.493 234.494L264.367 234.567L263.736 234.935Z" fill="#F0FBF6"/>
<path d="M267.119 230.982L267.24 230.909C267.421 230.829 267.578 230.703 267.697 230.545C267.742 230.452 267.697 230.355 267.592 230.25C267.54 230.196 267.477 230.154 267.407 230.127C267.337 230.099 267.262 230.088 267.187 230.092C266.976 230.121 266.773 230.199 266.597 230.319L266.475 230.387L267.119 230.982ZM267.39 231.282L268.409 232.236L267.964 232.495L265.703 230.363L266.415 229.959C266.572 229.863 266.737 229.782 266.908 229.716C267.021 229.676 267.14 229.652 267.26 229.647C267.405 229.645 267.55 229.671 267.685 229.724C267.823 229.778 267.949 229.858 268.057 229.959C268.156 230.046 268.231 230.158 268.276 230.282C268.316 230.386 268.316 230.502 268.276 230.606C268.236 230.696 268.177 230.777 268.102 230.841C267.965 230.951 267.819 231.049 267.665 231.132L267.572 231.189L267.39 231.282Z" fill="#F0FBF6"/>
<path d="M269.627 230.186L270.436 229.716L269.627 229.401L269.461 229.328L269.259 229.223C269.292 229.274 269.322 229.328 269.348 229.384C269.372 229.43 269.394 229.478 269.413 229.526L269.627 230.186ZM271.82 230.266L270.909 229.91L269.76 230.574L270.007 231.314L269.51 231.602L268.563 228.575L272.317 229.979L271.82 230.266Z" fill="#F0FBF6"/>
<path d="M272.997 229.591L271.957 228.616L269.752 228.025L270.25 227.738L271.626 228.11L271.759 228.15L271.929 228.211C271.911 228.169 271.896 228.126 271.885 228.081C271.873 228.042 271.865 228.001 271.86 227.96L271.727 226.884L272.196 226.613L272.427 228.344L273.462 229.32L272.997 229.591Z" fill="#F0FBF6"/>
<path d="M276.027 226.143L275.854 226.018L275.663 225.88C275.702 225.936 275.737 225.994 275.769 226.054C275.797 226.119 275.821 226.185 275.841 226.252L276.29 227.826L274.3 227.106C274.219 227.078 274.142 227.045 274.069 227.013C274 226.985 273.932 226.952 273.867 226.916C273.916 226.963 273.962 227.013 274.005 227.066C274.049 227.122 274.09 227.182 274.126 227.244L274.935 228.457L274.502 228.708L272.823 226.103L275.109 226.956L275.283 227.025L275.574 227.155C275.529 227.053 275.49 226.949 275.457 226.843C275.451 226.817 275.443 226.791 275.433 226.766L274.842 224.938L277.905 226.754L277.464 227.009L276.027 226.143Z" fill="#F0FBF6"/>
<path d="M278.281 226.536L276.015 224.408L277.634 223.473L277.949 223.764L276.8 224.428L277.367 224.962L278.516 224.299L278.839 224.606L277.69 225.266L278.423 225.957L279.572 225.294L279.899 225.601L278.281 226.536Z" fill="#F0FBF6"/>
<path d="M280.441 225.294L278.087 223.081L281.323 223.315L281.603 223.348L281.914 223.396L280.344 221.915L280.781 221.665L283.132 223.878L279.843 223.639L279.576 223.611L279.309 223.562L280.882 225.043L280.441 225.294Z" fill="#F0FBF6"/>
<path d="M282.687 221.029L284.641 222.866L284.168 223.137L282.214 221.3L281.445 221.745L281.133 221.454L283.156 220.293L283.472 220.584L282.687 221.029Z" fill="#F0FBF6"/>
<path d="M285.147 221.883L285.39 221.539C285.513 221.608 285.653 221.644 285.794 221.644C285.951 221.635 286.104 221.587 286.239 221.507C286.298 221.481 286.35 221.442 286.392 221.394C286.434 221.346 286.464 221.289 286.482 221.227C286.492 221.171 286.487 221.113 286.465 221.06C286.444 221.007 286.407 220.961 286.361 220.928C286.231 220.803 285.956 220.77 285.584 220.839H285.458C285.139 220.903 284.812 220.922 284.487 220.896C284.292 220.869 284.11 220.783 283.965 220.649C283.883 220.583 283.82 220.496 283.784 220.396C283.747 220.297 283.739 220.19 283.759 220.087C283.795 219.971 283.854 219.865 283.934 219.774C284.013 219.684 284.111 219.611 284.22 219.561C284.413 219.444 284.628 219.37 284.851 219.342C285.049 219.317 285.249 219.348 285.43 219.431L285.208 219.783C285.094 219.752 284.977 219.74 284.86 219.747C284.759 219.756 284.661 219.786 284.572 219.836C284.52 219.86 284.474 219.895 284.436 219.938C284.397 219.982 284.368 220.032 284.35 220.087C284.339 220.134 284.343 220.184 284.359 220.229C284.376 220.275 284.405 220.315 284.443 220.345C284.58 220.471 284.872 220.499 285.317 220.418H285.398C285.691 220.354 285.993 220.335 286.292 220.362C286.49 220.387 286.675 220.477 286.818 220.617C286.913 220.689 286.987 220.786 287.032 220.897C287.077 221.008 287.091 221.129 287.073 221.248C287.033 221.375 286.966 221.493 286.878 221.594C286.789 221.694 286.68 221.775 286.559 221.83C286.335 221.967 286.08 222.043 285.818 222.053C285.575 222.064 285.334 222.002 285.127 221.875" fill="#F0FBF6"/>
<path d="M289.229 220.216L286.963 218.084L287.437 217.813L289.702 219.945L289.229 220.216Z" fill="#F0FBF6"/>
<path d="M290.378 219.553L288.023 217.335L291.26 217.574L291.539 217.606C291.632 217.606 291.737 217.631 291.851 217.651L290.261 216.174L290.698 215.923L293.048 218.136L289.759 217.898L289.492 217.869L289.225 217.821L290.799 219.302L290.378 219.553Z" fill="#F0FBF6"/>
<path d="M292.624 215.292L294.578 217.129L294.104 217.4L292.154 215.583L291.381 216.028L291.07 215.733L293.093 214.576L293.404 214.867L292.624 215.292Z" fill="#F0FBF6"/>
<path d="M295.706 216.478L293.441 214.346L295.059 213.411L295.371 213.706L294.226 214.37L294.792 214.904L295.941 214.244L296.265 214.548L295.116 215.207L295.848 215.895L296.993 215.232L297.325 215.543L295.706 216.478Z" fill="#F0FBF6"/>
<path d="M297.038 213.735L297.123 213.686C297.294 213.609 297.443 213.488 297.551 213.334C297.588 213.245 297.551 213.144 297.434 213.035C297.382 212.98 297.319 212.937 297.25 212.907C297.18 212.878 297.105 212.864 297.029 212.865C296.828 212.888 296.635 212.96 296.467 213.075L296.382 213.124L297.038 213.735ZM297.292 214.022L298.308 214.973L297.867 215.228L295.601 213.099L296.261 212.719C296.411 212.625 296.571 212.548 296.738 212.488C296.856 212.445 296.981 212.421 297.106 212.42C297.245 212.422 297.382 212.449 297.511 212.501C297.644 212.552 297.767 212.629 297.871 212.727C297.948 212.786 298.01 212.861 298.055 212.947C298.099 213.033 298.123 213.128 298.126 213.225C298.112 213.32 298.076 213.411 298.023 213.491C297.969 213.571 297.897 213.637 297.814 213.686L299.837 214.091L299.303 214.398L297.325 213.994L297.292 214.022Z" fill="#F0FBF6"/>
<path d="M300.141 213.916L297.875 211.784L299.493 210.85L299.809 211.145L298.66 211.808L299.222 212.339L300.371 211.675L300.695 211.978L299.566 212.642L300.63 213.641L300.141 213.916Z" fill="#F0FBF6"/>
<path d="M301.848 211.578L302.657 211.113L301.848 210.797L301.682 210.72L301.484 210.619L301.569 210.777C301.593 210.829 301.617 210.874 301.634 210.918L301.848 211.578ZM304.045 211.663L303.131 211.303L301.982 211.966L302.228 212.711L301.731 212.998L300.784 209.972L304.543 211.376L304.045 211.663Z" fill="#F0FBF6"/>
<path d="M305.36 208.301C305.151 208.292 304.941 208.311 304.737 208.357C304.549 208.4 304.367 208.47 304.199 208.564C304.064 208.628 303.946 208.721 303.854 208.838C303.761 208.954 303.697 209.09 303.665 209.235C303.649 209.378 303.67 209.522 303.726 209.654C303.782 209.785 303.871 209.901 303.984 209.988C304.228 210.22 304.543 210.363 304.878 210.393C305.215 210.435 305.556 210.365 305.849 210.194C306.004 210.103 306.141 209.986 306.254 209.846C306.361 209.709 306.439 209.553 306.485 209.385L306.889 209.79C306.83 209.939 306.744 210.076 306.634 210.194C306.506 210.323 306.36 210.433 306.201 210.522C305.983 210.649 305.747 210.744 305.501 210.801C305.256 210.854 305.003 210.87 304.753 210.85C304.509 210.831 304.27 210.774 304.045 210.68C303.83 210.588 303.631 210.461 303.458 210.304C303.305 210.163 303.185 209.99 303.106 209.798C303.038 209.622 303.018 209.43 303.05 209.243C303.088 209.053 303.171 208.874 303.292 208.722C303.438 208.546 303.615 208.399 303.814 208.289C303.986 208.19 304.17 208.114 304.361 208.062C304.564 208.007 304.773 207.976 304.984 207.969L305.36 208.301Z" fill="#F0FBF6"/>
<path d="M307.658 209.575L305.392 207.443L307.011 206.508L307.326 206.804L306.177 207.467L306.744 208.001L307.893 207.338L308.216 207.641L307.067 208.305L307.799 208.993L308.949 208.329L309.276 208.641L307.658 209.575Z" fill="#F0FBF6"/>
<path d="M293.497 211.327L290.261 213.2L278.483 201.188L281.72 199.319L293.497 211.327Z" fill="#F0FBF6"/>
<path d="M276.023 203.191C275.498 203.14 274.97 203.256 274.514 203.522L256.68 213.819L258.986 216.17L262.223 214.297L275.21 206.804L277.674 209.316L264.699 216.797L261.462 218.67L268.486 225.836L271.723 223.963L267.009 219.152L281.591 210.728C281.79 210.627 281.965 210.485 282.105 210.31C282.244 210.136 282.345 209.933 282.4 209.717C282.446 209.515 282.437 209.304 282.375 209.106C282.312 208.908 282.198 208.731 282.044 208.592L277.326 203.781C276.975 203.429 276.508 203.216 276.011 203.183" fill="#F0FBF6"/>
<path d="M265.5 226.309C265.965 226.787 265.824 227.381 265.156 227.77L248.423 237.432C247.975 237.694 247.454 237.806 246.938 237.751C246.45 237.722 245.989 237.515 245.643 237.169L235.031 226.325L238.268 224.452L247.747 234.134L260.726 226.633L251.259 216.951L254.496 215.078L265.5 226.309Z" fill="#F0FBF6"/>
<path d="M287.336 196.102L299.607 198.445L299.137 208.155L287.336 196.102Z" fill="white"/>
<path d="M284.455 197.781L296.722 200.128L296.253 209.838L284.455 197.781Z" fill="white"/>
</g>
<path d="M365.695 223.635L282.149 271.879L260.439 259.344L343.985 211.1L365.695 223.635Z" fill="white"/>
<path d="M283.901 261.707L277.253 257.868L279.875 256.354C280.362 256.069 280.897 255.873 281.453 255.776C281.988 255.682 282.536 255.682 283.071 255.776C283.581 255.859 284.072 256.033 284.52 256.29C284.891 256.475 285.199 256.769 285.402 257.131C285.475 257.276 285.511 257.438 285.505 257.601C285.498 257.764 285.45 257.923 285.365 258.062C285.112 258.454 284.759 258.771 284.342 258.98L282.671 259.943L281.542 259.296L282.978 258.43C283.192 258.325 283.374 258.164 283.504 257.965C283.545 257.895 283.566 257.816 283.566 257.736C283.566 257.656 283.545 257.577 283.504 257.507C283.393 257.335 283.238 257.195 283.055 257.103C282.837 256.975 282.597 256.887 282.347 256.844C282.087 256.797 281.822 256.797 281.562 256.844C281.277 256.902 281.003 257.007 280.753 257.155L279.806 257.702L285.309 260.898L283.901 261.707Z" fill="black"/>
<path d="M291.179 257.597C290.864 257.784 290.521 257.921 290.164 258.001C289.807 258.081 289.439 258.1 289.075 258.058C288.71 258.013 288.357 257.893 288.04 257.706C287.816 257.596 287.627 257.427 287.493 257.216C287.45 257.14 287.424 257.055 287.417 256.968C287.41 256.881 287.422 256.793 287.453 256.711C287.528 256.523 287.644 256.354 287.793 256.217C287.973 256.042 288.168 255.882 288.375 255.74C288.634 255.553 288.841 255.4 288.99 255.282C289.102 255.21 289.193 255.11 289.253 254.991C289.282 254.914 289.253 254.841 289.136 254.781H289.116C288.912 254.664 288.679 254.608 288.444 254.619C288.191 254.631 287.945 254.706 287.728 254.837C287.481 254.979 287.323 255.125 287.299 255.274C287.28 255.346 287.28 255.422 287.301 255.493C287.322 255.564 287.362 255.629 287.416 255.679L286.037 256.359C285.822 256.192 285.678 255.951 285.632 255.683C285.619 255.553 285.632 255.423 285.671 255.298C285.709 255.174 285.771 255.059 285.855 254.959C286.096 254.668 286.391 254.428 286.725 254.251C287.01 254.087 287.311 253.951 287.623 253.846C287.94 253.737 288.268 253.663 288.602 253.628C288.932 253.594 289.266 253.605 289.593 253.66C289.924 253.717 290.242 253.833 290.532 254.004L293.894 255.946L292.583 256.702L291.891 256.298L291.851 256.322C291.922 256.444 291.953 256.586 291.94 256.727C291.915 256.891 291.843 257.044 291.733 257.168C291.575 257.342 291.387 257.487 291.179 257.597V257.597ZM290.621 256.816C290.788 256.729 290.928 256.597 291.025 256.435C291.062 256.375 291.085 256.308 291.092 256.238C291.099 256.168 291.09 256.097 291.066 256.031C290.994 255.88 290.875 255.758 290.726 255.683L290.196 255.379C290.173 255.434 290.138 255.484 290.095 255.525C290.037 255.59 289.975 255.651 289.909 255.707L289.678 255.893L289.46 256.063C289.34 256.15 289.235 256.255 289.148 256.375C289.117 256.414 289.094 256.46 289.081 256.509C289.069 256.557 289.067 256.608 289.075 256.658C289.095 256.712 289.125 256.762 289.163 256.804C289.202 256.847 289.249 256.881 289.302 256.905C289.495 257.014 289.717 257.059 289.937 257.034C290.178 257.011 290.411 256.937 290.621 256.816V256.816Z" fill="black"/>
<path d="M297.511 255.99C297.339 256.091 297.161 256.178 296.977 256.253C296.822 256.318 296.662 256.371 296.499 256.411L295.775 255.638C295.956 255.587 296.13 255.518 296.297 255.432C296.41 255.383 296.499 255.293 296.548 255.181C296.561 255.123 296.558 255.063 296.541 255.006C296.524 254.95 296.493 254.898 296.451 254.857L296.321 254.687L289.403 252.757L290.859 251.92L295.553 253.437L295.605 253.409L292.984 250.69L294.448 249.844L298.037 254.153C298.196 254.332 298.307 254.547 298.36 254.78C298.38 254.887 298.378 254.996 298.354 255.102C298.33 255.207 298.286 255.307 298.223 255.395C298.034 255.645 297.79 255.848 297.511 255.99V255.99Z" fill="black"/>
<path d="M296.997 246.45L303.644 250.29L302.261 251.099L295.613 247.263L296.997 246.45Z" fill="black"/>
<path d="M306.266 248.885C305.948 249.07 305.605 249.207 305.247 249.29C304.891 249.368 304.524 249.386 304.162 249.343C303.795 249.297 303.441 249.178 303.122 248.991C302.899 248.88 302.711 248.711 302.576 248.501C302.535 248.425 302.51 248.341 302.504 248.254C302.497 248.168 302.51 248.081 302.54 247.999C302.614 247.811 302.728 247.641 302.876 247.502C303.056 247.327 303.251 247.167 303.458 247.024C303.721 246.838 303.924 246.689 304.077 246.567C304.189 246.495 304.28 246.394 304.34 246.276C304.365 246.199 304.34 246.13 304.219 246.065C304.017 245.947 303.785 245.889 303.551 245.9C303.298 245.911 303.052 245.986 302.835 246.118C302.584 246.264 302.431 246.409 302.406 246.555C302.387 246.627 302.388 246.702 302.408 246.774C302.429 246.845 302.469 246.909 302.524 246.96L301.14 247.635C300.927 247.467 300.783 247.227 300.735 246.96C300.723 246.83 300.737 246.7 300.776 246.576C300.814 246.453 300.878 246.338 300.962 246.239C301.201 245.945 301.497 245.703 301.832 245.527C302.116 245.364 302.416 245.229 302.726 245.123C303.043 245.014 303.372 244.941 303.705 244.904C304.037 244.87 304.372 244.881 304.7 244.937C305.03 244.995 305.346 245.112 305.635 245.281L309.001 247.223L307.658 247.951L306.966 247.546L306.93 247.571C307 247.693 307.031 247.834 307.019 247.975C306.995 248.139 306.923 248.293 306.812 248.416C306.658 248.603 306.474 248.761 306.266 248.885ZM305.708 248.105C305.874 248.016 306.013 247.884 306.112 247.724C306.148 247.664 306.17 247.596 306.177 247.526C306.183 247.456 306.173 247.386 306.149 247.32C306.081 247.168 305.962 247.045 305.813 246.972L305.283 246.664C305.258 246.718 305.224 246.768 305.182 246.81C305.129 246.867 305.064 246.927 304.992 246.992C304.919 247.057 304.842 247.117 304.761 247.182L304.547 247.348C304.427 247.435 304.322 247.54 304.235 247.66C304.204 247.699 304.181 247.744 304.168 247.793C304.156 247.842 304.154 247.893 304.162 247.943C304.18 247.997 304.209 248.047 304.247 248.09C304.285 248.133 304.332 248.167 304.385 248.19C304.578 248.3 304.803 248.346 305.024 248.319C305.265 248.301 305.499 248.227 305.708 248.105Z" fill="black"/>
<path d="M307.719 242.177L308.758 242.78L305.756 244.512L304.717 243.913L307.719 242.177ZM304.203 242.828L305.586 242.019L310.235 244.702C310.345 244.769 310.465 244.815 310.591 244.839C310.694 244.862 310.8 244.862 310.903 244.839C311.003 244.813 311.1 244.774 311.19 244.722C311.252 244.686 311.312 244.646 311.368 244.601L311.489 244.495L312.735 244.965C312.687 245.017 312.614 245.09 312.517 245.179C312.391 245.29 312.256 245.388 312.112 245.475C311.8 245.67 311.458 245.814 311.101 245.903C310.756 245.988 310.398 246.009 310.045 245.964C309.686 245.919 309.341 245.8 309.029 245.616L304.203 242.828Z" fill="black"/>
<path d="M315.923 243.314C315.424 243.604 314.875 243.802 314.305 243.897C313.728 243.99 313.139 243.982 312.565 243.873C311.98 243.766 311.417 243.557 310.903 243.258C310.473 243.041 310.109 242.713 309.851 242.307C309.758 242.156 309.704 241.985 309.693 241.809C309.682 241.633 309.714 241.456 309.786 241.295C310 240.896 310.334 240.573 310.741 240.373C311.079 240.179 311.44 240.031 311.817 239.932C312.213 239.826 312.621 239.773 313.031 239.774C313.467 239.772 313.901 239.829 314.321 239.944C314.774 240.064 315.208 240.245 315.612 240.482L315.992 240.701L311.78 243.128L310.923 242.63L313.832 240.951C313.627 240.836 313.404 240.758 313.172 240.721C312.934 240.684 312.691 240.684 312.452 240.721C312.218 240.755 311.993 240.833 311.789 240.951C311.614 241.04 311.473 241.182 311.384 241.356C311.351 241.425 311.334 241.5 311.334 241.576C311.334 241.653 311.351 241.728 311.384 241.797C311.477 241.968 311.617 242.109 311.789 242.202L312.598 242.671C312.839 242.81 313.101 242.909 313.375 242.962C313.642 243.007 313.916 243.007 314.184 242.962C314.446 242.922 314.699 242.833 314.928 242.699C315.062 242.627 315.182 242.533 315.284 242.42C315.362 242.337 315.409 242.23 315.418 242.117C315.418 242.006 315.38 241.898 315.308 241.813L316.672 241.125C316.889 241.297 317.034 241.544 317.077 241.817C317.096 242.089 317.011 242.359 316.838 242.57C316.586 242.876 316.275 243.129 315.923 243.314Z" fill="black"/>
<path d="M319.014 241.413L314.03 238.536L315.369 237.763L316.239 238.265L316.292 238.232C316.196 238.153 316.123 238.049 316.08 237.931C316.037 237.814 316.027 237.688 316.049 237.565C316.089 237.441 316.155 237.327 316.241 237.23C316.327 237.132 316.433 237.053 316.551 236.998C316.627 236.954 316.705 236.913 316.785 236.877C316.865 236.839 316.948 236.805 317.032 236.776L318.246 237.484C318.137 237.52 318.03 237.562 317.926 237.609C317.811 237.659 317.698 237.715 317.59 237.779C317.418 237.87 317.277 238.011 317.186 238.184C317.152 238.25 317.134 238.324 317.134 238.398C317.134 238.473 317.152 238.546 317.186 238.613C317.275 238.787 317.416 238.929 317.59 239.017L320.422 240.636L319.014 241.413Z" fill="black"/>
<path d="M345.85 223.736L334.902 230.059L333.903 229.485L344.855 223.161L345.85 223.736Z" fill="black"/>
<path d="M346.182 226.038H344.774V223.784H340.866V222.971H346.182V226.038Z" fill="black"/>
<path d="M395.359 243.65C396.312 244.123 397.114 244.853 397.674 245.757C398.235 246.661 398.532 247.704 398.531 248.768V327.721L307.613 380.217V301.357C307.613 300.25 307.331 299.16 306.792 298.192C306.253 297.224 305.476 296.41 304.534 295.827L395.359 243.662V243.65Z" fill="white"/>
<path d="M317.214 314.693L372.553 282.738" stroke="black" stroke-width="1.51545" stroke-linecap="round" stroke-linejoin="round"/>
<path d="M317.214 330.1L372.553 298.145" stroke="black" stroke-width="1.51545" stroke-linecap="round" stroke-linejoin="round"/>
<path d="M317.214 345.511L372.553 313.556" stroke="black" stroke-width="1.51545" stroke-linecap="round" stroke-linejoin="round"/>
<path d="M317.404 359.215L317.376 357.964L322.591 355.043L322.619 356.293L320.596 357.426L320.762 364.41L319.589 365.069L319.419 358.082L317.404 359.215Z" fill="#28404E"/>
<path d="M325.164 362.071C324.794 362.315 324.35 362.421 323.91 362.37C323.729 362.332 323.559 362.253 323.413 362.138C323.267 362.024 323.149 361.878 323.068 361.711C322.839 361.242 322.727 360.724 322.741 360.202C322.722 359.579 322.805 358.957 322.988 358.361C323.159 357.795 323.426 357.263 323.776 356.787C324.106 356.338 324.526 355.964 325.01 355.69C325.381 355.447 325.824 355.341 326.265 355.391C326.446 355.43 326.617 355.51 326.763 355.625C326.909 355.74 327.026 355.887 327.106 356.055C327.335 356.526 327.449 357.044 327.438 357.568C327.456 358.19 327.371 358.81 327.187 359.405C327.011 359.971 326.737 360.502 326.378 360.974C326.055 361.421 325.641 361.795 325.164 362.071V362.071ZM325.164 360.902C325.431 360.748 325.652 360.528 325.808 360.262C325.984 359.97 326.11 359.65 326.18 359.316C326.26 358.956 326.295 358.588 326.285 358.219C326.285 357.895 326.233 357.572 326.131 357.264C326.101 357.156 326.05 357.055 325.98 356.967C325.911 356.879 325.825 356.805 325.727 356.75C325.618 356.711 325.502 356.699 325.387 356.715C325.273 356.731 325.164 356.775 325.071 356.844C324.799 356.996 324.573 357.218 324.416 357.487C324.236 357.781 324.109 358.104 324.039 358.442C323.959 358.803 323.924 359.172 323.934 359.542C323.934 359.864 323.986 360.184 324.088 360.489C324.117 360.597 324.167 360.699 324.237 360.786C324.306 360.874 324.394 360.946 324.493 360.999C324.601 361.035 324.717 361.045 324.83 361.028C324.943 361.011 325.051 360.968 325.144 360.902H325.164Z" fill="#28404E"/>
<path d="M330.788 352.539L330.816 353.664L327.984 355.241L327.956 354.117L330.788 352.539ZM328.627 352.247L329.784 351.6L329.922 357.398C329.916 357.538 329.945 357.677 330.007 357.803C330.025 357.837 330.053 357.866 330.088 357.885C330.123 357.903 330.162 357.911 330.201 357.908C330.294 357.898 330.384 357.868 330.464 357.819C330.534 357.78 330.6 357.735 330.662 357.685C330.723 357.641 330.768 357.6 330.8 357.572L331.022 358.604C330.962 358.664 330.877 358.741 330.764 358.838C330.637 358.945 330.501 359.041 330.359 359.126C330.124 359.281 329.854 359.374 329.574 359.397C329.466 359.404 329.357 359.385 329.258 359.339C329.159 359.294 329.073 359.225 329.008 359.138C328.846 358.884 328.768 358.585 328.785 358.284L328.627 352.247Z" fill="#28404E"/>
<path d="M333.317 357.511C333.062 357.669 332.77 357.757 332.471 357.766C332.355 357.769 332.24 357.744 332.135 357.692C332.031 357.641 331.941 357.565 331.872 357.471C331.7 357.202 331.616 356.887 331.629 356.569C331.617 356.248 331.663 355.927 331.763 355.622C331.857 355.341 331.993 355.076 332.168 354.837C332.343 354.602 332.541 354.385 332.758 354.19C332.977 353.998 333.207 353.818 333.446 353.652L334.142 353.158C334.293 353.056 334.43 352.934 334.546 352.794C334.627 352.685 334.668 352.553 334.664 352.418V352.393C334.664 352.09 334.579 351.896 334.429 351.807C334.279 351.718 334.077 351.754 333.81 351.904C333.541 352.048 333.312 352.257 333.143 352.511C332.992 352.736 332.884 352.987 332.823 353.251L331.739 353.656C331.813 353.245 331.95 352.848 332.143 352.478C332.328 352.121 332.566 351.794 332.847 351.507C333.123 351.224 333.437 350.981 333.782 350.787C334.005 350.661 334.243 350.565 334.49 350.5C334.702 350.441 334.925 350.441 335.137 350.5C335.242 350.53 335.339 350.581 335.423 350.651C335.506 350.72 335.574 350.807 335.623 350.904C335.765 351.192 335.833 351.51 335.821 351.831L335.922 355.966L334.809 356.585V355.735L334.773 355.76C334.699 355.982 334.605 356.198 334.49 356.403C334.361 356.631 334.203 356.842 334.021 357.03C333.811 357.224 333.574 357.386 333.317 357.511V357.511ZM333.592 356.273C333.822 356.142 334.026 355.967 334.19 355.76C334.354 355.553 334.483 355.32 334.571 355.072C334.656 354.846 334.699 354.605 334.696 354.364V353.635C334.645 353.713 334.584 353.784 334.514 353.846C334.429 353.923 334.332 354.008 334.227 354.089L333.911 354.331L333.644 354.534C333.478 354.654 333.324 354.789 333.183 354.938C333.055 355.075 332.949 355.231 332.867 355.399C332.79 355.563 332.754 355.744 332.762 355.925C332.762 356.192 332.851 356.354 333.009 356.403C333.213 356.435 333.421 356.389 333.592 356.273V356.273Z" fill="#28404E"/>
<path d="M338.026 346.401L338.22 354.635L337.067 355.282L336.869 347.044L338.026 346.401Z" fill="#28404E"/>
<path d="M91.3487 271.539V271.572L82.9931 289.262L59.8098 263.486L59.9093 263.303L82.9931 217.833L91.3487 271.539Z" fill="#5CC892"/>
<path d="M83.0002 289.262L91.3494 271.572L83.0002 217.833L108.973 261.399L83.0002 289.262Z" fill="#B4FACD"/>
<path d="M108.973 261.433L83.0002 289.262L91.3494 271.594L108.973 261.433Z" fill="#5CC892"/>
<path d="M91.3487 271.529V271.562L82.9931 289.262L59.8098 263.47L59.9093 263.288L91.3487 271.529Z" fill="#309F65"/>
<path d="M56.1462 239.843V239.851L53.9737 244.962L47.9379 237.513L47.9653 237.464L53.9737 224.327L56.1462 239.843Z" fill="#5CC892"/>
<path d="M53.9738 244.962L56.1462 239.851L53.9738 224.327L60.7374 236.914L53.9738 244.962Z" fill="#B4FACD"/>
<path d="M60.7374 236.914L53.9738 244.962L56.1462 239.852L60.7374 236.914Z" fill="#5CC892"/>
<path d="M56.1462 239.844V239.852L53.9737 244.962L47.9379 237.513L47.9653 237.465L56.1462 239.844Z" fill="#309F65"/>
<path d="M122.283 270.533V270.537L120.678 274.453L116.219 268.749L116.241 268.708L120.678 258.65L122.283 270.533Z" fill="#5CC892"/>
<path d="M120.678 274.453L122.283 270.537L120.678 258.65L125.67 268.287L120.678 274.453Z" fill="#B4FACD"/>
<path d="M125.67 268.287L120.678 274.453L122.283 270.537L125.67 268.287Z" fill="#5CC892"/>
<path d="M122.283 270.533V270.537L120.678 274.453L116.219 268.748L116.241 268.708L122.283 270.533Z" fill="#309F65"/>
<path d="M97.5897 63.4799L52.8144 89.3335L8.03506 63.4799L52.8144 37.6262L97.5897 63.4799Z" fill="#375C66"/>
<path d="M89.2229 110.615V80.3838L52.8144 101.447V131.638L89.2229 110.615Z" fill="#375C66"/>
<path d="M16.4018 110.615V80.4202L52.8144 101.447V131.638L16.4018 110.615Z" fill="#1B3646"/>
<path d="M97.5897 63.48V75.5895L52.8144 101.447V89.3336L97.5897 63.48Z" fill="#375C66"/>
<path d="M97.5897 51.366V63.4795L52.8144 89.3332V77.2196L97.5897 51.366Z" fill="#213540"/>
<path d="M52.8144 89.3336L8.03506 63.48V75.6178L52.8144 101.447V89.3336Z" fill="#28404E"/>
<path d="M52.8144 89.3336L97.5897 63.48L104.549 73.3359L59.0207 99.7277L52.8144 89.3336Z" fill="#28404E"/>
<path d="M64.9883 95.9241L58.6121 85.9468" stroke="#375C66" stroke-width="0.378862" stroke-miterlimit="10"/>
<path d="M71.842 91.9473L65.4577 81.97" stroke="#375C66" stroke-width="0.378862" stroke-miterlimit="10"/>
<path d="M78.6916 87.9781L72.3073 77.9927" stroke="#375C66" stroke-width="0.378862" stroke-miterlimit="10"/>
<path d="M85.5453 84.0091L79.1569 74.0156" stroke="#375C66" stroke-width="0.378862" stroke-miterlimit="10"/>
<path d="M92.3989 80.0356L86.0065 70.0381" stroke="#375C66" stroke-width="0.378862" stroke-miterlimit="10"/>
<path d="M99.2526 76.0629L92.8561 66.0613" stroke="#375C66" stroke-width="0.378862" stroke-miterlimit="10"/>
<path d="M75.641 117.918V96.5636L83.6922 91.9148V113.739L75.641 118.456V117.918Z" fill="#1B3646"/>
<path d="M83.0242 105.065C83.0382 104.714 82.9228 104.425 82.7664 104.419C82.61 104.412 82.4718 104.692 82.4578 105.043C82.4437 105.393 82.5592 105.683 82.7156 105.689C82.872 105.695 83.0102 105.416 83.0242 105.065Z" fill="#375C66"/>
<path d="M57.7422 105.999V117.967L70.2318 110.753V98.7849L57.7422 105.999Z" fill="#375C66"/>
<path d="M70.2318 104.7V110.752L57.7382 117.966V112.043L65.0369 107.754L70.2318 104.7Z" fill="#28404E"/>
<path d="M70.2318 110.753L57.7382 117.967V112.044L65.0369 107.755L70.2318 110.753Z" fill="#1B3646"/>
<path d="M304.842 111.34L299.02 108.892L315.021 94.7188L320.839 97.1666L304.842 111.34Z" fill="#4AA276"/>
<path d="M320.839 97.1664L315.021 94.7186L319.006 40.2156L324.828 42.6634L320.839 97.1664Z" fill="#367656"/>
<path d="M327.167 37.0597L321.349 34.616L323.453 35.4858L329.271 37.9336L327.167 37.0597Z" fill="#387959"/>
<path d="M289.071 110.652L283.249 108.204L299.02 108.892L304.842 111.339L289.071 110.652Z" fill="#408B66"/>
<path d="M305.874 43.4808L300.056 41.0533C300.375 40.9198 300.695 40.7862 301.019 40.6487L306.836 43.0763C306.517 43.2017 306.193 43.3311 305.874 43.4808Z" fill="#1E2F3A"/>
<path d="M306.849 43.088L301.031 40.6604C302.445 40.1047 303.899 39.6557 305.38 39.3171L311.198 41.7447C309.717 42.0852 308.263 42.5341 306.849 43.088" fill="#1D2E38"/>
<path d="M311.186 41.7453L305.368 39.3177C306.519 39.0538 307.687 38.8686 308.863 38.7634L314.681 41.191C313.505 41.2965 312.337 41.4817 311.186 41.7453" fill="#1C2D37"/>
<path d="M314.681 41.2027L308.863 38.7751C309.875 38.6831 310.891 38.6574 311.906 38.6983L317.724 41.1258C316.709 41.087 315.693 41.1127 314.681 41.2027" fill="#1B2C35"/>
<path d="M317.724 41.1136L311.906 38.686C312.834 38.7258 313.758 38.823 314.673 38.9773L320.495 41.4049C319.579 41.2473 318.653 41.1486 317.724 41.1096" fill="#1A2A33"/>
<path d="M320.495 41.409L314.673 38.9814C315.55 39.1336 316.416 39.3417 317.267 39.6045L323.089 42.0523C322.239 41.7862 321.373 41.578 320.495 41.4292" fill="#1A2932"/>
<path d="M323.089 42.0323L317.267 39.5845C317.857 39.7665 318.436 39.9891 319.006 40.2156L324.828 42.6432C324.254 42.4085 323.675 42.1982 323.089 42.0161" fill="#192830"/>
<path d="M286.696 58.8473L280.878 56.3995C282.86 53.9279 285.023 51.6085 287.352 49.4607L293.17 51.9085C290.84 54.0554 288.677 56.3749 286.696 58.8473" fill="#1E2F3A"/>
<path d="M293.166 51.9086L287.348 49.4608C289.218 47.7368 291.214 46.1546 293.319 44.7271L299.137 47.1546C297.032 48.5819 295.036 50.1642 293.166 51.8884" fill="#1E313B"/>
<path d="M299.137 47.1745L293.319 44.7469C295.442 43.3039 297.698 42.067 300.056 41.053L305.874 43.4805C303.515 44.4938 301.26 45.7308 299.137 47.1745" fill="#1E2F3A"/>
<path d="M305.874 43.4809C312.501 40.669 319.087 40.2805 324.828 42.6717L320.839 97.1747L304.842 111.336L289.063 110.648L286.688 58.8596C292.583 51.5323 299.247 46.2928 305.874 43.4809Z" fill="#28404E"/>
<path d="M289.071 110.652L283.249 108.204L280.878 56.4036L286.696 58.8473L289.071 110.652Z" fill="#16232B"/>
<path d="M284.495 55.1736L278.677 52.7258C280.897 49.955 283.322 47.3555 285.932 44.9495L291.75 47.377C289.14 49.7855 286.716 52.3862 284.495 55.1574" fill="#375C66"/>
<path d="M291.75 47.3931L285.932 44.9655C288.014 43.0488 290.238 41.2907 292.583 39.7058L298.401 42.1334C296.058 43.7208 293.834 45.4788 291.75 47.3931" fill="#375C66"/>
<path d="M298.401 42.1212L292.583 39.6936C294.963 38.0684 297.494 36.6768 300.141 35.5384C300.501 35.3847 300.861 35.235 301.221 35.0974L307.043 37.525C306.679 37.6666 306.319 37.8122 305.959 37.966C303.313 39.1021 300.782 40.4895 298.401 42.109" fill="#375C66"/>
<path d="M307.043 37.5372L301.221 35.1096C302.8 34.489 304.423 33.986 306.076 33.6045L311.894 36.0321C310.24 36.4128 308.618 36.9159 307.039 37.5372" fill="#375C66"/>
<path d="M311.914 36.032L306.096 33.6044C307.382 33.3103 308.686 33.1035 310 32.9854L315.818 35.4129C314.504 35.5311 313.2 35.7379 311.914 36.032" fill="#375C66"/>
<path d="M315.818 35.4132L310 32.9856C311.131 32.8809 312.268 32.8525 313.403 32.9006L319.221 35.3282C318.086 35.2841 316.95 35.3125 315.818 35.4132" fill="#375C66"/>
<path d="M319.221 35.3282L313.403 32.9006C314.441 32.9438 315.474 33.0533 316.498 33.2284L322.32 35.6559C321.295 35.4811 320.26 35.3716 319.221 35.3282" fill="#375C66"/>
<path d="M322.32 35.6556L316.498 33.228C317.476 33.395 318.443 33.6262 319.391 33.9199L325.209 36.3677C324.258 36.0708 323.289 35.8369 322.308 35.6677" fill="#375C66"/>
<path d="M325.221 36.3477L319.391 33.9202C320.052 34.1252 320.7 34.3598 321.337 34.6242L327.159 37.0517C326.52 36.782 325.869 36.5473 325.209 36.3477" fill="#375C66"/>
<path d="M327.171 37.0596L329.271 37.9295L324.768 99.428L304.753 117.161L285.021 116.3L282.339 57.8316L284.495 55.1531C290.969 47.1179 298.381 41.1744 305.938 37.9578C313.496 34.7413 320.867 34.4419 327.171 37.0596ZM320.839 97.1622L324.828 42.6592C319.087 40.2802 312.501 40.6686 305.874 43.4684C299.247 46.2682 292.583 51.5199 286.696 58.8431L289.071 110.631L304.85 111.319L320.847 97.1582" fill="#213540"/>
<path d="M285.021 116.32L279.199 113.876L276.521 55.408L282.339 57.8517L285.021 116.32Z" fill="#375C66"/>
<path d="M282.339 57.8519L276.521 55.4082L278.677 52.7297L284.495 55.1735L282.339 57.8519Z" fill="#375C66"/>
<path d="M325.431 43.3148C325.391 43.6466 320.669 96.9358 320.641 97.215L320.483 97.3688L305.983 111.602L305.384 111.008L319.625 96.511L319.451 96.8832L324.221 43.2258L325.435 43.3351L325.431 43.3148Z" fill="#0B151B"/>
<path d="M300.286 95.9404L312.48 88.8883C313.263 88.4117 313.913 87.7449 314.37 86.9498C314.826 86.1547 315.074 85.2572 315.09 84.3407L315.632 68.3915C315.689 66.7731 314.119 65.7091 312.8 66.4778L300.501 73.7322C299.633 74.2742 298.915 75.0245 298.411 75.9148C297.907 76.8051 297.634 77.8073 297.616 78.8301L297.11 93.7596C297.05 95.5844 298.814 96.7941 300.286 95.9404Z" fill="#5FCD82"/>
<path d="M302.653 78.7697L303.086 66.0492C303.086 66.0492 303.244 59.8023 306.347 58.2041C310.097 56.3794 309.499 63.3263 309.499 63.3263L309.094 75.8445" stroke="#5FCD82" stroke-width="2.27317" stroke-miterlimit="10"/>
<path d="M308.831 83.4465C309.19 81.4315 308.613 79.6431 307.542 79.4521C306.47 79.2611 305.311 80.7397 304.951 82.7548C304.592 84.7698 305.169 86.5582 306.241 86.7492C307.312 86.9402 308.472 85.4616 308.831 83.4465Z" fill="#28404E"/>
<path d="M307.112 84.5146L306.8 93.6787" stroke="#28404E" stroke-width="1.51545" stroke-miterlimit="10"/>
<path d="M179.437 72.6683C183.305 72.6683 186.44 70.8587 186.44 68.6264C186.44 66.3941 183.305 64.5845 179.437 64.5845C175.569 64.5845 172.434 66.3941 172.434 68.6264C172.434 70.8587 175.569 72.6683 179.437 72.6683Z" stroke="url(#paint0_linear_419_26136)" stroke-width="1.13658" stroke-linecap="round" stroke-linejoin="round"/>
<path opacity="0.5" d="M179.437 74.7398C185.282 74.7398 190.021 72.0027 190.021 68.6264C190.021 65.25 185.282 62.5129 179.437 62.5129C173.592 62.5129 168.853 65.25 168.853 68.6264C168.853 72.0027 173.592 74.7398 179.437 74.7398Z" stroke="url(#paint1_linear_419_26136)" stroke-width="1.13658" stroke-linecap="round" stroke-linejoin="round"/>
<path d="M179.437 70.0342C180.782 70.0342 181.873 69.4039 181.873 68.6263C181.873 67.8486 180.782 67.2183 179.437 67.2183C178.092 67.2183 177.001 67.8486 177.001 68.6263C177.001 69.4039 178.092 70.0342 179.437 70.0342Z" fill="url(#paint2_radial_419_26136)"/>
<path d="M-10.5677 188.54L10.3614 200.613C11.1959 201.095 12.1446 201.344 13.1082 201.335C14.0719 201.325 15.0151 201.056 15.8395 200.557L42.2507 184.563C42.9989 184.111 43.8548 183.866 44.7292 183.857C45.6036 183.847 46.4648 184.071 47.2231 184.507L82.7739 204.943C83.5869 205.412 84.5073 205.663 85.4458 205.671C86.3844 205.68 87.3092 205.445 88.1306 204.991L100.207 198.336" stroke="#2C4656" stroke-width="1.51545" stroke-linecap="round" stroke-linejoin="round"/>
<path d="M-6.36003 195.026C-2.49218 195.026 0.643322 193.216 0.643322 190.984C0.643322 188.752 -2.49218 186.942 -6.36003 186.942C-10.2279 186.942 -13.3634 188.752 -13.3634 190.984C-13.3634 193.216 -10.2279 195.026 -6.36003 195.026Z" stroke="url(#paint3_linear_419_26136)" stroke-width="1.13658" stroke-linecap="round" stroke-linejoin="round"/>
<path opacity="0.5" d="M-6.36003 197.546C-0.0834446 197.546 5.00473 194.608 5.00473 190.984C5.00473 187.36 -0.0834446 184.421 -6.36003 184.421C-12.6366 184.421 -17.7248 187.36 -17.7248 190.984C-17.7248 194.608 -12.6366 197.546 -6.36003 197.546Z" stroke="url(#paint4_linear_419_26136)" stroke-width="1.13658" stroke-linecap="round" stroke-linejoin="round"/>
<defs>
<linearGradient id="paint0_linear_419_26136" x1="176.658" y1="63.8117" x2="182.217" y2="73.4409" gradientUnits="userSpaceOnUse">
<stop stop-color="#B4FACD"/>
<stop offset="1" stop-color="#F0F7FB" stop-opacity="0"/>
</linearGradient>
<linearGradient id="paint1_linear_419_26136" x1="175.391" y1="61.6188" x2="183.483" y2="75.6338" gradientUnits="userSpaceOnUse">
<stop stop-color="#B4FACD"/>
<stop offset="1" stop-color="#F0F7FB" stop-opacity="0"/>
</linearGradient>
<radialGradient id="paint2_radial_419_26136" cx="0" cy="0" r="1" gradientUnits="userSpaceOnUse" gradientTransform="translate(179.437 68.429) scale(3.20023 1.8562)">
<stop stop-color="#B4FACD"/>
<stop offset="1" stop-color="#F0F7FB" stop-opacity="0"/>
</radialGradient>
<linearGradient id="paint3_linear_419_26136" x1="-9.13952" y1="186.173" x2="-3.5803" y2="195.798" gradientUnits="userSpaceOnUse">
<stop stop-color="#B4FACD"/>
<stop offset="1" stop-color="#F0F7FB" stop-opacity="0"/>
</linearGradient>
<linearGradient id="paint4_linear_419_26136" x1="-10.681" y1="183.503" x2="-2.03872" y2="198.469" gradientUnits="userSpaceOnUse">
<stop stop-color="#B4FACD"/>
<stop offset="1" stop-color="#F0F7FB" stop-opacity="0"/>
</linearGradient>
</defs>
</svg>
