<svg width="360" height="498" viewBox="0 0 360 498" fill="none" xmlns="http://www.w3.org/2000/svg">
<g clip-path="url(#clip0_494_24052)">
<rect x="1.50525" y="3.92627" width="42.184" height="63.8966" rx="21.092" transform="matrix(-0.415191 0.909734 0.916941 0.399022 -13.4641 -23.0095)" stroke="#5CC993" stroke-width="6"/>
<rect x="1.50525" y="3.92627" width="59.507" height="63.8966" rx="29.7535" transform="matrix(-0.415191 0.909734 0.916941 0.399022 41.845 409.401)" stroke="#F8DF58" stroke-width="6"/>
<rect x="0.250875" y="0.654378" width="23.4237" height="25.0603" rx="11.7118" transform="matrix(-0.415191 0.909734 0.916941 0.399022 279.896 297.165)" stroke="#17E7B5" stroke-opacity="0.4"/>
<rect x="0.285489" y="-0.640732" width="23.8373" height="24.6256" rx="11.9186" transform="matrix(0.936502 -0.350663 -0.365524 -0.930802 180.801 442.993)" stroke="#17E7B5" stroke-opacity="0.4"/>
<rect x="0.250875" y="0.654378" width="9.98585" height="33.7068" rx="4.99293" transform="matrix(-0.415191 0.909734 0.916941 0.399022 120.317 30.165)" stroke="#1890FF" stroke-opacity="0.4"/>
<rect x="0.285489" y="-0.640733" width="10.1719" height="33.1278" rx="5.08595" transform="matrix(0.936502 -0.350663 -0.365524 -0.930802 268.893 496.863)" stroke="#1890FF" stroke-opacity="0.4"/>
<rect x="1.50525" y="3.92627" width="45.4498" height="98.285" rx="22.7249" transform="matrix(-0.415191 0.909734 0.916941 0.399022 292.97 -32.4695)" stroke="#FF70BE" stroke-width="6"/>
<rect x="3.87653" y="1.80239" width="83.3901" height="145.778" rx="41.6951" transform="matrix(0.350264 0.936651 0.941914 -0.335855 265.782 402.999)" stroke="#988FFF" stroke-width="6"/>
<rect x="1.29218" y="0.600796" width="75.0329" height="43.6194" rx="21.8097" transform="matrix(0.350264 0.936651 0.941914 -0.335855 228.377 109.369)" stroke="#1890FF" stroke-opacity="0.4" stroke-width="2"/>
<rect x="-0.480554" y="-1.31631" width="9.56779" height="29.4099" rx="4.7839" transform="matrix(0.429968 -0.902844 -0.910521 -0.413462 59.3586 129.136)" stroke="#1890FF" stroke-opacity="0.4" stroke-width="2"/>
</g>
<defs>
<clipPath id="clip0_494_24052">
<rect width="360" height="498" fill="white"/>
</clipPath>
</defs>
</svg>
