<svg width="68" height="22" viewBox="0 0 68 22" fill="none" xmlns="http://www.w3.org/2000/svg">
<g clip-path="url(#clip0_419_26447)">
<path d="M0.547081 18.8974H1.05144L0.582768 20.7067C0.513214 20.9751 0.526324 21.1772 0.622461 21.312C0.718234 21.447 0.896488 21.5145 1.15704 21.5145C1.41596 21.5145 1.62826 21.447 1.79413 21.312C1.96018 21.1772 2.07799 20.9751 2.14754 20.7067L2.61603 18.8974H3.12694L2.6468 20.7514C2.54247 21.1543 2.35657 21.4559 2.09037 21.6558C1.82399 21.8561 1.47477 21.9561 1.0427 21.9561C0.610262 21.9561 0.313657 21.8563 0.152155 21.6568C-0.00953024 21.4576 -0.0377523 21.1557 0.0669423 20.7514L0.547081 18.8974Z" fill="white"/>
<path d="M3.05905 21.8763L3.86128 18.779L5.38564 20.6004C5.42642 20.6517 5.46757 20.7067 5.50818 20.7651C5.54878 20.8235 5.59029 20.8892 5.6329 20.9625L6.16802 18.897H6.64015L5.83846 21.9919L4.28207 20.1381C4.24037 20.0881 4.20159 20.0353 4.16535 19.9796C4.12876 19.9238 4.0958 19.8655 4.06558 19.8045L3.52899 21.8763H3.05905Z" fill="white"/>
<path d="M6.59833 21.877L7.36997 18.8976H7.88052L7.10906 21.877H6.59833Z" fill="white"/>
<path d="M7.84323 21.877L8.61488 18.8976H10.3683L10.2618 19.3085H9.01909L8.82663 20.0514H10.0693L9.95934 20.4766H8.71648L8.35396 21.877H7.84323Z" fill="white"/>
<path d="M10.1592 21.877L10.9309 18.8976H11.4414L10.6699 21.877H10.1592Z" fill="white"/>
<path d="M11.4041 21.877L12.1757 18.8976H13.9291L13.8226 19.3085H12.5799L12.3864 20.0554H13.629L13.5191 20.4808H12.2764L12.0269 21.4434H13.2696L13.1575 21.877H11.4041Z" fill="white"/>
<path d="M14.3676 21.4392H14.7969C15.0329 21.4392 15.2139 21.4243 15.3397 21.3945C15.4655 21.3647 15.581 21.3144 15.6868 21.2439C15.8304 21.1478 15.9504 21.0279 16.0469 20.8847C16.1432 20.7417 16.2162 20.5749 16.2654 20.3849C16.3144 20.1949 16.3278 20.0286 16.3056 19.8858C16.2832 19.7424 16.2253 19.6227 16.1316 19.5263C16.0611 19.456 15.9681 19.4055 15.8519 19.3755C15.7355 19.3459 15.5462 19.3309 15.2829 19.3309H15.0983H14.9137L14.3676 21.4392ZM13.7436 21.877L14.5153 18.8974H15.2041C15.652 18.8974 15.9615 18.9186 16.133 18.9614C16.3042 19.0043 16.4457 19.076 16.5569 19.1763C16.7046 19.3079 16.7985 19.4768 16.8389 19.6828C16.8792 19.8891 16.865 20.1246 16.7965 20.3891C16.7281 20.6537 16.6204 20.8881 16.4737 21.0922C16.3273 21.2965 16.1458 21.465 15.9298 21.5979C15.7665 21.6984 15.5913 21.7699 15.4053 21.8128C15.2186 21.8554 14.9404 21.877 14.5697 21.877H14.4322H13.7436Z" fill="white"/>
<path d="M19.2834 20.1431H19.4145C19.6976 20.1431 19.8941 20.1136 20.0037 20.0554C20.1135 19.9972 20.1872 19.894 20.2255 19.7461C20.2666 19.5874 20.2453 19.4753 20.1612 19.4104C20.0771 19.3452 19.9001 19.3124 19.6297 19.3124H19.4986L19.2834 20.1431ZM19.1485 20.5396L18.8022 21.877H18.3237L19.0955 18.8976H19.8681C20.0969 18.8976 20.2624 18.9094 20.3644 18.9331C20.466 18.9567 20.5499 18.9959 20.6162 19.0502C20.6969 19.1194 20.7499 19.2126 20.7753 19.3299C20.8007 19.4474 20.7952 19.5766 20.7588 19.7175C20.722 19.8587 20.6605 19.9889 20.5738 20.1084C20.4871 20.2277 20.3855 20.3215 20.2694 20.3891C20.175 20.4435 20.0711 20.4822 19.9571 20.5051C19.8429 20.5283 19.6716 20.5396 19.4427 20.5396H19.342H19.1485Z" fill="white"/>
<path d="M21.3892 20.7068H22.2648L22.1186 20.027C22.1117 19.9837 22.1052 19.9339 22.0995 19.8775C22.0942 19.8211 22.0906 19.7584 22.0882 19.6892C22.0544 19.7543 22.0203 19.8151 21.9863 19.8715C21.9524 19.9277 21.9194 19.9795 21.887 20.027L21.3892 20.7068ZM22.4984 21.877L22.3406 21.1097H21.0957L20.5322 21.877H19.996L22.3195 18.7796L23.037 21.877H22.4984Z" fill="white"/>
<path d="M23.769 21.877L24.1219 20.5133L23.4825 18.8976H24.019L24.416 19.909C24.4251 19.9349 24.436 19.9687 24.4486 20.0108C24.4613 20.0529 24.4737 20.0982 24.4853 20.1471C24.5174 20.0997 24.5503 20.0546 24.5833 20.0127C24.6163 19.9706 24.6496 19.9321 24.6833 19.8967L25.6179 18.8976H26.1288L24.6285 20.5133L24.2754 21.877H23.769Z" fill="white"/>
<path d="M28.6422 20.4052C28.6424 20.3821 28.6497 20.3185 28.6639 20.214C28.6748 20.1271 28.6833 20.0551 28.6895 19.9981C28.6591 20.0661 28.6233 20.134 28.5821 20.2017C28.5408 20.2695 28.4934 20.3387 28.4394 20.4094L27.2062 21.9968L26.8038 20.3769C26.7866 20.3102 26.7735 20.2458 26.7648 20.1835C26.7561 20.1211 26.75 20.0593 26.7471 19.9981C26.7297 20.0607 26.7074 20.126 26.6803 20.1946C26.6532 20.2631 26.6208 20.3348 26.5827 20.4094L25.8657 21.8767H25.3959L26.9427 18.7709L27.3829 20.6515C27.3893 20.6813 27.3986 20.731 27.4099 20.8001C27.4212 20.8693 27.4345 20.9548 27.45 21.0564C27.502 20.9709 27.577 20.8626 27.6757 20.731C27.7019 20.6956 27.722 20.6685 27.7354 20.6495L29.1278 18.7709L29.0832 21.8767H28.6087L28.6422 20.4052Z" fill="white"/>
<path d="M29.491 21.877L30.2628 18.8976H32.0162L31.9097 19.3085H30.6669L30.4735 20.0554H31.7162L31.6062 20.4808H30.3633L30.1141 21.4434H31.3567L31.2442 21.877H29.491Z" fill="white"/>
<path d="M31.8305 21.8763L32.6328 18.779L34.1571 20.6004C34.1979 20.6517 34.2391 20.7067 34.2797 20.7651C34.3203 20.8235 34.3618 20.8892 34.4044 20.9625L34.9395 18.897H35.4118L34.61 21.9919L33.0536 20.1381C33.0119 20.0881 32.9731 20.0353 32.9368 19.9796C32.9002 19.9238 32.8673 19.8655 32.8371 19.8045L32.3005 21.8763H31.8305Z" fill="white"/>
<path d="M37.0414 19.3085L36.3763 21.877H35.8656L36.5305 19.3085H35.6957L35.8022 18.8976H37.9784L37.8721 19.3085H37.0414Z" fill="white"/>
<path d="M37.5715 21.2804L38.0256 21.1015C38.0302 21.2343 38.0746 21.3357 38.1595 21.4056C38.2443 21.4756 38.3668 21.5104 38.5274 21.5104C38.6789 21.5104 38.81 21.4704 38.92 21.3903C39.0301 21.3103 39.1028 21.2031 39.1376 21.0688C39.1829 20.8937 39.0698 20.7376 38.7995 20.6008C38.7616 20.5805 38.7325 20.5655 38.7124 20.5559C38.4074 20.3959 38.2141 20.251 38.1325 20.1214C38.0511 19.9918 38.0344 19.8334 38.0828 19.6463C38.1456 19.4035 38.2836 19.2067 38.4965 19.0561C38.7093 18.9055 38.9566 18.8301 39.2386 18.8301C39.4704 18.8301 39.6534 18.8725 39.7872 18.9573C39.9212 19.0423 39.9977 19.164 40.0166 19.3227L39.5671 19.5181C39.5281 19.4245 39.4768 19.356 39.4131 19.3124C39.3491 19.269 39.2683 19.2473 39.1713 19.2473C39.034 19.2473 38.916 19.2815 38.8175 19.3489C38.7195 19.4169 38.6553 19.5078 38.6256 19.6219C38.5793 19.801 38.7135 19.9677 39.0283 20.1224C39.0525 20.1345 39.0715 20.1443 39.0851 20.151C39.3606 20.2865 39.5398 20.4192 39.6219 20.5488C39.7042 20.6786 39.7204 20.8403 39.67 21.0342C39.597 21.3166 39.4453 21.5407 39.2148 21.7068C38.9843 21.8729 38.7093 21.9561 38.3905 21.9561C38.1227 21.9561 37.9186 21.8978 37.778 21.781C37.6371 21.6644 37.5682 21.4976 37.5715 21.2804Z" fill="white"/>
<path d="M41.345 21.877L42.1166 18.8976H42.6273L41.8557 21.877H41.345Z" fill="white"/>
<path d="M42.5898 21.8763L43.392 18.779L44.9164 20.6004C44.9572 20.6517 44.9983 20.7067 45.0389 20.7651C45.0795 20.8235 45.121 20.8892 45.1637 20.9625L45.6988 18.897H46.1709L45.3692 21.9919L43.8128 20.1381C43.7711 20.0881 43.7322 20.0353 43.6959 19.9796C43.6595 19.9238 43.6264 19.8655 43.5962 19.8045L43.0598 21.8763H42.5898Z" fill="white"/>
<path d="M47.8007 19.3085L47.1354 21.877H46.6248L47.2898 19.3085H46.455L46.5615 18.8976H48.7377L48.6313 19.3085H47.8007Z" fill="white"/>
<path d="M48.3567 21.877L49.1283 18.8976H50.8817L50.7754 19.3085H49.5327L49.3392 20.0554H50.5819L50.4717 20.4808H49.229L48.9798 21.4434H50.2224L50.1101 21.877H48.3567Z" fill="white"/>
<path d="M51.6497 20.1673H51.7422C52.0124 20.1673 52.1998 20.1377 52.3039 20.078C52.4081 20.0182 52.4802 19.9125 52.5192 19.7604C52.5618 19.5963 52.5443 19.4805 52.4662 19.4136C52.3888 19.3461 52.2211 19.3126 51.9636 19.3126H51.8711L51.6497 20.1673ZM51.5201 20.5438L51.1747 21.877H50.6962L51.468 18.8976H52.1805C52.3893 18.8976 52.5481 18.9104 52.6564 18.9363C52.765 18.962 52.8524 19.0046 52.9184 19.0645C52.9971 19.1362 53.0481 19.2294 53.0718 19.3434C53.0949 19.4571 53.0889 19.582 53.0539 19.7175C52.9922 19.9563 52.8829 20.1433 52.7264 20.2784C52.5698 20.4132 52.3691 20.4945 52.1246 20.5214L52.8554 21.877H52.2779L51.578 20.5438H51.5201Z" fill="white"/>
<path d="M53.1581 21.877L53.9298 18.8976H55.6832L55.5769 19.3085H54.334L54.1415 20.0514H55.3844L55.2742 20.4766H54.0316L53.6689 21.877H53.1581Z" fill="white"/>
<path d="M56.2751 20.7068H57.1509L57.0047 20.027C56.9976 19.9837 56.9912 19.9339 56.9856 19.8775C56.9803 19.8211 56.9767 19.7584 56.9743 19.6892C56.9403 19.7543 56.9062 19.8151 56.8723 19.8715C56.8385 19.9277 56.8053 19.9795 56.7729 20.027L56.2751 20.7068ZM57.3845 21.877L57.2267 21.1097H55.9818L55.4183 21.877H54.8819L57.2054 18.7796L57.9231 21.877H57.3845Z" fill="white"/>
<path d="M61.2478 19.6219C61.1336 19.5053 61.0036 19.4178 60.8576 19.3594C60.7119 19.3013 60.5502 19.2719 60.3727 19.2719C60.0295 19.2719 59.7229 19.3764 59.4536 19.5852C59.1839 19.7942 59.0062 20.0648 58.9201 20.3974C58.8369 20.719 58.8731 20.984 59.0286 21.1929C59.1841 21.4019 59.4215 21.5066 59.7403 21.5066C59.9266 21.5066 60.1116 21.4753 60.2959 21.4128C60.4801 21.3504 60.666 21.2561 60.853 21.1298L60.7112 21.6774C60.5497 21.7709 60.382 21.8409 60.2085 21.8869C60.0348 21.933 59.8536 21.9561 59.6648 21.9561C59.4244 21.9561 59.2118 21.9189 59.0273 21.8441C58.8427 21.7696 58.6918 21.6599 58.575 21.5145C58.4589 21.3721 58.3844 21.2043 58.3525 21.0108C58.3201 20.8176 58.3323 20.6116 58.3888 20.393C58.4454 20.1747 58.5399 19.9696 58.6719 19.7776C58.8037 19.5855 58.9667 19.4169 59.1601 19.2719C59.3542 19.1253 59.5617 19.0145 59.7828 18.939C60.004 18.8639 60.2321 18.8261 60.4668 18.8261C60.6515 18.8261 60.8208 18.8516 60.975 18.9026C61.1292 18.9533 61.2716 19.0302 61.4025 19.1337L61.2478 19.6219Z" fill="white"/>
<path d="M61.2973 21.877L62.0689 18.8976H63.8223L63.7158 19.3085H62.4733L62.2798 20.0554H63.5224L63.4123 20.4808H62.1696L61.9203 21.4434H63.163L63.0507 21.877H61.2973Z" fill="white"/>
<path d="M51.9814 16.3013H48.4704L53.3534 0.00172968H56.8645L51.9814 16.3013Z" fill="white"/>
<path d="M50.1587 0.516867C49.9152 0.206712 49.5398 0.050204 49.0298 0.050204H29.723L28.7668 3.24263H32.2798V3.24078H46.3305L45.3083 6.65232H31.2572L31.2585 6.64525H27.7469L24.8324 16.3701H28.3458L30.3017 9.84289H46.0962C46.5894 9.84289 47.0537 9.68739 47.4903 9.3764C47.926 9.06506 48.2128 8.6812 48.3503 8.22278L50.306 1.69421C50.4487 1.22048 50.3994 0.827359 50.1587 0.516867Z" fill="white"/>
<path d="M22.7865 15.2836C22.5926 15.929 21.9567 16.3755 21.2319 16.3755H3.11682C2.62321 16.3755 2.25632 16.22 2.01507 15.9093C1.774 15.5983 1.72229 15.2136 1.86012 14.7554L6.28024 0.0491825H9.79451L5.84653 13.1841H19.904L23.852 0.0491825H27.3655L22.7865 15.2836Z" fill="white"/>
<path d="M62.9284 0.031984L67.3737 8.20288L58.0291 16.3716L62.9284 0.031984Z" fill="#27803B"/>
<path d="M59.8123 0.031984L64.2543 8.20288L54.9059 16.3716L59.8123 0.031984Z" fill="#E9661C"/>
</g>
<defs>
<clipPath id="clip0_419_26447">
<rect width="67.375" height="22" fill="white"/>
</clipPath>
</defs>
</svg>
