<svg width="32" height="32" viewBox="0 0 32 32" fill="none" xmlns="http://www.w3.org/2000/svg">
<path d="M2.66934 16.0026C2.67089 22.5618 7.44055 28.1467 13.9187 29.1746V19.856H10.536V16.0026H13.9227V13.0693C13.7713 11.6794 14.246 10.2941 15.2182 9.28922C16.1904 8.28434 17.5591 7.764 18.9533 7.86931C19.9541 7.88547 20.9523 7.9746 21.94 8.13598V11.4146H20.2547C19.6745 11.3387 19.0912 11.5303 18.669 11.9355C18.2469 12.3408 18.0317 12.9158 18.084 13.4986V16.0026H21.7787L21.188 19.8573H18.084V29.1746C25.09 28.0674 30.0028 21.669 29.2634 14.6147C28.5239 7.56047 22.3911 2.31988 15.3078 2.68955C8.22449 3.05921 2.67047 8.90972 2.66934 16.0026Z" fill="white"/>
</svg>
