<svg width="32" height="32" viewBox="0 0 32 32" fill="none" xmlns="http://www.w3.org/2000/svg">
<path d="M16.0027 28.0546C12.7227 28.0546 12.336 28.0373 11.056 27.9813C10.0578 27.9484 9.07257 27.7455 8.14266 27.3813C6.53374 26.7551 5.26151 25.4824 4.63599 23.8733C4.28573 22.94 4.09681 21.9539 4.07732 20.9573C4.00266 19.6799 4.00266 19.2613 4.00266 16.0066C4.00266 12.7173 4.01999 12.3333 4.07732 11.0599C4.09724 10.0646 4.28615 9.07994 4.63599 8.14793C5.26083 6.53663 6.53512 5.26282 8.14666 4.63859C9.07818 4.28686 10.0631 4.09745 11.0587 4.07859C12.332 4.00659 12.7507 4.00659 16.0027 4.00659C19.3093 4.00659 19.6893 4.02393 20.9493 4.07859C21.9474 4.09761 22.935 4.287 23.8693 4.63859C25.4804 5.26353 26.7544 6.53709 27.38 8.14793C27.7362 9.09352 27.9261 10.0936 27.9413 11.1039C28.016 12.3813 28.016 12.7986 28.016 16.0519C28.016 19.3053 27.9973 19.7319 27.9413 20.9946C27.9215 21.9922 27.7321 22.9792 27.3813 23.9133C26.7542 25.5235 25.4801 26.7967 23.8693 27.4226C22.9363 27.7722 21.9508 27.9611 20.9547 27.9813C19.6813 28.0546 19.264 28.0546 16.0027 28.0546ZM15.9573 6.11726C12.696 6.11726 12.3573 6.13326 11.084 6.19059C10.324 6.20066 9.57129 6.34091 8.85865 6.60526C7.80633 7.00794 6.97362 7.83725 6.56666 8.88793C6.30027 9.60832 6.16 10.3692 6.15199 11.1373C6.08132 12.4293 6.08132 12.7679 6.08132 16.0066C6.08132 19.2066 6.09332 19.5946 6.15199 20.8786C6.16392 21.6389 6.30412 22.3917 6.56666 23.1053C6.97422 24.1552 7.80678 24.9839 8.85865 25.3866C9.57081 25.6527 10.3238 25.793 11.084 25.8013C12.3747 25.8759 12.7147 25.8759 15.9573 25.8759C19.228 25.8759 19.5667 25.8599 20.8293 25.8013C21.5899 25.792 22.3431 25.6517 23.056 25.3866C24.1019 24.9804 24.9292 24.1536 25.336 23.1079C25.6019 22.3869 25.7421 21.6257 25.7507 20.8573H25.7653C25.8227 19.5826 25.8227 19.2426 25.8227 15.9853C25.8227 12.7279 25.808 12.3853 25.7507 11.1119C25.7387 10.3525 25.5985 9.60061 25.336 8.88793C24.9302 7.84069 24.1028 7.01232 23.056 6.60526C22.3433 6.33958 21.5899 6.19929 20.8293 6.19059C19.54 6.11726 19.2027 6.11726 15.9573 6.11726ZM16.0027 22.1653C13.5093 22.1669 11.2605 20.6662 10.3051 18.3632C9.34973 16.0602 9.87586 13.4084 11.6382 11.6445C13.4005 9.88071 16.0518 9.35229 18.3557 10.3057C20.6595 11.2591 22.1621 13.5066 22.1627 15.9999C22.159 19.4013 19.4041 22.1586 16.0027 22.1653ZM16.0027 11.9973C13.7935 11.9973 12.0027 13.7881 12.0027 15.9973C12.0027 18.2064 13.7935 19.9973 16.0027 19.9973C18.2118 19.9973 20.0027 18.2064 20.0027 15.9973C19.9975 13.7902 18.2097 12.0024 16.0027 11.9973ZM22.4027 11.0466C21.6099 11.0436 20.9692 10.3994 20.9707 9.6066C20.9721 8.81383 21.6152 8.17194 22.408 8.17194C23.2008 8.17194 23.8438 8.81382 23.8453 9.60659C23.8457 9.98907 23.6937 10.356 23.423 10.6262C23.1523 10.8964 22.7851 11.0477 22.4027 11.0466Z" fill="white"/>
</svg>
