<svg width="32" height="32" viewBox="0 0 32 32" fill="none" xmlns="http://www.w3.org/2000/svg">
<path d="M26.66 8.91724C27.8552 8.20269 28.7496 7.07755 29.176 5.7519C28.0529 6.41831 26.824 6.88774 25.5427 7.1399C23.7661 5.26061 20.9513 4.80327 18.6712 6.02344C16.391 7.24362 15.21 9.83922 15.788 12.3599C11.1875 12.1289 6.90128 9.95579 3.99599 6.38124C2.47978 8.99646 3.25459 12.3396 5.76666 14.0212C4.85827 13.992 3.97003 13.7461 3.17599 13.3039C3.17599 13.3279 3.17599 13.3519 3.17599 13.3759C3.17652 16.1001 5.09649 18.4467 7.76666 18.9866C6.92408 19.2158 6.04027 19.2496 5.18266 19.0852C5.93359 21.4149 8.08072 23.011 10.528 23.0586C8.5011 24.6494 5.99796 25.5121 3.42132 25.5079C2.96462 25.5086 2.50827 25.4823 2.05466 25.4292C4.67118 27.1106 7.71648 28.003 10.8267 27.9999C15.1537 28.0296 19.312 26.3238 22.3716 23.2639C25.4312 20.2041 27.1367 16.0456 27.1067 11.7186C27.1067 11.4706 27.1009 11.2239 27.0893 10.9786C28.2099 10.1687 29.1771 9.16544 29.9453 8.0159C28.9013 8.47865 27.794 8.78247 26.66 8.91724Z" fill="white"/>
</svg>
