<svg width="40" height="40" viewBox="0 0 40 40" fill="none" xmlns="http://www.w3.org/2000/svg">
<path d="M19.9985 36.6636C18.7168 36.6636 17.4368 36.1769 16.4585 35.2052L15.2418 33.9886C14.7702 33.5186 14.1385 33.2586 13.4685 33.2569H11.7568C8.99017 33.2569 6.7385 31.0052 6.7385 28.2386V26.5252C6.73684 25.8569 6.47684 25.2252 6.00517 24.7502L4.8085 23.5552C2.8485 21.6069 2.84017 18.4219 4.79017 16.4602L6.00684 15.2419C6.47684 14.7702 6.73684 14.1386 6.7385 13.4686V11.7586C6.7385 8.99025 8.99017 6.73858 11.7568 6.73858H13.4702C14.1385 6.73858 14.7685 6.47858 15.2435 6.00358L16.4418 4.80858C18.3902 2.84858 21.5735 2.83858 23.5368 4.79025L24.7535 6.00691C25.2268 6.47858 25.8568 6.73858 26.5252 6.73858H28.2385C31.0052 6.73858 33.2568 8.99025 33.2568 11.7586V13.4702C33.2585 14.1386 33.5185 14.7702 33.9902 15.2452L35.1868 16.4419C36.1352 17.3852 36.6602 18.6419 36.6652 19.9836C36.6685 21.3169 36.1552 22.5719 35.2202 23.5202C35.2035 23.5369 35.1885 23.5552 35.1718 23.5702L33.9885 24.7536C33.5185 25.2252 33.2585 25.8569 33.2568 26.5269V28.2386C33.2568 31.0052 31.0052 33.2569 28.2385 33.2569H26.5252C25.8568 33.2586 25.2252 33.5186 24.7518 33.9902L23.5535 35.1869C22.5768 36.1702 21.2868 36.6636 19.9985 36.6636" fill="#F6E2A7"/>
<path fill-rule="evenodd" clip-rule="evenodd" d="M16.738 16.7514C16.463 17.0264 16.1063 17.1747 15.7113 17.1747C15.3413 17.1747 14.978 17.023 14.6863 16.7497C14.4097 16.4747 14.253 16.098 14.253 15.7164C14.253 15.353 14.4063 14.9797 14.6763 14.6914C14.8247 14.5414 15.0013 14.428 15.178 14.368C15.6813 14.138 16.3497 14.273 16.7463 14.6897C16.888 14.8314 16.9963 14.9864 17.068 15.148C17.1463 15.3214 17.1863 15.518 17.1863 15.7164C17.1863 16.113 17.028 16.4814 16.738 16.7514ZM25.3175 14.6829C24.7492 14.1162 23.8242 14.1162 23.2558 14.6829L14.6892 23.2495C14.1208 23.8179 14.1208 24.7429 14.6892 25.3129C14.9658 25.5879 15.3308 25.7395 15.7208 25.7395C16.1108 25.7395 16.4758 25.5879 16.7508 25.3129L25.3175 16.7462C25.8858 16.1762 25.8858 15.2529 25.3175 14.6829ZM24.843 22.9397C24.303 22.713 23.663 22.8364 23.2363 23.263C23.148 23.3664 23.023 23.5264 22.938 23.7147C22.848 23.918 22.8363 24.1364 22.8363 24.283C22.8363 24.4297 22.848 24.6464 22.938 24.8497C23.0213 25.0364 23.1213 25.188 23.253 25.3197C23.5547 25.5997 23.9047 25.7414 24.2947 25.7414C24.6647 25.7414 25.028 25.5914 25.3263 25.313C25.5913 25.048 25.7363 24.6814 25.7363 24.283C25.7363 23.883 25.5913 23.518 25.3247 23.2514C25.178 23.1064 25.0013 22.993 24.843 22.9397Z" fill="#59481D"/>
</svg>
