<svg width="40" height="40" viewBox="0 0 40 40" fill="none" xmlns="http://www.w3.org/2000/svg">
<path d="M19.9985 36.6637C18.7168 36.6637 17.4368 36.177 16.4585 35.2054L15.2418 33.9887C14.7702 33.5187 14.1385 33.2587 13.4685 33.257H11.7568C8.99017 33.257 6.7385 31.0054 6.7385 28.2387V26.5254C6.73684 25.857 6.47684 25.2254 6.00517 24.7504L4.8085 23.5554C2.8485 21.607 2.84017 18.422 4.79017 16.4604L6.00684 15.242C6.47684 14.7704 6.73684 14.1387 6.7385 13.4687V11.7587C6.7385 8.99037 8.99017 6.7387 11.7568 6.7387H13.4702C14.1385 6.7387 14.7685 6.4787 15.2435 6.0037L16.4418 4.8087C18.3902 2.8487 21.5735 2.8387 23.5368 4.79037L24.7535 6.00704C25.2268 6.4787 25.8568 6.7387 26.5252 6.7387H28.2385C31.0052 6.7387 33.2568 8.99037 33.2568 11.7587V13.4704C33.2585 14.1387 33.5185 14.7704 33.9902 15.2454L35.1868 16.442C36.1352 17.3854 36.6602 18.642 36.6652 19.9837C36.6685 21.317 36.1552 22.572 35.2202 23.5204C35.2035 23.537 35.1885 23.5554 35.1718 23.5704L33.9885 24.7537C33.5185 25.2254 33.2585 25.857 33.2568 26.527V28.2387C33.2568 31.0054 31.0052 33.257 28.2385 33.257H26.5252C25.8568 33.2587 25.2252 33.5187 24.7518 33.9904L23.5535 35.187C22.5768 36.1704 21.2868 36.6637 19.9985 36.6637Z" fill="#8897A2"/>
<path fill-rule="evenodd" clip-rule="evenodd" d="M16.738 16.7515C16.463 17.0265 16.1063 17.1748 15.7113 17.1748C15.3413 17.1748 14.978 17.0232 14.6863 16.7498C14.4097 16.4748 14.253 16.0982 14.253 15.7165C14.253 15.3532 14.4063 14.9798 14.6763 14.6915C14.8247 14.5415 15.0013 14.4282 15.178 14.3682C15.6813 14.1382 16.3497 14.2732 16.7463 14.6898C16.888 14.8315 16.9963 14.9865 17.068 15.1482C17.1463 15.3215 17.1863 15.5182 17.1863 15.7165C17.1863 16.1132 17.028 16.4815 16.738 16.7515ZM25.3175 14.683C24.7492 14.1163 23.8242 14.1163 23.2558 14.683L14.6892 23.2497C14.1208 23.818 14.1208 24.743 14.6892 25.313C14.9658 25.588 15.3308 25.7397 15.7208 25.7397C16.1108 25.7397 16.4758 25.588 16.7508 25.313L25.3175 16.7463C25.8858 16.1763 25.8858 15.253 25.3175 14.683ZM24.843 22.9398C24.303 22.7132 23.663 22.8365 23.2363 23.2632C23.148 23.3665 23.023 23.5265 22.938 23.7148C22.848 23.9182 22.8363 24.1365 22.8363 24.2832C22.8363 24.4298 22.848 24.6465 22.938 24.8498C23.0213 25.0365 23.1213 25.1882 23.253 25.3198C23.5547 25.5998 23.9047 25.7415 24.2947 25.7415C24.6647 25.7415 25.028 25.5915 25.3263 25.3132C25.5913 25.0482 25.7363 24.6815 25.7363 24.2832C25.7363 23.8832 25.5913 23.5182 25.3247 23.2515C25.178 23.1065 25.0013 22.9932 24.843 22.9398Z" fill="white"/>
</svg>
