<svg width="312" height="220" viewBox="0 0 312 220" fill="none" xmlns="http://www.w3.org/2000/svg">
<g clip-path="url(#clip0_381_24330)">
<g opacity="0.32">
<line y1="-0.5" x2="220.239" y2="-0.5" transform="matrix(0.866025 -0.5 0.866025 0.5 -32.5609 143.075)" stroke="#4D708B"/>
<line y1="-0.5" x2="213.761" y2="-0.5" transform="matrix(0.866025 0.5 -0.866026 0.5 111.891 33.7649)" stroke="#4D708B"/>
<line y1="-0.5" x2="220.239" y2="-0.5" transform="matrix(0.866025 -0.5 0.866025 0.5 -4.51196 159.269)" stroke="#4D708B"/>
<line y1="-0.5" x2="213.761" y2="-0.5" transform="matrix(0.866025 0.5 -0.866026 0.5 83.842 49.9589)" stroke="#4D708B"/>
<line y1="-0.5" x2="220.239" y2="-0.5" transform="matrix(0.866025 -0.5 0.866025 0.5 23.5369 175.463)" stroke="#4D708B"/>
<line y1="-0.5" x2="213.761" y2="-0.5" transform="matrix(0.866025 0.5 -0.866026 0.5 55.7932 66.153)" stroke="#4D708B"/>
<line y1="-0.5" x2="220.239" y2="-0.5" transform="matrix(0.866025 -0.5 0.866025 0.5 51.5857 191.657)" stroke="#4D708B"/>
<line y1="-0.5" x2="213.761" y2="-0.5" transform="matrix(0.866025 0.5 -0.866026 0.5 27.7441 82.347)" stroke="#4D708B"/>
<line y1="-0.5" x2="220.239" y2="-0.5" transform="matrix(0.866025 -0.5 0.866025 0.5 79.6345 207.851)" stroke="#4D708B"/>
<line y1="-0.5" x2="213.761" y2="-0.5" transform="matrix(0.866025 0.5 -0.866026 0.5 -0.304688 98.541)" stroke="#4D708B"/>
<line y1="-0.5" x2="220.239" y2="-0.5" transform="matrix(0.866025 -0.5 0.866025 0.5 107.684 224.045)" stroke="#4D708B"/>
<line y1="-0.5" x2="213.761" y2="-0.5" transform="matrix(0.866025 0.5 -0.866026 0.5 -28.3535 114.735)" stroke="#4D708B"/>
</g>
<g clip-path="url(#clip1_381_24330)">
<path d="M17.1083 124.858C14.941 146.761 44.5682 156.849 64.4858 156.978C76.4266 157.474 88.314 155.127 99.1629 150.131L99.9865 149.721C101.091 149.188 102.162 148.589 103.194 147.928C103.368 147.853 103.529 147.751 103.671 147.625L103.953 147.474C109.271 144.367 113.431 139.621 115.808 133.952C115.808 133.671 116.003 133.391 116.068 133.11C116.078 133.053 116.078 132.994 116.068 132.937C116.967 129.852 117.181 126.609 116.696 123.433C116.823 125.526 116.574 127.626 115.96 129.632C115.947 129.747 115.947 129.863 115.96 129.978C115.951 130.049 115.951 130.122 115.96 130.194C113.84 135.459 110.128 139.935 105.34 143.003L104.646 143.5L104.213 143.78L103.151 144.45C102.262 144.947 101.244 145.552 100.29 146.048L99.618 146.394L99.2713 146.545C79.2453 156.201 50.7451 155.79 31.716 144.99C21.9414 139.482 17.13 132.181 17.1083 124.858Z" fill="#1E3440"/>
<path d="M31.8894 104.424C12.3835 115.657 12.2318 133.887 31.651 145.12C41.7571 150.555 53.0456 153.44 64.5292 153.522C63.9762 153.266 63.4803 152.902 63.0707 152.451C62.661 152.001 62.346 151.473 62.144 150.899C61.9421 150.326 61.8573 149.718 61.8947 149.111C61.9321 148.504 62.0909 147.911 62.3619 147.366L70.1208 135.399L64.3775 132.073C59.4818 132.476 54.5724 131.479 50.2249 129.2L45.6518 126.543C38.9115 122.633 38.9332 116.305 45.6518 112.395C49.448 110.468 53.6478 109.463 57.908 109.463C62.1682 109.463 66.368 110.468 70.1642 112.395L74.7806 115.03C78.6384 117.19 80.2639 120.301 79.7004 123.217L85.4438 126.543L106.185 122.093C109.799 121.398 113.541 121.867 116.87 123.433C116.35 116.521 111.538 109.695 102.436 104.424C82.973 93.1919 51.4169 93.1919 31.8894 104.424Z" fill="#2C4656"/>
<path d="M45.6303 112.352C38.8249 116.261 38.8033 122.59 45.6303 126.5L50.2033 129.157C54.5509 131.436 59.4603 132.433 64.3559 132.03C67.9889 131.861 71.5371 130.879 74.7374 129.157C75.9364 128.559 76.9947 127.715 77.8427 126.68C78.6907 125.645 79.3091 124.442 79.6572 123.152C80.2207 120.236 78.5952 117.212 74.7374 114.965L70.1426 112.33C66.3448 110.406 62.1441 109.405 57.8839 109.409C53.6236 109.413 49.4248 110.421 45.6303 112.352Z" fill="white"/>
<path d="M79.6137 123.152C79.2556 124.445 78.6234 125.646 77.7597 126.674C76.8961 127.703 75.821 128.535 74.6072 129.114C71.4097 130.843 67.8599 131.825 64.2257 131.987L69.9691 135.313L62.2101 147.28C61.9388 147.826 61.7796 148.421 61.742 149.029C61.7043 149.638 61.7889 150.247 61.9907 150.823C62.1926 151.398 62.5077 151.928 62.9175 152.38C63.3273 152.832 63.8237 153.199 64.3774 153.458C65.1143 153.868 66.5448 153.458 67.4334 153.458C80.654 153.004 94.7199 150.822 105.6 142.657C111.126 138.748 116.025 132.98 116.653 126.025C116.718 125.119 116.718 124.209 116.653 123.303C113.324 121.738 109.582 121.269 105.968 121.964L85.227 126.284L79.6137 123.152Z" fill="#B5FBCE"/>
</g>
<g clip-path="url(#clip2_381_24330)">
<path d="M140.728 60.3328C140.1 59.1869 139.189 58.2214 138.08 57.529C137.704 57.2512 137.26 57.0778 136.795 57.0266C136.33 56.9755 135.86 57.0486 135.432 57.2381L131.698 59.4071C132.126 59.2175 132.597 59.1445 133.062 59.1956C133.527 59.2467 133.97 59.4201 134.346 59.698C135.433 60.3496 136.342 61.2579 136.994 62.343L156.8 96.7281L160.534 94.5592L140.728 60.3328Z" fill="#5CC993"/>
<path d="M200.438 76.3615L200.12 76.1234L199.749 75.9647L169.669 65.0937C169.514 65.0275 169.348 64.9935 169.179 64.9935C169.011 64.9935 168.844 65.0275 168.69 65.0937L164.956 67.2627C165.109 67.1898 165.276 67.1521 165.446 67.1521C165.615 67.1521 165.783 67.1898 165.936 67.2627L196.016 78.1336L196.386 78.2923L196.731 78.5304C197.231 78.9352 197.627 79.4538 197.885 80.0429C198.143 80.632 198.255 81.2743 198.214 81.916L192.468 113.154C192.454 113.324 192.402 113.489 192.315 113.635C192.228 113.782 192.108 113.907 191.965 114L195.698 111.831C195.841 111.738 195.961 111.613 196.049 111.467C196.136 111.32 196.188 111.155 196.201 110.985L202.026 79.6413C202.041 79.0079 201.905 78.3802 201.628 77.8099C201.352 77.2396 200.944 76.7431 200.438 76.3615Z" fill="#5CC993"/>
<path d="M196.386 78.1866L196.731 78.4247C197.231 78.8295 197.627 79.3481 197.885 79.9372C198.143 80.5263 198.255 81.1686 198.214 81.8102L192.468 113.048C192.468 113.204 192.43 113.357 192.359 113.496C192.288 113.634 192.184 113.754 192.057 113.844C191.93 113.935 191.784 113.994 191.629 114.016C191.475 114.039 191.318 114.024 191.17 113.974C190.977 113.926 190.79 113.855 190.614 113.762C190.058 113.407 189.602 112.915 189.29 112.334L179.758 95.8552L159.422 107.44C158.997 107.634 158.527 107.711 158.062 107.664C157.597 107.618 157.153 107.45 156.774 107.176C155.67 106.478 154.759 105.514 154.126 104.372L134.32 69.9871L114.355 81.3342C113.929 81.5274 113.46 81.6047 112.995 81.5582C112.53 81.5118 112.086 81.3433 111.707 81.0697C110.626 80.4114 109.718 79.5046 109.059 78.4247C107.55 75.7797 107.523 73.1346 109.059 72.2618L131.672 59.3806C132.1 59.191 132.57 59.118 133.035 59.1691C133.5 59.2202 133.944 59.3936 134.32 59.6715C135.406 60.3231 136.316 61.2314 136.968 62.3165L156.774 96.7017L174.462 86.6242L164.93 70.1721C164.677 69.7277 164.498 69.2454 164.4 68.7439C164.215 67.4478 164.903 66.7072 165.909 67.0775L195.989 77.9485L196.386 78.1866Z" fill="#49A477"/>
</g>
<g clip-path="url(#clip3_381_24330)">
<path d="M159.171 144.689C159.039 144.731 158.923 144.815 158.841 144.928C158.759 145.04 158.715 145.176 158.715 145.316C158.715 145.455 158.759 145.591 158.841 145.704C158.923 145.817 159.039 145.9 159.171 145.942C159.491 146.092 159.84 146.169 160.193 146.169C160.546 146.169 160.895 146.092 161.215 145.942L175.136 137.909C175.269 137.867 175.384 137.784 175.466 137.671C175.548 137.558 175.593 137.422 175.593 137.283C175.593 137.143 175.548 137.007 175.466 136.894C175.384 136.782 175.269 136.698 175.136 136.656C174.816 136.507 174.467 136.43 174.114 136.43C173.761 136.43 173.412 136.507 173.092 136.656L159.171 144.689Z" fill="#497B99"/>
<path d="M151.71 149.024C151.577 149.067 151.462 149.15 151.38 149.263C151.298 149.375 151.253 149.511 151.253 149.651C151.253 149.791 151.298 149.927 151.38 150.039C151.462 150.152 151.577 150.235 151.71 150.278C152.03 150.427 152.379 150.504 152.732 150.504C153.085 150.504 153.434 150.427 153.754 150.278L155.798 149.024C156.391 148.696 156.391 148.141 155.798 147.792C155.481 147.632 155.131 147.55 154.776 147.55C154.421 147.55 154.071 147.632 153.754 147.792L151.71 149.024Z" fill="#497B99"/>
<path d="M167.654 149.661C167.529 149.708 167.421 149.792 167.345 149.902C167.269 150.012 167.228 150.143 167.228 150.278C167.228 150.412 167.269 150.543 167.345 150.653C167.421 150.763 167.529 150.847 167.654 150.894C167.973 151.049 168.322 151.129 168.676 151.129C169.03 151.129 169.38 151.049 169.699 150.894L183.66 142.84C184.253 142.491 184.274 141.936 183.66 141.587C183.327 141.42 182.96 141.334 182.587 141.334C182.215 141.334 181.848 141.42 181.514 141.587L167.654 149.661Z" fill="#497B99"/>
<path d="M160.193 153.996C160.068 154.043 159.96 154.127 159.884 154.237C159.807 154.347 159.766 154.478 159.766 154.613C159.766 154.747 159.807 154.878 159.884 154.988C159.96 155.098 160.068 155.182 160.193 155.229C160.512 155.384 160.861 155.464 161.215 155.464C161.569 155.464 161.918 155.384 162.237 155.229L164.384 153.996C164.516 153.954 164.632 153.871 164.714 153.758C164.796 153.645 164.84 153.509 164.84 153.37C164.84 153.23 164.796 153.094 164.714 152.981C164.632 152.869 164.516 152.785 164.384 152.743C164.049 152.581 163.682 152.497 163.31 152.497C162.939 152.497 162.572 152.581 162.237 152.743L160.193 153.996Z" fill="#497B99"/>
<path d="M176.158 154.613C176.033 154.659 175.925 154.743 175.849 154.854C175.773 154.964 175.732 155.095 175.732 155.229C175.732 155.363 175.773 155.494 175.849 155.604C175.925 155.715 176.033 155.799 176.158 155.845C176.476 156.005 176.826 156.087 177.18 156.087C177.535 156.087 177.885 156.005 178.203 155.845L192.083 147.792C192.676 147.442 192.676 146.888 192.083 146.559C191.751 146.386 191.383 146.296 191.01 146.296C190.636 146.296 190.268 146.386 189.936 146.559L176.158 154.613Z" fill="#497B99"/>
<path d="M168.677 158.948C168.551 158.994 168.443 159.079 168.367 159.189C168.291 159.299 168.25 159.43 168.25 159.564C168.25 159.698 168.291 159.829 168.367 159.939C168.443 160.05 168.551 160.134 168.677 160.18C168.994 160.34 169.344 160.422 169.699 160.422C170.053 160.422 170.403 160.34 170.721 160.18L172.765 158.948C172.897 158.905 173.013 158.822 173.095 158.709C173.177 158.597 173.221 158.461 173.221 158.321C173.221 158.181 173.177 158.046 173.095 157.933C173.013 157.82 172.897 157.737 172.765 157.694C172.431 157.528 172.064 157.441 171.692 157.441C171.319 157.441 170.952 157.528 170.619 157.694L168.677 158.948Z" fill="#497B99"/>
<path d="M205.104 152.866L205.104 157.797L214.753 156.688C215.041 156.645 215.319 156.547 215.571 156.4C215.747 156.333 215.902 156.219 216.02 156.071C216.039 155.99 216.039 155.906 216.02 155.825L216.02 150.894C216.039 150.975 216.039 151.059 216.02 151.14C215.937 151.297 215.809 151.426 215.652 151.51C215.411 151.641 215.148 151.725 214.876 151.757L205.104 152.866Z" fill="#1E3440"/>
<path d="M203.142 158.496L203.162 163.427L205.125 157.797L205.104 152.866L203.142 158.496Z" fill="#1E3440"/>
<path d="M192.308 160.304L192.308 165.235L201.956 164.125C202.235 164.093 202.505 164.009 202.754 163.879C202.935 163.776 203.078 163.618 203.162 163.427L203.162 158.455C203.085 158.65 202.94 158.811 202.754 158.907C202.505 159.037 202.235 159.121 201.956 159.153L192.308 160.304Z" fill="#1E3440"/>
<path d="M190.325 165.933L190.345 170.864L192.308 165.235L192.287 160.324L190.325 165.933Z" fill="#1E3440"/>
<path d="M179.47 167.741L179.47 172.672L189.139 171.542C189.407 171.523 189.667 171.438 189.895 171.295C190.09 171.214 190.244 171.059 190.325 170.864L190.325 165.933C190.247 166.123 190.101 166.277 189.916 166.365C189.68 166.507 189.414 166.592 189.139 166.611L179.47 167.741Z" fill="#1E3440"/>
<path d="M177.528 173.371L177.528 178.301L179.49 172.672L179.49 167.741L177.528 173.371Z" fill="#1E3440"/>
<path d="M130 147.175L130 152.106C130.005 152.239 130.049 152.368 130.125 152.477C130.201 152.587 130.307 152.672 130.429 152.722L174.993 178.753C175.462 178.983 175.993 179.055 176.506 178.959C176.721 178.928 176.929 178.859 177.119 178.753C177.301 178.652 177.445 178.493 177.528 178.301L177.528 173.371C177.436 173.563 177.286 173.721 177.099 173.823C176.908 173.928 176.7 173.997 176.485 174.028C175.972 174.124 175.442 174.052 174.973 173.823L130.429 147.792C130.307 147.741 130.201 147.656 130.125 147.546C130.049 147.437 130.005 147.308 130 147.175Z" fill="#1E3440"/>
<path d="M130.429 146.559C130.304 146.606 130.196 146.69 130.12 146.8C130.044 146.91 130.003 147.041 130.003 147.175C130.003 147.309 130.044 147.44 130.12 147.551C130.196 147.661 130.304 147.745 130.429 147.792L174.973 173.823C175.439 174.061 175.973 174.134 176.485 174.028C176.701 173.997 176.908 173.928 177.099 173.823C177.291 173.728 177.443 173.568 177.528 173.371L179.572 167.741L189.139 166.673C189.412 166.66 189.678 166.582 189.916 166.447C190.098 166.346 190.242 166.187 190.325 165.995L192.369 160.365L202.038 159.256C202.311 159.227 202.575 159.143 202.815 159.009C202.985 158.869 203.101 158.672 203.142 158.455L205.186 152.825L214.855 151.716C215.127 151.684 215.391 151.6 215.632 151.469C215.788 151.385 215.916 151.256 216 151.099C216.164 150.791 216 150.462 215.632 150.236L171.048 124.247C170.728 124.097 170.379 124.02 170.026 124.02C169.673 124.02 169.324 124.097 169.004 124.247L130.429 146.559ZM161.297 145.942C160.977 146.092 160.628 146.169 160.275 146.169C159.922 146.169 159.573 146.092 159.253 145.942C159.12 145.9 159.005 145.817 158.923 145.704C158.841 145.591 158.797 145.455 158.797 145.316C158.797 145.176 158.841 145.04 158.923 144.928C159.005 144.815 159.12 144.731 159.253 144.689L173.092 136.635C173.412 136.486 173.761 136.409 174.114 136.409C174.467 136.409 174.816 136.486 175.136 136.635C175.277 136.672 175.402 136.754 175.491 136.869C175.58 136.985 175.628 137.126 175.628 137.272C175.628 137.418 175.58 137.56 175.491 137.675C175.402 137.791 175.277 137.873 175.136 137.909L161.256 145.963L161.297 145.942ZM169.74 150.914C169.421 151.069 169.071 151.149 168.717 151.149C168.363 151.149 168.014 151.069 167.695 150.914C167.57 150.868 167.462 150.784 167.386 150.673C167.31 150.563 167.269 150.432 167.269 150.298C167.269 150.164 167.31 150.033 167.386 149.923C167.462 149.813 167.57 149.728 167.695 149.682L181.535 141.607C181.868 141.441 182.235 141.354 182.608 141.354C182.98 141.354 183.348 141.441 183.681 141.607C184.274 141.957 184.253 142.511 183.681 142.861L169.801 150.914H169.74ZM178.284 155.866C177.967 156.025 177.617 156.108 177.262 156.108C176.908 156.108 176.558 156.025 176.24 155.866C176.115 155.819 176.007 155.735 175.931 155.625C175.855 155.515 175.814 155.384 175.814 155.25C175.814 155.115 175.855 154.984 175.931 154.874C176.007 154.764 176.115 154.68 176.24 154.633L190.1 146.579C190.431 146.406 190.8 146.316 191.173 146.316C191.547 146.316 191.915 146.406 192.246 146.579C192.819 146.908 192.819 147.463 192.246 147.812L178.366 155.866H178.284ZM153.836 150.298C153.515 150.447 153.166 150.524 152.813 150.524C152.46 150.524 152.112 150.447 151.791 150.298C151.659 150.256 151.543 150.172 151.461 150.06C151.379 149.947 151.335 149.811 151.335 149.671C151.335 149.532 151.379 149.396 151.461 149.283C151.543 149.171 151.659 149.087 151.791 149.045L153.836 147.812C154.153 147.653 154.503 147.57 154.858 147.57C155.212 147.57 155.562 147.653 155.88 147.812C156.473 148.161 156.473 148.716 155.88 149.045L153.836 150.298ZM162.319 155.25C162 155.404 161.651 155.485 161.297 155.485C160.943 155.485 160.594 155.404 160.275 155.25C160.15 155.203 160.042 155.119 159.965 155.009C159.889 154.898 159.848 154.767 159.848 154.633C159.848 154.499 159.889 154.368 159.965 154.258C160.042 154.148 160.15 154.064 160.275 154.017L162.319 152.764C162.654 152.601 163.021 152.517 163.392 152.517C163.764 152.517 164.131 152.601 164.465 152.764C164.598 152.806 164.713 152.889 164.795 153.002C164.878 153.115 164.922 153.251 164.922 153.39C164.922 153.53 164.878 153.666 164.795 153.778C164.713 153.891 164.598 153.975 164.465 154.017L162.319 155.25ZM170.823 160.201C170.506 160.36 170.156 160.443 169.801 160.443C169.446 160.443 169.096 160.36 168.779 160.201C168.654 160.154 168.546 160.07 168.469 159.96C168.393 159.85 168.352 159.719 168.352 159.585C168.352 159.45 168.393 159.319 168.469 159.209C168.546 159.099 168.654 159.015 168.779 158.968L170.823 157.736C171.156 157.569 171.524 157.482 171.896 157.482C172.269 157.482 172.636 157.569 172.969 157.736C173.102 157.778 173.217 157.861 173.299 157.974C173.381 158.087 173.426 158.223 173.426 158.362C173.426 158.502 173.381 158.638 173.299 158.75C173.217 158.863 173.102 158.947 172.969 158.989L170.925 160.222" fill="#2C4656"/>
<path d="M176.745 150.063C181.484 147.29 181.484 142.794 176.745 140.021C172.005 137.248 164.321 137.248 159.582 140.021C154.842 142.794 154.842 147.29 159.582 150.063C164.321 152.836 172.005 152.836 176.745 150.063Z" fill="#65D58D"/>
<g clip-path="url(#clip4_381_24330)">
<path d="M170.079 147.347L164.724 147.347L164.724 145.954L167.702 145.957L167.698 141.081L170.079 141.081L170.079 147.347Z" fill="white"/>
</g>
</g>
</g>
<defs>
<clipPath id="clip0_381_24330">
<rect width="312" height="220" fill="white"/>
</clipPath>
<clipPath id="clip1_381_24330">
<rect width="100" height="61" fill="white" transform="matrix(-1 0 0 1 117 96)"/>
</clipPath>
<clipPath id="clip2_381_24330">
<rect width="94" height="57" fill="white" transform="translate(108 57)"/>
</clipPath>
<clipPath id="clip3_381_24330">
<rect width="86" height="55" fill="white" transform="matrix(-1 0 -7.98551e-09 1 216 124)"/>
</clipPath>
<clipPath id="clip4_381_24330">
<rect width="11.6998" height="11.6998" fill="white" transform="matrix(0.863117 -0.505005 0.863117 0.505005 158.047 144.649)"/>
</clipPath>
</defs>
</svg>
