<svg width="312" height="220" viewBox="0 0 312 220" fill="none" xmlns="http://www.w3.org/2000/svg">
<g clip-path="url(#clip0_379_23312)">
<g opacity="0.32">
<line y1="-0.5" x2="220.239" y2="-0.5" transform="matrix(0.866025 -0.5 0.866025 0.5 -32.5608 143.075)" stroke="#4D708B"/>
<line y1="-0.5" x2="213.761" y2="-0.5" transform="matrix(0.866025 0.5 -0.866026 0.5 111.891 33.7649)" stroke="#4D708B"/>
<line y1="-0.5" x2="220.239" y2="-0.5" transform="matrix(0.866025 -0.5 0.866025 0.5 -4.51196 159.269)" stroke="#4D708B"/>
<line y1="-0.5" x2="213.761" y2="-0.5" transform="matrix(0.866025 0.5 -0.866026 0.5 83.842 49.9589)" stroke="#4D708B"/>
<line y1="-0.5" x2="220.239" y2="-0.5" transform="matrix(0.866025 -0.5 0.866025 0.5 23.5369 175.463)" stroke="#4D708B"/>
<line y1="-0.5" x2="213.761" y2="-0.5" transform="matrix(0.866025 0.5 -0.866026 0.5 55.7932 66.153)" stroke="#4D708B"/>
<line y1="-0.5" x2="220.239" y2="-0.5" transform="matrix(0.866025 -0.5 0.866025 0.5 51.5857 191.657)" stroke="#4D708B"/>
<line y1="-0.5" x2="213.761" y2="-0.5" transform="matrix(0.866025 0.5 -0.866026 0.5 27.7441 82.347)" stroke="#4D708B"/>
<line y1="-0.5" x2="220.239" y2="-0.5" transform="matrix(0.866025 -0.5 0.866025 0.5 79.6345 207.851)" stroke="#4D708B"/>
<line y1="-0.5" x2="213.761" y2="-0.5" transform="matrix(0.866025 0.5 -0.866026 0.5 -0.304688 98.541)" stroke="#4D708B"/>
<line y1="-0.5" x2="220.239" y2="-0.5" transform="matrix(0.866025 -0.5 0.866025 0.5 107.684 224.045)" stroke="#4D708B"/>
<line y1="-0.5" x2="213.761" y2="-0.5" transform="matrix(0.866025 0.5 -0.866026 0.5 -28.3535 114.735)" stroke="#4D708B"/>
</g>
<path d="M145.811 87.9733C146.215 88.2163 146.551 88.5584 146.788 88.9675C147.024 89.3766 147.154 89.8394 147.165 90.3126C147.165 91.2522 146.612 91.5782 145.811 91.0988L128.218 80.8977C127.814 80.6476 127.479 80.2982 127.246 79.8823C127.012 79.4664 126.888 78.9976 126.884 78.5201C126.884 77.5997 127.437 77.2929 128.237 77.7531L145.811 87.9733Z" fill="#65D58D"/>
<path d="M145.85 75.5287C146.256 75.7779 146.594 76.1266 146.83 76.5424C147.067 76.9582 147.195 77.4274 147.203 77.9064C147.203 78.8268 146.65 79.1336 145.85 78.6734L128.256 68.4532C127.852 68.2102 127.516 67.8681 127.28 67.459C127.043 67.0499 126.913 66.5871 126.903 66.1139C126.903 65.1743 127.456 64.8483 128.275 65.3277L145.85 75.5287Z" fill="#65D58D"/>
<path d="M155.285 93.534C155.689 93.7815 156.025 94.1271 156.261 94.5393C156.498 94.9514 156.627 95.4168 156.638 95.8925C156.638 96.8321 156.085 97.1389 155.285 96.6787L152.559 95.1063C152.155 94.8606 151.82 94.5148 151.587 94.102C151.353 93.6891 151.228 93.2229 151.225 92.7478C151.225 91.8083 151.778 91.5015 152.578 91.9617L155.285 93.534Z" fill="#65D58D"/>
<path d="M155.323 81.032C155.727 81.2794 156.063 81.6251 156.299 82.0372C156.536 82.4494 156.665 82.9147 156.676 83.3905C156.676 84.33 156.123 84.6368 155.304 84.1766L152.597 82.6043C152.219 82.3511 151.907 82.0096 151.688 81.609C151.469 81.2084 151.349 80.7604 151.339 80.3033C151.339 79.3637 151.892 79.0569 152.712 79.5171L155.323 81.032Z" fill="#65D58D"/>
<path d="M155.361 68.5491C155.766 68.7889 156.102 69.1307 156.336 69.5409C156.57 69.9511 156.694 70.4155 156.695 70.8884C156.695 71.828 156.142 72.1348 155.342 71.6746L152.635 70.0831C152.242 69.8332 151.917 69.4881 151.691 69.0795C151.465 68.6708 151.344 68.2116 151.339 67.7438C151.339 66.8042 151.892 66.4974 152.692 66.9768L155.361 68.5491Z" fill="#65D58D"/>
<path d="M145.888 63.0459C146.293 63.2876 146.63 63.6293 146.867 64.0387C147.103 64.4481 147.232 64.9116 147.241 65.3852C147.241 66.3248 146.688 66.6316 145.888 66.1714L128.294 55.9512C127.891 55.7081 127.555 55.3661 127.318 54.957C127.081 54.5479 126.952 54.0851 126.941 53.6118C126.941 52.6723 127.494 52.3655 128.294 52.8257L145.888 63.0459Z" fill="#65D58D"/>
<path d="M168.894 54.4747L120.232 26.2109C120.091 26.1056 119.927 26.0381 119.753 26.0146C119.58 25.9911 119.403 26.0125 119.24 26.0767L116.553 27.649C116.716 27.5848 116.892 27.5634 117.066 27.5869C117.239 27.6104 117.404 27.678 117.544 27.7833L166.207 56.0471C167.026 56.5264 167.579 57.6386 167.16 58.3289L166.969 123.984C166.994 124.157 166.971 124.335 166.904 124.496C166.837 124.658 166.728 124.799 166.588 124.904L169.257 123.332C169.388 123.236 169.494 123.109 169.563 122.961C169.633 122.814 169.665 122.651 169.657 122.488L169.847 56.8332C170.267 56.0662 169.714 54.9541 168.894 54.4747Z" fill="#2C4656"/>
<path d="M166.207 56.0471C167.026 56.5264 167.579 57.6386 167.16 58.3289L166.969 123.984C166.969 124.617 166.702 124.923 166.302 125C166.055 124.981 165.818 124.895 165.616 124.751C165.305 124.531 165.029 124.266 164.796 123.965L157.515 114.109L150.196 115.489C149.94 115.509 149.684 115.441 149.471 115.298C149.175 115.128 148.915 114.899 148.709 114.626L141.427 104.751L134.108 106.151C133.845 106.16 133.585 106.086 133.365 105.94C133.078 105.772 132.826 105.55 132.621 105.288L125.34 95.4131L118.02 96.7937C117.787 96.8222 117.551 96.768 117.353 96.6403C117.081 96.4833 116.846 96.2671 116.667 96.0076C116.258 95.4942 116.025 94.8623 116 94.2051L116.191 28.5503C116.191 27.6299 116.724 27.3231 117.544 27.7833L166.207 56.0471ZM145.85 78.6734C146.65 79.1336 147.203 78.8268 147.203 77.9064C147.195 77.4274 147.067 76.9582 146.83 76.5424C146.594 76.1267 146.256 75.778 145.85 75.5288L128.275 65.3277C127.456 64.8483 126.922 65.1743 126.903 66.1139C126.914 66.5871 127.043 67.0499 127.28 67.459C127.517 67.8681 127.852 68.2102 128.256 68.4532L145.85 78.6734ZM145.85 91.1755C146.65 91.6549 147.203 91.3289 147.203 90.3893C147.201 89.8993 147.072 89.4183 146.828 88.9943C146.584 88.5703 146.233 88.2183 145.812 87.9733L128.237 77.7531C127.437 77.2929 126.884 77.5997 126.884 78.52C126.888 78.9976 127.012 79.4664 127.246 79.8823C127.479 80.2982 127.814 80.6476 128.218 80.8977L145.812 91.0988L145.85 91.1755ZM145.812 66.1714C146.612 66.6316 147.165 66.3248 147.165 65.3852C147.164 64.9189 147.047 64.4601 146.824 64.0513C146.6 63.6425 146.279 63.2968 145.888 63.0459L128.294 52.8257C127.494 52.3655 126.941 52.6723 126.941 53.6119C126.952 54.0851 127.081 54.5479 127.318 54.957C127.555 55.3661 127.891 55.7082 128.294 55.9512L145.888 66.1714H145.812ZM155.304 84.1383C156.124 84.5985 156.657 84.2917 156.676 83.3521C156.665 82.8764 156.536 82.411 156.299 81.9989C156.063 81.5868 155.727 81.2411 155.323 80.9936L152.616 79.4213C151.797 78.9611 151.263 79.2679 151.244 80.2074C151.255 80.6832 151.384 81.1485 151.621 81.5607C151.857 81.9728 152.193 82.3185 152.597 82.5659L155.304 84.1383ZM155.304 96.6403C156.104 97.1005 156.657 96.7937 156.657 95.8542C156.646 95.3784 156.517 94.9131 156.28 94.5009C156.044 94.0888 155.708 93.7431 155.304 93.4956L152.597 91.9233C151.797 91.4631 151.244 91.7699 151.244 92.7095C151.247 93.1845 151.372 93.6507 151.606 94.0636C151.839 94.4765 152.174 94.8223 152.578 95.068L155.304 96.6403ZM155.304 71.713C156.104 72.1732 156.657 71.8664 156.657 70.9268C156.656 70.4539 156.532 69.9894 156.298 69.5793C156.064 69.1691 155.728 68.8272 155.323 68.5874L152.597 67.0151C151.797 66.5357 151.244 66.8425 151.244 67.7821C151.255 68.2553 151.384 68.7181 151.621 69.1272C151.858 69.5363 152.193 69.8784 152.597 70.1214L155.304 71.713Z" fill="#1E3440"/>
<path d="M121.811 101.973C122.215 102.216 122.551 102.558 122.788 102.967C123.024 103.377 123.154 103.839 123.165 104.313C123.165 105.252 122.612 105.578 121.811 105.099L104.218 94.8977C103.814 94.6476 103.479 94.2982 103.246 93.8823C103.012 93.4664 102.888 92.9976 102.884 92.5201C102.884 91.5997 103.437 91.2929 104.237 91.7531L121.811 101.973Z" fill="#65D58D"/>
<path d="M121.85 89.5287C122.256 89.7779 122.594 90.1266 122.83 90.5424C123.067 90.9582 123.195 91.4274 123.203 91.9064C123.203 92.8268 122.65 93.1336 121.85 92.6734L104.256 82.4532C103.852 82.2102 103.516 81.8681 103.28 81.459C103.043 81.0499 102.913 80.5871 102.903 80.1139C102.903 79.1743 103.456 78.8483 104.275 79.3277L121.85 89.5287Z" fill="#65D58D"/>
<path d="M131.285 107.534C131.689 107.781 132.025 108.127 132.261 108.539C132.498 108.951 132.627 109.417 132.638 109.893C132.638 110.832 132.085 111.139 131.285 110.679L128.559 109.106C128.155 108.861 127.82 108.515 127.587 108.102C127.353 107.689 127.228 107.223 127.225 106.748C127.225 105.808 127.778 105.501 128.578 105.962L131.285 107.534Z" fill="#65D58D"/>
<path d="M131.323 95.032C131.727 95.2794 132.063 95.6251 132.299 96.0372C132.536 96.4494 132.665 96.9147 132.676 97.3905C132.676 98.33 132.123 98.6368 131.304 98.1766L128.597 96.6043C128.219 96.3511 127.907 96.0096 127.688 95.609C127.469 95.2084 127.349 94.7604 127.339 94.3033C127.339 93.3637 127.892 93.0569 128.712 93.5171L131.323 95.032Z" fill="#65D58D"/>
<path d="M131.361 82.5491C131.766 82.7889 132.102 83.1307 132.336 83.5409C132.57 83.9511 132.694 84.4155 132.695 84.8884C132.695 85.828 132.142 86.1348 131.342 85.6746L128.635 84.0831C128.242 83.8332 127.917 83.4881 127.691 83.0795C127.465 82.6708 127.344 82.2116 127.339 81.7438C127.339 80.8042 127.892 80.4974 128.692 80.9768L131.361 82.5491Z" fill="#65D58D"/>
<path d="M121.888 77.0459C122.293 77.2876 122.63 77.6293 122.867 78.0387C123.103 78.4481 123.232 78.9116 123.241 79.3852C123.241 80.3248 122.688 80.6316 121.888 80.1714L104.294 69.9512C103.891 69.7081 103.555 69.3661 103.318 68.957C103.081 68.5479 102.952 68.0851 102.941 67.6118C102.941 66.6723 103.494 66.3655 104.294 66.8257L121.888 77.0459Z" fill="#65D58D"/>
<path d="M144.894 68.4747L96.2315 40.2109C96.0913 40.1056 95.9267 40.0381 95.7532 40.0146C95.5798 39.9911 95.4033 40.0125 95.2403 40.0767L92.5527 41.649C92.7157 41.5848 92.8922 41.5634 93.0656 41.5869C93.239 41.6104 93.4037 41.678 93.5439 41.7833L142.207 70.0471C143.026 70.5264 143.579 71.6386 143.16 72.3289L142.969 137.984C142.994 138.157 142.971 138.335 142.904 138.496C142.837 138.658 142.728 138.799 142.588 138.904L145.257 137.332C145.388 137.236 145.494 137.109 145.563 136.961C145.633 136.814 145.665 136.651 145.657 136.488L145.847 70.8332C146.267 70.0662 145.714 68.9541 144.894 68.4747Z" fill="#2C4656"/>
<path d="M142.207 70.0471C143.026 70.5264 143.579 71.6386 143.16 72.3289L142.969 137.984C142.969 138.617 142.702 138.923 142.302 139C142.055 138.981 141.818 138.895 141.616 138.751C141.305 138.531 141.029 138.266 140.796 137.965L133.515 128.109L126.196 129.489C125.94 129.509 125.684 129.441 125.471 129.298C125.175 129.128 124.915 128.899 124.709 128.626L117.427 118.751L110.108 120.151C109.845 120.16 109.585 120.086 109.365 119.94C109.078 119.772 108.826 119.55 108.621 119.288L101.34 109.413L94.0205 110.794C93.7871 110.822 93.5512 110.768 93.3533 110.64C93.0807 110.483 92.8463 110.267 92.6671 110.008C92.2585 109.494 92.0246 108.862 92 108.205L92.1906 42.5503C92.1906 41.6299 92.7243 41.3231 93.5439 41.7833L142.207 70.0471ZM121.85 92.6734C122.65 93.1336 123.203 92.8268 123.203 91.9064C123.195 91.4274 123.067 90.9582 122.83 90.5424C122.594 90.1267 122.256 89.778 121.85 89.5288L104.275 79.3277C103.456 78.8483 102.922 79.1743 102.903 80.1139C102.914 80.5871 103.043 81.0499 103.28 81.459C103.517 81.8681 103.852 82.2102 104.256 82.4532L121.85 92.6734ZM121.85 105.175C122.65 105.655 123.203 105.329 123.203 104.389C123.201 103.899 123.072 103.418 122.828 102.994C122.584 102.57 122.233 102.218 121.812 101.973L104.237 91.7531C103.437 91.2929 102.884 91.5997 102.884 92.52C102.888 92.9976 103.012 93.4664 103.246 93.8823C103.479 94.2982 103.814 94.6476 104.218 94.8977L121.812 105.099L121.85 105.175ZM121.812 80.1714C122.612 80.6316 123.165 80.3248 123.165 79.3852C123.164 78.9189 123.047 78.4601 122.824 78.0513C122.6 77.6425 122.279 77.2968 121.888 77.0459L104.294 66.8257C103.494 66.3655 102.941 66.6723 102.941 67.6119C102.952 68.0851 103.081 68.5479 103.318 68.957C103.555 69.3661 103.891 69.7082 104.294 69.9512L121.888 80.1714H121.812ZM131.304 98.1383C132.124 98.5985 132.657 98.2917 132.676 97.3521C132.665 96.8764 132.536 96.411 132.299 95.9989C132.063 95.5868 131.727 95.2411 131.323 94.9936L128.616 93.4213C127.797 92.9611 127.263 93.2679 127.244 94.2074C127.255 94.6832 127.384 95.1485 127.621 95.5607C127.857 95.9728 128.193 96.3185 128.597 96.5659L131.304 98.1383ZM131.304 110.64C132.104 111.101 132.657 110.794 132.657 109.854C132.646 109.378 132.517 108.913 132.28 108.501C132.044 108.089 131.708 107.743 131.304 107.496L128.597 105.923C127.797 105.463 127.244 105.77 127.244 106.709C127.247 107.185 127.372 107.651 127.606 108.064C127.839 108.476 128.174 108.822 128.578 109.068L131.304 110.64ZM131.304 85.713C132.104 86.1732 132.657 85.8664 132.657 84.9268C132.656 84.4539 132.532 83.9894 132.298 83.5793C132.064 83.1691 131.728 82.8272 131.323 82.5874L128.597 81.0151C127.797 80.5357 127.244 80.8425 127.244 81.7821C127.255 82.2553 127.384 82.7181 127.621 83.1272C127.858 83.5363 128.193 83.8784 128.597 84.1214L131.304 85.713Z" fill="#1E3440"/>
<path d="M96.8114 116.973C97.2152 117.216 97.5511 117.558 97.7878 117.967C98.0245 118.377 98.1542 118.839 98.1648 119.313C98.1648 120.252 97.612 120.578 96.8114 120.099L79.2181 109.898C78.8136 109.648 78.479 109.298 78.2456 108.882C78.0122 108.466 77.8877 107.998 77.8838 107.52C77.8838 106.6 78.4366 106.293 79.2371 106.753L96.8114 116.973Z" fill="#65D58D"/>
<path d="M96.8495 104.529C97.2563 104.778 97.5937 105.127 97.8303 105.542C98.067 105.958 98.1951 106.427 98.2029 106.906C98.2029 107.827 97.6501 108.134 96.8495 107.673L79.2562 97.4532C78.8524 97.2102 78.5165 96.8681 78.2798 96.459C78.0431 96.0499 77.9134 95.5871 77.9028 95.1139C77.9028 94.1743 78.4556 93.8483 79.2752 94.3277L96.8495 104.529Z" fill="#65D58D"/>
<path d="M106.285 122.534C106.689 122.781 107.025 123.127 107.261 123.539C107.498 123.951 107.627 124.417 107.638 124.893C107.638 125.832 107.085 126.139 106.285 125.679L103.559 124.106C103.155 123.861 102.82 123.515 102.587 123.102C102.353 122.689 102.228 122.223 102.225 121.748C102.225 120.808 102.778 120.501 103.578 120.962L106.285 122.534Z" fill="#65D58D"/>
<path d="M106.323 110.032C106.727 110.279 107.063 110.625 107.299 111.037C107.536 111.449 107.665 111.915 107.676 112.39C107.676 113.33 107.123 113.637 106.304 113.177L103.597 111.604C103.219 111.351 102.907 111.01 102.688 110.609C102.469 110.208 102.349 109.76 102.339 109.303C102.339 108.364 102.892 108.057 103.712 108.517L106.323 110.032Z" fill="#65D58D"/>
<path d="M106.361 97.5491C106.766 97.7889 107.102 98.1307 107.336 98.5409C107.57 98.9511 107.694 99.4155 107.695 99.8884C107.695 100.828 107.142 101.135 106.342 100.675L103.635 99.0831C103.242 98.8332 102.917 98.4881 102.691 98.0795C102.465 97.6708 102.344 97.2116 102.339 96.7438C102.339 95.8042 102.892 95.4974 103.692 95.9768L106.361 97.5491Z" fill="#65D58D"/>
<path d="M96.8879 92.0459C97.2929 92.2876 97.6298 92.6293 97.8666 93.0387C98.1035 93.4481 98.2324 93.9116 98.2412 94.3852C98.2412 95.3248 97.6884 95.6316 96.8879 95.1714L79.2945 84.9512C78.8907 84.7081 78.5548 84.3661 78.3181 83.957C78.0814 83.5479 77.9518 83.0851 77.9412 82.6118C77.9412 81.6723 78.4939 81.3655 79.2945 81.8257L96.8879 92.0459Z" fill="#65D58D"/>
<path d="M119.894 83.4747L71.2315 55.2109C71.0913 55.1056 70.9267 55.0381 70.7532 55.0146C70.5798 54.9911 70.4033 55.0125 70.2403 55.0767L67.5527 56.649C67.7157 56.5848 67.8922 56.5634 68.0656 56.5869C68.239 56.6104 68.4037 56.678 68.5439 56.7833L117.207 85.0471C118.026 85.5264 118.579 86.6386 118.16 87.3289L117.969 152.984C117.994 153.157 117.971 153.335 117.904 153.496C117.837 153.658 117.728 153.799 117.588 153.904L120.257 152.332C120.388 152.236 120.494 152.109 120.563 151.961C120.633 151.814 120.665 151.651 120.657 151.488L120.847 85.8332C121.267 85.0662 120.714 83.9541 119.894 83.4747Z" fill="#2C4656"/>
<path d="M117.207 85.0471C118.026 85.5264 118.579 86.6386 118.16 87.3289L117.969 152.984C117.969 153.617 117.702 153.923 117.302 154C117.055 153.981 116.818 153.895 116.616 153.751C116.305 153.531 116.029 153.266 115.796 152.965L108.515 143.109L101.196 144.489C100.94 144.509 100.684 144.441 100.471 144.298C100.175 144.128 99.9155 143.899 99.7088 143.626L92.4275 133.751L85.108 135.151C84.8445 135.16 84.5848 135.086 84.3646 134.94C84.0785 134.772 83.8263 134.55 83.6213 134.288L76.3399 124.413L69.0205 125.794C68.7871 125.822 68.5512 125.768 68.3533 125.64C68.0807 125.483 67.8463 125.267 67.6671 125.008C67.2585 124.494 67.0246 123.862 67 123.205L67.1906 57.5503C67.1906 56.6299 67.7243 56.3231 68.5439 56.7833L117.207 85.0471ZM96.8496 107.673C97.6502 108.134 98.203 107.827 98.203 106.906C98.1952 106.427 98.0671 105.958 97.8304 105.542C97.5938 105.127 97.2564 104.778 96.8496 104.529L79.2753 94.3277C78.4557 93.8483 77.922 94.1743 77.9029 95.1139C77.9135 95.5871 78.0432 96.0499 78.2799 96.459C78.5166 96.8681 78.8525 97.2102 79.2563 97.4532L96.8496 107.673ZM96.8496 120.175C97.6502 120.655 98.203 120.329 98.203 119.389C98.2015 118.899 98.0722 118.418 97.828 117.994C97.5839 117.57 97.2333 117.218 96.8115 116.973L79.2372 106.753C78.4366 106.293 77.8839 106.6 77.8839 107.52C77.8878 107.998 78.0123 108.466 78.2457 108.882C78.4791 109.298 78.8137 109.648 79.2181 109.898L96.8115 120.099L96.8496 120.175ZM96.8115 95.1714C97.6121 95.6316 98.1648 95.3248 98.1648 94.3852C98.1641 93.9189 98.0467 93.4601 97.8236 93.0513C97.6004 92.6425 97.2786 92.2968 96.8878 92.0459L79.2944 81.8257C78.4938 81.3655 77.9411 81.6723 77.9411 82.6119C77.9516 83.0851 78.0813 83.5479 78.318 83.957C78.5547 84.3661 78.8906 84.7082 79.2944 84.9512L96.8878 95.1714H96.8115ZM106.304 113.138C107.124 113.598 107.657 113.292 107.676 112.352C107.665 111.876 107.536 111.411 107.299 110.999C107.063 110.587 106.727 110.241 106.323 109.994L103.616 108.421C102.797 107.961 102.263 108.268 102.244 109.207C102.255 109.683 102.384 110.149 102.621 110.561C102.857 110.973 103.193 111.318 103.597 111.566L106.304 113.138ZM106.304 125.64C107.104 126.101 107.657 125.794 107.657 124.854C107.646 124.378 107.517 123.913 107.28 123.501C107.044 123.089 106.708 122.743 106.304 122.496L103.597 120.923C102.797 120.463 102.244 120.77 102.244 121.709C102.247 122.185 102.372 122.651 102.606 123.064C102.839 123.476 103.174 123.822 103.578 124.068L106.304 125.64ZM106.304 100.713C107.104 101.173 107.657 100.866 107.657 99.9268C107.656 99.4539 107.532 98.9894 107.298 98.5793C107.064 98.1691 106.728 97.8272 106.323 97.5874L103.597 96.0151C102.797 95.5357 102.244 95.8425 102.244 96.7821C102.255 97.2553 102.384 97.7181 102.621 98.1272C102.858 98.5363 103.193 98.8784 103.597 99.1214L106.304 100.713Z" fill="#1E3440"/>
<path d="M68.8114 130.973C69.2152 131.216 69.5511 131.558 69.7878 131.967C70.0245 132.377 70.1542 132.839 70.1648 133.313C70.1648 134.252 69.612 134.578 68.8114 134.099L51.2181 123.898C50.8136 123.648 50.479 123.298 50.2456 122.882C50.0122 122.466 49.8877 121.998 49.8838 121.52C49.8838 120.6 50.4366 120.293 51.2371 120.753L68.8114 130.973Z" fill="#65D58D"/>
<path d="M68.8495 118.529C69.2563 118.778 69.5937 119.127 69.8303 119.542C70.067 119.958 70.1951 120.427 70.2029 120.906C70.2029 121.827 69.6501 122.134 68.8495 121.673L51.2562 111.453C50.8524 111.21 50.5165 110.868 50.2798 110.459C50.0431 110.05 49.9134 109.587 49.9028 109.114C49.9028 108.174 50.4556 107.848 51.2752 108.328L68.8495 118.529Z" fill="#65D58D"/>
<path d="M78.2849 136.534C78.6889 136.781 79.0246 137.127 79.2611 137.539C79.4976 137.951 79.6273 138.417 79.6382 138.893C79.6382 139.832 79.0854 140.139 78.2849 139.679L75.5591 138.106C75.155 137.861 74.8201 137.515 74.5865 137.102C74.353 136.689 74.2284 136.223 74.2249 135.748C74.2249 134.808 74.7776 134.501 75.5782 134.962L78.2849 136.534Z" fill="#65D58D"/>
<path d="M78.3229 124.032C78.7269 124.279 79.0626 124.625 79.2991 125.037C79.5356 125.449 79.6653 125.915 79.6762 126.39C79.6762 127.33 79.1234 127.637 78.3038 127.177L75.5971 125.604C75.2187 125.351 74.9067 125.01 74.6876 124.609C74.4686 124.208 74.349 123.76 74.3391 123.303C74.3391 122.364 74.8919 122.057 75.7115 122.517L78.3229 124.032Z" fill="#65D58D"/>
<path d="M78.361 111.549C78.7662 111.789 79.1023 112.131 79.3363 112.541C79.5702 112.951 79.694 113.416 79.6953 113.888C79.6953 114.828 79.1425 115.135 78.3419 114.675L75.6353 113.083C75.2421 112.833 74.9175 112.488 74.6911 112.079C74.4646 111.671 74.3436 111.212 74.3391 110.744C74.3391 109.804 74.8919 109.497 75.6924 109.977L78.361 111.549Z" fill="#65D58D"/>
<path d="M68.8879 106.046C69.2929 106.288 69.6298 106.629 69.8666 107.039C70.1035 107.448 70.2324 107.912 70.2412 108.385C70.2412 109.325 69.6884 109.632 68.8879 109.171L51.2945 98.9512C50.8907 98.7081 50.5548 98.3661 50.3181 97.957C50.0814 97.5479 49.9518 97.0851 49.9412 96.6118C49.9412 95.6723 50.4939 95.3655 51.2945 95.8257L68.8879 106.046Z" fill="#65D58D"/>
<path d="M91.8944 97.4747L43.2315 69.2109C43.0913 69.1056 42.9267 69.0381 42.7532 69.0146C42.5798 68.9911 42.4033 69.0125 42.2403 69.0767L39.5527 70.649C39.7157 70.5848 39.8922 70.5634 40.0656 70.5869C40.239 70.6104 40.4037 70.678 40.5439 70.7833L89.2068 99.0471C90.0264 99.5264 90.5792 100.639 90.1599 101.329L89.9693 166.984C89.9936 167.157 89.9711 167.335 89.904 167.496C89.8369 167.658 89.7278 167.799 89.588 167.904L92.2566 166.332C92.388 166.236 92.4935 166.109 92.5634 165.961C92.6334 165.814 92.6655 165.651 92.6569 165.488L92.8475 99.8332C93.2668 99.0662 92.714 97.9541 91.8944 97.4747Z" fill="#2C4656"/>
<path d="M89.2068 99.0471C90.0265 99.5264 90.5792 100.639 90.1599 101.329L89.9693 166.984C89.9693 167.617 89.7024 167.923 89.3022 168C89.0553 167.981 88.8181 167.895 88.616 167.751C88.3054 167.531 88.0291 167.266 87.7963 166.965L80.515 157.109L73.1956 158.489C72.9396 158.509 72.6844 158.441 72.4712 158.298C72.1748 158.128 71.9155 157.899 71.7088 157.626L64.4275 147.751L57.108 149.151C56.8445 149.16 56.5848 149.086 56.3646 148.94C56.0785 148.772 55.8263 148.55 55.6213 148.288L48.3399 138.413L41.0205 139.794C40.7871 139.822 40.5512 139.768 40.3533 139.64C40.0807 139.483 39.8463 139.267 39.6671 139.008C39.2585 138.494 39.0246 137.862 39 137.205L39.1906 71.5503C39.1906 70.6299 39.7243 70.3231 40.5439 70.7833L89.2068 99.0471ZM68.8496 121.673C69.6502 122.134 70.203 121.827 70.203 120.906C70.1952 120.427 70.0671 119.958 69.8304 119.542C69.5938 119.127 69.2564 118.778 68.8496 118.529L51.2753 108.328C50.4557 107.848 49.922 108.174 49.9029 109.114C49.9135 109.587 50.0432 110.05 50.2799 110.459C50.5166 110.868 50.8525 111.21 51.2563 111.453L68.8496 121.673ZM68.8496 134.175C69.6502 134.655 70.203 134.329 70.203 133.389C70.2015 132.899 70.0722 132.418 69.828 131.994C69.5839 131.57 69.2333 131.218 68.8115 130.973L51.2372 120.753C50.4366 120.293 49.8839 120.6 49.8839 121.52C49.8878 121.998 50.0123 122.466 50.2457 122.882C50.4791 123.298 50.8137 123.648 51.2181 123.898L68.8115 134.099L68.8496 134.175ZM68.8115 109.171C69.6121 109.632 70.1648 109.325 70.1648 108.385C70.1641 107.919 70.0467 107.46 69.8236 107.051C69.6004 106.643 69.2786 106.297 68.8878 106.046L51.2944 95.8257C50.4938 95.3655 49.9411 95.6723 49.9411 96.6119C49.9516 97.0851 50.0813 97.5479 50.318 97.957C50.5547 98.3661 50.8906 98.7082 51.2944 98.9512L68.8878 109.171H68.8115ZM78.3039 127.138C79.1235 127.598 79.6572 127.292 79.6763 126.352C79.6654 125.876 79.5357 125.411 79.2992 124.999C79.0628 124.587 78.727 124.241 78.323 123.994L75.6163 122.421C74.7967 121.961 74.263 122.268 74.2439 123.207C74.2548 123.683 74.3845 124.149 74.621 124.561C74.8575 124.973 75.1932 125.318 75.5972 125.566L78.3039 127.138ZM78.3039 139.64C79.1045 140.101 79.6573 139.794 79.6573 138.854C79.6463 138.378 79.5167 137.913 79.2802 137.501C79.0437 137.089 78.708 136.743 78.3039 136.496L75.5972 134.923C74.7967 134.463 74.2439 134.77 74.2439 135.709C74.2475 136.185 74.372 136.651 74.6056 137.064C74.8392 137.476 75.174 137.822 75.5782 138.068L78.3039 139.64ZM78.3039 114.713C79.1045 115.173 79.6573 114.866 79.6573 113.927C79.656 113.454 79.5322 112.989 79.2983 112.579C79.0643 112.169 78.7282 111.827 78.323 111.587L75.5972 110.015C74.7967 109.536 74.2439 109.843 74.2439 110.782C74.2545 111.255 74.3842 111.718 74.6209 112.127C74.8575 112.536 75.1935 112.878 75.5972 113.121L78.3039 114.713Z" fill="#1E3440"/>
<g clip-path="url(#clip1_379_23312)">
<path d="M215 131.405V125.525C214.976 125.751 214.894 125.966 214.762 126.149C214.63 126.333 214.452 126.478 214.247 126.571V132.451C214.452 132.358 214.63 132.213 214.762 132.029C214.894 131.846 214.976 131.631 215 131.405Z" fill="#49A477"/>
<path d="M139.243 170.113V175.993L214.247 132.451L214.211 126.571L139.243 170.113Z" fill="#49A477"/>
<path d="M146.094 175.019L146.13 180.899V180.647V174.767L146.094 175.019Z" fill="#857CF8"/>
<path d="M144.659 176.101V181.981C144.92 181.914 145.173 181.817 145.412 181.693C145.732 181.515 145.985 181.236 146.13 180.899V175.019C146.013 175.362 145.769 175.646 145.448 175.813C145.197 175.94 144.933 176.037 144.659 176.101Z" fill="#49A477"/>
<path d="M111.587 184.976L111.623 190.892L144.659 181.981V176.101L111.587 184.976Z" fill="#49A477"/>
<path d="M108 183.641V189.521C108.02 189.747 108.101 189.964 108.234 190.148C108.366 190.332 108.546 190.477 108.753 190.567C109.642 191.014 110.664 191.117 111.623 190.856V184.976C110.663 185.233 109.643 185.131 108.753 184.687C108.546 184.597 108.366 184.452 108.234 184.268C108.101 184.084 108.02 183.867 108 183.641Z" fill="#49A477"/>
<path d="M124.106 163.367C123.901 163.461 123.727 163.611 123.604 163.8L108.215 183.028C107.785 183.569 107.964 184.254 108.717 184.687C109.607 185.131 110.627 185.233 111.587 184.976L144.659 176.101C144.92 176.034 145.173 175.937 145.412 175.813C145.733 175.646 145.977 175.362 146.094 175.019V174.767C146.081 174.543 146.007 174.327 145.881 174.143C145.754 173.958 145.58 173.812 145.377 173.72L139.207 170.113L214.175 126.571C214.386 126.491 214.568 126.348 214.697 126.161C214.825 125.974 214.894 125.752 214.894 125.525C214.894 125.298 214.825 125.076 214.697 124.889C214.568 124.702 214.386 124.559 214.175 124.479L212.417 123.433C211.86 123.153 211.246 123.008 210.624 123.008C210.001 123.008 209.387 123.153 208.83 123.433L133.862 166.975L127.693 163.367L126.975 163.078C126.017 162.8 124.99 162.903 124.106 163.367Z" fill="#5CC993"/>
</g>
</g>
<defs>
<clipPath id="clip0_379_23312">
<rect width="312" height="220" fill="white"/>
</clipPath>
<clipPath id="clip1_379_23312">
<rect width="107" height="68" fill="white" transform="translate(108 123)"/>
</clipPath>
</defs>
</svg>
