<svg width="312" height="220" viewBox="0 0 312 220" fill="none" xmlns="http://www.w3.org/2000/svg">
<g clip-path="url(#clip0_373_25232)">
<g opacity="0.32">
<line y1="-0.5" x2="220.239" y2="-0.5" transform="matrix(0.866025 -0.5 0.866025 0.5 -32.5609 143.075)" stroke="#4D708B"/>
<line y1="-0.5" x2="213.761" y2="-0.5" transform="matrix(0.866025 0.5 -0.866026 0.5 111.891 33.7649)" stroke="#4D708B"/>
<line y1="-0.5" x2="220.239" y2="-0.5" transform="matrix(0.866025 -0.5 0.866025 0.5 -4.51196 159.269)" stroke="#4D708B"/>
<line y1="-0.5" x2="213.761" y2="-0.5" transform="matrix(0.866025 0.5 -0.866026 0.5 83.842 49.9589)" stroke="#4D708B"/>
<line y1="-0.5" x2="220.239" y2="-0.5" transform="matrix(0.866025 -0.5 0.866025 0.5 23.5369 175.463)" stroke="#4D708B"/>
<line y1="-0.5" x2="213.761" y2="-0.5" transform="matrix(0.866025 0.5 -0.866026 0.5 55.7931 66.153)" stroke="#4D708B"/>
<line y1="-0.5" x2="220.239" y2="-0.5" transform="matrix(0.866025 -0.5 0.866025 0.5 51.5858 191.657)" stroke="#4D708B"/>
<line y1="-0.5" x2="213.761" y2="-0.5" transform="matrix(0.866025 0.5 -0.866026 0.5 27.7441 82.347)" stroke="#4D708B"/>
<line y1="-0.5" x2="220.239" y2="-0.5" transform="matrix(0.866025 -0.5 0.866025 0.5 79.6346 207.851)" stroke="#4D708B"/>
<line y1="-0.5" x2="213.761" y2="-0.5" transform="matrix(0.866025 0.5 -0.866026 0.5 -0.304688 98.541)" stroke="#4D708B"/>
<line y1="-0.5" x2="220.239" y2="-0.5" transform="matrix(0.866025 -0.5 0.866025 0.5 107.683 224.045)" stroke="#4D708B"/>
<line y1="-0.5" x2="213.761" y2="-0.5" transform="matrix(0.866025 0.5 -0.866026 0.5 -28.3535 114.735)" stroke="#4D708B"/>
</g>
<g clip-path="url(#clip1_373_25232)">
<path d="M191.174 87.9244L191.014 140.947C191.049 141.301 190.991 141.658 190.847 141.983C190.702 142.308 190.477 142.588 190.192 142.797L193.018 141.13C193.303 140.921 193.528 140.641 193.673 140.316C193.817 139.991 193.874 139.634 193.84 139.28L194 86.2573L191.174 87.9244Z" fill="#2C4656"/>
<path d="M142.872 36.3863C142.586 36.176 142.249 36.0464 141.897 36.0107C141.545 35.975 141.19 36.0344 140.868 36.183L138.042 37.8501C138.364 37.7016 138.719 37.6421 139.071 37.6778C139.423 37.7135 139.76 37.8431 140.046 38.0534L174.118 58.0384L176.944 56.3713L142.872 36.3863Z" fill="#2C4656"/>
<path d="M176.944 79.5889L191.174 87.9244L191.014 140.947C191.014 142.776 189.731 143.508 188.168 142.593L139.826 114.293C138.993 113.737 138.303 112.988 137.811 112.108C137.32 111.227 137.042 110.241 137 109.231L137.2 39.6189C137.2 37.7891 138.463 37.0572 140.046 37.9721L174.118 57.9571V74.5265C174.155 75.5382 174.431 76.526 174.923 77.407C175.415 78.2879 176.108 79.0362 176.944 79.5889ZM166.923 103.599V80.4021C166.899 79.9004 166.758 79.4117 166.51 78.9767C166.263 78.5417 165.916 78.173 165.5 77.9014L162.654 76.2343C161.872 75.7667 161.231 76.2343 161.231 77.0678V100.265C161.256 100.764 161.398 101.249 161.646 101.68C161.893 102.112 162.239 102.477 162.654 102.745L165.48 104.413C165.617 104.53 165.786 104.603 165.964 104.621C166.143 104.639 166.322 104.601 166.479 104.513C166.636 104.424 166.762 104.289 166.842 104.126C166.921 103.963 166.949 103.779 166.923 103.599ZM178.287 110.247V96.9919C178.26 96.4937 178.117 96.009 177.87 95.5778C177.623 95.1466 177.278 94.7812 176.864 94.5115L174.038 92.8444C173.236 92.3768 172.595 92.7427 172.595 93.6576V106.913C172.625 107.413 172.769 107.9 173.016 108.334C173.263 108.768 173.606 109.137 174.018 109.414L176.864 111.081C177.646 111.528 178.287 111.081 178.287 110.247ZM155.539 97.0325V90.4047C155.512 89.9065 155.369 89.4219 155.122 88.9907C154.875 88.5595 154.53 88.194 154.116 87.9244L151.29 86.2573C150.488 85.7897 149.867 86.2573 149.847 87.0705V93.6983C149.877 94.1984 150.021 94.6848 150.268 95.1188C150.515 95.5527 150.858 95.9225 151.27 96.1989L154.116 97.8457C154.898 98.3133 155.539 97.8457 155.539 97.0325Z" fill="#1E3440"/>
<path d="M174.178 58.0587L177.004 56.3916L194 86.2573L191.174 87.9244L174.178 58.0587Z" fill="#2C4656"/>
<path d="M174.098 58.0384L191.114 87.9243L176.884 79.5888C176.074 79.0456 175.4 78.3178 174.916 77.4636C174.433 76.6094 174.153 75.6524 174.098 74.6688V58.0384Z" fill="#2C4656"/>
<path d="M154.056 87.8227C154.47 88.0924 154.814 88.4578 155.062 88.889C155.309 89.3202 155.452 89.8049 155.479 90.3031V97.0325C155.479 97.9474 154.837 98.3133 154.056 97.8457L151.21 96.1989C150.798 95.9225 150.455 95.5527 150.208 95.1187C149.961 94.6848 149.817 94.1984 149.787 93.6982V87.0705C149.787 86.1556 150.428 85.7897 151.23 86.2573L154.056 87.8227Z" fill="#B5FBCE"/>
<path d="M165.56 77.9014C165.977 78.173 166.323 78.5417 166.571 78.9767C166.818 79.4117 166.96 79.9004 166.983 80.4021V103.599C167.009 103.779 166.981 103.963 166.902 104.126C166.822 104.289 166.696 104.424 166.539 104.513C166.382 104.601 166.203 104.639 166.024 104.621C165.846 104.603 165.677 104.53 165.54 104.413L162.714 102.745C162.299 102.477 161.954 102.112 161.706 101.68C161.458 101.249 161.316 100.764 161.291 100.265V77.0678C161.291 76.153 161.932 75.7667 162.714 76.2343L165.56 77.9014Z" fill="#65D58D"/>
<path d="M176.904 94.5115C177.318 94.7812 177.663 95.1466 177.91 95.5778C178.157 96.009 178.3 96.4937 178.327 96.9918V110.247C178.327 111.162 177.686 111.528 176.904 111.081L174.058 109.414C173.646 109.137 173.303 108.768 173.056 108.334C172.809 107.9 172.665 107.413 172.635 106.913V93.6576C172.635 92.7427 173.276 92.3768 174.078 92.8444L176.904 94.5115Z" fill="#B5FBCE"/>
</g>
<g clip-path="url(#clip2_373_25232)">
<path d="M102.848 104.555V108.073L83.0784 119.578V116.06L102.848 104.555Z" fill="#49A477"/>
<path d="M83.0783 116.06V119.557C74.5932 115.542 62.0809 115.822 54.2204 120.399C52.7829 121.113 51.5053 122.113 50.465 123.337C49.4248 124.562 48.6436 125.985 48.1688 127.522V124.003C48.6354 122.466 49.4111 121.041 50.4482 119.816C51.4852 118.591 52.7617 117.592 54.1988 116.88C58.6564 114.624 63.5555 113.38 68.5472 113.239C73.539 113.097 78.5005 114.06 83.0783 116.06Z" fill="#49A477"/>
<path d="M48.1688 124.025V127.543L20.1508 126.939V123.42L48.1688 124.025Z" fill="#49A477"/>
<path d="M102.848 104.555L83.0783 116.06C78.5019 114.067 73.5434 113.109 68.5557 113.254C63.5679 113.4 58.6735 114.645 54.2204 116.902C52.7832 117.613 51.5068 118.612 50.4697 119.838C49.4326 121.063 48.6569 122.488 48.1904 124.025L20.1938 123.42C21.0553 116.945 25.7931 110.469 34.3859 105.418C53.1221 94.4961 83.466 94.1939 102.848 104.555Z" fill="#5CC993"/>
<path d="M91.0466 125.816V129.335C90.9487 127.704 90.4514 126.122 89.5988 124.729C88.7462 123.336 87.5645 122.175 86.158 121.348V117.83C87.5595 118.662 88.7372 119.825 89.5891 121.216C90.441 122.608 90.9413 124.187 91.0466 125.816Z" fill="#2B694A"/>
<path d="M119 125.881V129.4C119 136.328 114.693 143.257 106.078 148.697V145.178C114.693 139.739 118.978 132.81 119 125.881Z" fill="#2B694A"/>
<path d="M105.906 106.325C123.286 117.269 123.393 134.213 106.122 145.178L86.2225 133.652C92.6833 129.076 92.6833 122.427 86.2225 117.83L105.906 106.325Z" fill="#49A477"/>
<path d="M106.122 145.178L106.1 148.697L86.2225 137.17V133.652L106.122 145.178Z" fill="#2B694A"/>
<path d="M103.085 146.948C83.7028 157.288 53.5527 156.986 34.6012 146.085C24.9962 140.516 20.1292 133.134 20.0215 125.924L48.018 126.55C48.353 128.307 49.0997 129.96 50.1968 131.371C51.2939 132.782 52.7099 133.911 54.328 134.666C58.7797 136.927 63.6746 138.175 68.6631 138.321C73.6516 138.466 78.6106 137.506 83.1859 135.508L103.085 146.948Z" fill="#B5FBCE"/>
<path d="M103.085 146.948V150.467C83.7029 160.806 53.5528 160.504 34.5797 149.603C24.9963 144.034 20.1292 136.76 20 129.443V126.032C20 133.35 24.9748 140.624 34.5797 146.193C53.4666 156.986 83.7459 157.288 103.085 146.948Z" fill="#76BA8E"/>
</g>
</g>
<defs>
<clipPath id="clip0_373_25232">
<rect width="312" height="220" fill="white"/>
</clipPath>
<clipPath id="clip1_373_25232">
<rect width="57" height="107" fill="white" transform="translate(137 36)"/>
</clipPath>
<clipPath id="clip2_373_25232">
<rect width="99" height="61" fill="white" transform="translate(20 97)"/>
</clipPath>
</defs>
</svg>
